<svg width="1000" height="500" viewBox="0 0 1000 500" fill="none" xmlns="http://www.w3.org/2000/svg">
<g id="F1912&#9;JELO">
<path id="Union" fill-rule="evenodd" clip-rule="evenodd" d="M499.547 23.5C520.258 23.5 537.047 40.2893 537.047 61V92.7535C559.997 102.54 578.377 121.036 588.076 144.114H620.161C640.872 144.114 657.661 160.904 657.661 181.614C657.661 202.325 640.872 219.114 620.161 219.114H588.076C581.778 234.1 571.82 247.153 559.328 257.145L653.571 420.321C660.27 431.923 660.27 446.218 653.571 457.821C646.872 469.423 634.492 476.571 621.095 476.571H378C364.603 476.571 352.223 469.423 345.524 457.821C338.825 446.218 338.825 431.923 345.524 420.321L439.744 257.127C427.262 247.138 417.312 234.091 411.018 219.114H378.934C358.223 219.114 341.434 202.325 341.434 181.614C341.434 160.904 358.223 144.114 378.934 144.114H411.018C420.717 121.036 439.096 102.54 462.047 92.7534V61C462.047 40.2893 478.836 23.5 499.547 23.5ZM499.547 203.106C510.852 203.106 520.599 193.806 520.599 181.614C520.599 169.423 510.852 160.123 499.547 160.123C488.242 160.123 478.494 169.423 478.494 181.614C478.494 193.806 488.242 203.106 499.547 203.106ZM556.143 401.571H442.952L499.547 303.545L556.143 401.571Z" fill="black"/>
</g>
</svg>
