<svg width="1000" height="1000" viewBox="0 0 1000 1000" fill="none" xmlns="http://www.w3.org/2000/svg">
<g id="F190F&#9;INSA">
<rect width="1000" height="1000" fill="white"/>
<g id="Vector">
<path d="M575 425C575 466.421 541.421 500 500 500C458.579 500 425 466.421 425 425C425 383.579 458.579 350 500 350C541.421 350 575 383.579 575 425Z" fill="black"/>
<path fill-rule="evenodd" clip-rule="evenodd" d="M200 300C227.614 300 250 322.386 250 350V600H750V350C750 322.386 772.386 300 800 300C827.614 300 850 322.386 850 350V650C850 677.614 827.614 700 800 700H200C172.386 700 150 677.614 150 650V350C150 322.386 172.386 300 200 300Z" fill="black"/>
</g>
</g>
</svg>
