<svg width="1000" height="1000" viewBox="0 0 1000 1000" fill="none" xmlns="http://www.w3.org/2000/svg">
<g id="F1908&#9;AWEN">
<rect width="1000" height="1000" fill="white"/>
<path id="Vector 126 (Stroke)" d="M547.088 133.183C539.981 113.284 521.131 100 500.001 100C478.87 100 460.021 113.284 452.914 133.183L215.001 799.338C183.378 797.587 158.803 791.264 132.926 768.621C112.144 750.437 80.5559 752.543 62.3718 773.325C44.1877 794.107 46.2936 825.695 67.0755 843.879C131.263 900.043 197.708 900.019 247.363 900.001L248.663 900L250.001 900C271.131 900 289.981 886.716 297.088 866.817L500.001 298.661L702.914 866.817C710.021 886.716 728.87 900 750.001 900C750.875 900 751.754 900 752.639 900.001C802.294 900.019 868.739 900.043 932.926 843.879C953.708 825.695 955.814 794.106 937.629 773.325C919.445 752.543 887.857 750.437 867.075 768.621C841.198 791.264 816.624 797.587 785 799.338L547.088 133.183Z" fill="black"/>
</g>
</svg>
