<svg width="1000" height="1000" viewBox="0 0 1000 1000" fill="none" xmlns="http://www.w3.org/2000/svg">
<g id="F191B&#9;KIWEN">
<rect width="1000" height="1000" fill="white"/>
<path id="Polygon 2 (Stroke)" fill-rule="evenodd" clip-rule="evenodd" d="M499.94 930C484.252 929.999 469.475 922.636 460.028 910.112L60.0844 379.964C47.3031 363.021 46.6099 339.856 58.3553 322.18L211.085 92.3284C220.352 78.3819 235.985 70.0001 252.729 70.0001L747.157 70.0001C763.895 70.0001 779.523 78.3759 788.792 92.3141L941.635 322.166C953.391 339.845 952.7 363.022 939.911 379.969L539.855 910.118C530.405 922.64 515.627 930.001 499.94 930ZM838.74 348.025L720.36 170L279.538 170L161.25 348.019L499.949 796.985L838.74 348.025Z" fill="black"/>
</g>
</svg>
