<svg width="1000" height="1000" viewBox="0 0 1000 1000" fill="none" xmlns="http://www.w3.org/2000/svg">
<g id="F1916&#9;KAMA">
<rect width="1000" height="1000" fill="white"/>
<path id="Vector 127 (Stroke)" d="M157.009 724.089C211.4 769.415 268.196 793.141 340.225 798.707L577.912 133.183C584.882 113.667 603.169 100.474 623.887 100.012C644.605 99.5514 663.46 111.919 671.292 131.105L921.292 743.605C928.097 760.277 925.411 779.321 914.261 793.461L914.18 793.562L914.093 793.672L914.034 793.747C913.99 793.801 913.945 793.857 913.897 793.917C913.758 794.09 913.6 794.285 913.423 794.5C913.069 794.93 912.641 795.442 912.136 796.031C911.127 797.208 909.812 798.691 908.179 800.434C904.915 803.92 900.376 808.453 894.471 813.664C882.654 824.091 865.373 837.223 841.923 850.087C794.717 875.984 723.951 900 624.999 900C597.385 900 574.999 877.614 574.999 850C574.999 822.386 597.385 800 624.999 800C707.048 800 761.282 780.266 793.826 762.413C802.4 757.71 809.572 753.079 815.434 748.876L628.114 289.941L422.086 866.817C414.979 886.717 396.13 900 374.999 900C264.072 900 174.964 869.222 92.9902 800.911C71.7764 783.233 68.9102 751.705 86.5884 730.491C104.267 709.277 135.795 706.411 157.009 724.089Z" fill="black"/>
</g>
</svg>
