<svg width="1000" height="1000" viewBox="0 0 1000 1000" fill="none" xmlns="http://www.w3.org/2000/svg">
<g id="F191D&#9;KON">
<rect width="1000" height="1000" fill="white"/>
<g id="Vector">
<path fill-rule="evenodd" clip-rule="evenodd" d="M738.639 468.182L739.732 469.557C741.219 471.426 742.713 473.302 744.212 475.185C805.214 551.784 875.395 639.911 840.857 768.28C824.24 830.042 795.043 871.296 755.095 899.322C719.099 924.576 677.024 936.734 641.504 946.999C640.371 947.326 639.245 947.652 638.125 947.976L637.941 948.029C611.415 955.706 583.688 940.426 576.012 913.9C568.335 887.374 583.615 859.648 610.141 851.971L610.325 851.918C650.054 840.42 676.616 832.225 697.664 817.459C715.908 804.659 732.917 784.573 744.291 742.298C764.777 666.16 728.666 616.3 661.465 531.801L660.372 530.427C658.874 528.543 657.37 526.654 655.862 524.76C593.519 446.471 524.723 360.078 559.259 231.719C575.811 170.198 604.845 128.224 644.747 99.7394C682.436 72.8353 726.149 60.9308 763.862 51.4951C790.65 44.7927 817.8 61.0756 824.503 87.8641C831.205 114.653 814.922 141.802 788.133 148.505C749.906 158.069 723.399 166.459 702.848 181.129C684.511 194.219 667.286 215.1 655.825 257.701C635.323 333.9 670.146 382.059 738.639 468.182Z" fill="black"/>
<path fill-rule="evenodd" clip-rule="evenodd" d="M338.639 468.182L339.732 469.557C341.219 471.426 342.713 473.302 344.212 475.185C405.213 551.784 475.395 639.911 440.857 768.28C424.24 830.042 395.043 871.296 355.095 899.322C319.099 924.576 277.024 936.734 241.504 946.999C240.371 947.326 239.245 947.652 238.125 947.976L237.941 948.029C211.415 955.706 183.688 940.426 176.012 913.9C168.335 887.374 183.615 859.648 210.141 851.971L210.325 851.918C250.054 840.42 276.616 832.225 297.663 817.459C315.908 804.659 332.917 784.573 344.291 742.298C364.777 666.16 328.666 616.3 261.465 531.801L260.372 530.427C258.874 528.543 257.37 526.654 255.862 524.76C193.519 446.471 124.723 360.078 159.259 231.719C175.811 170.198 204.845 128.224 244.747 99.7394C282.436 72.8353 326.149 60.9308 363.862 51.4951C390.65 44.7927 417.8 61.0756 424.502 87.8641C431.205 114.653 414.922 141.802 388.133 148.505C349.906 158.069 323.399 166.459 302.848 181.129C284.511 194.219 267.286 215.1 255.825 257.701C235.323 333.9 270.146 382.059 338.639 468.182Z" fill="black"/>
</g>
</g>
</svg>
