<svg width="1000" height="1000" viewBox="0 0 1000 1000" fill="none" xmlns="http://www.w3.org/2000/svg">
<g id="F193C&#9;MUTE">
<rect width="1000" height="1000" fill="white"/>
<g id="Vector">
<path fill-rule="evenodd" clip-rule="evenodd" d="M500 940C472.386 940 450 917.614 450 890L450 110C450 82.3857 472.386 60 500 60C527.614 60 550 82.3857 550 110L550 890C550 917.614 527.614 940 500 940Z" fill="black"/>
<path fill-rule="evenodd" clip-rule="evenodd" d="M250 950C222.386 950 200 927.614 200 900V100C200 72.3858 222.386 50 250 50C277.614 50 300 72.3858 300 100V900C300 927.614 277.614 950 250 950Z" fill="black"/>
<path fill-rule="evenodd" clip-rule="evenodd" d="M750 950C722.386 950 700 927.614 700 900V100C700 72.3858 722.386 50 750 50C777.614 50 800 72.3858 800 100V900C800 927.614 777.614 950 750 950Z" fill="black"/>
</g>
</g>
</svg>
