<svg width="1000" height="1000" viewBox="0 0 1000 1000" fill="none" xmlns="http://www.w3.org/2000/svg">
<g id="F1936&#9;MOKU">
<rect width="1000" height="1000" fill="white"/>
<g id="Vector">
<path fill-rule="evenodd" clip-rule="evenodd" d="M233.672 671.569C285.695 570.666 392.986 500 519.999 500C699.749 500 840 641.529 840 810V900C840 927.614 817.614 950 790 950C762.385 950 740 927.614 740 900V810C740 698.471 646.25 600 519.999 600C393.749 600 299.999 698.471 299.999 810V900C299.999 924.81 281.807 945.867 257.26 949.47C232.713 953.073 209.237 938.131 202.108 914.367L112.108 614.367C104.173 587.918 119.182 560.044 145.632 552.109C172.082 544.174 199.956 559.183 207.891 585.633L233.672 671.569Z" fill="black"/>
<path fill-rule="evenodd" clip-rule="evenodd" d="M169.999 100C169.999 72.3858 192.385 50 219.999 50H820C847.614 50 870 72.3858 870 100C870 293.3 713.299 450 519.999 450C326.7 450 169.999 293.3 169.999 100ZM275 150C298.164 264.112 399.052 350 519.999 350C640.947 350 741.835 264.112 764.999 150H275Z" fill="black"/>
</g>
</g>
</svg>
