<svg width="1000" height="1000" viewBox="0 0 1000 1000" fill="none" xmlns="http://www.w3.org/2000/svg">
<g id="F194C&#9;PANA">
<rect width="1000" height="1000" fill="white"/>
<g id="Vector">
<path fill-rule="evenodd" clip-rule="evenodd" d="M583.908 450C472.799 450 382.814 539.966 382.814 650.836V900C382.814 922.64 367.601 942.455 345.729 948.303C323.857 954.151 300.785 944.573 289.486 924.953L121.672 633.565C107.891 609.636 116.118 579.065 140.047 565.284C163.977 551.503 194.548 559.729 208.329 583.659L282.814 712.994V650.836C282.814 484.641 417.667 350 583.908 350C750.148 350 885.001 484.641 885.001 650.836V900C885.001 927.614 862.615 950 835.001 950C807.386 950 785.001 927.614 785.001 900V650.836C785.001 539.966 695.016 450 583.908 450Z" fill="black"/>
<path fill-rule="evenodd" clip-rule="evenodd" d="M584.501 50C612.115 50 634.501 72.3858 634.501 100V200C634.501 227.614 612.115 250 584.501 250C556.886 250 534.501 227.614 534.501 200V100C534.501 72.3858 556.886 50 584.501 50Z" fill="black"/>
<path fill-rule="evenodd" clip-rule="evenodd" d="M318.646 123.32C342.35 109.153 372.469 117.219 385.919 141.336L434.219 227.939C447.67 252.056 439.358 283.091 415.655 297.258C391.952 311.424 361.832 303.358 348.382 279.241L300.082 192.639C286.631 168.522 294.943 137.486 318.646 123.32Z" fill="black"/>
<path fill-rule="evenodd" clip-rule="evenodd" d="M850.355 123.32C874.058 137.486 882.37 168.522 868.919 192.639L820.619 279.241C807.169 303.358 777.05 311.424 753.346 297.258C729.643 283.091 721.331 252.056 734.782 227.939L783.082 141.336C796.532 117.219 826.652 109.153 850.355 123.32Z" fill="black"/>
</g>
</g>
</svg>
