<svg width="1000" height="1000" viewBox="0 0 1000 1000" fill="none" xmlns="http://www.w3.org/2000/svg">
<g id="F1949&#9;PALI">
<rect width="1000" height="1000" fill="white"/>
<path id="Union" fill-rule="evenodd" clip-rule="evenodd" d="M710.63 544.546C777.066 494.346 820 414.687 820 325C820 173.122 696.878 50 545 50C393.122 50 270 173.122 270 325C270 414.687 312.934 494.346 379.37 544.545C327.562 574.973 285.673 619.198 258.672 671.569L232.891 585.633C224.956 559.183 197.082 544.174 170.632 552.109C144.182 560.044 129.173 587.918 137.108 614.367L227.108 914.367C234.237 938.131 257.713 953.073 282.26 949.47C306.807 945.867 324.999 924.81 324.999 900V810C324.999 698.471 418.749 600 544.999 600C671.25 600 765 698.471 765 810V900C765 927.614 787.385 950 815 950C842.614 950 865 927.614 865 900V810C865 698.787 803.882 599.314 710.63 544.546ZM545 500C641.65 500 720 421.65 720 325C720 228.35 641.65 150 545 150C448.35 150 370 228.35 370 325C370 421.65 448.35 500 545 500Z" fill="black"/>
</g>
</svg>
