<svg width="1000" height="1000" viewBox="0 0 1000 1000" fill="none" xmlns="http://www.w3.org/2000/svg">
<g id="F1958&#9;SELO">
<rect width="1000" height="1000" fill="white"/>
<path id="Union" d="M200 700C200 727.614 177.614 750 150 750C122.386 750 100 727.614 100 700V300C100 272.386 122.386 250 150 250H850C877.614 250 900 272.386 900 300V700C900 727.614 877.614 750 850 750C822.386 750 800 727.614 800 700V350H750V650C750 677.614 727.614 700 700 700C672.386 700 650 677.614 650 650V350H350V650C350 677.614 327.614 700 300 700C272.386 700 250 677.614 250 650V350H200V700Z" fill="black"/>
</g>
</svg>
