<svg width="1000" height="1000" viewBox="0 0 1000 1000" fill="none" xmlns="http://www.w3.org/2000/svg">
<g id="F196A&#9;TELO">
<rect width="1000" height="1000" fill="white"/>
<g id="Vector">
<path fill-rule="evenodd" clip-rule="evenodd" d="M468.182 738.639L469.557 739.732C471.426 741.219 473.303 742.713 475.186 744.212C551.784 805.214 639.911 875.395 768.28 840.857C830.042 824.24 871.296 795.043 899.322 755.095C924.576 719.099 936.735 677.024 946.999 641.504C947.326 640.371 947.652 639.245 947.976 638.125L948.029 637.941C955.706 611.415 940.426 583.688 913.9 576.012C887.374 568.335 859.648 583.615 851.971 610.141L851.918 610.325C840.42 650.054 832.225 676.616 817.459 697.664C804.659 715.908 784.573 732.917 742.299 744.291C666.16 764.777 616.3 728.666 531.801 661.465L530.427 660.372C528.543 658.874 526.654 657.37 524.76 655.862C446.471 593.519 360.078 524.723 231.719 559.259C170.199 575.811 128.224 604.845 99.7396 644.747C72.8354 682.436 60.9309 726.149 51.4952 763.862C44.7928 790.65 61.0757 817.8 87.8643 824.503C114.653 831.205 141.803 814.922 148.505 788.133C158.069 749.906 166.459 723.399 181.13 702.848C194.219 684.511 215.1 667.286 257.701 655.825C333.9 635.323 382.059 670.146 468.182 738.639Z" fill="black"/>
<path fill-rule="evenodd" clip-rule="evenodd" d="M468.182 338.639L469.557 339.732C471.426 341.219 473.303 342.713 475.186 344.212C551.784 405.213 639.911 475.395 768.28 440.857C830.042 424.24 871.296 395.043 899.322 355.095C924.576 319.099 936.735 277.024 946.999 241.504C947.326 240.371 947.652 239.245 947.976 238.125L948.029 237.941C955.706 211.415 940.426 183.688 913.9 176.012C887.374 168.335 859.648 183.615 851.971 210.141L851.918 210.325C840.42 250.054 832.225 276.616 817.459 297.663C804.659 315.908 784.573 332.917 742.299 344.291C666.16 364.777 616.3 328.666 531.801 261.465L530.427 260.372C528.543 258.874 526.654 257.37 524.76 255.862C446.471 193.519 360.078 124.723 231.719 159.259C170.199 175.811 128.224 204.845 99.7396 244.747C72.8354 282.436 60.9309 326.149 51.4952 363.862C44.7928 390.65 61.0757 417.8 87.8643 424.502C114.653 431.205 141.803 414.922 148.505 388.133C158.069 349.906 166.459 323.399 181.13 302.848C194.219 284.511 215.1 267.286 257.701 255.825C333.9 235.323 382.059 270.146 468.182 338.639Z" fill="black"/>
</g>
</g>
</svg>
