<svg width="1000" height="1000" viewBox="0 0 1000 1000" fill="none" xmlns="http://www.w3.org/2000/svg">
<g id="F1969&#9;TAWA">
<rect width="1000" height="1000" fill="white"/>
<path id="Vector 127 (Stroke)" d="M842.991 724.089C788.6 769.415 731.804 793.141 659.775 798.707L422.088 133.183C415.118 113.667 396.831 100.474 376.113 100.012C355.395 99.5514 336.54 111.919 328.708 131.105L78.7081 743.605C71.9032 760.277 74.5889 779.321 85.7392 793.461L85.8197 793.562L85.9072 793.672L85.9664 793.747C86.0097 793.801 86.0552 793.857 86.1028 793.917C86.2424 794.09 86.4005 794.285 86.5773 794.5C86.9309 794.93 87.3593 795.442 87.8639 796.031C88.8732 797.208 90.1882 798.691 91.8207 800.434C95.085 803.92 99.6236 808.453 105.529 813.664C117.346 824.091 134.627 837.223 158.077 850.087C205.283 875.984 276.049 900 375.001 900C402.615 900 425.001 877.614 425.001 850C425.001 822.386 402.615 800 375.001 800C292.952 800 238.718 780.266 206.174 762.413C197.6 757.71 190.428 753.079 184.566 748.876L371.886 289.941L577.914 866.817C585.021 886.717 603.87 900 625.001 900C735.928 900 825.036 869.222 907.01 800.911C928.224 783.233 931.09 751.705 913.412 730.491C895.733 709.277 864.205 706.411 842.991 724.089Z" fill="black"/>
</g>
</svg>
