<svg width="1000" height="1000" viewBox="0 0 1000 1000" fill="none" xmlns="http://www.w3.org/2000/svg">
<g id="F1961&#9;SONA">
<rect width="1000" height="1000" fill="white"/>
<g id="Vector">
<path fill-rule="evenodd" clip-rule="evenodd" d="M200.001 400C200.001 372.386 222.386 350 250.001 350H750.001C777.615 350 800.001 372.386 800.001 400V900C800.001 927.614 777.615 950 750.001 950H250.001C222.386 950 200.001 927.614 200.001 900V400ZM300.001 450V850H700.001V450H300.001Z" fill="black"/>
<path fill-rule="evenodd" clip-rule="evenodd" d="M500.001 50C527.615 50 550.001 72.3858 550.001 100V200C550.001 227.614 527.615 250 500.001 250C472.386 250 450.001 227.614 450.001 200V100C450.001 72.3858 472.386 50 500.001 50Z" fill="black"/>
<path fill-rule="evenodd" clip-rule="evenodd" d="M225.001 123.686C248.915 109.879 279.495 118.073 293.302 141.987L343.302 228.59C357.109 252.504 348.915 283.084 325.001 296.891C301.086 310.698 270.506 302.504 256.699 278.59L206.699 191.987C192.892 168.073 201.086 137.493 225.001 123.686Z" fill="black"/>
<path fill-rule="evenodd" clip-rule="evenodd" d="M775.001 123.686C798.915 137.493 807.109 168.073 793.302 191.987L743.302 278.59C729.495 302.504 698.915 310.698 675.001 296.891C651.086 283.084 642.892 252.504 656.699 228.59L706.699 141.987C720.506 118.073 751.086 109.879 775.001 123.686Z" fill="black"/>
</g>
</g>
</svg>
