<svg width="1000" height="1000" viewBox="0 0 1000 1000" fill="none" xmlns="http://www.w3.org/2000/svg">
<g id="F1982&#9;MESO">
<rect width="1000" height="1000" fill="white"/>
<g id="Vector">
<path fill-rule="evenodd" clip-rule="evenodd" d="M200 50C227.614 50 250 72.3858 250 100V900C250 927.614 227.614 950 200 950C172.386 950 150 927.614 150 900V100C150 72.3858 172.386 50 200 50Z" fill="black"/>
<path fill-rule="evenodd" clip-rule="evenodd" d="M800 50C827.614 50 850 72.3858 850 100V900C850 927.614 827.614 950 800 950C772.386 950 750 927.614 750 900V100C750 72.3858 772.386 50 800 50Z" fill="black"/>
<path d="M575 500C575 541.421 541.421 575 500 575C458.579 575 425 541.421 425 500C425 458.579 458.579 425 500 425C541.421 425 575 458.579 575 500Z" fill="black"/>
</g>
</g>
</svg>
