<svg width="1000" height="500" viewBox="0 0 1000 500" fill="none" xmlns="http://www.w3.org/2000/svg">
<g id="F190F&#9;INSA">
<rect width="1000" height="500" fill="white"/>
<g id="Vector">
<path fill-rule="evenodd" clip-rule="evenodd" d="M300 112.5C320.711 112.5 337.5 129.289 337.5 150V312.5H662.5V150C662.5 129.289 679.289 112.5 700 112.5C720.711 112.5 737.5 129.289 737.5 150V350C737.5 370.711 720.711 387.5 700 387.5H300C279.289 387.5 262.5 370.711 262.5 350V150C262.5 129.289 279.289 112.5 300 112.5Z" fill="black"/>
<path d="M550 200C550 227.614 527.614 250 500 250C472.386 250 450 227.614 450 200C450 172.386 472.386 150 500 150C527.614 150 550 172.386 550 200Z" fill="black"/>
</g>
</g>
</svg>
