<svg width="1000" height="500" viewBox="0 0 1000 500" fill="none" xmlns="http://www.w3.org/2000/svg">
<g id="F1908&#9;AWEN">
<rect width="1000" height="500" fill="white"/>
<path id="Vector 126 (Stroke)" d="M535.5 80.3895C530.17 65.4648 515.849 55.5 500.001 55.5C484.152 55.5 470.015 65.4626 464.685 80.3874L361.652 368.881C355.199 367.476 350.163 364.876 344.694 360.091C329.108 346.453 305.417 348.032 291.779 363.619C278.141 379.205 279.72 402.896 295.307 416.534C328.467 445.55 363.296 445.52 385.817 445.501C386.386 445.5 386.947 445.5 387.501 445.5C403.349 445.5 417.486 435.537 422.816 420.613L500.001 204.496L577.185 420.613C582.515 435.537 596.652 445.5 612.501 445.5C613.054 445.5 613.615 445.5 614.184 445.501C636.705 445.52 671.534 445.55 704.694 416.534C720.281 402.896 721.86 379.205 708.222 363.618C694.584 348.032 670.893 346.453 655.307 360.091C649.837 364.876 644.802 367.476 638.349 368.881L535.5 80.3895Z" fill="black"/>
</g>
</svg>
