<svg width="1000" height="500" viewBox="0 0 1000 500" fill="none" xmlns="http://www.w3.org/2000/svg">
<g id="F1916&#9;KAMA">
<rect width="1000" height="500" fill="white"/>
<path id="Vector 127 (Stroke)" d="M344.007 347.192C365.245 364.89 387.082 375.079 414.169 378.831L524.683 69.3905C529.911 54.7535 543.627 44.8551 559.165 44.5093C574.704 44.1636 588.845 53.439 594.719 67.8289L714.719 361.829C719.823 374.333 717.808 388.616 709.446 399.22L709.386 399.296L709.323 399.375C709.28 399.429 709.234 399.486 709.187 399.545C709.091 399.664 708.986 399.793 708.872 399.932C708.644 400.21 708.378 400.528 708.073 400.883C707.465 401.592 706.702 402.451 705.78 403.435C703.937 405.404 701.452 407.881 698.278 410.682C691.925 416.287 682.82 423.183 670.616 429.878C645.978 443.394 609.778 455.5 560 455.5C539.289 455.5 522.5 438.711 522.5 418C522.5 397.289 539.289 380.5 560 380.5C597.101 380.5 620.902 371.606 634.543 364.122L634.629 364.075L562.335 186.956L475.315 430.613C469.985 445.537 455.848 455.5 440 455.5C383.804 455.5 337.921 439.749 295.993 404.808C280.082 391.55 277.933 367.904 291.191 351.993C304.45 336.083 328.096 333.933 344.007 347.192Z" fill="black"/>
</g>
</svg>
