<svg width="1000" height="500" viewBox="0 0 1000 500" fill="none" xmlns="http://www.w3.org/2000/svg">
<g id="F191B&#9;KIWEN">
<rect width="1000" height="500" fill="white"/>
<path id="Polygon 2 (Stroke)" fill-rule="evenodd" clip-rule="evenodd" d="M499.975 447.5C488.209 447.499 477.126 441.977 470.041 432.584L310.063 220.525C300.477 207.818 299.957 190.444 308.766 177.187L369.858 85.2462C376.809 74.7864 388.533 68.5 401.092 68.5L598.863 68.5C611.417 68.5 623.138 74.7819 630.089 85.2355L691.226 177.176C700.044 190.436 699.525 207.818 689.934 220.529L529.911 432.588C522.824 441.98 511.74 447.501 499.975 447.5ZM614.055 196.57L578.765 143.5L421.198 143.5L385.937 196.566L499.981 347.739L614.055 196.57Z" fill="black"/>
</g>
</svg>
