<svg width="1000" height="500" viewBox="0 0 1000 500" fill="none" xmlns="http://www.w3.org/2000/svg">
<g id="F191D&#9;KON">
<rect width="1000" height="500" fill="white"/>
<g id="Vector">
<path fill-rule="evenodd" clip-rule="evenodd" d="M619.128 226.345L619.62 226.964C620.542 228.123 621.478 229.296 622.425 230.483C649.329 264.201 685.414 309.425 667.872 374.623C659.607 405.339 644.641 427.079 623.409 441.975C605.108 454.814 584.01 460.898 568.412 465.396C567.706 465.6 567.01 465.8 566.327 465.998L566.244 466.022C546.35 471.779 525.555 460.319 519.798 440.425C514.04 420.531 525.5 399.736 545.394 393.978L545.477 393.954C563.884 388.627 573.278 385.528 580.335 380.577C585.289 377.101 591.115 371.238 595.447 355.137C602.431 329.183 591.946 312.659 560.921 273.647L560.429 273.029C559.497 271.857 558.552 270.673 557.599 269.478C530.1 235.008 494.644 190.563 512.183 125.376C520.395 94.8542 535.231 72.8017 556.422 57.6744C575.953 43.7324 598.205 37.8482 615.098 33.6215C635.189 28.5946 655.552 40.8068 660.579 60.8982C665.605 80.9895 653.393 101.352 633.302 106.379C616.023 110.702 606.675 113.95 599.998 118.717C594.981 122.298 589.001 128.53 584.607 144.863C577.612 170.863 587.553 186.642 619.128 226.345Z" fill="black"/>
<path fill-rule="evenodd" clip-rule="evenodd" d="M439.128 226.345L439.62 226.964C440.542 228.123 441.478 229.296 442.425 230.483C469.329 264.201 505.414 309.425 487.872 374.623C479.607 405.339 464.641 427.079 443.409 441.975C425.108 454.814 404.01 460.898 388.412 465.396C387.706 465.6 387.01 465.8 386.327 465.998L386.244 466.022C366.35 471.779 345.555 460.319 339.798 440.425C334.04 420.531 345.5 399.736 365.394 393.978L365.477 393.954C383.884 388.627 393.278 385.528 400.335 380.577C405.289 377.101 411.115 371.238 415.447 355.137C422.431 329.183 411.946 312.659 380.921 273.647L380.429 273.029C379.497 271.857 378.552 270.673 377.599 269.478C350.1 235.008 314.644 190.563 332.183 125.376C340.395 94.8542 355.231 72.8017 376.422 57.6744C395.953 43.7324 418.205 37.8482 435.098 33.6215C455.189 28.5946 475.552 40.8068 480.579 60.8982C485.606 80.9895 473.393 101.352 453.302 106.379C436.023 110.702 426.675 113.95 419.998 118.717C414.981 122.298 409.001 128.53 404.607 144.863C397.612 170.863 407.553 186.642 439.128 226.345Z" fill="black"/>
</g>
</g>
</svg>
