<svg width="1000" height="500" viewBox="0 0 1000 500" fill="none" xmlns="http://www.w3.org/2000/svg">
<g id="F193A&#9;MUN">
<rect width="1000" height="500" fill="white"/>
<path id="Subtract (Stroke)" fill-rule="evenodd" clip-rule="evenodd" d="M488.643 111.254C525.231 146.177 548.023 195.424 548.023 250C548.023 304.576 525.231 353.823 488.643 388.746C551.616 373.991 598.509 317.472 598.509 250C598.509 182.528 551.616 126.009 488.643 111.254ZM343.597 63.7705C376.429 43.917 414.943 32.5 456.009 32.5C576.131 32.5 673.509 129.878 673.509 250C673.509 370.122 576.131 467.5 456.009 467.5C414.943 467.5 376.429 456.083 343.597 436.229C329.45 427.675 322.574 410.865 326.67 394.849C330.766 378.832 344.868 367.387 361.385 366.675C423.48 363.996 473.023 312.774 473.023 250C473.023 187.226 423.48 136.004 361.385 133.325C344.868 132.613 330.766 121.168 326.67 105.151C322.574 89.1346 329.45 72.325 343.597 63.7705Z" fill="black"/>
</g>
</svg>
