<svg width="1000" height="500" viewBox="0 0 1000 500" fill="none" xmlns="http://www.w3.org/2000/svg">
<g id="F193C&#9;MUTE">
<rect width="1000" height="500" fill="white"/>
<g id="Vector">
<path fill-rule="evenodd" clip-rule="evenodd" d="M500.5 463C479.789 463 463 446.211 463 425.5L463 74.5C463 53.7893 479.789 37 500.5 37C521.211 37 538 53.7893 538 74.5L538 425.5C538 446.211 521.211 463 500.5 463Z" fill="black"/>
<path fill-rule="evenodd" clip-rule="evenodd" d="M350 467.5C329.289 467.5 312.5 450.711 312.5 430V70C312.5 49.2893 329.289 32.5 350 32.5C370.711 32.5 387.5 49.2893 387.5 70V430C387.5 450.711 370.711 467.5 350 467.5Z" fill="black"/>
<path fill-rule="evenodd" clip-rule="evenodd" d="M650 467.5C629.289 467.5 612.5 450.711 612.5 430V70C612.5 49.2893 629.289 32.5 650 32.5C670.711 32.5 687.5 49.2893 687.5 70V430C687.5 450.711 670.711 467.5 650 467.5Z" fill="black"/>
</g>
</g>
</svg>
