<svg width="1000" height="500" viewBox="0 0 1000 500" fill="none" xmlns="http://www.w3.org/2000/svg">
<g id="F1937&#9;MOLI">
<rect width="1000" height="500" fill="white"/>
<g id="Union">
<path d="M361.322 197.322C371.085 187.559 386.915 187.559 396.678 197.322L416.5 217.145L436.322 197.322C446.085 187.559 461.915 187.559 471.678 197.322C481.441 207.085 481.441 222.915 471.678 232.678L451.855 252.5L471.678 272.322C481.441 282.085 481.441 297.915 471.678 307.678C461.915 317.441 446.085 317.441 436.322 307.678L416.5 287.855L396.678 307.678C386.915 317.441 371.085 317.441 361.322 307.678C351.559 297.915 351.559 282.085 361.322 272.322L381.145 252.5L361.322 232.678C351.559 222.915 351.559 207.085 361.322 197.322Z" fill="black"/>
<path d="M563.678 197.322C553.915 187.559 538.085 187.559 528.322 197.322C518.559 207.085 518.559 222.915 528.322 232.678L548.145 252.5L528.322 272.322C518.559 282.085 518.559 297.915 528.322 307.678C538.085 317.441 553.915 317.441 563.678 307.678L583.5 287.855L603.322 307.678C613.085 317.441 628.915 317.441 638.678 307.678C648.441 297.915 648.441 282.085 638.678 272.322L618.855 252.5L638.678 232.678C648.441 222.915 648.441 207.085 638.678 197.322C628.915 187.559 613.085 187.559 603.322 197.322L583.5 217.145L563.678 197.322Z" fill="black"/>
<path fill-rule="evenodd" clip-rule="evenodd" d="M750 250C750 369.846 638.071 467 500 467C361.929 467 250 369.846 250 250C250 130.154 361.929 33 500 33C638.071 33 750 130.154 750 250ZM675 250C675 318.808 606.97 392 500 392C393.03 392 325 318.808 325 250C325 181.192 393.03 108 500 108C606.97 108 675 181.192 675 250Z" fill="black"/>
</g>
</g>
</svg>
