<svg width="1000" height="500" viewBox="0 0 1000 500" fill="none" xmlns="http://www.w3.org/2000/svg">
<g id="F1936&#9;MOKU">
<rect width="1000" height="500" fill="white"/>
<g id="Vector">
<path fill-rule="evenodd" clip-rule="evenodd" d="M390.233 297.975C419.538 264.016 464.427 242.5 514.286 242.5C601.496 242.5 673.5 308.329 673.5 391.429V430C673.5 450.711 656.711 467.5 636 467.5C615.29 467.5 598.5 450.711 598.5 430V391.429C598.5 354.528 565.019 317.5 514.286 317.5C463.553 317.5 430.072 354.528 430.072 391.429V430C430.072 448.506 416.571 464.246 398.281 467.063C379.99 469.88 362.379 458.933 356.81 441.285L316.239 312.713C310.006 292.963 320.965 271.899 340.715 265.667C360.466 259.434 381.53 270.393 387.762 290.144L390.233 297.975Z" fill="black"/>
<path fill-rule="evenodd" clip-rule="evenodd" d="M341.5 70C341.5 49.2893 358.29 32.5 379 32.5H649C669.711 32.5 686.5 49.2893 686.5 70C686.5 161.015 604.995 227.5 514 227.5C423.005 227.5 341.5 161.015 341.5 70ZM427.384 107.5C442.911 133.117 474.021 152.5 514 152.5C553.979 152.5 585.09 133.117 600.617 107.5H427.384Z" fill="black"/>
</g>
</g>
</svg>
