<svg width="1000" height="500" viewBox="0 0 1000 500" fill="none" xmlns="http://www.w3.org/2000/svg">
<g id="F194C&#9;PANA">
<rect width="1000" height="500" fill="white"/>
<g id="Vector">
<path fill-rule="evenodd" clip-rule="evenodd" d="M537.509 242.5C495.779 242.5 462.017 276.283 462.017 317.876V430C462.017 446.98 450.607 461.841 434.203 466.227C417.799 470.613 400.495 463.429 392.021 448.715L316.504 317.59C306.168 299.643 312.338 276.715 330.286 266.379C348.233 256.043 371.161 262.213 381.497 280.16L389.027 293.236C400.795 221.883 462.822 167.5 537.509 167.5C620.587 167.5 688 234.79 688 317.876V430C688 450.711 671.211 467.5 650.5 467.5C629.79 467.5 613 450.711 613 430V317.876C613 276.283 579.238 242.5 537.509 242.5Z" fill="black"/>
<path fill-rule="evenodd" clip-rule="evenodd" d="M537.775 32.5C558.486 32.5 575.275 49.2893 575.275 70V115C575.275 135.711 558.486 152.5 537.775 152.5C517.065 152.5 500.275 135.711 500.275 115V70C500.275 49.2893 517.065 32.5 537.775 32.5Z" fill="black"/>
<path fill-rule="evenodd" clip-rule="evenodd" d="M410.835 67.3935C428.612 56.7684 451.202 62.8181 461.289 80.9058L483.024 119.877C493.112 137.965 486.879 161.241 469.101 171.866C451.324 182.491 428.734 176.442 418.646 158.354L396.911 119.383C386.824 101.295 393.057 78.0186 410.835 67.3935Z" fill="black"/>
<path fill-rule="evenodd" clip-rule="evenodd" d="M664.716 67.3935C682.494 78.0186 688.727 101.295 678.639 119.383L656.904 158.354C646.817 176.442 624.227 182.491 606.45 171.866C588.672 161.241 582.438 137.965 592.526 119.877L614.261 80.9058C624.349 62.8181 646.939 56.7684 664.716 67.3935Z" fill="black"/>
</g>
</g>
</svg>
