<svg width="1000" height="500" viewBox="0 0 1000 500" fill="none" xmlns="http://www.w3.org/2000/svg">
<g id="F1949&#9;PALI">
<rect width="1000" height="500" fill="white"/>
<path id="Union" fill-rule="evenodd" clip-rule="evenodd" d="M618.958 268.507C643.569 243.469 658.75 209.132 658.75 171.25C658.75 94.6205 596.63 32.5 520 32.5C443.37 32.5 381.25 94.6205 381.25 171.25C381.25 209.132 396.432 243.469 421.042 268.507C411.937 275.56 403.658 283.56 396.354 292.344L393.919 284.224C387.967 264.387 367.062 253.13 347.225 259.082C327.387 265.033 316.13 285.938 322.082 305.776L362.582 440.776C367.928 458.598 385.535 469.805 403.946 467.103C422.356 464.4 436 448.607 436 430V389.5C436 347.853 471.213 310 520 310C568.788 310 604 347.853 604 389.5V430C604 450.711 620.789 467.5 641.5 467.5C662.211 467.5 679 450.711 679 430V389.5C679 340.878 655.713 296.976 618.958 268.507ZM520 235C555.208 235 583.75 206.458 583.75 171.25C583.75 136.042 555.208 107.5 520 107.5C484.792 107.5 456.25 136.042 456.25 171.25C456.25 206.458 484.792 235 520 235Z" fill="black"/>
</g>
</svg>
