<svg width="1000" height="500" viewBox="0 0 1000 500" fill="none" xmlns="http://www.w3.org/2000/svg">
<g id="F1958&#9;SELO">
<rect width="1000" height="500" fill="white"/>
<path id="Union" d="M317.5 380C317.5 400.711 300.711 417.5 280 417.5C259.289 417.5 242.5 400.711 242.5 380V120C242.5 99.2893 259.289 82.5 280 82.5H720C740.711 82.5 757.5 99.2893 757.5 120V380C757.5 400.711 740.711 417.5 720 417.5C699.289 417.5 682.5 400.711 682.5 380V157.5H657.5V347.5C657.5 368.211 640.711 385 620 385C599.289 385 582.5 368.211 582.5 347.5V157.5H417.5V347.5C417.5 368.211 400.711 385 380 385C359.289 385 342.5 368.211 342.5 347.5V157.5H317.5V380Z" fill="black"/>
</g>
</svg>
