<svg width="1000" height="500" viewBox="0 0 1000 500" fill="none" xmlns="http://www.w3.org/2000/svg">
<rect width="1000" height="500" fill="white"/>
<path d="M655.493 347.192C634.255 364.89 612.418 375.079 585.331 378.831L474.817 69.3905C469.589 54.7535 455.873 44.8551 440.335 44.5093C424.796 44.1636 410.655 53.439 404.781 67.8289L284.781 361.829C279.677 374.333 281.692 388.616 290.054 399.22L290.114 399.296L290.177 399.375C290.22 399.429 290.266 399.486 290.313 399.545C290.409 399.664 290.514 399.793 290.628 399.932C290.856 400.21 291.122 400.528 291.427 400.883C292.035 401.592 292.798 402.451 293.72 403.435C295.563 405.404 298.048 407.881 301.222 410.682C307.575 416.287 316.68 423.183 328.884 429.878C353.522 443.394 389.722 455.5 439.5 455.5C460.211 455.5 477 438.711 477 418C477 397.289 460.211 380.5 439.5 380.5C402.399 380.5 378.598 371.606 364.957 364.122L364.871 364.075L437.165 186.956L524.185 430.613C529.515 445.537 543.652 455.5 559.5 455.5C615.696 455.5 661.579 439.749 703.507 404.808C719.418 391.55 721.567 367.904 708.309 351.993C695.05 336.083 671.404 333.933 655.493 347.192Z" fill="black"/>
</svg>
