<svg width="1000" height="500" viewBox="0 0 1000 500" fill="none" xmlns="http://www.w3.org/2000/svg">
<g id="F196A&#9;TELO">
<rect width="1000" height="500" fill="white"/>
<g id="Vector">
<path fill-rule="evenodd" clip-rule="evenodd" d="M476.346 369.127L476.965 369.619C478.124 370.541 479.297 371.477 480.484 372.424C514.202 399.328 559.426 435.413 624.624 417.871C655.34 409.606 677.08 394.64 691.975 373.408C704.815 355.107 710.899 334.009 715.397 318.411C715.601 317.705 715.801 317.01 715.999 316.326L716.023 316.243C721.78 296.349 710.32 275.554 690.426 269.797C670.532 264.039 649.737 275.499 643.979 295.393L643.955 295.476C638.628 313.883 635.529 323.277 630.578 330.334C627.102 335.288 621.239 341.115 605.138 345.446C579.183 352.43 562.66 341.945 523.648 310.92L523.03 310.428C521.858 309.496 520.674 308.551 519.479 307.598C485.009 280.099 440.564 244.643 375.377 262.182C344.855 270.394 322.803 285.23 307.675 306.421C293.733 325.952 287.849 348.204 283.622 365.097C278.596 385.189 290.808 405.551 310.899 410.578C330.991 415.605 351.353 403.392 356.38 383.301C360.703 366.022 363.951 356.674 368.718 349.997C372.299 344.98 378.531 339 394.863 334.606C420.864 327.611 436.643 337.552 476.346 369.127Z" fill="black"/>
<path fill-rule="evenodd" clip-rule="evenodd" d="M476.346 189.127L476.965 189.619C478.124 190.541 479.297 191.477 480.484 192.424C514.202 219.328 559.426 255.413 624.624 237.871C655.34 229.606 677.08 214.64 691.975 193.408C704.815 175.107 710.899 154.009 715.397 138.411C715.601 137.705 715.801 137.01 715.999 136.326L716.023 136.243C721.78 116.349 710.32 95.5543 690.426 89.7967C670.532 84.0391 649.737 95.4992 643.979 115.393L643.955 115.476C638.628 133.883 635.529 143.277 630.578 150.334C627.102 155.288 621.239 161.115 605.138 165.446C579.183 172.43 562.66 161.945 523.648 130.92L523.03 130.428C521.858 129.496 520.674 128.551 519.479 127.598C485.009 100.099 440.564 64.6428 375.377 82.1816C344.855 90.3938 322.803 105.23 307.675 126.421C293.733 145.952 287.849 168.204 283.622 185.097C278.596 205.188 290.808 225.551 310.899 230.578C330.991 235.605 351.353 223.392 356.38 203.301C360.703 186.022 363.951 176.674 368.718 169.997C372.299 164.98 378.531 159 394.863 154.606C420.864 147.611 436.643 157.552 476.346 189.127Z" fill="black"/>
</g>
</g>
</svg>
