<svg width="1000" height="500" viewBox="0 0 1000 500" fill="none" xmlns="http://www.w3.org/2000/svg">
<g id="F1961&#9;SONA">
<rect width="1000" height="500" fill="white"/>
<g id="Vector">
<path fill-rule="evenodd" clip-rule="evenodd" d="M339.5 184C339.5 163.289 356.289 146.5 377 146.5H623C643.711 146.5 660.5 163.289 660.5 184V430C660.5 450.711 643.711 467.5 623 467.5H377C356.289 467.5 339.5 450.711 339.5 430V184ZM414.5 221.5V392.5H585.5V221.5H414.5Z" fill="black"/>
<path fill-rule="evenodd" clip-rule="evenodd" d="M500 32.5C520.711 32.5 537.5 49.2893 537.5 70V92.5C537.5 113.211 520.711 130 500 130C479.289 130 462.5 113.211 462.5 92.5V70C462.5 49.2893 479.289 32.5 500 32.5Z" fill="black"/>
<path fill-rule="evenodd" clip-rule="evenodd" d="M608.461 41.6545C627.595 49.5802 636.681 71.5165 628.756 90.6506L620.145 111.438C612.22 130.572 590.284 139.658 571.149 131.733C552.015 123.807 542.929 101.871 550.855 82.7366L559.465 61.9494C567.391 42.8152 589.327 33.7289 608.461 41.6545Z" fill="black"/>
<path fill-rule="evenodd" clip-rule="evenodd" d="M391.149 41.6545C410.284 33.7289 432.22 42.8152 440.145 61.9494L448.756 82.7367C456.682 101.871 447.595 123.807 428.461 131.733C409.327 139.658 387.391 130.572 379.465 111.438L370.855 90.6506C362.929 71.5164 372.015 49.5802 391.149 41.6545Z" fill="black"/>
</g>
</g>
</svg>
