<svg width="1000" height="500" viewBox="0 0 1000 500" fill="none" xmlns="http://www.w3.org/2000/svg">
<g id="F1903&#9;ALASA">
<rect width="1000" height="500" fill="white"/>
<path id="Union" fill-rule="evenodd" clip-rule="evenodd" d="M337.5 70C337.5 49.2893 354.289 32.5 375 32.5C477.606 32.5 538.557 67.4418 570.583 119.612C589.977 151.203 596.372 185.858 598.475 213.5H625.97L619.947 205.428C607.56 188.83 610.974 165.333 627.572 152.947C644.17 140.56 667.667 143.974 680.054 160.572L730.054 227.572C735.125 234.368 737.606 242.453 737.497 250.511C737.499 250.674 737.5 250.837 737.5 251C737.5 261.821 732.917 271.571 725.586 278.415L680.054 339.428C667.667 356.027 644.17 359.441 627.572 347.054C610.974 334.667 607.56 311.17 619.947 294.572L624.478 288.5H598.317C596.058 315.802 589.512 349.554 570.583 380.388C538.557 432.558 477.606 467.5 375 467.5C354.289 467.5 337.5 450.711 337.5 430V288.5H300C279.289 288.5 262.5 271.711 262.5 251C262.5 230.289 279.289 213.5 300 213.5H337.5V70ZM506.667 158.85C516.922 175.556 521.291 194.668 523.145 213.5H412.5V109.574C469.594 116.388 494.359 138.801 506.667 158.85ZM412.5 390.426V288.5H522.939C520.975 306.682 516.559 325.035 506.667 341.15C494.359 361.199 469.594 383.612 412.5 390.426Z" fill="black"/>
</g>
</svg>
