<svg width="1000" height="500" viewBox="0 0 1000 500" fill="none" xmlns="http://www.w3.org/2000/svg">
<g id="F190F&#9;INSA">
<rect width="1000" height="500" fill="white"/>
<g id="Vector">
<path d="M550 250C550 277.614 527.614 300 500 300C472.386 300 450 277.614 450 250C450 222.386 472.386 200 500 200C527.614 200 550 222.386 550 250Z" fill="black"/>
<path fill-rule="evenodd" clip-rule="evenodd" d="M320 32.5C340.711 32.5 357.5 49.2893 357.5 70V392.5H642.5V70C642.5 49.2893 659.289 32.5 680 32.5C700.711 32.5 717.5 49.2893 717.5 70V430C717.5 450.711 700.711 467.5 680 467.5H320C299.289 467.5 282.5 450.711 282.5 430V70C282.5 49.2893 299.289 32.5 320 32.5Z" fill="black"/>
</g>
</g>
</svg>
