<svg width="1000" height="1000" viewBox="0 0 1000 1000" fill="none" xmlns="http://www.w3.org/2000/svg">
<g id="F1908&#9;AWEN">
<rect width="1000" height="1000" fill="white"/>
<path id="Vector 126 (Stroke)" d="M500 50C478.131 50 458.799 64.2125 452.276 85.0863L213.507 849.148C183.693 847.04 160.459 839.748 135.355 814.645C115.829 795.118 84.1709 795.118 64.6447 814.645C45.1184 834.171 45.1184 865.829 64.6447 885.355C129.318 950.028 197.42 950.012 247.965 950C248.646 950 249.325 950 250 950C271.869 950 291.201 935.788 297.724 914.914L500 267.631L702.276 914.914C708.799 935.788 728.131 950 750 950C750.672 950 751.348 950 752.026 950H752.036C802.581 950.012 870.683 950.028 935.355 885.355C954.882 865.829 954.882 834.171 935.355 814.645C915.829 795.118 884.171 795.118 864.645 814.645C839.541 839.748 816.307 847.04 786.493 849.148L547.724 85.0863C541.201 64.2125 521.869 50 500 50Z" fill="black"/>
</g>
</svg>
