<svg width="1000" height="1000" viewBox="0 0 1000 1000" fill="none" xmlns="http://www.w3.org/2000/svg">
<g id="F1904&#9;ALE">
<rect width="1000" height="1000" fill="white"/>
<path id="Vector (Stroke)" fill-rule="evenodd" clip-rule="evenodd" d="M102.676 324.514C138.786 277.572 191.719 250 253.846 250C316.73 250 366.662 278.059 410.575 318.02C440.349 345.114 469.6 379.809 500 418.375C530.4 379.809 559.651 345.114 589.425 318.02C633.338 278.059 683.27 250 746.154 250C808.281 250 861.214 277.572 897.323 324.514C932.593 370.365 950 431.97 950 500C950 568.03 932.593 629.635 897.323 675.486C861.214 722.428 808.281 750 746.154 750C683.27 750 633.338 721.941 589.425 681.98C559.651 654.886 530.4 620.191 500 581.625C469.6 620.191 440.349 654.886 410.575 681.98C366.662 721.941 316.73 750 253.846 750C191.719 750 138.786 722.428 102.676 675.486C67.4067 629.635 50 568.03 50 500C50 431.97 67.4067 370.365 102.676 324.514ZM436.847 500C400.963 453.752 371.753 417.899 343.271 391.98C310.261 361.941 283.27 350 253.846 350C223.666 350 199.675 362.428 181.939 385.486C163.363 409.635 150 448.03 150 500C150 551.97 163.363 590.365 181.939 614.514C199.675 637.572 223.666 650 253.846 650C283.27 650 310.261 638.059 343.271 608.02C371.753 582.101 400.963 546.248 436.847 500ZM563.153 500C599.037 546.248 628.247 582.101 656.729 608.02C689.739 638.059 716.73 650 746.154 650C776.334 650 800.325 637.572 818.061 614.514C836.637 590.365 850 551.97 850 500C850 448.03 836.637 409.635 818.061 385.486C800.325 362.428 776.334 350 746.154 350C716.73 350 689.739 361.941 656.729 391.98C628.247 417.899 599.037 453.752 563.153 500Z" fill="black"/>
</g>
</svg>
