<svg width="1000" height="500" viewBox="0 0 1000 500" fill="none" xmlns="http://www.w3.org/2000/svg">
<g id="F1905&#9;ANPA">
<rect width="1000" height="500" fill="white"/>
<g id="Vector">
<path fill-rule="evenodd" clip-rule="evenodd" d="M300 42.5C320.711 42.5 337.5 59.2893 337.5 80V242.5H662.5V80C662.5 59.2893 679.289 42.5 700 42.5C720.711 42.5 737.5 59.2893 737.5 80V280C737.5 300.711 720.711 317.5 700 317.5H300C279.289 317.5 262.5 300.711 262.5 280V80C262.5 59.2893 279.289 42.5 300 42.5Z" fill="black"/>
<path d="M550 400C550 427.614 527.614 450 500 450C472.386 450 450 427.614 450 400C450 372.386 472.386 350 500 350C527.614 350 550 372.386 550 400Z" fill="black"/>
</g>
</g>
</svg>
