<svg width="1000" height="500" viewBox="0 0 1000 500" fill="none" xmlns="http://www.w3.org/2000/svg">
<g id="F1904&#9;ALE">
<rect width="1000" height="500" fill="white"/>
<path id="Vector (Stroke)" fill-rule="evenodd" clip-rule="evenodd" d="M202.007 118.386C229.09 83.1787 268.789 62.5 315.385 62.5C362.548 62.5 399.997 83.5442 432.931 113.515C455.262 133.836 477.2 159.856 500 188.781C522.8 159.856 544.738 133.836 567.069 113.515C600.003 83.5442 637.452 62.5 684.615 62.5C731.211 62.5 770.91 83.1787 797.993 118.386C824.445 152.774 837.5 198.977 837.5 250C837.5 301.023 824.445 347.226 797.993 381.614C770.91 416.821 731.211 437.5 684.615 437.5C637.452 437.5 600.003 416.456 567.069 386.485C544.738 366.164 522.8 340.144 500 311.219C477.2 340.144 455.262 366.164 432.931 386.485C399.997 416.456 362.548 437.5 315.385 437.5C268.789 437.5 229.09 416.821 202.007 381.614C175.555 347.226 162.5 301.023 162.5 250C162.5 198.977 175.555 152.774 202.007 118.386ZM452.635 250C425.722 215.314 403.815 188.424 382.453 168.985C357.696 146.456 337.452 137.5 315.385 137.5C292.75 137.5 274.756 146.821 261.454 164.114C247.522 182.226 237.5 211.023 237.5 250C237.5 288.977 247.522 317.774 261.454 335.886C274.756 353.179 292.75 362.5 315.385 362.5C337.452 362.5 357.696 353.544 382.453 331.015C403.815 311.576 425.722 284.686 452.635 250ZM547.365 250C574.278 284.686 596.185 311.576 617.547 331.015C642.304 353.544 662.548 362.5 684.615 362.5C707.25 362.5 725.244 353.179 738.546 335.886C752.478 317.774 762.5 288.977 762.5 250C762.5 211.023 752.478 182.226 738.546 164.114C725.244 146.821 707.25 137.5 684.615 137.5C662.548 137.5 642.304 146.456 617.547 168.985C596.185 188.424 574.278 215.314 547.365 250Z" fill="black"/>
</g>
</svg>
