<svg width="1000" height="1000" viewBox="0 0 1000 1000" fill="none" xmlns="http://www.w3.org/2000/svg">
<g id="F1902&#9;ALA">
<rect width="1000" height="1000" fill="white"/>
<path id="Union" d="M185.355 114.645C165.829 95.1184 134.171 95.1184 114.645 114.645C95.1184 134.171 95.1184 165.829 114.645 185.355L429.289 500L114.645 814.645C95.1184 834.171 95.1184 865.829 114.645 885.355C134.171 904.882 165.829 904.882 185.355 885.355L500 570.711L814.645 885.355C834.171 904.882 865.829 904.882 885.355 885.355C904.882 865.829 904.882 834.171 885.355 814.645L570.711 500L885.355 185.355C904.882 165.829 904.882 134.171 885.355 114.645C865.829 95.1184 834.171 95.1184 814.645 114.645L500 429.289L185.355 114.645Z" fill="black"/>
</g>
</svg>
