<svg width="1000" height="1000" viewBox="0 0 1000 1000" fill="none" xmlns="http://www.w3.org/2000/svg">
<rect width="1000" height="1000" fill="white"/>
<rect width="16000" height="1000" fill="white"/>
<rect width="1000" height="1000" fill="white"/>
<path d="M550 100C550 72.3858 527.614 50 500 50C472.386 50 450 72.3858 450 100V450C450 477.614 472.386 500 500 500C527.614 500 550 477.614 550 450V100Z" fill="black"/>
<path fill-rule="evenodd" clip-rule="evenodd" d="M500 950C571.593 950 634.401 912.382 669.735 855.834L705.894 923.552C718.901 947.911 749.193 957.113 773.552 944.106C797.911 931.099 807.113 900.807 794.106 876.448L684.106 670.448C683.403 669.133 682.651 667.862 681.851 666.636C650.244 597.801 580.704 550 500 550C389.543 550 300 639.543 300 750C300 860.457 389.543 950 500 950ZM500 850C555.228 850 600 805.228 600 750C600 694.772 555.228 650 500 650C444.772 650 400 694.772 400 750C400 805.228 444.772 850 500 850Z" fill="black"/>
</svg>
