<svg width="1000" height="1000" viewBox="0 0 1000 1000" fill="none" xmlns="http://www.w3.org/2000/svg">
<g id="F1905&#9;ANPA">
<rect width="1000" height="1000" fill="white"/>
<g id="Vector">
<path fill-rule="evenodd" clip-rule="evenodd" d="M100 50C127.614 50 150 72.3858 150 100V650H850V100C850 72.3858 872.386 50 900 50C927.614 50 950 72.3858 950 100V700C950 727.614 927.614 750 900 750H100C72.3858 750 50 727.614 50 700V100C50 72.3858 72.3858 50 100 50Z" fill="black"/>
<path d="M575 875C575 916.421 541.421 950 500 950C458.579 950 425 916.421 425 875C425 833.579 458.579 800 500 800C541.421 800 575 833.579 575 875Z" fill="black"/>
</g>
</g>
</svg>
