<svg width="1000" height="1000" viewBox="0 0 1000 1000" fill="none" xmlns="http://www.w3.org/2000/svg">
<g id="F1909&#9;E">
<rect width="1000" height="1000" fill="white"/>
<g id="Vector">
<path fill-rule="evenodd" clip-rule="evenodd" d="M535.355 464.645C554.882 484.171 554.882 515.829 535.355 535.355L135.355 935.355C115.829 954.882 84.1709 954.882 64.6447 935.355C45.1185 915.829 45.1185 884.171 64.6447 864.645L429.289 500L64.6447 135.355C45.1184 115.829 45.1184 84.1709 64.6447 64.6447C84.1709 45.1185 115.829 45.1185 135.355 64.6447L535.355 464.645Z" fill="black"/>
<path fill-rule="evenodd" clip-rule="evenodd" d="M935.355 464.645C954.882 484.171 954.882 515.829 935.355 535.355L535.355 935.355C515.829 954.882 484.171 954.882 464.645 935.355C445.118 915.829 445.118 884.171 464.645 864.645L829.289 500L464.645 135.355C445.118 115.829 445.118 84.1709 464.645 64.6447C484.171 45.1185 515.829 45.1185 535.355 64.6447L935.355 464.645Z" fill="black"/>
</g>
</g>
</svg>
