<svg width="1000" height="500" viewBox="0 0 1000 500" fill="none" xmlns="http://www.w3.org/2000/svg">
<rect width="1000" height="500" fill="white"/>
<path fill-rule="evenodd" clip-rule="evenodd" d="M480.728 232.169C492.593 239.277 507.407 239.277 519.272 232.169L736.272 102.169C754.038 91.5254 759.812 68.4945 749.169 50.728C738.525 32.9616 715.495 27.1873 697.728 37.8308L500 156.285L302.272 37.8308C284.505 27.1873 261.474 32.9616 250.831 50.7281C240.187 68.4945 245.962 91.5254 263.728 102.169L480.728 232.169Z" fill="black"/>
<path fill-rule="evenodd" clip-rule="evenodd" d="M480.728 267.831C492.593 260.723 507.407 260.723 519.272 267.831L736.272 397.831C754.038 408.474 759.812 431.505 749.169 449.272C738.525 467.038 715.495 472.812 697.728 462.169L500 343.714L302.272 462.169C284.505 472.812 261.474 467.038 250.831 449.272C240.187 431.505 245.962 408.474 263.728 397.831L480.728 267.831Z" fill="black"/>
</svg>
