<svg width="1000" height="1000" viewBox="0 0 1000 1000" fill="none" xmlns="http://www.w3.org/2000/svg">
<g id="F1903&#9;ALASA">
<rect width="1000" height="1000" fill="white"/>
<path id="Union" fill-rule="evenodd" clip-rule="evenodd" d="M250 50C222.386 50 200 72.3858 200 100V450H100C72.3858 450 50 472.386 50 500C50 527.614 72.3858 550 100 550H200V900C200 927.614 222.386 950 250 950C349.8 950 428.583 931.574 490.169 899.009C552.204 866.206 594.128 820.446 621.862 770.383C663.228 695.713 672.401 612.05 674.428 550H779.289L714.645 614.645C695.118 634.171 695.118 665.829 714.645 685.355C734.171 704.882 765.829 704.882 785.355 685.355L935.355 535.355C940.148 530.562 943.765 525.038 946.205 519.142C948.65 513.246 950 506.781 950 500C950 493.219 948.65 486.754 946.205 480.858C943.765 474.962 940.148 469.438 935.355 464.645L785.355 314.645C765.829 295.118 734.171 295.118 714.645 314.645C695.118 334.171 695.118 365.829 714.645 385.355L779.289 450H674.428C672.401 387.95 663.228 304.287 621.862 229.617C594.128 179.554 552.204 133.794 490.169 100.991C428.583 68.4259 349.8 50 250 50ZM574.287 450C572.246 395.246 564.403 332.257 534.388 278.076C515.247 243.523 486.859 212.36 443.424 189.393C408.398 170.872 361.929 156.82 300 151.903V450H574.287ZM300 550V848.097C361.929 843.18 408.398 829.128 443.424 810.607C486.859 787.64 515.247 756.477 534.388 721.924C564.403 667.743 572.246 604.754 574.287 550H300Z" fill="black"/>
</g>
</svg>
