<svg width="1000" height="1000" viewBox="0 0 1000 1000" fill="none" xmlns="http://www.w3.org/2000/svg">
<g id="F1905&#9;ANPA">
<rect width="1000" height="1000" fill="white"/>
<g id="Vector">
<path fill-rule="evenodd" clip-rule="evenodd" d="M100 100C127.614 100 150 122.386 150 150V600H850V150C850 122.386 872.386 100 900 100C927.614 100 950 122.386 950 150V650C950 677.614 927.614 700 900 700H100C72.3858 700 50 677.614 50 650V150C50 122.386 72.3858 100 100 100Z" fill="black"/>
<path d="M575 825C575 866.421 541.421 900 500 900C458.579 900 425 866.421 425 825C425 783.579 458.579 750 500 750C541.421 750 575 783.579 575 825Z" fill="black"/>
</g>
</g>
</svg>
