<svg width="1000" height="1000" viewBox="0 0 1000 1000" fill="none" xmlns="http://www.w3.org/2000/svg">
<g id="F1908&#9;AWEN">
<rect width="1000" height="1000" fill="white"/>
<path id="Vector 126 (Stroke)" fill-rule="evenodd" clip-rule="evenodd" d="M500 50C521.869 50 541.201 64.2125 547.724 85.0863L786.76 850H900C927.614 850 950 872.386 950 900C950 927.614 927.614 950 900 950H750C728.131 950 708.799 935.788 702.276 914.914L500 267.631L297.724 914.914C291.201 935.788 271.869 950 250 950H100C72.3858 950 50 927.614 50 900C50 872.386 72.3858 850 100 850H213.24L452.276 85.0863C458.799 64.2125 478.131 50 500 50Z" fill="black"/>
</g>
</svg>
