<svg width="1000" height="1000" viewBox="0 0 1000 1000" fill="none" xmlns="http://www.w3.org/2000/svg">
<rect width="1000" height="1000" fill="white"/>
<path fill-rule="evenodd" clip-rule="evenodd" d="M529.962 452.027C512.2 465.324 487.799 465.324 470.036 452.027L120.036 190.027C97.9291 173.479 93.4233 142.143 109.972 120.037C126.52 97.9301 157.856 93.4243 179.962 109.973L499.999 349.543L820.036 109.973C842.142 93.4243 873.478 97.9301 890.027 120.037C906.575 142.143 902.069 173.479 879.962 190.027L529.962 452.027Z" fill="black"/>
<path fill-rule="evenodd" clip-rule="evenodd" d="M470.036 547.973C487.799 534.676 512.2 534.676 529.962 547.973L879.962 809.973C902.069 826.521 906.575 857.857 890.027 879.963C873.478 902.07 842.142 906.576 820.036 890.027L499.999 650.457L179.962 890.027C157.856 906.576 126.52 902.07 109.972 879.963C93.4233 857.857 97.9291 826.521 120.036 809.973L470.036 547.973Z" fill="black"/>
</svg>
