<svg width="1000" height="500" viewBox="0 0 1000 500" fill="none" xmlns="http://www.w3.org/2000/svg">
<g id="F1901&#9;AKESI">
<rect width="1000" height="500" fill="white"/>
<g id="Union">
<path d="M467 69C467 88.33 451.33 104 432 104C412.67 104 397 88.33 397 69C397 49.67 412.67 34 432 34C451.33 34 467 49.67 467 69Z" fill="black"/>
<path fill-rule="evenodd" clip-rule="evenodd" d="M384.939 130.041C418.961 118.618 461.395 115.5 500 115.5C538.605 115.5 581.039 118.618 615.061 130.041C646.309 140.533 682.957 163.181 687.111 207.5H689C709.711 207.5 726.5 224.289 726.5 245C726.5 265.711 709.711 282.5 689 282.5H687.5V302.5H690C710.711 302.5 727.5 319.289 727.5 340C727.5 360.711 710.711 377.5 690 377.5H686.9C681.847 420.503 645.836 442.626 615.061 452.959C581.039 464.382 538.605 467.5 500 467.5C461.395 467.5 418.961 464.382 384.939 452.959C354.164 442.626 318.153 420.503 313.1 377.5H312C291.289 377.5 274.5 360.711 274.5 340C274.5 319.289 291.289 302.5 312 302.5H312.5V282.5H311C290.289 282.5 273.5 265.711 273.5 245C273.5 224.289 290.289 207.5 311 207.5H312.889C317.043 163.181 353.691 140.533 384.939 130.041ZM387.5 282.5V302.5H612.5V282.5H387.5ZM394.315 207.5C397.479 205.558 402.092 203.397 408.811 201.141C431.039 193.677 463.605 190.5 500 190.5C536.395 190.5 568.961 193.677 591.189 201.141C597.908 203.397 602.521 205.558 605.685 207.5H394.315ZM408.811 381.859C404.321 380.352 400.771 378.886 397.965 377.5H602.035C599.229 378.886 595.679 380.352 591.189 381.859C568.961 389.323 536.395 392.5 500 392.5C463.605 392.5 431.039 389.323 408.811 381.859Z" fill="black"/>
<path d="M567 104C586.33 104 602 88.33 602 69C602 49.67 586.33 34 567 34C547.67 34 532 49.67 532 69C532 88.33 547.67 104 567 104Z" fill="black"/>
</g>
</g>
</svg>
