<svg width="1000" height="1000" viewBox="0 0 1000 1000" fill="none" xmlns="http://www.w3.org/2000/svg">
<g id="F1901&#9;AKESI">
<rect width="1000" height="1000" fill="white"/>
<g id="Union">
<path d="M325 200C366.421 200 400 166.421 400 125C400 83.5786 366.421 50 325 50C283.579 50 250 83.5786 250 125C250 166.421 283.579 200 325 200Z" fill="black"/>
<path fill-rule="evenodd" clip-rule="evenodd" d="M181.5 450C181.5 429.289 198.289 412.5 219 412.5H304.34C321.482 320.028 402.563 250 500 250C597.437 250 678.518 320.028 695.66 412.5H781C801.711 412.5 818.5 429.289 818.5 450C818.5 470.711 801.711 487.5 781 487.5H699V562.5H800C820.711 562.5 837.5 579.289 837.5 600C837.5 620.711 820.711 637.5 800 637.5H699V712.5H781C801.711 712.5 818.5 729.289 818.5 750C818.5 770.711 801.711 787.5 781 787.5H695.66C678.518 879.972 597.437 950 500 950C402.563 950 321.482 879.972 304.34 787.5H219C198.289 787.5 181.5 770.711 181.5 750C181.5 729.289 198.289 712.5 219 712.5H301V637.5H200C179.289 637.5 162.5 620.711 162.5 600C162.5 579.289 179.289 562.5 200 562.5H301V487.5H219C198.289 487.5 181.5 470.711 181.5 450ZM401 487.5V562.5H599V487.5H401ZM592.054 412.5C577.525 375.888 541.786 350 500 350C458.214 350 422.475 375.888 407.946 412.5H592.054ZM599 637.5H401V712.5H599V637.5ZM592.054 787.5H407.946C422.475 824.112 458.214 850 500 850C541.786 850 577.525 824.112 592.054 787.5Z" fill="black"/>
<path d="M750 125C750 166.421 716.421 200 675 200C633.579 200 600 166.421 600 125C600 83.5786 633.579 50 675 50C716.421 50 750 83.5786 750 125Z" fill="black"/>
</g>
</g>
</svg>
