<svg width="1000" height="1000" viewBox="0 0 1000 1000" fill="none" xmlns="http://www.w3.org/2000/svg">
<g id="F1901&#9;AKESI">
<rect width="1000" height="1000" fill="white"/>
<g id="Union">
<path d="M400 125C400 166.421 366.421 200 325 200C283.579 200 250 166.421 250 125C250 83.5786 283.579 50 325 50C366.421 50 400 83.5786 400 125Z" fill="black"/>
<path fill-rule="evenodd" clip-rule="evenodd" d="M500 250C435.402 250 364.572 256.816 308.128 281.446C279.345 294.005 251.986 312.192 231.751 338.682C218 356.683 208.528 377.245 203.704 400H125C97.3858 400 75 422.386 75 450C75 477.614 97.3858 500 125 500H200V550H100C72.3858 550 50 572.386 50 600C50 627.614 72.3858 650 100 650H200V700H125C97.3858 700 75 722.386 75 750C75 777.614 97.3858 800 125 800H203.704C208.528 822.755 218 843.317 231.751 861.318C251.986 887.808 279.345 905.995 308.128 918.554C364.572 943.184 435.402 950 500 950C564.598 950 635.428 943.184 691.872 918.554C720.655 905.995 748.014 887.808 768.249 861.318C782 843.317 791.472 822.755 796.296 800H875C902.614 800 925 777.614 925 750C925 722.386 902.614 700 875 700H800V650H900C927.614 650 950 627.614 950 600C950 572.386 927.614 550 900 550H800V500H875C902.614 500 925 477.614 925 450C925 422.386 902.614 400 875 400H796.296C791.472 377.245 782 356.683 768.249 338.682C748.014 312.192 720.655 294.005 691.872 281.446C635.428 256.816 564.598 250 500 250ZM689.244 400C689.16 399.887 689.076 399.774 688.991 399.661C688.922 399.569 688.852 399.478 688.782 399.386C681.673 390.08 669.97 380.995 651.878 373.1C614.572 356.821 560.402 350 500 350C439.598 350 385.428 356.821 348.122 373.1C330.03 380.995 318.327 390.08 311.218 399.386C311.063 399.589 310.909 399.794 310.756 400H689.244ZM300 500V550H700V500H300ZM300 700V650H700V700H300ZM310.756 800C310.909 800.206 311.063 800.411 311.218 800.614C318.327 809.92 330.03 819.005 348.122 826.9C385.428 843.179 439.598 850 500 850C560.402 850 614.572 843.179 651.878 826.9C669.97 819.005 681.673 809.92 688.782 800.614C688.937 800.411 689.091 800.206 689.244 800H310.756Z" fill="black"/>
<path d="M675 200C716.421 200 750 166.421 750 125C750 83.5786 716.421 50 675 50C633.579 50 600 83.5786 600 125C600 166.421 633.579 200 675 200Z" fill="black"/>
</g>
</g>
</svg>
