<svg width="1000" height="1000" viewBox="0 0 1000 1000" fill="none" xmlns="http://www.w3.org/2000/svg">
<g id="F190B&#9;ESUN">
<rect width="1000" height="1000" fill="white"/>
<path id="Vector 126 (Stroke)" fill-rule="evenodd" clip-rule="evenodd" d="M80.3032 54.0427C105.622 43.1918 134.934 54.8647 145.876 80.1165C145.89 80.1493 145.919 80.2151 145.964 80.3131C146.094 80.6018 146.354 81.1693 146.748 81.9972C147.537 83.6537 148.862 86.3478 150.764 89.9323C154.571 97.1068 160.669 107.81 169.379 120.876C186.822 147.04 214.568 182.421 255.147 217.927C309.895 265.832 389.001 314.89 499.997 341.317C517.809 287.923 532.79 243.146 541.522 217.319C558.759 166.336 585.962 123.586 625.482 93.7742C665.273 63.7582 713.397 50 766.666 50C818.818 50 867.115 63.0718 902.021 97.978C936.927 132.884 949.999 181.182 949.999 233.333C949.999 285.485 936.927 344.894 890.91 390.911C844.893 436.928 774.373 461.111 677.777 461.111C638.926 461.111 602.236 458.853 567.615 454.698C555.693 490.494 543.334 527.632 531.29 563.833C668.065 594.473 762.425 649.525 826.728 707.232C874.865 750.432 904.925 794.039 923.108 827.534C932.192 844.268 938.316 858.482 942.266 868.888C944.241 874.093 945.677 878.355 946.67 881.515C947.167 883.095 947.553 884.401 947.841 885.412C947.985 885.918 948.105 886.351 948.201 886.708C948.25 886.886 948.292 887.045 948.329 887.185L948.362 887.309L948.381 887.381L948.403 887.468C948.414 887.509 948.424 887.548 899.999 900L948.424 887.548C955.301 914.292 939.195 941.548 912.451 948.425C885.833 955.269 858.709 939.348 851.673 912.83C851.671 912.822 851.668 912.813 851.665 912.803C851.618 912.637 851.49 912.196 851.271 911.497C850.832 910.1 850.028 907.678 848.774 904.376C846.266 897.768 841.973 887.677 835.223 875.243C821.74 850.406 798.467 816.235 759.937 781.657C708.237 735.259 626.726 686.067 499.55 659.254C482.333 711.017 467.657 755.14 458.544 782.478C440.762 835.825 413.586 879.124 373.522 908.605C333.299 938.203 285.353 950 233.332 950C181.181 950 132.883 936.928 97.9772 902.022C63.0709 867.116 49.9991 818.818 49.9991 766.667C49.9991 714.76 62.8979 657.064 102.215 611.698C142.691 564.995 204.583 538.889 286.666 538.889C338.787 538.889 386.97 541.76 431.501 547.002C443.587 510.672 456.104 473.054 468.273 436.511C345.175 405.69 254.216 349.99 189.296 293.184C140.986 250.913 107.621 208.516 86.1744 176.346C75.4406 160.245 67.6498 146.643 62.4289 136.804C59.817 131.881 57.8434 127.891 56.462 124.991C55.7712 123.54 55.228 122.36 54.8267 121.472C54.626 121.027 54.4607 120.656 54.3302 120.359C54.2649 120.211 54.2083 120.081 54.1603 119.97L54.0947 119.819L54.0667 119.754C54.054 119.724 54.0419 119.696 99.9991 100L54.0419 119.696C43.1641 94.3145 54.9217 64.9205 80.3032 54.0427ZM399.204 644.098C364.414 640.73 326.967 638.889 286.666 638.889C226.526 638.889 195.085 657.228 177.784 677.191C159.323 698.492 149.999 729.684 149.999 766.667C149.999 803.404 159.15 821.773 168.688 831.311C178.226 840.85 196.595 850 233.332 850C270.2 850 295.588 841.796 314.254 828.061C333.079 814.209 350.347 790.842 363.676 750.855C371.783 726.533 384.346 688.771 399.204 644.098ZM851.611 912.592C851.605 912.569 851.599 912.546 851.593 912.524C851.593 912.524 851.593 912.524 851.593 912.525L851.61 912.59L851.611 912.592ZM599.988 357.586C624.663 359.881 650.575 361.111 677.777 361.111C758.959 361.111 799.55 340.85 820.199 320.2C840.849 299.551 849.999 270.071 849.999 233.333C849.999 196.596 840.849 178.227 831.31 168.689C821.772 159.15 803.403 150 766.666 150C731.046 150 705.147 158.941 685.703 173.607C665.989 188.479 648.748 212.395 636.254 249.348C628.405 272.563 615.485 311.159 599.988 357.586Z" fill="black"/>
</g>
</svg>
