<svg width="1000" height="500" viewBox="0 0 1000 500" fill="none" xmlns="http://www.w3.org/2000/svg">
<g id="F190B&#9;ESUN">
<rect width="1000" height="500" fill="white"/>
<path id="Vector 126 (Stroke)" fill-rule="evenodd" clip-rule="evenodd" d="M354.364 54.9884C346.124 36.118 324.184 27.4079 305.228 35.5319C286.192 43.6902 277.374 65.7357 285.532 84.7718L320 69.9999C285.532 84.7718 285.541 84.7927 285.55 84.8141L285.57 84.8597L285.613 84.9606C285.644 85.0322 285.68 85.1126 285.719 85.2014C285.797 85.3791 285.891 85.591 286.002 85.836C286.223 86.3258 286.51 86.9484 286.865 87.6946C287.576 89.1867 288.561 91.1765 289.843 93.5923C292.405 98.4198 296.164 104.976 301.298 112.676C311.55 128.053 327.406 148.184 350.306 168.221C378.385 192.791 416.465 216.676 466.496 231.696C463.913 239.454 461.32 247.248 458.751 254.969C441.594 253.361 423.365 252.5 404 252.5C363.771 252.5 331.352 265.413 309.662 290.44C288.841 314.464 282.5 344.403 282.5 370C282.5 395.78 288.97 422.003 308.483 441.516C327.996 461.029 354.219 467.5 380 467.5C405.682 467.5 430.641 461.652 451.975 445.954C473.19 430.343 486.905 407.868 495.575 381.858C498.896 371.898 503.851 357.005 509.722 339.353C557.085 351.33 587.558 370.503 606.953 387.909C622.851 402.176 632.305 416.137 637.668 426.016C640.355 430.966 642.013 434.888 642.925 437.292C643.381 438.492 643.648 439.306 643.762 439.671C643.783 439.737 643.799 439.789 643.81 439.825C649.17 459.591 669.443 471.434 689.339 466.318C709.397 461.161 721.476 440.719 716.318 420.661L681.355 429.651C716.318 420.66 716.311 420.631 716.303 420.602L716.287 420.54L716.252 420.406C716.227 420.312 716.2 420.209 716.17 420.098C716.109 419.875 716.038 419.618 715.955 419.327C715.789 418.745 715.577 418.027 715.312 417.184C714.782 415.498 714.041 413.304 713.043 410.676C711.05 405.424 708.02 398.409 703.582 390.234C694.694 373.862 680.149 352.824 657.046 332.091C628.691 306.643 588.816 282.859 533.445 268.038C535.917 260.609 538.397 253.16 540.852 245.785C553.358 246.905 566.402 247.5 580 247.5C625.78 247.5 662.003 236.029 686.516 211.516C711.029 187.003 717.5 155.78 717.5 130C717.5 104.219 711.029 77.9963 691.516 58.4833C672.003 38.9704 645.78 32.4999 620 32.4999C593.381 32.4999 568.392 39.4136 547.434 55.2233C526.679 70.8795 512.944 92.9424 504.475 117.989C501.294 127.399 496.272 142.39 490.224 160.5C449.696 148.705 420.391 129.888 399.694 111.778C382.593 96.8153 370.95 81.9463 363.702 71.0736C360.085 65.6492 357.595 61.2674 356.094 58.4386C355.345 57.0263 354.846 56.0084 354.58 55.4496C354.464 55.2063 354.393 55.0508 354.364 54.9884ZM565.384 172.221C570.154 172.405 575.026 172.5 580 172.5C614.219 172.5 627.996 163.97 633.483 158.483C638.97 152.996 642.5 144.219 642.5 130C642.5 115.78 638.97 112.003 638.483 111.516C637.996 111.029 634.219 107.5 620 107.5C606.618 107.5 598.297 110.801 592.6 115.098C586.7 119.549 580.435 127.486 575.524 142.011C573.1 149.181 569.599 159.618 565.384 172.221ZM643.706 439.434C643.707 439.439 643.709 439.445 643.71 439.451L643.706 439.434ZM434.347 328.335C424.685 327.788 414.576 327.5 404 327.5C380.229 327.5 370.648 334.587 366.338 339.56C361.159 345.536 357.5 355.596 357.5 370C357.5 384.219 361.029 387.996 361.516 388.483C362.003 388.97 365.78 392.5 380 392.5C394.317 392.5 402.358 389.347 407.524 385.546C412.81 381.657 419.094 374.131 424.424 358.141C426.904 350.702 430.314 340.457 434.347 328.335ZM643.696 439.394C643.696 439.395 643.696 439.394 643.696 439.394L643.698 439.405C643.697 439.401 643.697 439.398 643.696 439.394Z" fill="black"/>
</g>
</svg>
