<svg width="1000" height="1000" viewBox="0 0 1000 1000" fill="none" xmlns="http://www.w3.org/2000/svg">
<g id="F190F&#9;INSA">
<rect width="1000" height="1000" fill="white"/>
<g id="Vector">
<path d="M600 500C600 555.228 555.228 600 500 600C444.772 600 400 555.228 400 500C400 444.772 444.772 400 500 400C555.228 400 600 444.772 600 500Z" fill="black"/>
<path fill-rule="evenodd" clip-rule="evenodd" d="M150 100C177.614 100 200 122.386 200 150V800H800V150C800 122.386 822.386 100 850 100C877.614 100 900 122.386 900 150V850C900 877.614 877.614 900 850 900H150C122.386 900 100 877.614 100 850V150C100 122.386 122.386 100 150 100Z" fill="black"/>
</g>
</g>
</svg>
