<svg width="1000" height="1000" viewBox="0 0 1000 1000" fill="none" xmlns="http://www.w3.org/2000/svg">
<g id="F190B&#9;ESUN">
<rect width="1000" height="1000" fill="white"/>
<path id="Vector 126 (Stroke)" fill-rule="evenodd" clip-rule="evenodd" d="M100 45C127.614 45 150 67.3858 150 95C150 155.008 157.95 198.359 173.051 230.576C187.506 261.416 209.923 285.113 245.545 303.898C282.489 323.38 334.16 337.796 406.354 347.046C433.317 350.501 462.716 353.186 494.749 355.193C514.193 298.434 530.906 248.823 541.001 215.619C556.745 162.592 584.225 118.915 624.444 88.75C664.725 58.5398 713.629 45 766.667 45C818.977 45 867.358 58.2961 902.241 93.6149C937.011 128.819 950 177.448 950 230C950 282.552 937.011 342.431 891.13 388.885C845.136 435.454 774.532 460 677.778 460C637.956 460 600.387 459.524 564.991 458.46C558.015 478.715 550.952 499.222 543.961 519.601C540.855 528.654 537.765 537.675 534.704 546.636C562.752 548.522 588.909 550.856 613.285 553.695C698.177 563.583 765.55 580.003 817.12 607.896C870.836 636.949 905.722 677.56 925.88 730.374C945.082 780.686 950 839.789 950 905C950 932.614 927.614 955 900 955C872.386 955 850 932.614 850 905C850 842.711 844.918 798.689 832.453 766.032C820.944 735.877 802.497 713.676 769.546 695.854C734.45 676.872 681.823 662.354 601.715 653.024C571.748 649.533 538.503 646.825 501.608 644.804C482.583 702.303 467.211 751.376 459.653 781.986L459.198 783.831L458.604 785.635C446.47 822.49 418.484 863.555 381.661 895.512C344.445 927.81 293.262 955 233.333 955C181.023 955 132.642 941.704 97.7591 906.385C62.9893 871.181 50 822.552 50 770C50 717.674 62.8309 659.514 102.015 613.736C142.429 566.522 204.38 540 286.667 540C338.581 540 386.499 540.563 430.693 541.833C436.846 523.719 443.111 505.4 449.373 487.149C453.281 475.758 457.192 464.381 461.083 453.073C437.392 451.224 414.924 448.962 393.646 446.235C315.84 436.266 250.845 419.745 198.899 392.352C145.632 364.262 106.938 325.146 82.5043 273.017C58.7163 222.266 50 162.492 50 95C50 67.3858 72.3858 45 100 45ZM397.591 641.048C363.167 640.334 326.254 640 286.667 640C226.732 640 195.349 658.478 177.985 678.764C159.391 700.486 150 732.326 150 770C150 807.448 159.233 826.319 168.908 836.115C178.469 845.796 196.754 855 233.333 855C262.294 855 291.11 841.69 316.117 819.988C340.781 798.583 357.013 773.037 363.101 755.877C370.195 727.622 382.565 687.262 397.591 641.048ZM599.028 359.273C624.002 359.767 650.232 360 677.778 360C758.801 360 799.309 339.546 819.981 318.615C840.767 297.569 850 267.448 850 230C850 192.552 840.767 173.681 831.092 163.885C821.531 154.204 803.246 145 766.667 145C730.815 145 704.164 153.96 684.444 168.75C664.709 183.552 647.76 207.311 636.829 244.204L636.779 244.371L636.729 244.538C628.01 273.227 614.623 313.45 599.028 359.273Z" fill="black"/>
</g>
</svg>
