<svg width="1000" height="1000" viewBox="0 0 1000 1000" fill="none" xmlns="http://www.w3.org/2000/svg">
<g id="F190F&#9;INSA">
<rect width="1000" height="1000" fill="white"/>
<g id="Vector">
<path fill-rule="evenodd" clip-rule="evenodd" d="M100 50C127.614 50 150 72.3858 150 100V850H850V100C850 72.3858 872.386 50 900 50C927.614 50 950 72.3858 950 100V900C950 927.614 927.614 950 900 950H100C72.3858 950 50 927.614 50 900V100C50 72.3858 72.3858 50 100 50Z" fill="black"/>
<path d="M600 500C600 555.228 555.228 600 500 600C444.772 600 400 555.228 400 500C400 444.772 444.772 400 500 400C555.228 400 600 444.772 600 500Z" fill="black"/>
</g>
</g>
</svg>
