<svg width="1000" height="500" viewBox="0 0 1000 500" fill="none" xmlns="http://www.w3.org/2000/svg">
<g id="F190A&#9;EN">
<rect width="1000" height="500" fill="white"/>
<path id="Union" d="M537.5 70C537.5 49.2893 520.711 32.5 500 32.5C479.289 32.5 462.5 49.2893 462.5 70V212.5H320C299.289 212.5 282.5 229.289 282.5 250C282.5 270.711 299.289 287.5 320 287.5H462.5V430C462.5 450.711 479.289 467.5 500 467.5C520.711 467.5 537.5 450.711 537.5 430V287.5H680C700.711 287.5 717.5 270.711 717.5 250C717.5 229.289 700.711 212.5 680 212.5H537.5V70Z" fill="black"/>
</g>
</svg>
