<svg width="1000" height="1000" viewBox="0 0 1000 1000" fill="none" xmlns="http://www.w3.org/2000/svg">
<rect width="1000" height="1000" fill="white"/>
<path fill-rule="evenodd" clip-rule="evenodd" d="M529.999 440C512.221 453.333 487.777 453.333 469.999 440L69.999 140C47.9077 123.431 43.4305 92.0914 59.999 70C76.5676 47.9086 107.908 43.4315 129.999 60L499.999 337.5L869.999 60C892.09 43.4315 923.43 47.9087 939.999 70C956.568 92.0914 952.09 123.431 929.999 140L529.999 440Z" fill="black"/>
<path fill-rule="evenodd" clip-rule="evenodd" d="M469.999 560C487.777 546.667 512.221 546.667 529.999 560L929.999 860C952.09 876.569 956.568 907.909 939.999 930C923.43 952.091 892.09 956.569 869.999 940L499.999 662.5L129.999 940C107.908 956.569 76.5676 952.091 59.999 930C43.4305 907.909 47.9076 876.569 69.999 860L469.999 560Z" fill="black"/>
</svg>
