<svg width="1000" height="1000" viewBox="0 0 1000 1000" fill="none" xmlns="http://www.w3.org/2000/svg">
<g id="F1901&#9;AKESI">
<rect width="1000" height="1000" fill="white"/>
<g id="Union">
<path d="M400 125C400 166.421 366.421 200 325 200C283.579 200 250 166.421 250 125C250 83.5786 283.579 50 325 50C366.421 50 400 83.5786 400 125Z" fill="black"/>
<path fill-rule="evenodd" clip-rule="evenodd" d="M500 250C435.402 250 364.572 256.816 308.128 281.446C279.345 294.005 251.986 312.192 231.751 338.682C215.525 359.923 205.256 384.732 201.553 412.5H125C104.289 412.5 87.5 429.289 87.5 450C87.5 470.711 104.289 487.5 125 487.5H200V562.5H100C79.2893 562.5 62.5 579.289 62.5 600C62.5 620.711 79.2893 637.5 100 637.5H200V712.5H125C104.289 712.5 87.5 729.289 87.5 750C87.5 770.711 104.289 787.5 125 787.5H201.553C205.256 815.268 215.525 840.077 231.751 861.318C251.986 887.808 279.345 905.995 308.128 918.554C364.572 943.184 435.402 950 500 950C564.598 950 635.428 943.184 691.872 918.554C720.655 905.995 748.014 887.808 768.249 861.318C784.475 840.077 794.744 815.268 798.447 787.5H875C895.711 787.5 912.5 770.711 912.5 750C912.5 729.289 895.711 712.5 875 712.5H800V637.5H900C920.711 637.5 937.5 620.711 937.5 600C937.5 579.289 920.711 562.5 900 562.5H800V487.5H875C895.711 487.5 912.5 470.711 912.5 450C912.5 429.289 895.711 412.5 875 412.5H798.447C794.744 384.732 784.475 359.923 768.249 338.682C748.014 312.192 720.655 294.005 691.872 281.446C635.428 256.816 564.598 250 500 250ZM696.077 412.5C694.17 407.45 691.666 403.161 688.782 399.386C681.673 390.08 669.97 380.995 651.878 373.1C614.572 356.821 560.402 350 500 350C439.598 350 385.428 356.821 348.122 373.1C330.03 380.995 318.327 390.08 311.218 399.386C308.334 403.161 305.83 407.45 303.923 412.5H696.077ZM300 487.5V562.5H700V487.5H300ZM300 712.5V637.5H700V712.5H300ZM303.923 787.5C305.83 792.55 308.334 796.839 311.218 800.614C318.327 809.92 330.03 819.005 348.122 826.9C385.428 843.179 439.598 850 500 850C560.402 850 614.572 843.179 651.878 826.9C669.97 819.005 681.673 809.92 688.782 800.614C691.666 796.839 694.17 792.55 696.077 787.5H303.923Z" fill="black"/>
<path d="M675 200C716.421 200 750 166.421 750 125C750 83.5786 716.421 50 675 50C633.579 50 600 83.5786 600 125C600 166.421 633.579 200 675 200Z" fill="black"/>
</g>
</g>
</svg>
