<svg width="1000" height="1000" viewBox="0 0 1000 1000" fill="none" xmlns="http://www.w3.org/2000/svg">
<g id="F1908&#9;AWEN">
<rect width="1000" height="1000" fill="white"/>
<path id="Vector 125 (Stroke)" fill-rule="evenodd" clip-rule="evenodd" d="M500 50C522.943 50 542.943 65.6149 548.507 87.8732L739.039 850H900C927.614 850 950 872.386 950 900C950 927.614 927.614 950 900 950H700C677.057 950 657.057 934.385 651.493 912.127L500 306.155L348.507 912.127C342.943 934.385 322.943 950 300 950H100C72.3858 950 50 927.614 50 900C50 872.386 72.3858 850 100 850H260.961L451.493 87.8732C457.057 65.6149 477.057 50 500 50Z" fill="black"/>
</g>
</svg>
