<svg width="1000" height="1000" viewBox="0 0 1000 1000" fill="none" xmlns="http://www.w3.org/2000/svg">
<g id="F190F&#9;INSA">
<rect width="1000" height="1000" fill="white"/>
<g id="Vector">
<path d="M600 500C600 555.228 555.228 600 500 600C444.772 600 400 555.228 400 500C400 444.772 444.772 400 500 400C555.228 400 600 444.772 600 500Z" fill="black"/>
<path fill-rule="evenodd" clip-rule="evenodd" d="M200 150C227.614 150 250 172.386 250 200V750H750V200C750 172.386 772.386 150 800 150C827.614 150 850 172.386 850 200V800C850 827.614 827.614 850 800 850H200C172.386 850 150 827.614 150 800V200C150 172.386 172.386 150 200 150Z" fill="black"/>
</g>
</g>
</svg>
