<svg width="1000" height="1000" viewBox="0 0 1000 1000" fill="none" xmlns="http://www.w3.org/2000/svg">
<g id="F190A&#9;EN">
<rect width="1000" height="1000" fill="white"/>
<path id="Union" d="M550 100C550 72.3858 527.614 50 500 50C472.386 50 450 72.3858 450 100V450H100C72.3858 450 50 472.386 50 500C50 527.614 72.3858 550 100 550H450V900C450 927.614 472.386 950 500 950C527.614 950 550 927.614 550 900V550H900C927.614 550 950 527.614 950 500C950 472.386 927.614 450 900 450H550V100Z" fill="black"/>
</g>
</svg>
