<svg width="1000" height="500" viewBox="0 0 1000 500" fill="none" xmlns="http://www.w3.org/2000/svg">
<g id="F1909&#9;E">
<rect width="1000" height="500" fill="white"/>
<g id="Vector">
<path fill-rule="evenodd" clip-rule="evenodd" d="M537.5 250C537.5 259.946 533.549 269.484 526.517 276.517L346.517 456.517C331.872 471.161 308.128 471.161 293.484 456.517C278.839 441.872 278.839 418.128 293.484 403.483L446.967 250L293.483 96.5165C278.839 81.8718 278.839 58.1282 293.483 43.4835C308.128 28.8388 331.872 28.8388 346.516 43.4835L526.517 223.484C533.549 230.516 537.5 240.054 537.5 250Z" fill="black"/>
<path fill-rule="evenodd" clip-rule="evenodd" d="M717.5 250C717.5 259.946 713.549 269.484 706.517 276.517L526.516 456.517C511.872 471.161 488.128 471.161 473.483 456.517C458.839 441.872 458.839 418.128 473.483 403.483L626.967 250L473.483 96.5165C458.839 81.8718 458.839 58.1282 473.483 43.4835C488.128 28.8388 511.872 28.8388 526.516 43.4835L706.517 223.484C713.549 230.516 717.5 240.054 717.5 250Z" fill="black"/>
</g>
</g>
</svg>
