<svg width="1000" height="1000" viewBox="0 0 1000 1000" fill="none" xmlns="http://www.w3.org/2000/svg">
<g id="F1902&#9;ALA">
<rect width="1000" height="1000" fill="white"/>
<path id="Union" d="M135.355 64.6447C115.829 45.1184 84.1709 45.1184 64.6447 64.6447C45.1184 84.1709 45.1184 115.829 64.6447 135.355L429.289 500L64.6447 864.645C45.1184 884.171 45.1184 915.829 64.6447 935.355C84.1709 954.882 115.829 954.882 135.355 935.355L500 570.711L864.645 935.355C884.171 954.882 915.829 954.882 935.355 935.355C954.882 915.829 954.882 884.171 935.355 864.645L570.711 500L935.355 135.355C954.882 115.829 954.882 84.1709 935.355 64.6447C915.829 45.1184 884.171 45.1184 864.645 64.6447L500 429.289L135.355 64.6447Z" fill="black"/>
</g>
</svg>
