<svg width="1000" height="500" viewBox="0 0 1000 500" fill="none" xmlns="http://www.w3.org/2000/svg">
<g id="F1908&#9;AWEN">
<rect width="1000" height="500" fill="white"/>
<path id="Vector 126 (Stroke)" d="M535.793 58.8147C530.901 43.1594 516.402 32.5 500 32.5C483.598 32.5 469.099 43.1594 464.207 58.8147L464.158 58.9723L360.654 390.183C356.463 388.831 351.906 386.373 346.517 380.983C331.872 366.339 308.128 366.339 293.483 380.983C278.839 395.628 278.839 419.372 293.483 434.016C327 467.533 363.059 467.513 386.184 467.5H386.199C386.637 467.5 387.071 467.5 387.5 467.5C403.902 467.5 418.401 456.841 423.293 441.185L500 195.723L576.707 441.185C581.599 456.841 596.098 467.5 612.5 467.5C612.934 467.5 613.372 467.5 613.816 467.5C636.941 467.513 673 467.533 706.517 434.016C721.161 419.372 721.161 395.628 706.516 380.983C691.872 366.339 668.128 366.339 653.483 380.983C648.094 386.373 643.537 388.831 639.346 390.183L535.793 58.8147Z" fill="black"/>
</g>
</svg>
