<svg width="1000" height="1000" viewBox="0 0 1000 1000" fill="none" xmlns="http://www.w3.org/2000/svg">
<g id="F1905&#9;ANPA">
<rect width="1000" height="1000" fill="white"/>
<g id="Vector">
<path fill-rule="evenodd" clip-rule="evenodd" d="M100 200C127.614 200 150 222.386 150 250V500H850V250C850 222.386 872.386 200 900 200C927.614 200 950 222.386 950 250V550C950 577.614 927.614 600 900 600H100C72.3858 600 50 577.614 50 550V250C50 222.386 72.3858 200 100 200Z" fill="black"/>
<path d="M575 725C575 766.421 541.421 800 500 800C458.579 800 425 766.421 425 725C425 683.579 458.579 650 500 650C541.421 650 575 683.579 575 725Z" fill="black"/>
</g>
</g>
</svg>
