<svg width="1000" height="500" viewBox="0 0 1000 500" fill="none" xmlns="http://www.w3.org/2000/svg">
<rect width="1000" height="500" fill="white"/>
<rect width="16000" height="500" fill="white"/>
<rect width="1000" height="500" fill="white"/>
<path d="M537.5 80C537.5 59.2893 520.711 42.5 500 42.5C479.289 42.5 462.5 59.2893 462.5 80L462.5 200C462.5 220.711 479.289 237.5 500 237.5C520.711 237.5 537.5 220.711 537.5 200V80Z" fill="black"/>
<path fill-rule="evenodd" clip-rule="evenodd" d="M500 450C526.251 450 550.14 439.885 567.982 423.339L571.97 430.758C581.778 448.999 604.516 455.837 622.757 446.03C640.998 436.222 647.836 413.484 638.029 395.243L588.029 302.243C587.344 300.969 586.595 299.75 585.79 298.589C568.308 269.479 536.429 250 500 250C444.772 250 400 294.772 400 350C400 405.228 444.772 450 500 450ZM500 375C513.807 375 525 363.807 525 350C525 336.193 513.807 325 500 325C486.193 325 475 336.193 475 350C475 363.807 486.193 375 500 375Z" fill="black"/>
</svg>
