<svg width="1000" height="1000" viewBox="0 0 1000 1000" fill="none" xmlns="http://www.w3.org/2000/svg">
<g id="F190E&#9;ILO">
<rect width="1000" height="1000" fill="white"/>
<path id="Vector 127 (Stroke)" fill-rule="evenodd" clip-rule="evenodd" d="M50 100C50 72.3858 72.3858 50 100 50H900C927.614 50 950 72.3858 950 100V500C950 527.614 927.614 550 900 550H550V900C550 927.614 527.614 950 500 950C472.386 950 450 927.614 450 900V550H100C72.3858 550 50 527.614 50 500V100ZM550 450H850V150H550V450ZM450 150V450H150V150H450Z" fill="black"/>
</g>
</svg>
