<svg width="1000" height="500" viewBox="0 0 1000 500" fill="none" xmlns="http://www.w3.org/2000/svg">
<g id="F1902&#9;ALA">
<rect width="1000" height="500" fill="white"/>
<path id="Union" d="M346.517 43.4835C331.872 28.8388 308.128 28.8388 293.483 43.4835C278.839 58.1282 278.839 81.8718 293.483 96.5165L446.967 250L293.483 403.483C278.839 418.128 278.839 441.872 293.483 456.517C308.128 471.161 331.872 471.161 346.517 456.517L500 303.033L653.483 456.517C668.128 471.161 691.872 471.161 706.517 456.517C721.161 441.872 721.161 418.128 706.517 403.484L553.033 250L706.517 96.5165C721.161 81.8718 721.161 58.1282 706.517 43.4835C691.872 28.8388 668.128 28.8388 653.483 43.4835L500 196.967L346.517 43.4835Z" fill="black"/>
</g>
</svg>
