<svg width="1000" height="500" viewBox="0 0 1000 500" fill="none" xmlns="http://www.w3.org/2000/svg">
<g id="F190E&#9;ILO">
<rect width="1000" height="500" fill="white"/>
<path id="Vector 127 (Stroke)" fill-rule="evenodd" clip-rule="evenodd" d="M282.5 70C282.5 49.2893 299.289 32.5 320 32.5H680C700.711 32.5 717.5 49.2893 717.5 70V250C717.5 270.711 700.711 287.5 680 287.5H537.5V430C537.5 450.711 520.711 467.5 500 467.5C479.289 467.5 462.5 450.711 462.5 430V287.5H320C299.289 287.5 282.5 270.711 282.5 250V70ZM537.5 212.5H642.5V107.5H537.5V212.5ZM462.5 107.5V212.5H357.5V107.5H462.5Z" fill="black"/>
</g>
</svg>
