<svg width="1000" height="500" viewBox="0 0 1000 500" fill="none" xmlns="http://www.w3.org/2000/svg">
<g id="F1919&#9;KEPEKEN">
<rect width="1000" height="500" fill="white"/>
<path id="Union" fill-rule="evenodd" clip-rule="evenodd" d="M668.5 32.5C689.211 32.5 706 49.2893 706 70V205C706 225.711 689.211 242.5 668.5 242.5H564.11C632.223 262.24 683.5 319.004 683.5 389.5V430C683.5 450.711 666.711 467.5 646 467.5C625.29 467.5 608.5 450.711 608.5 430V389.5C608.5 351.433 571.281 310 511 310C450.72 310 413.5 351.433 413.5 389.5V430C413.5 448.392 400.162 464.07 382.007 467.016C363.853 469.962 346.241 459.307 340.425 441.859L295.425 306.859C288.875 287.211 299.494 265.974 319.142 259.424C338.79 252.875 360.027 263.494 366.576 283.141L371.606 298.23C393.004 272.129 423.273 252.533 457.89 242.5H353.5C332.789 242.5 316 225.711 316 205V70C316 49.2893 332.789 32.5 353.5 32.5H668.5ZM548.5 167.5H631V107.5H548.5V167.5ZM473.5 107.5V167.5H391V107.5H473.5Z" fill="black"/>
</g>
</svg>
