<svg width="1000" height="500" viewBox="0 0 1000 500" fill="none" xmlns="http://www.w3.org/2000/svg">
<g id="F1913&#9;JO">
<rect width="1000" height="500" fill="white"/>
<path id="Union" fill-rule="evenodd" clip-rule="evenodd" d="M500 32.5C440.629 32.5 392.5 80.6294 392.5 140C392.5 152.995 394.806 165.451 399.03 176.982C361.57 206.799 337.5 252.891 337.5 304.613C337.5 394.464 410.144 467.5 500 467.5C589.856 467.5 662.5 394.464 662.5 304.613C662.5 283.902 645.711 267.113 625 267.113H520.833C500.123 267.113 483.333 283.902 483.333 304.613C483.333 325.324 500.123 342.113 520.833 342.113H579.162C565.137 371.931 534.909 392.5 500 392.5C451.784 392.5 412.5 353.261 412.5 304.613C412.5 275.713 426.367 250.07 447.853 234.027C463.297 242.611 481.078 247.5 500 247.5C559.371 247.5 607.5 199.371 607.5 140C607.5 80.6294 559.371 32.5 500 32.5ZM467.5 140C467.5 122.051 482.051 107.5 500 107.5C517.949 107.5 532.5 122.051 532.5 140C532.5 157.949 517.949 172.5 500 172.5C482.051 172.5 467.5 157.949 467.5 140Z" fill="black"/>
</g>
</svg>
