<svg width="1000" height="1000" viewBox="0 0 1000 1000" fill="none" xmlns="http://www.w3.org/2000/svg">
<rect width="1000" height="1000" fill="white"/>
<path fill-rule="evenodd" clip-rule="evenodd" d="M550 100C550 72.3858 527.614 50 500 50C472.386 50 450 72.3858 450 100V242.133C437.961 238.401 424.876 233.938 411.028 229.214C270.038 181.117 50 106.053 50 502.5C50 752.5 250 952.5 500 952.5C750 952.5 950 752.5 950 502.5C950 112.863 728.692 184.81 587.755 230.629C574.357 234.985 561.686 239.105 550 242.569V100ZM850 502.5C850 697.271 694.772 852.5 500 852.5C305.228 852.5 150 697.271 150 502.5C150 385.727 171.076 333.201 186.891 311.636C197.778 296.79 210.577 290 237.5 290C269.662 290 309.042 300.507 355.877 316.118C362.325 318.268 369.328 320.655 376.54 323.114L376.55 323.117L376.551 323.117C392.106 328.42 408.636 334.055 422.682 338.354C441.939 344.25 471.077 352.5 500 352.5C528.253 352.5 556.919 344.746 576.152 339.114C589.659 335.158 605.725 329.941 620.909 325.009C628.537 322.532 635.942 320.127 642.689 317.99C689.329 303.221 728.856 293.337 761.25 293.742C788.786 294.086 802.286 301.245 813.394 316.242C829.066 337.398 850 388.64 850 502.5Z" fill="black"/>
</svg>
