<svg width="1000" height="1000" viewBox="0 0 1000 1000" fill="none" xmlns="http://www.w3.org/2000/svg">
<g id="F191D&#9;KON">
<rect width="1000" height="1000" fill="white"/>
<path id="Ellipse 8 (Stroke)" fill-rule="evenodd" clip-rule="evenodd" d="M209.419 263.219C180.436 335.949 220.865 422.68 315.008 452.305C455.209 496.423 537.479 638.286 483.477 773.799C457.022 840.184 411.92 877.399 359.372 901.038C322.46 917.644 278.714 928.552 237.174 938.91C224.592 942.047 212.214 945.134 200.288 948.313C173.606 955.426 146.209 939.562 139.096 912.88C131.983 886.197 147.846 858.801 174.529 851.687C190.834 847.341 205.943 843.561 220.06 840.029C258.956 830.298 290.309 822.454 318.346 809.842C352.102 794.656 375.544 774.515 390.581 736.78C419.564 664.05 379.135 577.319 284.992 547.694C144.791 503.576 62.5207 361.713 116.523 226.2C142.972 159.831 188.031 122.612 240.559 98.9661C277.471 82.35 321.217 71.4399 362.766 61.0775C375.327 57.9449 387.687 54.8624 399.597 51.6873C426.28 44.5742 453.676 60.4382 460.789 87.1206C467.903 113.803 452.039 141.2 425.356 148.313C409.077 152.653 393.992 156.427 379.898 159.954C340.984 169.692 309.633 177.537 281.608 190.153C247.89 205.331 224.463 225.468 209.419 263.219Z" fill="black"/>
<path id="Ellipse 9 (Stroke)" fill-rule="evenodd" clip-rule="evenodd" d="M609.419 263.219C580.436 335.949 620.865 422.68 715.008 452.305C855.209 496.423 937.479 638.286 883.477 773.799C857.022 840.184 811.92 877.399 759.372 901.038C722.46 917.644 678.714 928.552 637.174 938.91C624.592 942.047 612.214 945.134 600.288 948.313C573.606 955.426 546.209 939.562 539.096 912.88C531.983 886.197 547.846 858.801 574.529 851.687C590.834 847.341 605.943 843.561 620.06 840.029C658.956 830.298 690.309 822.454 718.346 809.842C752.102 794.656 775.544 774.515 790.581 736.78C819.564 664.05 779.135 577.319 684.992 547.694C544.791 503.576 462.521 361.713 516.523 226.2C542.972 159.831 588.031 122.612 640.559 98.9661C677.471 82.35 721.217 71.4399 762.766 61.0775C775.327 57.9449 787.687 54.8624 799.597 51.6873C826.28 44.5742 853.676 60.4382 860.789 87.1206C867.903 113.803 852.039 141.2 825.356 148.313C809.077 152.653 793.992 156.427 779.898 159.954C740.984 169.692 709.633 177.537 681.608 190.153C647.89 205.331 624.463 225.468 609.419 263.219Z" fill="black"/>
</g>
</svg>
