<svg width="1000" height="500" viewBox="0 0 1000 500" fill="none" xmlns="http://www.w3.org/2000/svg">
<g id="F1916&#9;KAMA">
<rect width="1000" height="500" fill="white"/>
<path id="Vector 127 (Stroke)" d="M357.362 357.845C376.026 375.62 394.711 385.892 417.162 390.157L520.707 58.8148C525.516 43.4242 539.626 32.8312 555.747 32.5076C571.868 32.184 586.392 42.2023 591.815 57.3874L704.315 372.387C708.373 383.749 706.717 396.368 699.865 406.297L699.813 406.373L699.757 406.454C699.718 406.509 699.678 406.567 699.635 406.627C699.55 406.749 699.455 406.881 699.352 407.024C699.146 407.311 698.904 407.641 698.626 408.012C698.07 408.753 697.368 409.657 696.514 410.699C694.807 412.783 692.486 415.429 689.503 418.437C683.538 424.451 674.894 431.949 663.213 439.272C639.551 454.107 604.562 467.5 556.5 467.5C535.789 467.5 519 450.711 519 430C519 409.289 535.789 392.5 556.5 392.5C589.887 392.5 611.148 383.393 623.374 375.728C624.075 375.289 624.75 374.851 625.4 374.417L558.871 188.135L479.793 441.185C474.9 456.841 460.402 467.5 444 467.5C389.371 467.5 345.197 449.831 305.638 412.155C290.64 397.872 290.061 374.135 304.345 359.138C318.628 344.141 342.364 343.562 357.362 357.845Z" fill="black"/>
</g>
</svg>
