<svg width="1000" height="1000" viewBox="0 0 1000 1000" fill="none" xmlns="http://www.w3.org/2000/svg">
<g id="F1914&#9;KALA">
<rect width="1000" height="1000" fill="white"/>
<path id="Vector (Stroke)" fill-rule="evenodd" clip-rule="evenodd" d="M50 300C50 272.386 72.3858 250 100 250C177.725 250 247.032 266.582 305.586 306.034C341.35 330.131 371.339 361.572 396.313 399.873C472.761 302.719 582.298 250 711.765 250C834.748 250 950 363.654 950 500C950 659.699 831.365 750 711.765 750C582.298 750 472.761 697.281 396.313 600.127C371.339 638.428 341.35 669.869 305.586 693.966C247.032 733.418 177.725 750 100 750C72.3858 750 50 727.614 50 700C50 672.386 72.3858 650 100 650C163.451 650 211.791 636.582 249.708 611.034C283.758 588.092 313.214 552.8 337.362 500C313.214 447.2 283.758 411.908 249.708 388.966C211.791 363.418 163.451 350 100 350C72.3858 350 50 327.614 50 300ZM448.748 500C507.25 598.868 598.305 650 711.765 650C780.4 650 850 600.301 850 500C850 416.346 777.017 350 711.765 350C598.305 350 507.25 401.132 448.748 500Z" fill="black"/>
</g>
</svg>
