<svg width="1000" height="1000" viewBox="0 0 1000 1000" fill="none" xmlns="http://www.w3.org/2000/svg">
<g id="F1918&#9;KEN">
<rect width="1000" height="1000" fill="white"/>
<path id="Vector 134 (Stroke)" d="M300 100.003C300 72.3886 277.614 50 250 50C222.386 50 200 72.3886 200 100.003V900C200 927.614 222.386 950 250 950C277.614 950 300 927.614 300 900V551.478C499.77 563.619 596.288 648.4 645.1 726.5C672.443 770.248 686.288 814.336 693.238 847.698C696.697 864.298 698.393 877.98 699.222 887.259C699.635 891.89 699.83 895.396 699.921 897.589C699.967 898.685 699.987 899.45 699.995 899.86C699.998 900.033 700 900.142 700 900.187C700.101 927.715 722.448 950 750 950C777.614 950 800 927.614 800 900L800 899.859L799.999 899.681C799.999 899.55 799.997 899.394 799.996 899.214C799.994 899.009 799.991 898.773 799.986 898.505L799.983 898.293C799.981 898.151 799.978 898.002 799.975 897.845C799.952 896.741 799.911 895.26 799.835 893.426C799.682 889.76 799.388 884.673 798.825 878.366C797.701 865.77 795.491 848.202 791.137 827.302C782.462 785.664 765.057 729.752 729.9 673.5C688.089 606.603 623.073 542.314 524.203 500C623.073 457.686 688.089 393.397 729.9 326.5C765.057 270.248 782.462 214.336 791.137 172.698C795.491 151.798 797.701 134.23 798.825 121.634C799.388 115.327 799.682 110.24 799.835 106.574C799.911 104.74 799.952 103.259 799.975 102.155C799.986 101.604 799.992 101.146 799.996 100.786C799.997 100.606 799.999 100.45 799.999 100.319L800 100.141L800 100.066C800 72.4515 777.614 50 750 50C722.448 50 700.101 72.2847 700 99.8128C700 99.858 699.998 99.9675 699.995 100.14C699.987 100.55 699.967 101.315 699.921 102.411C699.83 104.604 699.635 108.11 699.222 112.741C698.393 122.02 696.697 135.702 693.238 152.302C686.288 185.664 672.443 229.752 645.1 273.5C596.288 351.6 499.77 436.381 300 448.522V100.003Z" fill="black"/>
</g>
</svg>
