<svg width="1000" height="1000" viewBox="0 0 1000 1000" fill="none" xmlns="http://www.w3.org/2000/svg">
<rect width="1000" height="1000" fill="white"/>
<path fill-rule="evenodd" clip-rule="evenodd" d="M464.41 52.4924C490.648 43.8825 519.03 58.5809 527.64 84.8186C527.673 84.9187 527.711 85.0362 527.754 85.1707C527.808 85.3369 527.87 85.5291 527.94 85.7465C528.193 86.5333 528.549 87.6523 528.995 89.0728C529.886 91.9124 531.136 95.9658 532.625 100.987C535.595 111.005 539.554 125 543.523 140.973C550.435 168.783 558.326 206.224 559.767 239.599C568.646 236.842 578.008 233.798 587.755 230.629C728.692 184.81 950 112.863 950 502.5C950 752.5 750 952.5 500 952.5C250 952.5 50 752.5 50 502.5C50 106.053 270.038 181.117 411.028 229.214C428.774 235.267 445.267 240.894 459.912 245.099C459.135 222.687 453.323 192.645 446.476 165.092C442.946 150.889 439.405 138.367 436.75 129.413C435.426 124.948 434.332 121.401 433.582 119.012C433.208 117.819 432.92 116.916 432.733 116.335C432.64 116.045 432.572 115.835 432.531 115.709C423.926 89.474 438.175 61.1015 464.41 52.4924ZM850 502.5C850 697.271 694.772 852.5 500 852.5C305.228 852.5 150 697.271 150 502.5C150 385.727 171.076 333.201 186.891 311.636C197.778 296.79 210.577 290 237.5 290C269.662 290 309.042 300.507 355.877 316.118C362.325 318.268 369.328 320.655 376.54 323.114L376.55 323.117L376.551 323.117C392.106 328.42 408.636 334.055 422.682 338.354C441.939 344.25 471.077 352.5 500 352.5C528.253 352.5 556.919 344.746 576.152 339.114C589.659 335.158 605.725 329.941 620.909 325.009C628.537 322.532 635.942 320.127 642.689 317.99C689.329 303.221 728.856 293.337 761.25 293.742C788.786 294.086 802.286 301.245 813.394 316.242C829.066 337.398 850 388.64 850 502.5Z" fill="black"/>
</svg>
