<svg width="1000" height="1000" viewBox="0 0 1000 1000" fill="none" xmlns="http://www.w3.org/2000/svg">
<g id="F191C&#9;KO">
<rect x="0.5" y="0.5" width="999" height="999" stroke="white"/>
<path id="Vector 205" d="M639.244 813.718C743.744 830.718 830.789 825.821 795.244 727.718C782.744 693.218 733.744 642.218 776.244 599.218C818.46 556.506 900 541.955 900 473.718C900 410.718 781.319 427.997 749.745 375.718C719.245 325.218 745.745 280.218 749.745 198.718C753.745 117.218 654.244 111.718 579.244 141.718C504.244 171.718 455.244 241.718 394.244 255.718C334.662 269.392 262.244 141.718 168.744 164.218C97.1077 181.457 105.745 320.718 156.245 392.218C206.745 463.718 135.744 556.718 115.744 615.718C90.0669 691.467 89.2445 794.718 190.745 859.718C292.245 924.718 391.744 754.218 438.244 727.718C484.744 701.218 536.403 796.988 639.244 813.718Z" stroke="black" stroke-width="100"/>
</g>
</svg>
