<svg width="1000" height="1000" viewBox="0 0 1000 1000" fill="none" xmlns="http://www.w3.org/2000/svg">
<g id="F1910&#9;JAKI">
<rect width="1000" height="1000" fill="white"/>
<path id="path17613 (Stroke)" fill-rule="evenodd" clip-rule="evenodd" d="M265.112 364.06C219.716 468.168 197.708 587.06 211.371 674.155C217.97 716.221 248.975 754.926 299.831 786.325C329.28 767.068 360.9 741.943 393.188 709.141C409.684 692.384 426.328 671.947 442.477 648.834C426.735 641.439 411.856 632.399 398.528 622.266C362.253 594.686 326.663 550.352 326.663 494.964C326.663 392.397 427.977 319.299 530.519 320.34C543.397 320.471 556.537 321.209 569.837 322.551C570.988 310.786 571.603 299.404 571.668 288.473C561.044 290.527 550.398 292.634 539.775 294.749C455.84 311.461 362.489 333.253 265.112 364.06ZM142.401 407.268C112.143 503.495 99.2932 604.962 112.579 689.653C122.038 749.944 155.459 798.34 198.698 835.841C177.629 842.791 160.471 846.335 148.667 848.141C142.104 849.145 137.205 849.61 134.222 849.824C132.731 849.931 131.721 849.975 131.224 849.992C131.076 849.997 130.974 850 130.917 850.001C103.482 850.21 81.3056 872.515 81.3056 900C81.3055 927.614 103.691 950 131.306 950L131.306 900C131.306 950 131.332 950 131.36 950L131.418 950L131.544 949.999C131.632 949.999 131.729 949.998 131.836 949.997C132.048 949.996 132.297 949.993 132.58 949.988C133.147 949.978 133.856 949.961 134.7 949.932C136.39 949.873 138.627 949.765 141.377 949.568C146.877 949.173 154.439 948.421 163.789 946.991C182.486 944.131 208.363 938.553 239.189 927.68C258.545 920.853 279.778 911.964 302.342 900.407C375.807 933.283 459.269 950 530.011 950C605.268 950 704.916 937.361 787.756 900.192C870.943 862.868 948.047 794.719 948.047 681.904C948.047 606.259 923.349 542.137 884.712 490.138C899.117 472.176 911.638 453.412 921.759 434.166C943.553 392.725 955.89 345.646 947.206 298.894C938.621 252.675 913.797 218.443 877.873 196.736C844.125 176.343 803.787 168.867 764.941 167.051C729.585 165.399 691.017 168.342 652.372 173.456C637.743 136.221 613.795 103.077 577.377 79.2463L576.045 78.3747L574.66 77.5896C503.693 37.3531 431.45 44.0234 368.889 78.8753C308.885 112.303 257.893 171.09 217.996 237.375C209.299 251.825 200.982 266.883 193.094 282.425C156.219 294.919 118.822 308.719 81.1767 324.016C55.5939 334.412 43.2823 363.578 53.6778 389.161C64.0734 414.743 93.2396 427.055 118.822 416.659C126.691 413.462 134.552 410.332 142.401 407.268ZM338.019 238.729C402.329 221.566 463.637 207.945 520.247 196.674C529.82 194.768 539.674 192.808 549.739 190.847C542.668 179.585 534.003 170.64 523.901 163.777C487.896 143.928 453.482 146.22 417.556 166.234C390.852 181.11 363.734 205.862 338.019 238.729ZM671.408 271.812C672.25 294.969 671.057 318.855 668.204 343.013C715.766 358.06 762.277 380.556 803.316 410.398C806.86 412.975 810.367 415.611 813.836 418.306C821.439 408.005 827.942 397.718 833.252 387.621C848.385 358.845 852.192 334.948 848.887 317.155C845.484 298.829 837.499 289.178 826.156 282.324C812.637 274.155 791.249 268.39 760.273 266.942C733.336 265.684 703.225 267.775 671.408 271.812ZM742.236 489.641C713.701 469.267 681.488 453.249 648.337 441.767C637.537 480.692 623.345 520.025 606.665 558.102C654.81 544.678 701.936 520.351 742.236 489.641ZM548.817 668.939C522.576 711.533 493.85 749.43 464.454 779.293C445.021 799.034 425.664 816.504 406.617 831.963C448.94 843.887 492.166 850 530.011 850C596.78 850 681.149 838.419 746.82 808.954C812.145 779.645 848.047 738.746 848.047 681.904C848.047 636.059 835.036 595.908 812.654 561.513C740.617 619.178 645.741 663.075 548.817 668.939ZM494.114 562.226C516.794 517.798 536.372 469.435 550.234 421.209C543.232 420.696 536.312 420.404 529.503 420.335C464.512 419.675 426.663 464.531 426.663 494.964C426.663 506.076 435.018 524.388 459.052 542.662C470.197 551.135 482.352 557.7 494.114 562.226ZM131.255 850C131.255 850 131.255 850 131.254 850L131.236 850C131.242 850 131.249 850 131.255 850Z" fill="black"/>
</g>
</svg>
