<svg width="1000" height="1000" viewBox="0 0 1000 1000" fill="none" xmlns="http://www.w3.org/2000/svg">
<g id="F1911&#9;JAN">
<rect width="1000" height="1000" fill="white"/>
<path id="Union" fill-rule="evenodd" clip-rule="evenodd" d="M500 50C279.086 50 100 229.086 100 450C100 560.934 145.159 661.32 218.096 733.779L68.4613 862.037C47.495 880.008 45.067 911.573 63.0381 932.539C81.0092 953.506 112.574 955.934 133.54 937.963L299.162 796.001C358.186 830.336 426.797 850 500 850C573.217 850 641.839 830.328 700.87 795.982L867.568 938.054C888.585 955.966 920.143 953.449 938.055 932.433C955.967 911.416 953.45 879.858 932.434 861.946L781.972 733.711C854.869 661.258 900 560.899 900 450C900 229.086 720.914 50 500 50ZM200 450C200 284.315 334.315 150 500 150C665.685 150 800 284.315 800 450C800 615.685 665.685 750 500 750C334.315 750 200 615.685 200 450Z" fill="black"/>
</g>
</svg>
