<svg width="1000" height="500" viewBox="0 0 1000 500" fill="none" xmlns="http://www.w3.org/2000/svg">
<g id="F1910&#9;JAKI">
<rect width="1000" height="500" fill="white"/>
<path id="path17613 (Stroke)" fill-rule="evenodd" clip-rule="evenodd" d="M317.741 229.093C308.726 266.478 305.635 304.475 310.842 337.669C314.18 358.947 323.163 377.099 335.265 392.382C334.895 392.416 334.582 392.441 334.327 392.46C333.947 392.487 333.698 392.499 333.588 392.504C313.108 392.771 296.588 409.457 296.588 430C296.588 450.711 313.417 467.5 334.128 467.5L334.259 467.5C334.32 467.5 334.385 467.499 334.454 467.499C334.593 467.498 334.747 467.496 334.918 467.493C335.261 467.487 335.667 467.477 336.137 467.461C337.076 467.428 338.267 467.37 339.693 467.267C342.546 467.063 346.348 466.681 350.973 465.974C360.223 464.559 372.786 461.836 387.625 456.602C395.084 453.971 403.084 450.718 411.492 446.701C444.88 460.518 481.74 467.5 513.505 467.5C548.644 467.5 595.777 461.654 635.631 443.772C675.744 425.774 716.621 391.02 716.621 331.857C716.621 298.589 706.981 269.874 691.612 245.95C695.878 239.927 699.724 233.717 703.068 227.357C713.874 206.808 720.705 182.146 715.991 156.763C711.351 131.781 697.654 112.69 677.801 100.693C659.58 89.683 638.585 86.0619 619.924 85.1899C606.454 84.5604 592.103 85.3187 577.688 86.8584C570.006 71.9264 558.806 58.4306 543.033 48.1096L542.034 47.4559L540.996 46.8671C503.895 25.8318 465.776 29.5214 433.7 47.3905C403.542 64.1917 378.923 93.0552 360.247 124.084C357.179 129.181 354.209 134.443 351.347 139.847C336.349 145.034 321.164 150.702 305.883 156.911C286.696 164.708 277.462 186.583 285.259 205.77C290.873 219.586 303.787 228.241 317.741 229.093ZM405.401 201.075C387.707 244.236 379.58 291.906 384.936 326.045C386.693 337.242 394.433 349.39 409.822 360.72C419.865 353.476 430.444 344.564 441.245 333.591C444.762 330.018 448.315 326.016 451.864 321.642C449.585 320.137 447.38 318.574 445.259 316.961C427.099 303.154 406.999 279.3 406.999 247.734C406.999 227.41 414.012 209.611 425.384 195.146C418.773 197.032 412.109 199.006 405.401 201.075ZM501.602 230.678C496.483 232.13 492.076 234.5 488.706 237.274C483.264 241.756 482.143 245.7 482.013 247.391C482.13 247.536 483.102 251.517 490.653 257.258L490.706 257.299C494.669 248.636 498.334 239.713 501.602 230.678ZM530.663 340.359C519.407 357.823 507.23 373.47 494.694 386.205C493.154 387.77 491.614 389.305 490.074 390.811C498.221 391.932 506.128 392.5 513.505 392.5C542.278 392.5 577.953 387.448 604.929 375.344C631.646 363.357 641.621 349.04 641.621 331.857C641.621 320.401 639.512 309.831 635.589 300.139C605.469 320.858 568.811 336.431 530.663 340.359ZM574.457 249.557C576.65 248.418 578.824 247.229 580.974 245.993C579.456 245.236 577.924 244.504 576.381 243.797C575.756 245.717 575.115 247.638 574.457 249.557ZM637.016 191.817C642.515 181.121 642.919 174.052 642.252 170.46C641.497 166.397 640.43 165.741 639.013 164.884C635.964 163.042 629.182 160.704 616.423 160.108C608.943 159.759 600.8 160.037 592.142 160.78C592.053 163.518 591.913 166.265 591.724 169.017C607.462 174.887 622.789 182.489 637.016 191.817Z" fill="black"/>
</g>
</svg>
