<svg width="1000" height="1000" viewBox="0 0 1000 1000" fill="none" xmlns="http://www.w3.org/2000/svg">
<g id="F1914&#9;KALA">
<rect width="1000" height="1000" fill="white"/>
<path id="Vector 197 (Stroke)" fill-rule="evenodd" clip-rule="evenodd" d="M950 500C950 416.941 913.345 349.913 849.546 306.437C787.853 264.397 704.714 246.811 612.541 250.03C471.205 254.967 347.308 339.578 255.187 427.333C224.943 392.302 199.84 358.957 181.034 332.283C168.593 314.636 158.985 300.019 152.546 289.912C149.329 284.862 146.908 280.946 145.325 278.35C144.534 277.053 143.953 276.087 143.587 275.474C143.404 275.168 143.275 274.95 143.2 274.824L143.126 274.698C129.159 250.892 98.5414 242.905 74.7242 256.859C50.8983 270.819 42.9 301.45 56.8596 325.276L56.9545 325.438C57.0002 325.515 57.0599 325.616 57.1335 325.741C57.2808 325.99 57.4839 326.332 57.742 326.764C58.2582 327.628 58.9951 328.853 59.9473 330.414C61.8514 333.537 64.6186 338.009 68.2073 343.642C75.3811 354.903 85.8577 370.832 99.3037 389.904C120.797 420.39 150.074 459.187 185.777 499.905C150.019 540.702 120.712 579.584 99.2129 610.125C85.7855 629.199 75.3258 645.131 68.1641 656.393C64.5815 662.027 61.8191 666.501 59.9183 669.624C58.9677 671.186 58.2322 672.411 57.7168 673.276C57.459 673.708 57.2563 674.05 57.1092 674.3C57.0357 674.424 56.976 674.526 56.9304 674.603L56.8354 674.765C42.8986 698.604 50.9262 729.228 74.7654 743.165C98.5976 757.098 129.21 749.079 143.153 725.256L143.165 725.235L143.224 725.135C143.298 725.009 143.427 724.792 143.609 724.486C143.974 723.874 144.554 722.908 145.343 721.611C146.922 719.017 149.338 715.102 152.549 710.052C158.974 699.948 168.563 685.332 180.984 667.688C199.791 640.972 224.912 607.564 255.192 572.473C347.356 660.285 471.305 745.028 612.538 749.969C704.712 753.195 787.853 735.609 849.547 693.566C913.346 650.089 950 583.058 950 500ZM616.032 349.969C510.099 353.67 408.413 419.45 323.995 499.9C408.505 580.454 510.239 646.329 616.035 650.031C695.183 652.8 754.9 637.053 793.232 610.93C829.46 586.242 850 550.275 850 500C850 449.725 829.46 413.761 793.233 389.074C754.9 362.952 695.183 347.205 616.032 349.969Z" fill="black"/>
</g>
</svg>
