<svg width="1000" height="1000" viewBox="0 0 1000 1000" fill="none" xmlns="http://www.w3.org/2000/svg">
<g id="F1910&#9;JAKI">
<rect width="1000" height="1000" fill="white"/>
<path id="path17613 (Stroke)" fill-rule="evenodd" clip-rule="evenodd" d="M234.937 488.804C211.787 557.958 203.347 623.006 211.371 674.155C218.957 722.513 258.795 766.428 323.964 799.909C325.742 800.822 327.532 801.724 329.331 802.613C375.563 781.74 423.231 751.858 465.28 709.141C477.232 697 489.271 682.931 501.154 667.314C464.323 661.396 427.708 644.452 398.528 622.266C362.253 594.686 326.663 550.352 326.663 494.964C326.663 392.398 427.977 319.299 530.519 320.34C566.209 320.703 603.906 325.726 641.464 335.359C644.395 312.921 645.484 291.728 644.62 272.23C610.994 277.809 576.22 285.563 542.319 294.173C516.939 300.619 490.816 306.945 464.076 313.421C410.023 326.512 353.452 340.213 295.416 356.739C270.693 398.808 249.967 443.904 234.937 488.804ZM161.816 399.99C153.765 418.89 146.499 437.969 140.109 457.06C113.93 535.261 101.229 617.302 112.579 689.653C122.513 752.974 158.878 803.174 205.289 841.412C188.604 844.578 173.964 846.584 162.154 847.852C151.863 848.957 143.785 849.494 138.452 849.756C135.787 849.886 133.814 849.947 132.599 849.976C131.992 849.99 131.575 849.996 131.356 849.999C131.276 849.999 131.223 850 131.197 850C103.633 850.059 81.3056 872.422 81.3056 900C81.3056 927.614 103.691 950 131.306 950L131.486 950C131.56 950 131.647 949.999 131.747 949.999C131.947 949.997 132.2 949.995 132.505 949.992C133.114 949.985 133.93 949.972 134.944 949.948C136.972 949.901 139.795 949.81 143.343 949.636C150.436 949.289 160.451 948.609 172.83 947.28C197.544 944.627 231.935 939.356 271.452 928.848C289.271 924.11 308.26 918.272 327.962 911.073C394.771 936.895 467.377 950 530.011 950C605.268 950 704.916 937.361 787.756 900.192C870.943 862.868 948.047 794.719 948.047 681.904C948.047 606.259 923.349 542.137 884.712 490.138C899.117 472.176 911.638 453.412 921.759 434.166C943.553 392.725 955.89 345.646 947.206 298.894C938.638 252.766 913.853 218.321 878.317 196.045C844.676 174.957 804.296 166.493 764.965 164.102C750.957 163.251 736.498 163.143 721.76 163.65C706.958 130.42 684.162 100.966 650.969 79.2464L649.637 78.3748L648.252 77.5897C576.657 36.9968 500.543 44.7858 433.354 77.6361C367.478 109.844 307.161 167.083 257.623 233.17C248.321 245.58 239.318 258.409 230.655 271.579C181.622 286.46 131.418 303.601 81.1767 324.016C55.5939 334.412 43.2823 363.578 53.6778 389.161C64.0734 414.744 93.2396 427.055 118.822 416.66C133.182 410.824 147.519 405.278 161.816 399.99ZM395.378 227.18C411.778 223.15 427.843 219.266 443.518 215.475C469.393 209.218 494.206 203.218 517.703 197.25C547.377 189.714 579.463 182.317 612.199 176.364C607.715 171.572 602.809 167.39 597.503 163.784C561.967 144.256 522.248 145.486 477.278 167.473C450.198 180.713 422.442 201.074 395.378 227.18ZM744.299 263.376C746.234 297.894 743.459 334.183 737.254 370.688C760.297 382.027 782.51 395.269 803.316 410.398C806.86 412.975 810.367 415.611 813.836 418.306C821.439 408.005 827.942 397.719 833.252 387.622C848.385 358.845 852.192 334.948 848.887 317.155C845.467 298.739 837.218 288.305 825.204 280.774C811.297 272.057 789.613 265.785 758.897 263.918C754.134 263.628 749.264 263.45 744.299 263.376ZM742.236 489.641C732.687 482.823 722.726 476.493 712.456 470.657C707.036 487.539 701.024 504.419 694.493 521.163C711.159 511.705 727.174 501.119 742.236 489.641ZM629.085 655.657C600.626 703.663 568.956 746.368 536.546 779.293C511.924 804.306 485.909 825.628 459.46 843.807C483.978 847.916 507.912 850 530.011 850C596.78 850 681.149 838.42 746.82 808.955C812.145 779.645 848.047 738.746 848.047 681.904C848.047 636.059 835.036 595.908 812.654 561.513C760.733 603.075 696.949 637.484 629.085 655.657ZM564.002 567.012C585.981 524.868 605.242 479.005 619.493 432.97C588.924 424.884 558.231 420.627 529.503 420.335C464.512 419.675 426.663 464.531 426.663 494.964C426.663 506.076 435.018 524.388 459.052 542.662C482.404 560.416 510.191 569.789 529.503 569.593C540.91 569.477 552.436 568.596 564.002 567.012Z" fill="black"/>
</g>
</svg>
