<svg width="1000" height="500" viewBox="0 0 1000 500" fill="none" xmlns="http://www.w3.org/2000/svg">
<g id="F1917&#9;KASI">
<rect width="1000" height="500" fill="white"/>
<path id="Union" fill-rule="evenodd" clip-rule="evenodd" d="M424.092 256.864C438.219 259.188 451.469 260.865 462.736 262.067V430C462.736 450.711 479.526 467.5 500.236 467.5C520.947 467.5 537.736 450.711 537.736 430V262.096C549.06 260.892 562.407 259.207 576.644 256.865C596.843 253.543 619.479 248.798 640.954 241.982C661.97 235.312 684.326 225.909 702.218 212.118C732.359 188.888 750.277 152.887 760.337 127.278C765.639 113.782 769.37 101.553 771.787 92.6774C773.001 88.2173 773.899 84.5457 774.509 81.9135C774.815 80.596 775.049 79.5345 775.215 78.7602C775.298 78.3729 775.364 78.0571 775.414 77.8164C775.439 77.6961 775.459 77.5946 775.476 77.5123L775.498 77.4034L775.514 77.3236C777.758 66.055 774.712 54.3798 767.249 45.6437C759.786 36.9076 748.73 32.0749 737.249 32.5305L737.069 32.5379C736.979 32.5417 736.857 32.5469 736.706 32.5536C736.404 32.5671 735.982 32.5865 735.448 32.6129C734.379 32.6658 732.856 32.7465 730.929 32.8625C727.078 33.0943 721.599 33.468 714.895 34.0435C701.528 35.1909 683.078 37.158 662.819 40.4508C642.659 43.7275 620.062 48.4191 598.616 55.1772C577.627 61.7908 555.295 71.1266 537.398 84.8422C522.113 96.5556 509.959 111.537 500.368 126.811C490.778 111.537 478.624 96.5549 463.339 84.8412C445.442 71.1256 423.109 61.7898 402.121 55.1762C380.674 48.4181 358.078 43.7265 337.918 40.4499C317.659 37.1571 299.208 35.1899 285.841 34.0426C279.137 33.4671 273.658 33.0934 269.807 32.8615C267.881 32.7455 266.358 32.6648 265.289 32.6119C264.754 32.5855 264.332 32.5661 264.03 32.5527C263.879 32.5459 263.758 32.5407 263.667 32.5369L263.487 32.5296C252.007 32.0739 240.951 36.9066 233.488 45.6427C226.025 54.3788 222.979 66.0541 225.222 77.3227L225.238 77.4024L225.26 77.5113C225.277 77.5936 225.298 77.6952 225.323 77.8155C225.372 78.0561 225.438 78.372 225.522 78.7593C225.688 79.5336 225.922 80.595 226.227 81.9125C226.837 84.5447 227.735 88.2163 228.95 92.6764C231.366 101.552 235.098 113.781 240.4 127.277C250.46 152.886 268.377 188.887 298.518 212.117C316.411 225.908 338.767 235.311 359.782 241.981C381.258 248.797 403.894 253.542 424.092 256.864ZM344.303 152.714C333.44 144.342 323.734 129.764 315.828 112.937C319.115 113.411 322.475 113.924 325.886 114.478C343.904 117.407 362.712 121.394 379.58 126.709C396.906 132.169 409.798 138.301 417.718 144.37C428.689 152.779 438.476 167.47 446.43 184.435C443.108 183.95 439.712 183.426 436.264 182.858C418.208 179.889 399.364 175.856 382.471 170.495C365.118 164.988 352.217 158.814 344.303 152.714ZM684.908 112.938C677.003 129.765 667.296 144.343 656.434 152.715C648.519 158.815 635.618 164.988 618.266 170.496C601.373 175.857 582.528 179.89 564.472 182.859C561.024 183.427 557.629 183.951 554.307 184.436C562.261 167.471 572.047 152.78 583.018 144.371C590.938 138.302 603.83 132.17 621.156 126.71C638.024 121.395 656.833 117.408 674.851 114.479C678.262 113.925 681.621 113.412 684.908 112.938Z" fill="black"/>
</g>
</svg>
