<svg width="1000" height="1000" viewBox="0 0 1000 1000" fill="none" xmlns="http://www.w3.org/2000/svg">
<g id="F191C&#9;KO">
<path id="Union" fill-rule="evenodd" clip-rule="evenodd" d="M715.528 225.644C690.058 130.284 603.158 60 499.785 60C396.419 60 309.524 130.274 284.047 225.624C185.875 220.837 92.7909 281.847 60.983 379.864C29.1598 477.928 68.7038 582.121 151.018 636.002C115.495 728.213 144.541 836.337 228.206 897.199C311.708 957.943 423.116 952.33 499.714 890.351C576.312 952.331 687.72 957.943 771.222 897.2C854.798 836.402 883.871 728.442 848.523 636.295C931.142 582.499 970.888 478.106 939.007 379.864C907.154 281.709 813.853 220.665 715.528 225.644ZM499.785 160C433.474 160 379.299 212.471 376.589 278.341C377.37 285.223 376.727 292.379 374.451 299.395C365.927 325.661 337.73 340.028 311.47 331.485C246.747 310.429 177.145 345.88 156.077 410.801C135.01 475.721 170.508 545.364 235.23 566.42C261.49 574.963 275.868 603.181 267.344 629.447C265.193 636.074 261.79 641.944 257.482 646.879C220.084 701.83 232.875 776.936 286.937 816.263C342.024 856.336 419.156 844.124 459.207 788.93C469.019 775.408 484.334 768.255 499.847 768.312C515.269 768.337 530.465 775.485 540.221 788.93C580.272 844.124 657.404 856.336 712.491 816.263C767.578 776.19 779.814 698.968 739.763 643.774C734.008 635.842 730.919 626.786 730.327 617.675C728.659 595.226 742.403 573.693 764.76 566.42C829.482 545.364 864.98 475.721 843.913 410.8C822.845 345.88 753.243 310.429 688.52 331.485C662.26 340.028 634.063 325.66 625.539 299.395C623.814 294.078 623.027 288.681 623.087 283.384C623.014 215.17 567.779 160 499.785 160Z" fill="black"/>
<rect x="0.5" y="0.5" width="999" height="999" stroke="white"/>
</g>
</svg>
