<svg width="1000" height="500" viewBox="0 0 1000 500" fill="none" xmlns="http://www.w3.org/2000/svg">
<g id="F191F&#9;KULUPU">
<rect width="1000" height="500" fill="white"/>
<path id="Union" fill-rule="evenodd" clip-rule="evenodd" d="M439.674 248.328C406.818 227.889 384.943 191.428 384.943 149.852C384.943 85.8687 436.75 34 500.657 34C564.565 34 616.372 85.8687 616.372 149.852C616.372 189.764 596.213 224.961 565.534 245.796C580.75 238.428 597.821 234.297 615.857 234.297C679.764 234.297 731.571 286.166 731.571 350.149C731.571 414.132 679.764 466.001 615.857 466.001C552.026 466.001 500.266 414.256 500.143 350.378C500.019 414.256 448.26 466.001 384.429 466.001C320.522 466.001 268.715 414.132 268.715 350.149C268.715 286.166 320.522 234.297 384.429 234.297C404.436 234.297 423.257 239.38 439.674 248.328ZM500.657 190.704C523.059 190.704 541.372 172.498 541.372 149.852C541.372 127.206 523.059 109 500.657 109C478.256 109 459.943 127.206 459.943 149.852C459.943 172.498 478.256 190.704 500.657 190.704ZM500.657 265.704C518.693 265.704 535.764 261.573 550.98 254.205C520.359 275 500.22 310.103 500.143 349.92C500.063 308.439 478.208 272.074 445.413 251.673C461.829 260.62 480.65 265.704 500.657 265.704ZM615.857 391.001C638.258 391.001 656.571 372.795 656.571 350.149C656.571 327.503 638.258 309.297 615.857 309.297C593.455 309.297 575.143 327.503 575.143 350.149C575.143 372.795 593.455 391.001 615.857 391.001ZM425.143 350.149C425.143 372.795 406.83 391.001 384.429 391.001C362.027 391.001 343.715 372.795 343.715 350.149C343.715 327.503 362.027 309.297 384.429 309.297C406.83 309.297 425.143 327.503 425.143 350.149Z" fill="black"/>
</g>
</svg>
