<svg width="1000" height="500" viewBox="0 0 1000 500" fill="none" xmlns="http://www.w3.org/2000/svg">
<g id="F1912&#9;JELO">
<rect width="1000" height="500" fill="white"/>
<path id="Union" fill-rule="evenodd" clip-rule="evenodd" d="M537.064 70C537.064 49.2893 520.275 32.5 499.564 32.5C478.854 32.5 462.064 49.2893 462.064 70V103.273C444.124 111.903 429.575 126.463 420.96 144.411H387.654C366.944 144.411 350.154 161.2 350.154 181.911C350.154 202.622 366.944 219.411 387.654 219.411H420.606C420.767 219.755 420.931 220.098 421.096 220.44L312.02 409.366C305.321 420.969 305.321 435.263 312.02 446.866C318.719 458.469 331.099 465.616 344.496 465.616H654.631C668.029 465.616 680.408 458.469 687.107 446.866C693.806 435.263 693.806 420.969 687.107 409.366L578.504 221.26C578.809 220.648 579.107 220.032 579.397 219.411H611.473C632.184 219.411 648.973 202.622 648.973 181.911C648.973 161.2 632.184 144.411 611.473 144.411H579.044C570.289 126.172 555.406 111.432 537.064 102.858V70ZM500.002 169.657C493.028 169.657 487.375 175.31 487.375 182.284C487.375 189.257 493.028 194.911 500.002 194.911C506.975 194.911 512.628 189.257 512.628 182.284C512.628 175.31 506.975 169.657 500.002 169.657ZM500.002 269.911C506.462 269.911 512.758 269.212 518.82 267.885L589.679 390.616H409.448L480.407 267.711C486.707 269.15 493.266 269.911 500.002 269.911Z" fill="black"/>
</g>
</svg>
