<svg width="1000" height="500" viewBox="0 0 1000 500" fill="none" xmlns="http://www.w3.org/2000/svg">
<g id="F191E&#9;KULE">
<rect width="1000" height="500" fill="white"/>
<path id="Union" fill-rule="evenodd" clip-rule="evenodd" d="M532.477 51.25C525.778 39.6475 513.398 32.5 500.001 32.5C486.604 32.5 474.224 39.6475 467.525 51.25L363.121 232.083H313.721C293.01 232.083 276.221 248.872 276.221 269.583C276.221 290.294 293.01 307.083 313.721 307.083H319.82L260.112 410.5C253.413 422.103 253.413 436.397 260.112 448C266.811 459.603 279.19 466.75 292.588 466.75H707.414C720.812 466.75 733.191 459.603 739.89 448C746.589 436.397 746.589 422.103 739.89 410.5L680.182 307.083H686.276C706.987 307.083 723.776 290.294 723.776 269.583C723.776 248.872 706.987 232.083 686.276 232.083H636.881L532.477 51.25ZM550.278 232.083L500.001 145L449.724 232.083H550.278ZM406.422 307.083L357.54 391.75H642.462L593.58 307.083H406.422Z" fill="black"/>
</g>
</svg>
