<svg width="1000" height="500" viewBox="0 0 1000 500" fill="none" xmlns="http://www.w3.org/2000/svg">
<g id="F191D&#9;KON">
<rect width="1000" height="500" fill="white"/>
<g id="Vector">
<path fill-rule="evenodd" clip-rule="evenodd" d="M383.673 149.002C374.383 172.313 386.3 203.072 421.756 214.229C491.755 236.256 535.053 308.364 506.999 378.763C493.382 412.934 469.837 432.241 443.372 444.147C425.396 452.234 403.774 457.616 384.893 462.317C379.485 463.663 374.302 464.953 369.494 466.235C349.482 471.57 328.934 459.672 323.599 439.66C318.265 419.648 330.162 399.101 350.174 393.766C358.3 391.6 365.536 389.789 372.087 388.149C388.953 383.927 401.285 380.841 412.602 375.75C424.974 370.184 432.273 363.682 437.327 350.998C446.617 327.688 434.7 296.928 399.244 285.771C329.245 263.744 285.947 191.636 314.001 121.238C327.614 87.0789 351.135 67.7681 377.594 55.8572C395.571 47.765 417.193 42.3812 436.078 37.6791C441.477 36.3348 446.653 35.0462 451.455 33.766C471.467 28.4311 492.014 40.3291 497.349 60.3409C502.684 80.3527 490.786 100.9 470.774 106.235C462.662 108.398 455.437 110.206 448.896 111.844C432.021 116.069 419.691 119.156 408.381 124.247C396.029 129.807 388.732 136.306 383.673 149.002Z" fill="black"/>
<path fill-rule="evenodd" clip-rule="evenodd" d="M563.673 149.002C554.383 172.313 566.3 203.072 601.756 214.229C671.755 236.256 715.053 308.364 686.999 378.763C673.382 412.934 649.837 432.241 623.372 444.147C605.396 452.234 583.774 457.616 564.893 462.317C559.485 463.663 554.302 464.953 549.494 466.235C529.482 471.57 508.934 459.672 503.599 439.66C498.265 419.648 510.162 399.101 530.174 393.766C538.3 391.6 545.536 389.789 552.087 388.149C568.953 383.927 581.285 380.841 592.602 375.75C604.974 370.184 612.273 363.682 617.327 350.998C626.617 327.688 614.7 296.928 579.244 285.771C509.245 263.744 465.947 191.636 494.001 121.238C507.614 87.0789 531.135 67.7681 557.594 55.8572C575.571 47.765 597.193 42.3812 616.078 37.6791C621.477 36.3348 626.653 35.0462 631.455 33.766C651.467 28.4311 672.014 40.3291 677.349 60.3409C682.684 80.3527 670.786 100.9 650.774 106.235C642.662 108.398 635.437 110.206 628.896 111.844C612.021 116.069 599.691 119.156 588.381 124.247C576.029 129.807 568.732 136.306 563.673 149.002Z" fill="black"/>
</g>
</g>
</svg>
