<svg width="1000" height="500" viewBox="0 0 1000 500" fill="none" xmlns="http://www.w3.org/2000/svg">
<rect width="1000" height="500" fill="white"/>
<path fill-rule="evenodd" clip-rule="evenodd" d="M580.26 187.617C592.588 204.258 616.073 207.755 632.714 195.426L689.884 153.073C706.526 140.745 710.022 117.26 697.693 100.618C685.365 83.9767 661.88 80.4804 645.238 92.8089L588.069 135.162C571.427 147.49 567.931 170.975 580.26 187.617Z" fill="black"/>
<path fill-rule="evenodd" clip-rule="evenodd" d="M302.778 100.618C315.107 83.9767 338.592 80.4804 355.233 92.8089L412.403 135.162C429.044 147.49 432.54 170.975 420.212 187.617C407.883 204.258 384.399 207.755 367.757 195.426L310.587 153.073C293.946 140.745 290.45 117.26 302.778 100.618Z" fill="black"/>
<path fill-rule="evenodd" clip-rule="evenodd" d="M500.191 37.9277C523.517 37.9277 542.427 52.2869 542.427 69.9998V153.147C542.427 170.86 523.517 185.219 500.191 185.219C476.864 185.219 457.955 170.86 457.955 153.147V69.9998C457.955 52.2869 476.864 37.9277 500.191 37.9277Z" fill="black"/>
<path fill-rule="evenodd" clip-rule="evenodd" d="M224.5 249.095C224.5 228.385 241.289 211.595 262 211.595H738.471C759.182 211.595 775.971 228.385 775.971 249.095C775.971 313.301 741.608 368.733 691.372 406.879C641.163 445.006 573.461 467.5 500.236 467.5C427.01 467.5 359.309 445.006 309.099 406.879C258.863 368.733 224.5 313.301 224.5 249.095ZM306.602 286.595C315.135 308.725 331.26 329.535 354.456 347.149C390.471 374.497 441.887 392.5 500.236 392.5C558.584 392.5 610 374.497 646.015 347.149C669.211 329.535 685.337 308.725 693.869 286.595H306.602Z" fill="black"/>
</svg>
