<svg width="1000" height="500" viewBox="0 0 1000 500" fill="none" xmlns="http://www.w3.org/2000/svg">
<g id="F1911&#9;JAN">
<rect width="1000" height="500" fill="white"/>
<path id="Union" fill-rule="evenodd" clip-rule="evenodd" d="M499.775 32.5C392.015 32.5 304.578 119.76 304.578 227.5C304.578 275.759 322.121 319.909 351.175 353.948L295.614 401.513C279.881 414.981 278.045 438.654 291.513 454.387C304.982 470.12 328.655 471.956 344.388 458.487L411.184 401.305C437.775 414.858 467.885 422.5 499.775 422.5C531.682 422.5 561.807 414.85 588.409 401.283L655.692 458.555C671.463 471.98 695.13 470.077 708.555 454.307C721.979 438.536 720.077 414.868 704.306 401.444L648.431 353.883C677.452 319.852 694.972 275.728 694.972 227.5C694.972 119.76 607.535 32.5 499.775 32.5ZM379.578 227.5C379.578 161.27 433.348 107.5 499.775 107.5C566.203 107.5 619.972 161.27 619.972 227.5C619.972 293.73 566.203 347.5 499.775 347.5C433.348 347.5 379.578 293.73 379.578 227.5Z" fill="black"/>
</g>
</svg>
