<svg width="1000" height="1000" viewBox="0 0 1000 1000" fill="none" xmlns="http://www.w3.org/2000/svg">
<g id="F1919&#9;KEPEKEN">
<rect width="1000" height="1000" fill="white"/>
<path id="Union" fill-rule="evenodd" clip-rule="evenodd" d="M850 50C877.614 50 900 72.3858 900 100V400C900 427.614 877.614 450 850 450H550V503.143C718.413 524.487 850 652.085 850 810V900C850 927.614 827.614 950 800 950C772.386 950 750 927.614 750 900V810C750 703.244 648.374 600 500 600C351.626 600 250 703.244 250 810V900C250 924.523 232.215 945.426 208.009 949.354C183.803 953.282 160.321 939.076 152.566 915.811L52.5657 615.811C43.8333 589.614 57.9913 561.298 84.1885 552.566C110.386 543.833 138.702 557.991 147.434 584.189L180.398 683.08C228.735 587.479 330.022 518.348 450 503.143V450H150C122.386 450 100 427.614 100 400V100C100 72.3858 122.386 50 150 50H850ZM550 350H800V150H550V350ZM450 150V350H200V150H450Z" fill="black"/>
</g>
</svg>
