<svg width="1000" height="1000" viewBox="0 0 1000 1000" fill="none" xmlns="http://www.w3.org/2000/svg">
<g id="F1917&#9;KASI">
<rect width="1000" height="1000" fill="white"/>
<path id="Union" fill-rule="evenodd" clip-rule="evenodd" d="M564.218 164.931C536.812 192.845 515.899 230.018 500.077 266.933C484.131 229.616 462.985 191.986 435.184 163.83C380.718 108.67 292.792 81.6486 227.742 67.6764C193.681 60.3604 162.649 55.9875 140.154 53.4359C128.873 52.1562 119.651 51.3248 113.164 50.8087C109.919 50.5505 107.352 50.3707 105.547 50.2528C104.645 50.1939 103.933 50.1505 103.421 50.1204C103.165 50.1054 102.959 50.0937 102.804 50.0851L102.611 50.0746L102.496 50.0684C87.529 49.2835 73.0025 55.2842 62.934 66.4113C52.8654 77.5383 48.3218 92.6125 50.5596 107.465L50.5747 107.565L50.5997 107.729C50.6197 107.859 50.6463 108.031 50.6797 108.245C50.7465 108.672 50.8402 109.263 50.9616 110.011C51.2043 111.506 51.5579 113.627 52.0276 116.306C52.9665 121.661 54.3732 129.266 56.2912 138.574C60.116 157.138 66.0312 182.754 74.4186 210.968C90.4707 264.967 118.166 337.777 164.107 384.569C218.532 440.002 306.588 467.307 371.767 481.473C401.36 487.905 428.675 492.112 450.111 494.819V899C450.111 926.614 472.447 949 500 949C527.553 949 549.889 926.614 549.889 899V494.921C571.245 492.271 598.417 488.146 627.852 481.824C692.903 467.852 780.829 440.83 835.294 385.67C881.581 338.793 909.417 265.658 925.529 211.422C933.948 183.08 939.878 157.34 943.71 138.686C945.631 129.332 947.039 121.689 947.979 116.307C948.449 113.615 948.802 111.483 949.045 109.981C949.166 109.229 949.26 108.635 949.327 108.206C949.36 107.991 949.387 107.818 949.407 107.687L949.447 107.423C951.674 92.5551 947.107 77.4723 937.012 66.3518C926.917 55.2313 912.365 49.2537 897.386 50.0747L897.271 50.0811L897.078 50.0922C896.923 50.1011 896.717 50.1133 896.46 50.129C895.947 50.1603 895.234 50.2056 894.329 50.2668C892.521 50.3892 889.948 50.5755 886.695 50.8421C880.194 51.3749 870.951 52.2302 859.645 53.5401C837.1 56.1519 806.003 60.6102 771.877 68.0272C706.699 82.1933 618.643 109.498 564.218 164.931ZM206.833 165.456C191.39 162.139 176.579 159.494 163.09 157.396C165.157 165.367 167.471 173.765 170.043 182.415C185.515 234.462 207.708 286.401 235.228 314.431C267.487 347.288 329.597 369.983 392.913 383.745C408.413 387.113 423.28 389.804 436.816 391.942C434.729 383.877 432.391 375.374 429.788 366.613C414.256 314.33 391.953 262.215 364.262 234.17C332.01 201.507 270.019 179.028 206.833 165.456ZM563.2 392.104C576.689 390.006 591.501 387.361 606.943 384.044C670.13 370.472 732.121 347.993 764.373 315.33C792.064 287.285 814.367 235.171 829.899 182.887C832.501 174.127 834.84 165.624 836.927 157.558C823.39 159.696 808.523 162.387 793.024 165.756C729.707 179.517 667.597 202.213 635.339 235.069C607.819 263.099 585.625 315.039 570.154 367.085C567.582 375.736 565.268 384.134 563.2 392.104Z" fill="black"/>
</g>
</svg>
