<svg width="1000" height="1000" viewBox="0 0 1000 1000" fill="none" xmlns="http://www.w3.org/2000/svg">
<g id="F191F&#9;KULUPU">
<rect width="1000" height="1000" fill="white"/>
<g id="Group 29">
<path id="Union" fill-rule="evenodd" clip-rule="evenodd" d="M382.379 497.227C350.467 479.864 313.885 470 275 470C150.736 470 50 570.736 50 695C50 819.264 150.736 920 275 920C399.264 920 500 819.264 500 695C500 819.264 600.736 920 725 920C849.264 920 950 819.264 950 695C950 570.736 849.264 470 725 470C689.936 470 656.746 478.021 627.163 492.328C686.809 451.862 726 383.508 726 306C726 181.736 625.264 81 501 81C376.736 81 276 181.736 276 306C276 386.729 318.516 457.528 382.379 497.227ZM501 431C570.036 431 626 375.036 626 306C626 236.964 570.036 181 501 181C431.964 181 376 236.964 376 306C376 375.036 431.964 431 501 431ZM501 531C536.064 531 569.254 522.979 598.837 508.672C539.191 549.138 500 617.492 500 695C500 614.271 457.484 543.472 393.621 503.773C425.533 521.136 462.115 531 501 531ZM725 820C794.036 820 850 764.036 850 695C850 625.964 794.036 570 725 570C655.964 570 600 625.964 600 695C600 764.036 655.964 820 725 820ZM400 695C400 764.036 344.036 820 275 820C205.964 820 150 764.036 150 695C150 625.964 205.964 570 275 570C344.036 570 400 625.964 400 695Z" fill="black"/>
</g>
</g>
</svg>
