<svg width="1000" height="1000" viewBox="0 0 1000 1000" fill="none" xmlns="http://www.w3.org/2000/svg">
<g id="F191E&#9;KULE">
<rect width="1000" height="1000" fill="white"/>
<path id="Union" fill-rule="evenodd" clip-rule="evenodd" d="M543.302 150C534.37 134.53 517.864 125 500 125C482.137 125 465.631 134.53 456.699 150L254.627 500H150C122.386 500 100 522.386 100 550C100 577.614 122.386 600 150 600H196.892L66.9878 825C58.0562 840.47 58.0562 859.53 66.9878 875C75.9194 890.47 92.4258 900 110.289 900H889.712C907.575 900 924.082 890.47 933.013 875C941.945 859.53 941.945 840.47 933.013 825L803.109 600H850C877.614 600 900 577.614 900 550C900 522.386 877.614 500 850 500H745.374L543.302 150ZM629.904 500L500 275L370.097 500H629.904ZM312.362 600L196.892 800H803.109L687.639 600H312.362Z" fill="black"/>
</g>
</svg>
