<svg width="1000" height="500" viewBox="0 0 1000 500" fill="none" xmlns="http://www.w3.org/2000/svg">
<g id="F191C&#9;KO">
<path id="Union" fill-rule="evenodd" clip-rule="evenodd" d="M500.059 110C478.233 110 460.304 127.036 458.939 148.648C459.303 153.392 458.766 158.284 457.207 163.089C450.814 182.788 429.666 193.563 409.971 187.156C388.361 180.126 365.085 191.957 358.035 213.682C350.984 235.407 362.869 258.677 384.48 265.708C404.175 272.115 414.958 293.278 408.565 312.978C407.06 317.616 404.737 321.759 401.808 325.3C389.84 343.614 394.233 368.283 412.083 381.268C430.49 394.658 456.274 390.584 469.667 372.126C477.303 361.603 489.382 356.223 501.46 356.69C512.556 357.109 523.355 362.438 530.386 372.127C543.78 390.585 569.564 394.659 587.97 381.269C606.377 367.88 610.474 342.068 597.081 323.611C593.004 317.992 590.711 311.621 590.095 305.173C588.338 287.971 598.722 271.272 615.829 265.706C637.44 258.676 649.325 235.406 642.275 213.681C635.224 191.956 611.949 180.124 590.338 187.155C570.643 193.562 549.495 182.786 543.102 163.087C541.821 159.138 541.23 155.13 541.262 151.193C541.204 128.389 522.735 110 500.059 110ZM608.807 110.228C592.227 66.2838 549.817 35 500.059 35C450.297 35 407.883 66.2891 391.307 110.24C344.584 112.624 302.016 143.325 286.714 190.48C271.405 237.654 287.84 287.565 324.271 316.986C311.814 362.343 327.765 412.676 368.035 441.97C408.22 471.202 460.819 470.902 500.026 445.189C539.233 470.904 591.834 471.204 632.018 441.972C672.24 412.713 688.201 362.468 675.828 317.154C712.406 287.755 728.933 237.743 713.595 190.478C698.272 143.258 655.606 112.537 608.807 110.228Z" fill="black"/>
<rect x="0.5" y="0.5" width="999" height="499" stroke="white"/>
</g>
</svg>
