<svg width="1000" height="500" viewBox="0 0 1000 500" fill="none" xmlns="http://www.w3.org/2000/svg">
<rect width="1000" height="500" fill="white"/>
<path fill-rule="evenodd" clip-rule="evenodd" d="M479.094 34.3699C498.773 27.9125 519.962 38.638 526.42 58.3162L526.445 58.3934L526.493 58.5422C526.533 58.6623 526.585 58.824 526.65 59.0255C526.779 59.4284 526.958 59.991 527.18 60.6985C527.624 62.1125 528.24 64.1124 528.972 66.5798C530.43 71.4963 532.372 78.3629 534.323 86.2127C537.408 98.624 541.124 115.836 542.241 132.168C609.368 110.345 714.621 76.2534 714.621 261.69C714.621 380.752 619.372 476.001 500.311 476.001C381.249 476.001 286 380.752 286 261.69C286 72.884 390.792 108.633 457.938 131.539C461.118 132.623 464.214 133.68 467.21 134.682C466.385 126.083 464.232 115.146 461.537 104.302C459.916 97.7797 458.287 92.0179 457.066 87.8991C456.458 85.8488 455.958 84.2292 455.621 83.1532C455.452 82.6158 455.324 82.2157 455.244 81.9671C455.205 81.8429 455.165 81.7205 455.15 81.6741C448.707 62.002 459.423 40.825 479.094 34.3699ZM639.621 261.69C639.621 339.33 577.951 401.001 500.311 401.001C422.671 401.001 361 339.33 361 261.69C361 212.281 369.419 193.182 372.611 187.973C373.279 187.911 374.164 187.863 375.296 187.863C385.73 187.863 400.722 191.466 423.016 198.897C425.688 199.788 428.778 200.841 432.069 201.963C439.679 204.556 448.368 207.517 455.475 209.693C464.678 212.51 482.041 217.629 500.311 217.629C518.079 217.629 535.087 212.84 544.272 210.15C551.071 208.159 559.533 205.412 566.993 202.99L566.994 202.99C570.483 201.857 573.753 200.796 576.53 199.916C598.678 192.903 613.78 189.511 624.388 189.643C626.034 189.664 627.206 189.775 627.986 189.887C630.888 194.334 639.621 212.511 639.621 261.69Z" fill="black"/>
</svg>
