<svg width="1000" height="1000" viewBox="0 0 1000 1000" fill="none" xmlns="http://www.w3.org/2000/svg">
<g id="F1916&#9;KAMA">
<rect width="1000" height="1000" fill="white"/>
<path id="Vector 126 (Stroke)" d="M672.587 84.6499C665.899 63.9171 646.557 49.9008 624.773 50.0005C602.989 50.1003 583.776 64.2931 577.278 85.0863L338.553 849.015C299.444 847.08 256.113 842.562 218.707 837.886C194.199 834.823 172.74 831.757 157.423 829.459C149.77 828.312 143.667 827.358 139.502 826.695C137.42 826.364 135.823 826.106 134.761 825.932C134.438 825.88 134.165 825.835 133.942 825.798L133.574 825.738L133.232 825.681C105.995 821.144 80.2262 839.543 75.6867 866.78C71.147 894.019 89.5951 919.788 116.833 924.328H116.834L117.305 924.406L117.811 924.489C118.055 924.529 118.341 924.576 118.669 924.629C119.853 924.822 121.576 925.101 123.791 925.453C128.219 926.158 134.616 927.157 142.589 928.353C158.522 930.743 180.812 933.927 206.304 937.114C256.737 943.418 321.767 950 375.004 950C396.873 950 416.205 935.787 422.728 914.914L625.758 265.21L809.281 834.134C800.328 835.347 790.642 836.615 780.447 837.882C730.51 844.087 670.563 850 625.002 850C597.388 850 575.002 872.386 575.002 900C575.002 927.614 597.388 950 625.002 950C677.072 950 742.123 943.413 792.778 937.118C818.4 933.934 840.896 930.753 856.999 928.366C865.057 927.171 871.53 926.173 876.012 925.47C878.254 925.118 879.998 924.84 881.196 924.648C881.495 924.6 881.761 924.557 881.991 924.52L882.575 924.425C896.943 922.068 910.09 913.479 917.677 901.052C925.263 888.624 927.055 873.507 922.585 859.65L672.587 84.6499Z" fill="black"/>
</g>
</svg>
