<svg width="1000" height="1000" viewBox="0 0 1000 1000" fill="none" xmlns="http://www.w3.org/2000/svg">
<g id="F1912&#9;JELO">
<rect width="1000" height="1000" fill="white"/>
<path id="Union" fill-rule="evenodd" clip-rule="evenodd" d="M550 100C550 72.3858 527.614 50 500 50C472.386 50 450 72.3858 450 100V156.301C379.72 174.39 324.39 229.72 306.301 300H250C222.386 300 200 322.386 200 350C200 377.614 222.386 400 250 400H306.301C313.246 426.982 325.679 451.76 342.341 473.074L110.289 875C101.357 890.47 101.357 909.53 110.289 925C119.22 940.47 135.727 950 153.59 950H846.41C864.273 950 880.78 940.47 889.711 925C898.643 909.53 898.643 890.47 889.711 875L657.659 473.074C674.321 451.76 686.754 426.982 693.699 400H750C777.614 400 800 377.614 800 350C800 322.386 777.614 300 750 300H693.699C675.61 229.72 620.28 174.39 550 156.301V100ZM500 450C555.228 450 600 405.228 600 350C600 294.772 555.228 250 500 250C444.772 250 400 294.772 400 350C400 405.228 444.772 450 500 450ZM500 550C527.515 550 553.732 544.444 577.591 534.392L759.808 850H240.192L422.409 534.392C446.268 544.444 472.485 550 500 550Z" fill="black"/>
</g>
</svg>
