<svg width="1000" height="1000" viewBox="0 0 1000 1000" fill="none" xmlns="http://www.w3.org/2000/svg">
<rect width="1000" height="1000" fill="white"/>
<path fill-rule="evenodd" clip-rule="evenodd" d="M614.645 385.355C634.171 404.882 665.829 404.882 685.355 385.355L815.355 255.355C834.882 235.829 834.882 204.171 815.355 184.645C795.829 165.118 764.171 165.118 744.645 184.645L614.645 314.645C595.118 334.171 595.118 365.829 614.645 385.355Z" fill="black"/>
<path fill-rule="evenodd" clip-rule="evenodd" d="M184.645 184.645C204.171 165.118 235.829 165.118 255.355 184.645L385.355 314.645C404.882 334.171 404.882 365.829 385.355 385.355C365.829 404.882 334.171 404.882 314.645 385.355L184.645 255.355C165.118 235.829 165.118 204.171 184.645 184.645Z" fill="black"/>
<path fill-rule="evenodd" clip-rule="evenodd" d="M499.924 54C527.538 54 549.924 76.3858 549.924 104V287.848C549.924 315.462 527.538 337.848 499.924 337.848C472.31 337.848 449.924 315.462 449.924 287.848V104C449.924 76.3858 472.31 54 499.924 54Z" fill="black"/>
<path fill-rule="evenodd" clip-rule="evenodd" d="M50 500C50 472.386 72.3858 450 100 450H900C927.614 450 950 472.386 950 500C950 748.528 748.528 950 500 950C251.472 950 50 748.528 50 500ZM153.544 550C177.806 719.615 323.676 850 500 850C676.324 850 822.194 719.615 846.456 550H153.544Z" fill="black"/>
</svg>
