<svg width="1000" height="500" viewBox="0 0 1000 500" fill="none" xmlns="http://www.w3.org/2000/svg">
<rect width="1000" height="500" fill="white"/>
<path fill-rule="evenodd" clip-rule="evenodd" d="M837.5 250C837.5 187.763 809.984 137.558 762.135 105.007C715.87 73.5333 653.526 60.3693 584.408 62.7795C478.412 66.4756 385.486 129.832 316.388 195.549C293.698 169.314 274.865 144.341 260.758 124.366C251.428 111.154 244.222 100.211 239.394 92.6448C236.981 88.8638 235.166 85.9322 233.979 83.9895C233.386 83.0184 232.95 82.2949 232.676 81.8366C232.539 81.6075 232.442 81.4447 232.386 81.3504L232.333 81.2616L232.33 81.2564C221.842 63.4096 198.874 57.436 181.019 67.9153C163.157 78.3984 157.176 101.376 167.659 119.238L167.73 119.359C167.764 119.417 167.809 119.493 167.864 119.586C167.975 119.773 168.127 120.029 168.321 120.353C168.708 121 169.261 121.917 169.975 123.086C171.404 125.424 173.479 128.774 176.171 132.992C181.552 141.423 189.41 153.351 199.495 167.631C215.604 190.441 237.544 219.465 264.295 249.928C237.502 280.451 215.541 309.539 199.427 332.39C189.356 346.672 181.51 358.601 176.139 367.035C173.451 371.254 171.379 374.603 169.954 376.942C169.24 378.112 168.689 379.03 168.302 379.677C168.109 380.001 167.957 380.257 167.846 380.444L167.712 380.671L167.668 380.745L167.653 380.772C157.187 398.644 163.178 421.636 181.05 432.102C198.917 442.566 221.882 436.568 232.352 418.707L232.36 418.693L232.469 418.509C232.524 418.415 232.599 418.29 232.692 418.133C232.966 417.675 233.401 416.952 233.992 415.981C235.176 414.039 236.988 411.108 239.396 407.328C244.214 399.763 251.406 388.822 260.721 375.612C274.828 355.605 293.674 330.586 316.392 304.306C385.522 370.065 478.488 433.52 584.405 437.22C653.525 439.634 715.87 426.47 762.135 394.996C809.985 362.443 837.5 312.236 837.5 250ZM587.021 137.734C507.582 140.504 431.34 189.727 368.045 249.925C431.409 310.201 507.687 359.494 587.024 362.266C646.397 364.34 691.195 352.547 719.949 332.985C747.119 314.501 762.5 287.592 762.5 250C762.5 212.408 747.12 185.501 719.95 167.018C691.195 147.457 646.396 135.663 587.021 137.734Z" fill="black"/>
<path d="M737.5 250.5C737.5 271.211 720.711 288 700 288C679.289 288 662.5 271.211 662.5 250.5C662.5 229.789 679.289 213 700 213C720.711 213 737.5 229.789 737.5 250.5Z" fill="black"/>
<path d="M625 250.5C625 271.211 608.211 288 587.5 288C566.789 288 550 271.211 550 250.5C550 229.789 566.789 213 587.5 213C608.211 213 625 229.789 625 250.5Z" fill="black"/>
</svg>
