<svg width="1000" height="1000" viewBox="0 0 1000 1000" fill="none" xmlns="http://www.w3.org/2000/svg">
<g id="F191D&#9;KON">
<rect width="1000" height="1000" fill="white"/>
<g id="Group 28">
<g id="Vector">
<path d="M317.843 452.783C231.237 424.099 185.896 335.068 216.541 253.94C247.186 172.813 342.225 130.275 428.831 158.96C456.606 168.159 487.094 154.513 496.927 128.482C506.76 102.45 492.215 73.89 464.44 64.6909C322.304 17.615 166.277 87.4171 115.959 220.627C66.0078 352.864 139.017 497.842 279.131 546.005C280.113 546.395 281.114 546.76 282.132 547.099C368.694 575.902 413.998 665.03 383.353 746.157C352.708 827.285 257.705 869.726 171.144 840.922C143.384 831.685 112.908 845.299 103.075 871.331C93.2415 897.362 107.775 925.954 135.535 935.191C277.597 982.462 433.565 912.819 483.883 779.609C533.812 647.431 460.949 502.367 321.031 453.946C319.989 453.53 318.926 453.142 317.843 452.783Z" fill="black"/>
<path d="M717.843 452.783C631.237 424.099 585.896 335.068 616.541 253.94C647.186 172.813 742.225 130.275 828.831 158.96C856.606 168.159 887.094 154.513 896.927 128.482C906.76 102.45 892.215 73.89 864.44 64.6909C722.304 17.615 566.277 87.4171 515.959 220.627C466.008 352.864 539.017 497.842 679.131 546.005C680.113 546.395 681.114 546.76 682.132 547.099C768.694 575.902 813.998 665.03 783.353 746.157C752.708 827.285 657.705 869.726 571.144 840.922C543.384 831.685 512.908 845.299 503.075 871.331C493.242 897.362 507.775 925.954 535.535 935.191C677.597 982.462 833.565 912.819 883.883 779.609C933.812 647.431 860.949 502.367 721.031 453.946C719.989 453.53 718.926 453.142 717.843 452.783Z" fill="black"/>
</g>
</g>
</g>
</svg>
