<svg width="1000" height="1000" viewBox="0 0 1000 1000" fill="none" xmlns="http://www.w3.org/2000/svg">
<g id="F1913&#9;JO">
<rect width="1000" height="1000" fill="white"/>
<path id="Union" fill-rule="evenodd" clip-rule="evenodd" d="M700 250C700 360.457 610.457 450 500 450C445.494 450 396.081 428.196 360.006 392.835C293.54 437.844 250 513.863 250 600C250 738.071 361.929 850 500 850C620.948 850 721.836 764.112 744.999 650H550C522.386 650 500 627.614 500 600C500 572.386 522.386 550 550 550H800C827.614 550 850 572.386 850 600C850 793.3 693.3 950 500 950C306.7 950 150 793.3 150 600C150 477.412 213.047 369.602 308.281 307.139C302.893 289.035 300 269.855 300 250C300 139.543 389.543 50 500 50C610.457 50 700 139.543 700 250ZM600 250C600 305.228 555.228 350 500 350C444.772 350 400 305.228 400 250C400 194.772 444.772 150 500 150C555.228 150 600 194.772 600 250Z" fill="black"/>
</g>
</svg>
