<svg width="1000" height="1000" viewBox="0 0 1000 1000" fill="none" xmlns="http://www.w3.org/2000/svg">
<g id="F1916&#9;KAMA">
<rect width="1000" height="1000" fill="white"/>
<path id="Vector 127 (Stroke)" d="M134.482 763.793C188.536 815.273 244.147 841.805 313.752 848.362L552.276 85.0862C558.688 64.5655 577.501 50.4415 598.996 50.01C620.491 49.5786 639.856 62.9363 647.087 83.1831L897.087 783.183C902.497 798.331 900.289 815.157 891.154 828.396L891.082 828.5L891.004 828.612C890.949 828.69 890.89 828.775 890.827 828.865C890.699 829.046 890.553 829.252 890.388 829.48C890.059 829.938 889.655 830.491 889.174 831.132C888.213 832.412 886.945 834.047 885.358 835.984C882.186 839.856 877.73 844.946 871.893 850.832C860.222 862.602 842.984 877.598 819.434 892.362C771.935 922.143 700.283 950 600 950C572.385 950 550 927.614 550 900C550 872.386 572.385 850 600 850C680.717 850 734.065 827.857 766.315 807.637C777.305 800.747 786.029 793.962 792.669 788.133L603.161 257.513L397.724 914.914C391.201 935.787 371.869 950 350 950C237.161 950 147.228 914.027 65.517 836.207C45.5204 817.163 44.7485 785.514 63.7928 765.517C82.8371 745.521 114.486 744.749 134.482 763.793Z" fill="black"/>
</g>
</svg>
