<svg width="1000" height="500" viewBox="0 0 1000 500" fill="none" xmlns="http://www.w3.org/2000/svg">
<g id="F1918&#9;KEN">
<rect width="1000" height="500" fill="white"/>
<g id="Vector 134 (Stroke)">
<path fill-rule="evenodd" clip-rule="evenodd" d="M575.5 69.9562L575.5 69.9376C575.5 69.944 575.5 69.9499 575.5 69.9562Z" fill="black"/>
<path d="M425.5 70C425.5 49.2893 408.711 32.5 388 32.5C367.289 32.5 350.5 49.2893 350.5 70V430C350.5 450.711 367.289 467.5 388 467.5C408.711 467.5 425.5 450.711 425.5 430V289.507C499.849 297.898 535.076 331.077 553.075 359.875C564.207 377.686 569.904 395.752 572.773 409.523C574.194 416.348 574.881 421.922 575.209 425.601C575.373 427.433 575.446 428.774 575.478 429.54C575.493 429.922 575.499 430.159 575.501 430.24C575.63 450.84 592.369 467.5 613 467.5C633.711 467.5 650.5 450.711 650.5 430L650.5 429.9L650.499 429.783C650.499 429.699 650.498 429.604 650.497 429.498C650.495 429.285 650.492 429.028 650.486 428.728C650.473 428.127 650.452 427.353 650.413 426.417C650.335 424.547 650.188 422.02 649.912 418.931C649.361 412.765 648.29 404.277 646.196 394.227C642.034 374.248 633.668 347.314 616.675 320.125C600.385 294.06 577.074 269.23 544.561 250C577.074 230.77 600.385 205.94 616.675 179.875C633.668 152.686 642.034 125.752 646.196 105.773C648.29 95.7232 649.361 87.2349 649.912 81.0693C650.188 77.9799 650.335 75.4534 650.413 73.5826C650.452 72.6466 650.473 71.8726 650.486 71.2723C650.492 70.972 650.495 70.7149 650.497 70.5025C650.498 70.3962 650.499 70.3011 650.499 70.2173L650.5 70.1001L650.5 70C650.5 49.2893 633.711 32.5 613 32.5C592.369 32.5 575.63 49.16 575.501 69.7604L575.5 69.8482L575.5 69.9163L575.5 69.9376C575.5 69.8785 575.5 69.8194 575.501 69.7604C575.499 69.8411 575.493 70.078 575.478 70.4603C575.446 71.2263 575.373 72.567 575.209 74.3994C574.881 78.0776 574.194 83.6518 572.773 90.4767C569.904 104.248 564.207 122.314 553.075 140.125C535.076 168.923 499.849 202.102 425.5 210.493V70Z" fill="black"/>
</g>
</g>
</svg>
