<svg width="1000" height="1000" viewBox="0 0 1000 1000" fill="none" xmlns="http://www.w3.org/2000/svg">
<g id="F1916&#9;KAMA">
<rect width="1000" height="1000" fill="white"/>
<path id="Vector 125 (Stroke)" fill-rule="evenodd" clip-rule="evenodd" d="M600 50C622.943 50 642.943 65.6149 648.507 87.8732L848.507 887.873C852.241 902.81 848.886 918.635 839.41 930.771C829.935 942.906 815.397 950 800 950H600C572.386 950 550 927.614 550 900C550 872.386 572.386 850 600 850H735.961L600 306.155L448.507 912.127C442.943 934.385 422.943 950 400 950H200C172.386 950 150 927.614 150 900C150 872.386 172.386 850 200 850H360.961L551.493 87.8732C557.057 65.6149 577.057 50 600 50Z" fill="black"/>
</g>
</svg>
