<svg width="1000" height="1000" viewBox="0 0 1000 1000" fill="none" xmlns="http://www.w3.org/2000/svg">
<rect width="1000" height="1000" fill="white"/>
<path fill-rule="evenodd" clip-rule="evenodd" d="M736.781 409.419C664.052 380.436 577.32 420.865 547.696 515.008C503.578 655.209 361.715 737.479 226.202 683.477C159.816 657.022 122.602 611.92 98.9624 559.372C82.3566 522.46 71.4489 478.714 61.0908 437.174C57.9538 424.592 54.8672 412.214 51.688 400.288C44.5748 373.606 60.4387 346.209 87.121 339.096C113.803 331.983 141.2 347.846 148.313 374.529C152.66 390.834 156.44 405.943 159.972 420.06C169.702 458.956 177.546 490.309 190.159 518.346C205.345 552.102 225.486 575.544 263.221 590.581C335.951 619.564 422.682 579.135 452.307 484.992C496.425 344.791 638.288 262.521 773.801 316.523C840.17 342.972 877.388 388.031 901.035 440.559C917.651 477.471 928.561 521.217 938.923 562.766C942.056 575.327 945.138 587.687 948.313 599.597C955.427 626.28 939.562 653.676 912.88 660.789C886.198 667.903 858.801 652.039 851.688 625.356C847.348 609.077 843.573 593.992 840.047 579.898C830.309 540.984 822.464 509.633 809.848 481.608C794.669 447.89 774.533 424.463 736.781 409.419Z" fill="black"/>
</svg>
