<svg width="1000" height="1000" viewBox="0 0 1000 1000" fill="none" xmlns="http://www.w3.org/2000/svg">
<rect width="1000" height="1000" fill="white"/>
<path fill-rule="evenodd" clip-rule="evenodd" d="M597.444 443.778C602.912 442.734 608.51 441.603 614.204 440.379C671.243 428.117 749.821 404.162 798.876 354.437C840.527 312.217 865.215 246.883 879.342 199.289C886.769 174.265 891.997 151.553 895.374 135.096C897.068 126.84 898.311 120.089 899.142 115.324C899.558 112.94 899.871 111.048 900.088 109.709C900.196 109.039 900.279 108.507 900.34 108.12C900.37 107.926 900.394 107.769 900.412 107.649L900.435 107.496L900.447 107.419C902.672 92.5527 898.093 77.4557 887.974 66.3402C877.854 55.2248 863.271 49.2518 848.262 50.0752L848.151 50.0814L847.972 50.0916C847.83 50.0999 847.642 50.1109 847.411 50.1251C846.949 50.1533 846.31 50.1939 845.504 50.2484C843.893 50.3576 841.612 50.523 838.734 50.759C832.983 51.2308 824.825 51.9866 814.855 53.1427C794.982 55.447 767.561 59.3812 737.448 65.9317C680.297 78.3641 601.605 102.571 552.588 152.54C531.193 174.351 514.292 202.296 501.012 230.753C487.562 201.912 470.387 173.559 448.576 151.513C399.408 101.815 320.653 77.8733 263.469 65.6148C233.338 59.1557 205.905 55.2982 186.026 53.0476C176.052 51.9185 167.892 51.1842 162.14 50.7274C159.262 50.4989 156.981 50.3394 155.37 50.2344C154.564 50.1819 153.926 50.143 153.463 50.1159C153.232 50.1024 153.045 50.0917 152.903 50.0839L152.724 50.0741L152.614 50.0682C137.613 49.2831 123.055 55.2835 112.964 66.4101C102.873 77.5367 98.3184 92.6105 100.561 107.463L100.575 107.559L100.598 107.711C100.617 107.83 100.641 107.987 100.671 108.18C100.732 108.565 100.816 109.095 100.924 109.762C101.141 111.095 101.456 112.978 101.872 115.351C102.706 120.093 103.951 126.812 105.647 135.029C109.029 151.408 114.259 174.016 121.68 198.93C135.798 246.328 160.437 311.374 201.888 353.511C251.017 403.452 329.887 427.646 387.183 440.075C392.493 441.226 397.719 442.297 402.836 443.293L153.589 875C144.658 890.47 144.658 909.53 153.589 925C162.521 940.47 179.027 950 196.891 950H803.108C820.972 950 837.478 940.47 846.41 925C855.341 909.53 855.341 890.47 846.41 875L597.444 443.778ZM213.953 157.936C223.015 159.468 232.614 161.272 242.508 163.393C297.821 175.251 350.582 194.648 377.487 221.843C400.62 245.225 419.841 289.546 433.431 335.202C434.714 339.515 435.925 343.757 437.063 347.899C427.962 346.339 418.32 344.503 408.382 342.347C352.954 330.324 300.09 310.741 273.176 283.382C250.183 260.009 231.056 215.832 217.519 170.384C216.26 166.157 215.072 161.998 213.953 157.936ZM564.916 348.035C573.892 346.511 583.394 344.718 593.186 342.613C648.324 330.759 700.886 311.375 727.688 284.207C750.75 260.83 769.921 216.503 783.475 170.835C784.756 166.519 785.964 162.274 787.1 158.13C778.085 159.682 768.54 161.507 758.705 163.646C703.453 175.666 650.787 195.235 623.976 222.567C601.053 245.936 581.976 290.119 568.474 335.579C567.218 339.809 566.032 343.97 564.916 348.035ZM500 475L716.506 850H283.493L500 475Z" fill="black"/>
</svg>
