<svg width="1000" height="500" viewBox="0 0 1000 500" fill="none" xmlns="http://www.w3.org/2000/svg">
<g id="F1920&#9;KUTE">
<rect width="1000" height="500" fill="white"/>
<g id="Vector">
<path d="M413.139 207.55L413.153 207.525L413.168 207.496L413.232 207.376C413.318 207.217 413.462 206.949 413.663 206.58C414.064 205.843 414.69 204.705 415.523 203.223C417.191 200.255 419.679 195.933 422.849 190.712C429.233 180.197 438.174 166.388 448.581 152.772C459.156 138.935 470.324 126.52 480.975 117.9C492.386 108.666 498.612 107.5 500 107.5C515.144 107.5 536.163 116.77 554.696 135.303C573.23 153.836 582.5 174.855 582.5 190C582.5 205.53 573.834 226.326 553.349 251.639C533.48 276.192 506.064 300.593 477.228 322.632C448.612 344.503 419.803 363.14 398.037 376.356C387.191 382.941 378.182 388.127 371.933 391.641C368.811 393.396 366.383 394.731 364.767 395.611C363.959 396.051 363.354 396.376 362.967 396.584C362.774 396.688 362.635 396.762 362.552 396.806C344.251 406.488 337.17 429.219 346.846 447.525C356.525 465.835 379.214 472.832 397.524 463.153L397.616 463.105L397.795 463.01C397.943 462.931 398.148 462.821 398.409 462.681C398.93 462.402 399.673 462.002 400.623 461.485C402.522 460.451 405.251 458.949 408.691 457.015C415.567 453.149 425.308 447.54 436.962 440.464C460.196 426.357 491.388 406.207 522.771 382.221C553.935 358.402 586.519 329.874 611.65 298.82C636.165 268.526 657.5 231.039 657.5 190C657.5 148.576 635.054 109.595 607.729 82.2703C580.405 54.9456 541.424 32.5 500 32.5C473.103 32.5 450.186 46.3343 433.794 59.5995C416.642 73.4801 401.346 91.0646 388.992 107.228C376.47 123.612 366.017 139.803 358.74 151.788C355.08 157.817 352.17 162.87 350.148 166.465C349.137 168.264 348.344 169.704 347.789 170.724C347.511 171.235 347.292 171.641 347.134 171.935C347.056 172.082 346.992 172.201 346.944 172.292L346.883 172.405L346.853 172.462C337.174 190.772 344.165 213.475 362.475 223.153C380.776 232.827 403.453 225.841 413.139 207.55Z" fill="black"/>
<path fill-rule="evenodd" clip-rule="evenodd" d="M530.892 148.748C549.533 157.774 557.327 180.202 548.301 198.843C521.312 254.582 476.216 296.337 420.421 327.691C402.366 337.838 379.504 331.427 369.358 313.372C359.212 295.317 365.623 272.455 383.678 262.309C429.732 236.428 462.085 204.804 480.798 166.157C489.824 147.517 512.252 139.723 530.892 148.748Z" fill="black"/>
</g>
</g>
</svg>
