<svg width="1000" height="1000" viewBox="0 0 1000 1000" fill="none" xmlns="http://www.w3.org/2000/svg">
<g id="F192B&#9;LOJE">
<rect width="1000" height="1000" fill="white"/>
<path id="Union" fill-rule="evenodd" clip-rule="evenodd" d="M200 50C172.386 50 150 72.3858 150 100C150 261.601 245.831 400.82 383.765 463.928L160.289 851C151.357 866.47 151.357 885.53 160.289 901C169.22 916.47 185.727 926 203.59 926H896.41C914.273 926 930.78 916.47 939.711 901C948.643 885.53 948.643 866.47 939.711 851L716.235 463.928C854.169 400.82 950 261.601 950 100C950 72.3858 927.614 50 900 50H200ZM618.244 494.202C596.067 498.014 573.265 500 550 500C526.735 500 503.933 498.014 481.756 494.202L290.192 826H809.808L618.244 494.202ZM550 400C401.35 400 277.952 291.886 254.148 150H845.852C822.048 291.886 698.65 400 550 400Z" fill="black"/>
</g>
</svg>
