<svg width="1000" height="1000" viewBox="0 0 1000 1000" fill="none" xmlns="http://www.w3.org/2000/svg">
<g id="F1922&#9;LAPE">
<rect width="1000" height="1000" fill="white"/>
<path id="Union" fill-rule="evenodd" clip-rule="evenodd" d="M556.301 550C578.503 636.261 656.808 700 750 700C860.457 700 950 610.457 950 500C950 389.543 860.457 300 750 300C656.808 300 578.503 363.739 556.301 450H100C72.3858 450 50 472.386 50 500C50 527.614 72.3858 550 100 550H556.301ZM750 400C805.228 400 850 444.772 850 500C850 555.228 805.228 600 750 600C694.772 600 650 555.228 650 500C650 444.772 694.772 400 750 400Z" fill="black"/>
</g>
</svg>
