<svg width="1000" height="1000" viewBox="0 0 1000 1000" fill="none" xmlns="http://www.w3.org/2000/svg">
<g id="F1920&#9;KUTE">
<rect width="1000" height="1000" fill="white"/>
<g id="Vector">
<path fill-rule="evenodd" clip-rule="evenodd" d="M295.198 390.046C295.2 390.041 295.202 390.037 295.204 390.033L295.198 390.046ZM295.204 390.033L295.239 389.969C295.284 389.884 295.362 389.737 295.473 389.529C295.696 389.114 296.05 388.458 296.53 387.576C297.49 385.811 298.955 383.148 300.886 379.714C304.75 372.841 310.466 362.911 317.728 350.95C332.313 326.929 352.852 295.184 376.919 263.696C401.209 231.914 427.862 202.027 454.421 180.534C481.993 158.221 503.245 150 517.667 150C563.001 150 617.693 176.456 662.785 221.548C707.877 266.64 734.333 321.332 734.333 366.667C734.333 412.515 709.446 466.147 662.133 524.612C615.64 582.063 552.42 638.121 487.305 687.888C422.483 737.432 357.405 779.519 308.384 809.283C283.922 824.135 263.576 835.848 249.411 843.812C242.332 847.793 236.803 850.833 233.086 852.857C231.227 853.868 229.822 854.625 228.902 855.118C228.443 855.365 228.104 855.546 227.891 855.659L227.634 855.796C227.631 855.797 227.628 855.799 227.625 855.8C203.219 868.708 193.893 898.956 206.796 923.366C219.701 947.78 249.975 957.097 274.388 944.193L274.527 944.119L274.882 943.931C275.182 943.771 275.608 943.543 276.158 943.249C277.256 942.66 278.846 941.803 280.894 940.688C284.988 938.459 290.919 935.197 298.422 930.978C313.424 922.543 334.744 910.267 360.283 894.761C411.262 863.808 479.517 819.703 548.029 767.34C616.247 715.201 686.36 653.639 739.867 587.52C792.554 522.414 834.333 446.526 834.333 366.667C834.333 286.293 790.31 207.652 733.496 150.838C676.682 94.0233 598.04 50 517.667 50C469.234 50 425.726 75.1124 391.513 102.799C356.287 131.307 324.13 168.086 297.467 202.971C270.581 238.149 248.024 273.071 232.25 299.05C224.334 312.089 218.055 322.993 213.719 330.703C211.55 334.561 209.864 337.626 208.698 339.768C208.115 340.839 207.662 341.68 207.343 342.274C207.184 342.571 207.058 342.806 206.967 342.978L206.855 343.188L206.806 343.281C193.901 367.695 203.221 397.966 227.634 410.871C252.041 423.772 282.284 414.451 295.194 390.052C295.195 390.05 295.197 390.048 295.198 390.046" fill="black"/>
<path fill-rule="evenodd" clip-rule="evenodd" d="M571.79 304.998C596.644 317.032 607.037 346.936 595.002 371.79C538.705 488.058 444.154 576.344 324.496 643.589C300.422 657.117 269.94 648.569 256.411 624.495C242.883 600.422 251.431 569.94 275.505 556.411C382.175 496.466 459.736 421.687 504.998 328.21C517.032 303.356 546.936 292.964 571.79 304.998Z" fill="black"/>
</g>
</g>
</svg>
