<svg width="1000" height="1000" viewBox="0 0 1000 1000" fill="none" xmlns="http://www.w3.org/2000/svg">
<g id="F1926&#9;LETE">
<rect width="1000" height="1000" fill="white"/>
<path id="Union" d="M743.301 178.59C757.108 154.675 748.915 124.096 725 110.289C701.085 96.4815 670.506 104.675 656.699 128.59L500 400L343.301 128.59C329.494 104.675 298.915 96.4815 275 110.289C251.085 124.096 242.892 154.675 256.699 178.59L413.397 450H100C72.3858 450 50 472.386 50 500C50 527.614 72.3858 550 100 550H413.397L256.699 821.41C242.892 845.325 251.085 875.904 275 889.711C298.915 903.519 329.494 895.325 343.301 871.41L500 600L656.699 871.41C670.506 895.325 701.085 903.519 725 889.711C748.915 875.904 757.108 845.325 743.301 821.41L586.603 550H900C927.614 550 950 527.614 950 500C950 472.386 927.614 450 900 450H586.603L743.301 178.59Z" fill="black"/>
</g>
</svg>
