<svg width="1000" height="500" viewBox="0 0 1000 500" fill="none" xmlns="http://www.w3.org/2000/svg">
<g id="F192D&#9;LUKA">
<rect width="1000" height="500" fill="white"/>
<path id="luka (Stroke)" fill-rule="evenodd" clip-rule="evenodd" d="M548.08 107.5C489.315 107.5 441.676 155.139 441.676 213.904V430C441.676 446.983 430.262 461.846 413.854 466.23C397.447 470.613 380.141 463.421 371.672 448.701L275.496 281.532C265.168 263.58 271.348 240.655 289.3 230.327C307.252 219.999 330.177 226.179 340.505 244.131L366.676 289.621V213.904C366.676 113.717 447.894 32.5 548.08 32.5C648.267 32.5 729.484 113.717 729.484 213.904V430C729.484 450.711 712.695 467.5 691.984 467.5C671.274 467.5 654.484 450.711 654.484 430V213.904C654.484 155.139 606.846 107.5 548.08 107.5Z" fill="black"/>
</g>
</svg>
