<svg width="1000" height="1000" viewBox="0 0 1000 1000" fill="none" xmlns="http://www.w3.org/2000/svg">
<rect width="1000" height="1000" fill="white"/>
<path fill-rule="evenodd" clip-rule="evenodd" d="M451 394.858C437.709 392.937 422.341 390.322 406.012 386.783C358.997 376.593 292.14 356.408 249.942 313.548C214.36 277.407 193.708 222.354 182.11 183.448C175.949 162.78 171.612 144.045 168.808 130.477C167.401 123.665 166.366 118.086 165.67 114.132C165.323 112.153 165.059 110.577 164.876 109.451C164.784 108.888 164.712 108.438 164.66 108.105L164.631 107.915L164.597 107.696H164.595C162.351 92.8433 166.871 77.5411 176.961 66.4131C187.052 55.2852 201.876 49.2979 216.877 50.0824L217.021 50.0905C217.119 50.096 217.234 50.1026 217.363 50.1102C217.761 50.1334 218.303 50.1664 218.982 50.2107C220.339 50.299 222.248 50.4325 224.646 50.6227C229.438 51.003 236.211 51.6123 244.479 52.5475C260.944 54.41 283.681 57.6036 308.683 62.9587C355.606 73.0094 422.368 92.982 464.602 135.635C479.058 150.235 491.06 167.939 500.999 186.432C510.765 168.272 522.519 150.897 536.63 136.514C578.715 93.6199 645.396 73.4195 692.269 63.2247C717.243 57.793 739.96 54.5356 756.411 52.6283C764.672 51.6706 771.44 51.0434 776.23 50.6506C778.627 50.454 780.534 50.3157 781.891 50.2238C782.57 50.1778 783.112 50.1434 783.509 50.1191C783.708 50.1069 783.871 50.0974 783.996 50.0901C799.006 49.2669 813.854 55.225 823.973 66.3408C834.093 77.4565 838.668 92.5748 836.443 107.441L836.435 107.492L836.414 107.629L836.375 107.882L836.351 108.04C836.299 108.373 836.228 108.826 836.137 109.391C835.954 110.522 835.692 112.106 835.345 114.093C834.652 118.065 833.62 123.671 832.215 130.514C829.417 144.146 825.085 162.967 818.923 183.725C807.327 222.786 786.648 278.086 750.912 314.303C708.792 356.99 642.205 376.978 595.423 387.034C579.312 390.496 564.145 393.056 551 394.936V439.2L803.042 875.75C811.974 891.22 811.974 910.28 803.042 925.75C794.111 941.22 777.604 950.75 759.741 950.75H239.26C221.396 950.75 204.89 941.22 195.958 925.75C187.027 910.28 187.027 891.22 195.958 875.75L451 434.005V394.858ZM435.826 290.845C432.986 290.28 430.106 289.683 427.194 289.052C382.039 279.265 341.182 263.684 321.202 243.39C304.726 226.656 290.084 194.346 279.187 158.986C282.001 159.539 284.854 160.123 287.738 160.741C332.8 170.393 373.573 185.828 393.542 205.995C410.142 222.76 424.879 255.252 435.826 290.845ZM566.138 290.972C568.86 290.434 571.62 289.866 574.409 289.267C619.291 279.619 659.864 264.2 679.73 244.067C696.268 227.306 710.959 194.806 721.872 159.198C719.124 159.748 716.338 160.328 713.522 160.94C668.547 170.722 627.889 186.287 608.012 206.547C591.597 223.278 577.001 255.597 566.138 290.972ZM325.862 850.75H673.138L499.5 550L325.862 850.75Z" fill="black"/>
</svg>
