<svg width="1000" height="500" viewBox="0 0 1000 500" fill="none" xmlns="http://www.w3.org/2000/svg">
<rect width="1000" height="500" fill="white"/>
<path fill-rule="evenodd" clip-rule="evenodd" d="M417.422 228.342C401.043 225.564 383.513 221.874 366.727 216.958C346.729 211.1 325.457 202.843 308.432 190.733C279.751 170.333 262.702 138.718 253.129 116.23C248.084 104.378 244.534 93.6387 242.234 85.8445C241.078 81.9278 240.224 78.7036 239.643 76.3921C239.353 75.2351 239.13 74.303 238.972 73.623C238.893 73.2829 238.83 73.0056 238.783 72.7943C238.759 72.6886 238.739 72.5994 238.723 72.5272L238.702 72.4315L238.687 72.3615C236.552 62.4659 239.451 52.2131 246.552 44.5414C253.653 36.8697 264.174 32.6259 275.098 33.026L275.269 33.0324C275.355 33.0358 275.471 33.0403 275.615 33.0462C275.902 33.058 276.303 33.0751 276.812 33.0983C277.829 33.1447 279.279 33.2156 281.112 33.3174C284.776 33.5211 289.989 33.8492 296.369 34.3546C309.088 35.3622 326.644 37.0897 345.922 39.9813C365.105 42.8587 386.606 46.9787 407.013 52.9133C426.985 58.7211 448.235 66.9195 465.265 78.964C479.809 89.2505 491.374 102.407 500.5 115.82C509.626 102.408 521.191 89.2511 535.735 78.9649C552.765 66.9203 574.015 58.722 593.987 52.9142C614.394 46.9795 635.895 42.8595 655.078 39.9821C674.356 37.0905 691.912 35.363 704.631 34.3555C711.011 33.8501 716.224 33.5219 719.888 33.3183C721.721 33.2164 723.171 33.1456 724.188 33.0992C724.697 33.076 725.098 33.0589 725.385 33.0471C725.529 33.0412 725.645 33.0366 725.731 33.0333L725.902 33.0268C736.826 32.6267 747.347 36.8706 754.448 44.5423C761.549 52.214 764.448 62.4667 762.313 72.3623L762.298 72.4324L762.277 72.528C762.261 72.6003 762.241 72.6895 762.217 72.7951C762.17 73.0064 762.107 73.2838 762.028 73.6239C761.87 74.3039 761.647 75.236 761.357 76.393C760.776 78.7044 759.922 81.9287 758.766 85.8454C756.466 93.6396 752.916 104.379 747.871 116.231C738.298 138.719 721.249 170.333 692.568 190.734C675.543 202.844 654.271 211.101 634.273 216.959C616.928 222.039 598.787 225.81 581.944 228.618L686.755 410.156C693.454 421.759 693.454 436.054 686.755 447.656C680.056 459.259 667.676 466.406 654.279 466.406H344.928C331.53 466.406 319.151 459.259 312.452 447.656C305.753 436.054 305.753 421.759 312.452 410.156L417.422 228.342ZM324.902 103.637C332.425 118.414 341.661 131.215 351.997 138.567C359.528 143.924 371.804 149.345 388.316 154.182C404.39 158.89 422.321 162.431 439.502 165.039C442.783 165.537 446.014 165.997 449.175 166.423C441.607 151.525 432.295 138.624 421.855 131.24C414.319 125.91 402.052 120.525 385.565 115.73C369.515 111.063 351.618 107.562 334.473 104.99C331.227 104.503 328.03 104.053 324.902 103.637ZM649.003 138.568C659.339 131.216 668.575 118.414 676.098 103.638C672.97 104.054 669.773 104.504 666.527 104.991C649.382 107.563 631.485 111.064 615.435 115.731C598.948 120.526 586.681 125.911 579.145 131.241C568.705 138.625 559.393 151.526 551.825 166.424C554.986 165.998 558.217 165.538 561.498 165.04C578.679 162.432 596.61 158.891 612.684 154.183C629.196 149.346 641.472 143.925 649.003 138.568ZM499.603 236L589.327 391.406H409.88L499.603 236Z" fill="black"/>
</svg>
