<svg width="1000" height="1000" viewBox="0 0 1000 1000" fill="none" xmlns="http://www.w3.org/2000/svg">
<g id="F1928&#9;LILI">
<rect width="1000" height="1000" fill="white"/>
<path id="Vector 125 (Stroke)" fill-rule="evenodd" clip-rule="evenodd" d="M499.999 650C521.363 650 540.367 636.426 547.296 616.216C547.292 616.228 547.293 616.225 547.299 616.209C547.332 616.118 547.513 615.614 547.891 614.642C548.311 613.561 548.903 612.087 549.674 610.251C551.216 606.579 553.41 601.61 556.281 595.611C562.032 583.598 570.381 567.702 581.482 549.977C603.861 514.243 636.425 472.681 679.999 440C702.09 423.431 706.568 392.091 689.999 370C673.43 347.909 642.09 343.431 619.999 360C566.468 400.148 527.101 449.459 499.999 491.74C472.897 449.459 433.53 400.148 379.999 360C357.908 343.431 326.568 347.909 309.999 370C293.43 392.091 297.908 423.431 319.999 440C363.573 472.681 396.137 514.243 418.516 549.977C429.618 567.702 437.966 583.598 443.717 595.611C446.588 601.61 448.782 606.579 450.324 610.251C451.095 612.087 451.687 613.561 452.107 614.642C452.485 615.613 452.666 616.118 452.699 616.208C452.705 616.225 452.706 616.228 452.702 616.216C459.631 636.426 478.635 650 499.999 650Z" fill="black"/>
</g>
</svg>
