<svg width="1000" height="1000" viewBox="0 0 1000 1000" fill="none" xmlns="http://www.w3.org/2000/svg">
<g id="F1922&#9;LAPE">
<rect width="1000" height="1000" fill="white"/>
<path id="Union" fill-rule="evenodd" clip-rule="evenodd" d="M950 501C950 680.493 804.493 826 625 826C462.163 826 327.297 706.244 303.67 550H100C72.3858 550 50 527.614 50 500C50 472.386 72.3858 450 100 450H303.978C328.449 294.735 462.859 176 625 176C804.493 176 950 321.507 950 501ZM850 501C850 625.264 749.264 726 625 726C500.736 726 400 625.264 400 501C400 376.736 500.736 276 625 276C749.264 276 850 376.736 850 501Z" fill="black"/>
</g>
</svg>
