<svg width="1000" height="500" viewBox="0 0 1000 500" fill="none" xmlns="http://www.w3.org/2000/svg">
<g id="F192B&#9;LOJE">
<rect width="1000" height="500" fill="white"/>
<path id="Union" fill-rule="evenodd" clip-rule="evenodd" d="M339.855 34.5C319.145 34.5 302.355 51.2893 302.355 72C302.355 146.248 343.247 210.946 403.738 244.801L309.024 408.851C302.325 420.453 302.325 434.748 309.024 446.351C315.723 457.953 328.103 465.101 341.5 465.101H658.984C672.381 465.101 684.761 457.953 691.46 446.351C698.158 434.748 698.158 420.453 691.46 408.851L596.746 244.802C657.237 210.947 698.129 146.249 698.129 72C698.129 51.2893 681.34 34.5 660.629 34.5H339.855ZM523.824 268.496C516.091 269.415 508.222 269.887 500.242 269.887C492.263 269.887 484.393 269.415 476.66 268.496L406.452 390.101H594.032L523.824 268.496ZM500.242 194.887C445.452 194.887 399.036 159.029 383.182 109.5H617.303C601.449 159.029 555.033 194.887 500.242 194.887Z" fill="black"/>
</g>
</svg>
