<svg width="1000" height="500" viewBox="0 0 1000 500" fill="none" xmlns="http://www.w3.org/2000/svg">
<g id="F1925&#9;LEN">
<rect width="1000" height="500" fill="white"/>
<path id="Union" fill-rule="evenodd" clip-rule="evenodd" d="M365 32.5C344.289 32.5 327.5 49.2893 327.5 70V430C327.5 450.711 344.289 467.5 365 467.5C385.711 467.5 402.5 450.711 402.5 430V377.5H462.5V430C462.5 450.711 479.289 467.5 500 467.5C520.711 467.5 537.5 450.711 537.5 430V377.5H597.5V430C597.5 450.711 614.289 467.5 635 467.5C655.711 467.5 672.5 450.711 672.5 430V70C672.5 49.2893 655.711 32.5 635 32.5H365ZM597.5 302.5H402.5V107.5H597.5V302.5Z" fill="black"/>
</g>
</svg>
