<svg width="1000" height="500" viewBox="0 0 1000 500" fill="none" xmlns="http://www.w3.org/2000/svg">
<rect width="1000" height="500" fill="white"/>
<path fill-rule="evenodd" clip-rule="evenodd" d="M500 367.5C516.024 367.5 530.277 357.319 535.473 342.162L535.474 342.159C535.49 342.114 535.644 341.681 535.984 340.808C536.329 339.92 536.811 338.721 537.435 337.233C538.685 334.258 540.457 330.245 542.771 325.41C547.407 315.726 554.13 302.925 563.068 288.654C581.075 259.901 607.319 226.386 642.5 200C659.069 187.574 662.427 164.069 650 147.5C637.574 130.931 614.069 127.574 597.5 140C553.545 172.966 521.595 213.727 500 248.056C478.406 213.727 446.455 172.966 402.5 140C385.932 127.574 362.427 130.931 350 147.5C337.574 164.069 340.932 187.574 357.5 200C392.681 226.386 418.925 259.901 436.933 288.654C445.87 302.925 452.594 315.726 457.229 325.41C459.544 330.245 461.316 334.258 462.565 337.233C463.19 338.721 463.672 339.92 464.017 340.808C464.356 341.679 464.51 342.113 464.526 342.159C464.527 342.162 464.528 342.163 464.527 342.162C469.724 357.319 483.977 367.5 500 367.5Z" fill="black"/>
</svg>
