<svg width="1000" height="500" viewBox="0 0 1000 500" fill="none" xmlns="http://www.w3.org/2000/svg">
<g id="F1926&#9;LETE">
<rect width="1000" height="500" fill="white"/>
<path id="Union" d="M636.244 88.7494C646.599 70.8134 640.454 47.8788 622.518 37.5235C604.582 27.1681 581.648 33.3135 571.292 51.2494L499.845 174.999L428.399 51.2499C418.043 33.3139 395.109 27.1686 377.173 37.524C359.237 47.8793 353.092 70.8139 363.447 88.7499L434.894 212.499H292C271.289 212.499 254.5 229.288 254.5 249.999C254.5 270.71 271.289 287.499 292 287.499H434.893L363.446 411.249C353.091 429.185 359.236 452.12 377.172 462.475C395.108 472.83 418.043 466.685 428.398 448.749L499.845 324.999L571.293 448.75C581.648 466.686 604.583 472.831 622.519 462.476C640.455 452.12 646.6 429.186 636.245 411.25L564.797 287.499H707.692C728.403 287.499 745.192 270.71 745.192 249.999C745.192 229.288 728.403 212.499 707.692 212.499H564.797L636.244 88.7494Z" fill="black"/>
</g>
</svg>
