<svg width="1000" height="1000" viewBox="0 0 1000 1000" fill="none" xmlns="http://www.w3.org/2000/svg">
<g id="F1924&#9;LAWA">
<rect width="1000" height="1000" fill="white"/>
<path id="Union" fill-rule="evenodd" clip-rule="evenodd" d="M786.519 400C795.306 431.836 800 465.37 800 500C800 707.107 632.107 875 425 875C217.893 875 50 707.107 50 500C50 292.893 217.893 125 425 125C558.578 125 675.844 194.842 742.272 300H900C927.614 300 950 322.386 950 350C950 377.614 927.614 400 900 400H786.519ZM236.253 300C285.504 253.504 351.923 225 425 225C498.077 225 564.496 253.504 613.747 300H236.253ZM168.753 399.985C156.645 430.982 150 464.715 150 500C150 651.878 273.122 775 425 775C576.878 775 700 651.878 700 500C700 464.721 693.357 430.993 681.253 400H170C169.583 400 169.167 399.995 168.753 399.985Z" fill="black"/>
</g>
</svg>
