<svg width="1000" height="500" viewBox="0 0 1000 500" fill="none" xmlns="http://www.w3.org/2000/svg">
<rect width="1000" height="500" fill="white"/>
<path fill-rule="evenodd" clip-rule="evenodd" d="M650 50C760.457 50 850 139.543 850 250C850 360.457 760.457 450 650 450C552.36 450 471.063 380.032 453.51 287.5L150 287.5C129.289 287.5 112.5 270.711 112.5 250C112.5 229.289 129.289 212.5 150 212.5L453.51 212.5C471.063 119.968 552.36 50 650 50ZM650 125C719.036 125 775 180.964 775 250C775 319.036 719.036 375 650 375C580.964 375 525 319.036 525 250C525 180.964 580.964 125 650 125Z" fill="black"/>
</svg>
