<svg width="1000" height="500" viewBox="0 0 1000 500" fill="none" xmlns="http://www.w3.org/2000/svg">
<g id="F1924&#9;LAWA">
<rect width="1000" height="500" fill="white"/>
<path id="Union" fill-rule="evenodd" clip-rule="evenodd" d="M645.838 210.356C648.015 223.294 649.147 236.554 649.147 250C649.147 365.573 565.523 467.5 452.824 467.5C340.124 467.5 256.5 365.573 256.5 250C256.5 134.427 340.124 32.5 452.824 32.5C525.25 32.5 585.668 74.5958 619.6 135.356H705.429C726.139 135.356 742.929 152.146 742.929 172.856C742.929 193.567 726.139 210.356 705.429 210.356H645.838ZM381.029 135.356C401.693 117.614 426.905 107.5 452.824 107.5C478.742 107.5 503.954 117.614 524.618 135.356H381.029ZM336.175 210.356C333.144 222.787 331.5 236.057 331.5 250C331.5 333.249 390.091 392.5 452.824 392.5C515.556 392.5 574.147 333.249 574.147 250C574.147 236.057 572.504 222.787 569.472 210.356H336.175Z" fill="black"/>
</g>
</svg>
