<svg width="1000" height="1000" viewBox="0 0 1000 1000" fill="none" xmlns="http://www.w3.org/2000/svg">
<g id="F192E&#9;LUKIN">
<rect width="1000" height="1000" fill="white"/>
<g id="Union">
<path d="M600 500C600 555.228 555.228 600 500 600C444.772 600 400 555.228 400 500C400 444.772 444.772 400 500 400C555.228 400 600 444.772 600 500Z" fill="black"/>
<path fill-rule="evenodd" clip-rule="evenodd" d="M880.052 400.086C788.347 292.92 652.104 225 499.999 225C347.893 225 211.651 292.92 119.946 400.086C93.9572 430.456 71.5455 463.978 53.3633 500C71.5455 536.022 93.9572 569.544 119.946 599.914C211.651 707.08 347.893 775 499.999 775C652.104 775 788.347 707.08 880.052 599.914C906.04 569.544 928.452 536.022 946.634 500C928.622 464.316 906.459 431.084 880.78 400.939C880.538 400.655 880.295 400.37 880.052 400.086ZM830.765 500C758.766 394.361 637.482 325 499.999 325C362.515 325 241.232 394.361 169.233 500C241.232 605.639 362.515 675 499.999 675C637.482 675 758.766 605.639 830.765 500Z" fill="black"/>
</g>
</g>
</svg>
