<svg width="1000" height="1000" viewBox="0 0 1000 1000" fill="none" xmlns="http://www.w3.org/2000/svg">
<g id="F192D&#9;LUKA">
<rect width="1000" height="1000" fill="white"/>
<path id="luka (Stroke)" fill-rule="evenodd" clip-rule="evenodd" d="M600.001 200C461.929 200 350.001 311.929 350.001 450V900.5C350.001 923.144 334.782 942.962 312.905 948.806C291.027 954.65 267.954 945.062 256.661 925.434L56.1613 576.934C42.3906 552.998 50.6309 522.431 74.5665 508.661C98.5022 494.89 129.069 503.13 142.84 527.066L250.001 713.328V450C250.001 256.7 406.701 100 600.001 100C793.3 100 950.001 256.7 950.001 450V900.5C950.001 928.114 927.615 950.5 900.001 950.5C872.386 950.5 850.001 928.114 850.001 900.5V450C850.001 311.929 738.072 200 600.001 200Z" fill="black"/>
</g>
</svg>
