<svg width="1000" height="1000" viewBox="0 0 1000 1000" fill="none" xmlns="http://www.w3.org/2000/svg">
<rect width="1000" height="1000" fill="white"/>
<path d="M170.076 383.219C142.423 461.31 183.31 547.032 261.401 574.686C339.492 602.339 425.215 561.452 452.869 483.361C452.904 483.26 452.94 483.159 452.977 483.059C499.179 353.104 641.93 285.098 771.982 331.152C902.133 377.241 970.279 520.112 924.19 650.264C914.972 676.294 886.398 689.924 860.368 680.706C834.338 671.488 820.708 642.914 829.926 616.883C857.58 538.792 816.692 453.07 738.601 425.416C660.51 397.763 574.787 438.65 547.134 516.741C547.098 516.842 547.062 516.943 547.026 517.044C500.822 646.998 358.072 715.003 228.021 668.95C97.8691 622.861 29.7229 479.99 75.8121 349.838C85.0299 323.808 113.604 310.178 139.634 319.396C165.665 328.614 179.294 357.188 170.076 383.219Z" fill="black"/>
</svg>
