<svg width="1000" height="1000" viewBox="0 0 1000 1000" fill="none" xmlns="http://www.w3.org/2000/svg">
<g id="F1925&#9;LEN">
<rect width="1000" height="1000" fill="white"/>
<path id="Union" fill-rule="evenodd" clip-rule="evenodd" d="M200 50C172.386 50 150 72.3858 150 100V900C150 927.614 172.386 950 200 950C227.614 950 250 927.614 250 900V750H450V900C450 927.614 472.386 950 500 950C527.614 950 550 927.614 550 900V750H750V900C750 927.614 772.386 950 800 950C827.614 950 850 927.614 850 900V100C850 72.3858 827.614 50 800 50H200ZM750 650H250V150H750V650Z" fill="black"/>
</g>
</svg>
