<svg width="1000" height="500" viewBox="0 0 1000 500" fill="none" xmlns="http://www.w3.org/2000/svg">
<rect width="1000" height="500" fill="white"/>
<path fill-rule="evenodd" clip-rule="evenodd" d="M655.977 193.483C610.107 175.204 554.583 200.413 535.437 261.256C505.422 356.642 408.549 413.233 315.591 376.189C270.14 358.076 244.619 327.106 228.507 291.291C217.267 266.306 209.865 236.608 202.945 208.851C200.872 200.533 198.842 192.389 196.765 184.599C191.43 164.587 203.328 144.039 223.34 138.704C243.352 133.37 263.899 145.268 269.234 165.279C272.188 176.359 274.738 186.552 277.107 196.02C283.555 221.789 288.66 242.193 296.905 260.521C306.677 282.242 319.392 296.967 343.356 306.517C389.226 324.796 444.75 299.587 463.896 238.744C493.911 143.358 590.784 86.7674 683.742 123.811C729.18 141.919 754.705 172.86 770.822 208.662C782.069 233.648 789.473 263.345 796.395 291.108C798.466 299.413 800.493 307.544 802.567 315.325C807.902 335.337 796.004 355.884 775.992 361.219C755.981 366.554 735.433 354.656 730.098 334.644C727.149 323.582 724.602 313.405 722.237 303.952C715.785 278.171 710.679 257.769 702.432 239.449C692.665 217.754 679.953 203.037 655.977 193.483Z" fill="black"/>
</svg>
