<svg width="1000" height="1000" viewBox="0 0 1000 1000" fill="none" xmlns="http://www.w3.org/2000/svg">
<g id="F1932&#9;MANI">
<rect width="1000" height="1000" fill="white"/>
<path id="Union" fill-rule="evenodd" clip-rule="evenodd" d="M282.11 214.499C281.639 214.344 281.163 214.196 280.685 214.054C237.249 201.204 209.528 185.725 190.509 167.24C171.891 149.146 158.045 124.705 148.405 87.4688C141.484 60.7358 114.202 44.6749 87.4692 51.5957C60.7363 58.5165 44.6754 85.7982 51.5962 112.531C64.5781 162.676 85.8852 205.006 120.814 238.952C142.365 259.897 167.692 276.274 196.514 289.42C136.357 359.419 100 450.464 100 550C100 770.914 279.087 950 500 950C720.914 950 900 770.914 900 550C900 450.464 863.644 359.419 803.487 289.42C832.309 276.274 857.636 259.897 879.187 238.952C914.116 205.006 935.423 162.676 948.405 112.531C955.325 85.7982 939.265 58.5165 912.532 51.5957C885.799 44.6749 858.517 60.7358 851.596 87.4688C841.956 124.705 828.11 149.146 809.492 167.24C790.472 185.725 762.752 201.204 719.316 214.054C718.837 214.196 718.362 214.344 717.891 214.499C655.203 173.702 580.37 150 500 150C419.631 150 344.798 173.702 282.11 214.499ZM800 550C800 715.685 665.686 850 500 850C334.315 850 200 715.685 200 550C200 384.315 334.315 250 500 250C665.686 250 800 384.315 800 550Z" fill="black"/>
</g>
</svg>
