<svg width="1000" height="500" viewBox="0 0 1000 500" fill="none" xmlns="http://www.w3.org/2000/svg">
<g id="F193C&#9;MUTE">
<rect width="1000" height="500" fill="white"/>
<g id="Vector">
<path fill-rule="evenodd" clip-rule="evenodd" d="M650 456.25C629.289 456.25 612.5 439.461 612.5 418.75V81.25C612.5 60.5393 629.289 43.75 650 43.75C670.711 43.75 687.5 60.5393 687.5 81.25V418.75C687.5 439.461 670.711 456.25 650 456.25Z" fill="black"/>
<path fill-rule="evenodd" clip-rule="evenodd" d="M500.5 467.5C479.789 467.5 463 450.711 463 430V70C463 49.2893 479.789 32.5 500.5 32.5C521.211 32.5 538 49.2893 538 70V430C538 450.711 521.211 467.5 500.5 467.5Z" fill="black"/>
<path fill-rule="evenodd" clip-rule="evenodd" d="M351 456.25C330.289 456.25 313.5 439.461 313.5 418.75V81.25C313.5 60.5393 330.289 43.75 351 43.75C371.711 43.75 388.5 60.5393 388.5 81.25V418.75C388.5 439.461 371.711 456.25 351 456.25Z" fill="black"/>
</g>
</g>
</svg>
