<svg width="1000" height="1000" viewBox="0 0 1000 1000" fill="none" xmlns="http://www.w3.org/2000/svg">
<g id="F193D&#9;NANPA">
<rect width="1000" height="1000" fill="white"/>
<path id="Union" fill-rule="evenodd" clip-rule="evenodd" d="M940.121 650C940.121 677.614 917.736 700 890.121 700H699.998V900C699.998 927.614 677.613 950 649.998 950C622.384 950 599.998 927.614 599.998 900V700H399.998V900C399.998 927.614 377.613 950 349.998 950C322.384 950 299.998 927.614 299.998 900V700H99.998C72.3838 700 49.998 677.614 49.998 650C49.998 622.386 72.3838 600 99.998 600H299.998V400H109.875C82.2607 400 59.875 377.614 59.875 350C59.875 322.386 82.2607 300 109.875 300H299.998V100C299.998 72.3858 322.384 50 349.998 50C377.613 50 399.998 72.3858 399.998 100V300H599.998V110C599.998 82.3857 622.384 60 649.998 60C677.613 60 699.998 82.3857 699.998 110V300H899.998C927.613 300 949.998 322.386 949.998 350C949.998 377.614 927.613 400 899.998 400H699.998V600H890.121C917.736 600 940.121 622.386 940.121 650ZM599.998 400H399.998V600H599.998V400Z" fill="black"/>
</g>
</svg>
