<svg width="1000" height="1000" viewBox="0 0 1000 1000" fill="none" xmlns="http://www.w3.org/2000/svg">
<g id="F193E&#9;NASA" clip-path="url(#clip0_270_1317)">
<rect width="1000" height="1000" fill="white"/>
<path id="Vector (Stroke)" fill-rule="evenodd" clip-rule="evenodd" d="M372.533 106.756L376.848 104.984L381.183 103.255L385.539 101.568L389.915 99.9237L394.309 98.3226L398.723 96.7648L403.155 95.2504L407.605 93.7796L412.072 92.3528L416.557 90.97L421.058 89.6315L425.576 88.3374L430.11 87.088L434.659 85.8835L439.222 84.724L443.801 83.6096L448.393 82.5407L452.999 81.5173L457.618 80.5397L462.25 79.6079L466.894 78.7222L471.55 77.8826L476.217 77.0894L480.896 76.3427L485.584 75.6425L490.282 74.9891L494.99 74.3826L499.707 73.8231L504.433 73.3107L509.166 72.8456L513.907 72.4277L518.655 72.0574L523.41 71.7346L528.171 71.4594L532.938 71.232L537.709 71.0523L542.486 70.9206L547.267 70.8369L552.051 70.8012L556.839 70.8136L561.63 70.8743L566.423 70.9831L571.218 71.1403L576.014 71.3457L580.811 71.5995L585.608 71.9018L590.405 72.2525L595.202 72.6517L599.997 73.0994L604.791 73.5956L609.583 74.1404L614.372 74.7337L619.158 75.3754L623.941 76.0658L628.719 76.8047L633.493 77.592L638.262 78.4279L643.025 79.3123L647.783 80.2452L652.534 81.2264L657.277 82.256L662.014 83.334L666.742 84.4602L671.462 85.6347L676.173 86.8574L680.874 88.1282L685.566 89.4471L690.246 90.8139L694.916 92.2286L699.575 93.6912L704.221 95.2014L708.855 96.7593L713.477 98.3648L718.084 100.018L722.678 101.718L727.258 103.465L731.823 105.26L736.372 107.101L740.906 108.99L745.423 110.925L749.924 112.907L754.407 114.935L758.873 117.009L763.32 119.13L767.748 121.296L772.158 123.509L776.547 125.767L780.917 128.07L785.266 130.419L789.594 132.813L793.901 135.252L798.185 137.735L802.447 140.263L806.686 142.836L810.902 145.453L815.094 148.113L819.261 150.817L823.404 153.565L827.522 156.357L831.613 159.19L835.679 162.067L839.718 164.987L843.731 167.949L847.716 170.953L851.672 173.998L855.601 177.086L859.501 180.214L863.372 183.384L867.213 186.594L871.024 189.845L874.804 193.136L878.554 196.467L882.272 199.838L885.959 203.248L889.613 206.697L893.235 210.185L896.824 213.711L900.379 217.275L903.901 220.877L907.389 224.517L910.841 228.194L914.26 231.907L917.642 235.658L920.822 239.256C939.111 259.946 937.164 291.544 916.474 309.832C895.784 328.121 864.186 326.174 845.897 305.484L843.047 302.26L840.341 299.259L837.604 296.286L834.836 293.338L832.046 290.427L829.223 287.539L826.381 284.69L823.509 281.868L820.612 279.079L817.683 276.314L814.742 273.593L811.761 270.892L808.767 268.232L805.745 265.601L802.695 262.999L799.624 260.433L796.535 257.903L793.418 255.402L790.279 252.936L787.119 250.503L783.938 248.105L780.731 245.738L777.509 243.41L774.262 241.111L770.999 238.852L767.71 236.622L764.406 234.431L761.08 232.273L757.741 230.153L754.375 228.064L750.995 226.013L747.6 223.999L744.186 222.02L740.749 220.073L737.304 218.168L733.843 216.299L730.355 214.46L726.865 212.665L723.35 210.901L719.829 209.179L716.286 207.489L712.733 205.839L709.162 204.223L705.585 202.648L701.991 201.109L698.387 199.608L694.767 198.142L691.139 196.716L687.497 195.326L683.849 193.976L680.184 192.661L676.514 191.386L672.832 190.149L669.141 188.949L665.443 187.788L661.736 186.665L658.016 185.579L654.295 184.533L650.567 183.525L646.823 182.553L643.083 181.622L639.334 180.729L635.575 179.874L631.814 179.058L628.046 178.279L624.277 177.54L620.502 176.839L616.726 176.178L612.942 175.553L609.155 174.968L605.369 174.421L601.578 173.913L597.789 173.444L593.997 173.013L590.2 172.62L586.408 172.266L582.613 171.95L578.818 171.672L575.022 171.433L571.233 171.233L567.439 171.07L563.65 170.946L559.861 170.86L556.077 170.812L552.295 170.802L548.515 170.83L544.74 170.897L540.968 171L537.201 171.142L533.439 171.322L529.684 171.539L525.93 171.794L522.185 172.086L518.446 172.415L514.713 172.782L510.988 173.186L507.269 173.627L503.558 174.105L499.856 174.62L496.162 175.172L492.477 175.76L488.801 176.385L485.135 177.046L481.479 177.743L477.833 178.477L474.197 179.246L470.573 180.051L466.961 180.892L463.359 181.769L459.77 182.681L456.193 183.628L452.629 184.61L449.079 185.627L445.541 186.679L442.017 187.765L438.508 188.886L435.013 190.041L431.533 191.23L428.068 192.453L424.618 193.71L421.184 195.001L417.767 196.324L414.365 197.681L410.981 199.071L407.613 200.493L404.263 201.948L400.931 203.435L397.616 204.955L394.32 206.506L391.043 208.089L387.784 209.704L384.544 211.349L381.325 213.026L378.125 214.734L374.945 216.472L371.785 218.241L368.647 220.039L365.529 221.868L362.432 223.726L359.358 225.613L356.304 227.53L353.273 229.476L350.264 231.45L347.279 233.453L344.316 235.484L341.375 237.543L338.459 239.629L335.567 241.742L332.698 243.883L329.853 246.051L327.033 248.245L324.237 250.466L321.467 252.712L318.721 254.985L316.002 257.282L313.307 259.605L310.64 261.952L307.997 264.325L305.381 266.722L302.791 269.143L300.228 271.588L297.693 274.055L295.184 276.547L292.703 279.061L290.25 281.597L287.825 284.155L285.427 286.737L283.058 289.339L280.717 291.963L278.405 294.607L276.122 297.273L273.867 299.959L271.642 302.665L269.446 305.39L267.279 308.136L265.142 310.9L263.036 313.683L260.958 316.486L258.912 319.305L256.895 322.143L254.909 324.999L252.954 327.871L251.029 330.761L249.135 333.667L247.272 336.589L245.441 339.527L243.641 342.481L241.872 345.45L240.135 348.435L238.43 351.432L236.755 354.446L235.114 357.472L233.504 360.513L231.926 363.567L230.381 366.633L228.868 369.712L227.387 372.802L225.94 375.905L224.523 379.021L223.141 382.146L221.791 385.282L220.474 388.43L219.189 391.588L217.938 394.755L216.72 397.931L215.535 401.117L214.384 404.311L213.265 407.513L212.18 410.726L211.128 413.943L210.11 417.17L209.125 420.402L208.173 423.643L207.255 426.889L206.371 430.142L205.52 433.4L204.703 436.662L203.919 439.932L203.169 443.204L202.453 446.482L201.771 449.762L201.122 453.048L200.507 456.335L199.925 459.626L199.377 462.919L198.863 466.216L198.382 469.513L197.936 472.812L197.522 476.112L197.143 479.414L196.797 482.716L196.484 486.017L196.205 489.319L195.96 492.62L195.748 495.921L195.57 499.219L195.424 502.517L195.312 505.813L195.234 509.106L195.188 512.397L195.176 515.685L195.197 518.97L195.251 522.251L195.338 525.528L195.458 528.801L195.61 532.07L195.795 535.334L196.013 538.592L196.264 541.846L196.547 545.093L196.862 548.334L197.21 551.568L197.589 554.797L198.001 558.017L198.445 561.231L198.921 564.435L199.428 567.633L199.968 570.822L200.538 574.002L201.14 577.173L201.774 580.335L202.438 583.488L203.134 586.63L203.86 589.761L204.618 592.883L205.405 595.994L206.224 599.093L207.072 602.181L207.951 605.257L208.86 608.321L209.799 611.373L210.768 614.413L211.766 617.439L212.793 620.452L213.85 623.452L214.936 626.438L216.051 629.41L217.194 632.367L218.366 635.31L219.567 638.238L220.796 641.151L222.052 644.048L223.337 646.93L224.649 649.795L225.989 652.645L227.355 655.477L228.749 658.294L230.171 661.093L231.618 663.875L233.092 666.64L234.592 669.386L236.118 672.115L237.671 674.825L239.248 677.517L240.852 680.19L242.48 682.844L244.133 685.478L245.812 688.094L247.514 690.69L249.241 693.266L250.992 695.821L252.767 698.357L254.565 700.871L256.387 703.365L258.232 705.838L260.1 708.289L261.991 710.72L263.904 713.128L265.839 715.514L267.797 717.88L269.775 720.221L271.775 722.541L273.798 724.839L275.839 727.113L277.902 729.364L279.986 731.592L282.09 733.797L284.213 735.978L286.356 738.135L288.519 740.269L290.701 742.378L292.901 744.463L295.121 746.523L297.358 748.559L299.612 750.569L301.886 752.556L304.177 754.517L306.486 756.454L308.81 758.364L311.152 760.249L313.509 762.108L315.885 763.943L318.272 765.748L320.68 767.531L323.101 769.287L325.538 771.016L327.985 772.717L330.451 774.394L332.932 776.044L335.424 777.666L337.929 779.26L340.451 780.83L342.983 782.372L345.526 783.884L348.086 785.372L350.656 786.832L353.237 788.263L355.831 789.668L358.437 791.045L361.049 792.392L363.679 793.715L366.314 795.007L368.957 796.27L371.619 797.51L374.279 798.716L376.959 799.899L379.639 801.049L382.332 802.173L385.031 803.268L387.743 804.336L390.459 805.375L393.178 806.383L395.914 807.366L398.648 808.318L401.395 809.243L404.142 810.137L406.897 811.003L409.663 811.843L412.424 812.65L415.197 813.431L417.979 814.183L420.755 814.905L423.54 815.599L426.326 816.263L429.122 816.9L431.914 817.506L434.717 818.085L437.514 818.634L440.314 819.154L443.125 819.646L445.926 820.108L448.741 820.543L451.544 820.947L454.358 821.324L457.163 821.671L459.979 821.991L462.789 822.281L465.599 822.542L468.405 822.775L471.219 822.979L474.023 823.155L476.828 823.302L479.633 823.421L482.436 823.511L485.235 823.573L488.028 823.607L490.827 823.612L493.613 823.59L496.404 823.539L499.187 823.46L501.966 823.353L504.738 823.219L507.515 823.056L510.272 822.866L513.038 822.648L515.79 822.402L518.537 822.13L521.279 821.829L524.016 821.502L526.749 821.146L529.467 820.765L532.183 820.356L534.893 819.92L537.599 819.456L540.286 818.968L542.97 818.452L545.646 817.91L548.312 817.342L550.976 816.746L553.622 816.126L556.262 815.479L558.897 814.805L561.509 814.109L564.12 813.384L566.725 812.633L569.308 811.86L571.887 811.06L574.454 810.235L577.008 809.385L579.554 808.51L582.083 807.611L584.602 806.688L587.105 805.741L589.602 804.768L592.084 803.772L594.556 802.751L597.006 801.709L599.444 800.644L601.876 799.552L604.287 798.439L606.686 797.303L609.073 796.144L611.437 794.965L613.798 793.758L616.136 792.532L618.458 791.285L620.773 790.012L623.064 788.721L625.339 787.409L627.602 786.074L629.847 784.718L632.076 783.341L634.289 781.943L636.48 780.527L638.659 779.088L640.825 777.625L642.961 776.152L645.09 774.651L647.197 773.133L649.292 771.592L651.354 770.043L653.416 768.461L655.446 766.871L657.463 765.257L659.458 763.628L661.438 761.977L663.397 760.31L665.336 758.627L667.256 756.925L669.16 755.202L671.038 753.469L672.895 751.72L674.743 749.944L676.558 748.163L678.359 746.361L680.141 744.54L681.897 742.711L683.636 740.861L685.35 739L687.049 737.119L688.725 735.225L690.379 733.316L692.009 731.397L693.622 729.459L695.21 727.511L696.774 725.551L698.324 723.569L699.846 721.582L701.348 719.579L702.822 717.57L704.283 715.538L705.717 713.499L707.13 711.448L708.517 709.389L709.887 707.31L711.228 705.229L712.549 703.135L713.849 701.026L715.122 698.914L716.375 696.784L717.603 694.651L718.81 692.503L719.993 690.347L721.152 688.183L722.287 686.011L723.399 683.829L724.487 681.642L725.554 679.44L726.593 677.238L727.612 675.024L728.605 672.804L729.577 670.573L730.522 668.341L731.444 666.102L732.343 663.855L733.219 661.598L734.069 659.342L734.896 657.077L735.699 654.806L736.475 652.538L737.232 650.253L737.963 647.969L738.67 645.68L739.35 643.393L740.01 641.093L740.645 638.792L741.253 636.495L741.839 634.188L742.402 631.879L742.94 629.563L743.453 627.256L743.943 624.937L744.407 622.626L744.85 620.304L745.266 617.988L745.66 615.663L746.03 613.34L746.374 611.026L746.696 608.7L746.994 606.376L747.267 604.057L747.517 601.732L747.743 599.418L747.945 597.094L748.123 594.776L748.278 592.461L748.409 590.15L748.516 587.832L748.6 585.521L748.661 583.213L748.698 580.911L748.711 578.604L748.701 576.3L748.669 574.01L748.612 571.72L748.533 569.424L748.431 567.144L748.306 564.867L748.157 562.588L747.986 560.311L747.793 558.053L747.576 555.783L747.338 553.536L747.076 551.281L746.793 549.043L746.487 546.803L746.158 544.569L745.808 542.344L745.436 540.128L745.042 537.919L744.625 535.713L744.188 533.518L743.728 531.326L743.248 529.147L742.746 526.977L742.223 524.813L741.677 522.651L741.112 520.506L740.526 518.368L739.919 516.24L739.292 514.122L738.642 512.007L737.974 509.91L737.286 507.821L736.574 505.732L735.847 503.669L735.096 501.603L734.329 499.559L733.54 497.519L732.732 495.49L731.905 493.474L731.059 491.47L730.194 489.479L729.309 487.494L728.408 485.528L727.484 483.567L726.546 481.625L725.586 479.689L724.609 477.767L723.617 475.866L722.603 473.968L721.575 472.09L720.527 470.221L719.463 468.366L718.382 466.528L717.281 464.696L716.168 462.888L715.034 461.085L713.887 459.303L712.722 457.533L711.54 455.776L710.343 454.035L709.13 452.309L707.9 450.595L706.66 448.904L705.399 447.22L704.127 445.559L702.833 443.902L701.533 442.273L700.214 440.652L698.88 439.049L697.537 437.466L696.172 435.89L694.8 434.339L693.414 432.804L692.009 431.278L690.595 429.774L689.169 428.288L687.729 426.817L686.274 425.361L684.809 423.924L683.332 422.505L681.841 421.102L680.341 419.717L678.826 418.348L677.3 416.996L675.767 415.666L674.218 414.35L672.664 413.055L671.091 411.772L669.515 410.513L667.924 409.268L666.325 408.043L664.717 406.837L663.097 405.647L661.47 404.478L659.834 403.327L658.186 402.192L656.534 401.079L654.866 399.98L653.193 398.902L651.52 397.847L649.824 396.802L648.131 395.783L646.429 394.781L644.718 393.798L642.999 392.833L641.272 391.887L639.541 390.961L637.807 390.056L636.06 389.166L634.306 388.296L632.554 387.449L630.789 386.617L629.024 385.807L627.25 385.015L625.471 384.242L623.685 383.488L621.902 382.755L620.11 382.041L618.313 381.346L616.513 380.67L614.708 380.014L612.905 379.379L611.09 378.76L609.276 378.162L607.461 377.585L605.639 377.025L603.817 376.486L601.992 375.966L600.166 375.465L598.336 374.984L596.506 374.522L594.675 374.08L592.84 373.657L591.008 373.254L589.174 372.87L587.333 372.504L585.502 372.159L583.66 371.832L581.826 371.525L579.99 371.237L578.151 370.968L576.315 370.719L574.481 370.488L572.644 370.276L570.813 370.084L568.981 369.911L567.147 369.756L565.32 369.62L563.495 369.504L561.67 369.406L559.844 369.326L558.027 369.266L556.207 369.224L554.394 369.2L552.582 369.195L550.773 369.209L548.968 369.24L547.165 369.29L545.368 369.359L543.576 369.445L541.784 369.55L539.999 369.673L538.219 369.813L536.442 369.971L534.672 370.148L532.905 370.342L531.144 370.553L529.387 370.782L527.638 371.029L525.893 371.292L524.155 371.573L522.422 371.872L520.697 372.187L518.976 372.52L517.264 372.869L515.558 373.235L513.856 373.618L512.167 374.016L510.48 374.432L508.802 374.865L507.132 375.313L505.469 375.778L503.815 376.258L502.169 376.755L500.53 377.267L498.899 377.795L497.277 378.339L495.666 378.898L494.061 379.473L492.465 380.062L490.88 380.667L489.302 381.287L487.735 381.922L486.176 382.572L484.628 383.235L483.089 383.914L481.56 384.607L480.04 385.315L478.532 386.036L477.034 386.771L475.548 387.52L474.068 388.284L472.602 389.06L471.145 389.85L469.701 390.652L468.267 391.469L466.844 392.298L465.431 393.141L464.032 393.995L462.644 394.862L461.266 395.743L459.901 396.635L458.546 397.54L457.205 398.456L455.877 399.383L454.559 400.324L453.253 401.275L451.96 402.239L450.679 403.213L449.412 404.198L448.156 405.194L446.913 406.201L445.685 407.218L444.466 408.247L443.263 409.284L442.072 410.334L440.895 411.392L439.731 412.459L438.579 413.538L437.44 414.627L436.317 415.722L435.206 416.829L434.11 417.943L433.025 419.068L431.953 420.203L430.9 421.343L429.856 422.494L428.829 423.65L427.815 424.817L426.815 425.99L425.828 427.174L424.856 428.362L423.9 429.558L422.955 430.764L422.027 431.973L421.112 433.192L420.211 434.417L419.326 435.648L418.455 436.885L417.597 438.13L416.755 439.38L415.928 440.635L415.114 441.898L414.315 443.166L413.532 444.438L412.763 445.716L412.01 446.997L411.269 448.287L410.544 449.581L409.835 450.876L409.14 452.178L408.46 453.485L407.794 454.795L407.143 456.11L406.509 457.426L405.888 458.747L405.282 460.073L404.692 461.399L404.116 462.73L403.554 464.066L403.008 465.404L402.478 466.74L401.961 468.083L401.459 469.429L400.974 470.771L400.502 472.121L400.045 473.472L399.603 474.822L399.176 476.176L398.764 477.529L398.367 478.884L397.984 480.24L397.617 481.596L397.264 482.955L396.926 484.312L396.602 485.67L396.293 487.03L395.999 488.388L395.72 489.746L395.455 491.105L395.204 492.463L394.968 493.819L394.747 495.175L394.54 496.531L394.348 497.883L394.169 499.238L394.006 500.588L393.856 501.937L393.72 503.287L393.599 504.634L393.492 505.978L393.399 507.32L393.32 508.662L393.255 509.995L393.203 511.333L393.166 512.664L393.142 513.995L393.132 515.319L393.136 516.643L393.153 517.965L393.184 519.279L393.228 520.593L393.286 521.903L393.357 523.207L393.441 524.509L393.539 525.808L393.649 527.099L393.773 528.39L393.909 529.673L394.059 530.953L394.221 532.228L394.395 533.497L394.583 534.763L394.783 536.023L394.995 537.278L395.22 538.526L395.457 539.77L395.706 541.007L395.968 542.241L396.241 543.467L396.526 544.688L396.823 545.902L397.132 547.11L397.453 548.312L397.785 549.507L398.128 550.695L398.483 551.878L398.849 553.054L399.226 554.221L399.614 555.384L400.014 556.539L400.424 557.685L400.844 558.825L401.276 559.958L401.718 561.084L402.17 562.201L402.633 563.312L403.105 564.412L403.588 565.507L404.082 566.594L404.584 567.671L405.097 568.742L405.619 569.805L406.151 570.858L406.691 571.902L407.242 572.94L407.801 573.968L408.37 574.988L408.948 576L409.534 577L410.129 577.994L410.734 578.979L411.345 579.954L411.966 580.92L412.595 581.877L413.232 582.826L413.877 583.764L414.529 584.692L415.19 585.613L415.857 586.522L416.534 587.425L417.217 588.316L417.907 589.197L418.604 590.069L419.309 590.932L420.02 591.784L420.738 592.626L421.463 593.46L422.194 594.282L422.93 595.093L423.675 595.897L424.425 596.691L425.179 597.471L425.941 598.244L426.709 599.007L427.483 599.759L428.261 600.501L429.045 601.232L429.833 601.953L430.627 602.663L431.428 603.364L432.23 604.053L433.039 604.733L433.85 605.4L434.67 606.06L435.491 606.707L436.318 607.345L437.148 607.972L437.981 608.587L438.816 609.191L439.663 609.79L440.504 610.371L441.354 610.947L442.204 611.509L443.059 612.061L443.918 612.604L444.777 613.134L445.641 613.655L446.507 614.165L447.378 614.665L448.246 615.152L449.119 615.63L449.995 616.098L450.872 616.554L451.75 617L452.632 617.436L453.515 617.86L454.399 618.275L455.285 618.678L456.17 619.071L457.059 619.454L457.947 619.825L458.838 620.187L459.728 620.538L460.618 620.878L461.509 621.208L462.405 621.529L463.293 621.836L464.186 622.135L465.079 622.424L465.973 622.702L466.865 622.97L467.753 623.227L468.647 623.475L469.541 623.713L470.425 623.938L471.317 624.156L472.205 624.363L473.096 624.56L473.978 624.746L474.864 624.923L475.749 625.091L476.631 625.248L477.511 625.395L478.392 625.533L479.267 625.661L480.144 625.779L481.017 625.888L481.888 625.987L482.758 626.076L483.626 626.157L484.49 626.228L485.351 626.289L486.211 626.341L487.068 626.384L487.921 626.418L488.773 626.443L489.621 626.458L490.463 626.465L491.308 626.463L492.147 626.452L492.98 626.433L493.814 626.404L494.641 626.367L495.464 626.322L496.284 626.268L497.103 626.205L497.917 626.134L498.726 626.055L499.527 625.968L500.332 625.872L501.126 625.769L501.918 625.658L502.707 625.538L503.491 625.411L504.269 625.276L505.044 625.134L505.812 624.984L506.578 624.826L507.338 624.661L508.092 624.489L508.84 624.31L509.588 624.123L510.326 623.929L511.062 623.728L511.791 623.521L512.512 623.307L513.234 623.085L513.944 622.858L514.656 622.622L515.356 622.382L516.049 622.136L516.742 621.882L517.427 621.622L518.107 621.357L518.78 621.085L519.447 620.807L520.107 620.525L520.762 620.235L521.413 619.94L522.057 619.639L522.694 619.334L523.322 619.024L523.948 618.707L524.567 618.385L525.177 618.06L525.784 617.727L526.383 617.391L526.977 617.049L527.562 616.704L528.144 616.353L528.717 615.999L529.282 615.641L529.842 615.277L530.397 614.908L530.943 614.537L531.484 614.161L532.017 613.782L532.545 613.397L533.064 613.011L533.575 612.622L534.087 612.224L534.583 611.83L535.077 611.428L535.562 611.025L536.044 610.615L536.514 610.207L536.98 609.794L537.438 609.378L537.892 608.958L538.336 608.538L538.773 608.115L539.206 607.687L539.628 607.261L540.046 606.83L540.457 606.397L540.859 605.963L541.258 605.524L541.646 605.088L542.031 604.646L542.404 604.206L542.775 603.761L543.136 603.318L543.492 602.872L543.84 602.424L544.182 601.976L544.517 601.525L544.845 601.075L545.165 600.626L545.481 600.171L545.787 599.72L546.087 599.268L546.384 598.811L546.669 598.36L546.952 597.901L547.224 597.451L547.493 596.993L547.754 596.539L548.008 596.084L548.256 595.629L548.496 595.176L548.733 594.72L548.96 594.268L549.183 593.813L549.398 593.362L549.607 592.908L549.811 592.457L550.007 592.006L550.198 591.557L550.381 591.11L550.56 590.662L550.732 590.214L550.898 589.769L551.057 589.327L551.212 588.883L551.359 588.445L551.502 588.004L551.639 587.564L551.77 587.128L551.894 586.696L552.013 586.262L552.127 585.83L552.235 585.404L552.337 584.977L552.435 584.552L552.527 584.129L552.613 583.711L552.694 583.293L552.77 582.877L552.84 582.467L552.907 582.052L552.967 581.646L553.022 581.243L553.073 580.84L553.119 580.439L553.16 580.044L553.196 579.649L553.228 579.261L553.255 578.871L553.278 578.486L553.296 578.106L553.31 577.725L553.319 577.352L553.325 576.979L553.326 576.612L553.323 576.246L553.316 575.885L553.305 575.524L553.29 575.173L553.271 574.82L553.249 574.471L553.223 574.127L553.193 573.786L553.16 573.452L553.124 573.119L553.084 572.789L553.041 572.463L552.995 572.143L552.945 571.823L552.892 571.51L552.837 571.201L552.779 570.896L552.718 570.595L552.655 570.297L552.589 570.004L552.52 569.714L552.448 569.427L552.374 569.147L552.298 568.869L552.22 568.597L552.141 568.33L552.057 568.061L551.974 567.805L551.888 567.548L551.799 567.295L551.71 567.049L551.618 566.802L551.526 566.566L551.432 566.332L551.336 566.1L551.239 565.875L551.142 565.654L551.042 565.435L550.942 565.223L550.841 565.013L550.739 564.808L550.635 564.607L550.533 564.414L550.429 564.22L550.324 564.033L550.219 563.85L550.114 563.671L550.007 563.495L549.903 563.326L549.795 563.157L549.69 562.996L549.585 562.839L549.479 562.685L549.374 562.535L549.269 562.39L549.164 562.248L549.058 562.108L548.957 561.978L548.856 561.851L548.749 561.72L548.649 561.6L548.548 561.482L548.45 561.37L548.352 561.261L548.252 561.152L548.157 561.052L548.064 560.954L547.968 560.857L547.877 560.767L547.786 560.679L547.698 560.596L547.609 560.514L547.525 560.439L546.441 559.487L546.074 559.137C545.896 558.982 545.53 558.67 544.99 558.237C543.704 557.207 541.581 555.612 538.813 553.886C532.956 550.234 526.065 547.148 519.271 546.089C491.986 541.837 473.313 516.272 477.565 488.987C481.816 461.702 507.381 443.03 534.666 447.281C559.029 451.077 578.755 460.944 591.724 469.031C598.371 473.175 603.713 477.147 607.54 480.215C609.465 481.758 611.038 483.098 612.235 484.152C612.797 484.647 613.279 485.081 613.677 485.446L613.947 485.683L614.923 486.56L615.89 487.451L616.848 488.355L617.796 489.272L618.736 490.201L619.665 491.143L620.584 492.096L621.494 493.064L622.394 494.043L623.282 495.033L624.161 496.037L625.03 497.054L625.888 498.08L626.733 499.117L627.57 500.169L628.396 501.233L629.209 502.305L630.011 503.389L630.802 504.485L631.582 505.592L632.349 506.71L633.105 507.839L633.849 508.978L634.58 510.127L635.3 511.288L636.006 512.457L636.701 513.637L637.384 514.83L638.053 516.029L638.708 517.238L639.352 518.459L639.983 519.688L640.6 520.926L641.204 522.174L641.794 523.43L642.371 524.695L642.934 525.97L643.484 527.252L644.019 528.544L644.541 529.844L645.049 531.153L645.542 532.467L646.021 533.79L646.486 535.122L646.937 536.461L647.373 537.807L647.793 539.159L648.2 540.521L648.592 541.889L648.968 543.262L649.33 544.642L649.676 546.029L650.007 547.422L650.323 548.822L650.624 550.228L650.909 551.639L651.179 553.056L651.433 554.477L651.672 555.905L651.894 557.338L652.101 558.776L652.292 560.218L652.467 561.663L652.626 563.115L652.769 564.571L652.896 566.031L653.007 567.494L653.101 568.961L653.179 570.432L653.241 571.907L653.286 573.384L653.315 574.863L653.327 576.347L653.322 577.832L653.301 579.321L653.264 580.812L653.209 582.304L653.138 583.799L653.05 585.295L652.946 586.792L652.824 588.292L652.685 589.792L652.53 591.293L652.357 592.796L652.168 594.299L651.961 595.803L651.738 597.306L651.497 598.808L651.24 600.312L650.965 601.816L650.673 603.318L650.364 604.82L650.038 606.322L649.695 607.82L649.335 609.32L648.957 610.817L648.562 612.313L648.15 613.808L647.721 615.299L647.275 616.788L646.812 618.275L646.331 619.759L645.833 621.242L645.319 622.72L644.787 624.196L644.238 625.668L643.672 627.136L643.089 628.602L642.488 630.063L641.871 631.52L641.237 632.972L640.586 634.42L639.917 635.864L639.232 637.302L638.531 638.736L637.812 640.164L637.077 641.585L636.324 643.003L635.555 644.415L634.769 645.82L633.967 647.219L633.148 648.611L632.312 649.997L631.46 651.376L630.592 652.748L629.708 654.113L628.807 655.47L627.889 656.821L626.956 658.163L626.006 659.498L625.04 660.824L624.058 662.142L623.061 663.451L622.048 664.753L621.019 666.044L619.974 667.327L618.913 668.601L617.837 669.866L616.746 671.121L615.639 672.366L614.517 673.601L613.38 674.826L612.227 676.041L611.06 677.245L609.878 678.439L608.68 679.623L607.468 680.795L606.242 681.955L605.001 683.104L603.746 684.242L602.476 685.369L601.192 686.484L599.895 687.586L598.583 688.676L597.257 689.755L595.917 690.82L594.564 691.873L593.198 692.912L591.817 693.94L590.424 694.954L589.018 695.954L587.599 696.941L586.167 697.914L584.723 698.874L583.264 699.82L581.794 700.751L580.311 701.67L578.818 702.572L577.311 703.46L575.791 704.334L574.262 705.192L572.72 706.037L571.167 706.865L569.603 707.678L568.027 708.476L566.44 709.259L564.842 710.026L563.233 710.777L561.615 711.511L559.986 712.23L558.345 712.933L556.696 713.619L555.036 714.289L553.367 714.942L551.689 715.578L550.001 716.198L548.302 716.801L546.594 717.386L544.88 717.954L543.156 718.505L541.424 719.038L539.681 719.554L537.931 720.052L536.176 720.532L534.41 720.995L532.638 721.439L530.857 721.865L529.069 722.273L527.274 722.663L525.472 723.034L523.664 723.386L521.851 723.72L520.029 724.036L518.201 724.332L516.369 724.61L514.529 724.868L512.684 725.108L510.835 725.328L508.979 725.529L507.118 725.711L505.254 725.874L503.385 726.017L501.512 726.14L499.634 726.244L497.752 726.328L495.866 726.392L493.977 726.437L492.085 726.462L490.189 726.466L488.291 726.451L486.39 726.416L484.486 726.36L482.581 726.285L480.672 726.189L478.762 726.073L476.851 725.937L474.937 725.78L473.024 725.603L471.109 725.405L469.193 725.188L467.277 724.949L465.359 724.69L463.443 724.411L461.526 724.111L459.609 723.79L457.693 723.449L455.779 723.087L453.864 722.704L451.95 722.3L450.039 721.877L448.129 721.432L446.221 720.966L444.314 720.48L442.411 719.973L440.511 719.446L438.612 718.898L436.716 718.328L434.824 717.739L432.935 717.128L431.05 716.497L429.168 715.845L427.291 715.173L425.419 714.48L423.55 713.766L421.686 713.031L419.828 712.276L417.975 711.501L416.127 710.705L414.285 709.888L412.448 709.051L410.618 708.194L408.794 707.316L406.977 706.418L405.167 705.5L403.364 704.561L401.567 703.602L399.778 702.623L397.997 701.624L396.224 700.605L394.459 699.566L392.703 698.507L390.954 697.428L389.214 696.329L387.485 695.211L385.764 694.073L384.052 692.915L382.35 691.738L380.658 690.542L378.976 689.326L377.304 688.09L375.643 686.837L373.993 685.563L372.354 684.271L370.726 682.96L369.108 681.63L367.503 680.281L365.91 678.914L364.329 677.528L362.76 676.124L361.203 674.702L359.659 673.261L358.128 671.802L356.61 670.325L355.106 668.831L353.614 667.319L352.136 665.789L350.673 664.242L349.223 662.677L347.787 661.095L346.367 659.496L344.961 657.881L343.57 656.248L342.193 654.598L340.832 652.932L339.487 651.25L338.157 649.551L336.843 647.837L335.545 646.106L334.263 644.36L332.998 642.597L331.749 640.819L330.517 639.026L329.302 637.218L328.104 635.395L326.924 633.557L325.761 631.704L324.615 629.836L323.488 627.954L322.378 626.058L321.287 624.148L320.214 622.224L319.159 620.286L318.123 618.335L317.107 616.371L316.109 614.393L315.13 612.402L314.17 610.399L313.23 608.383L312.31 606.355L311.41 604.314L310.529 602.262L309.668 600.197L308.828 598.121L308.008 596.034L307.209 593.935L306.43 591.825L305.673 589.705L304.936 587.574L304.22 585.432L303.525 583.281L302.852 581.119L302.2 578.948L301.57 576.766L300.962 574.576L300.375 572.377L299.811 570.168L299.268 567.951L298.748 565.726L298.25 563.492L297.775 561.25L297.322 559L296.892 556.743L296.484 554.479L296.1 552.207L295.738 549.929L295.4 547.643L295.084 545.352L294.792 543.054L294.523 540.75L294.278 538.441L294.056 536.126L293.858 533.806L293.683 531.481L293.533 529.152L293.406 526.817L293.303 524.479L293.224 522.136L293.169 519.79L293.138 517.44L293.131 515.087L293.149 512.731L293.191 510.372L293.257 508.011L293.348 505.647L293.463 503.281L293.603 500.914L293.767 498.545L293.956 496.175L294.17 493.803L294.408 491.432L294.671 489.059L294.959 486.686L295.271 484.314L295.609 481.942L295.971 479.57L296.358 477.199L296.77 474.829L297.207 472.46L297.669 470.094L298.155 467.728L298.667 465.365L299.203 463.005L299.765 460.647L300.352 458.291L300.963 455.94L301.599 453.591L302.261 451.246L302.947 448.906L303.658 446.569L304.394 444.236L305.155 441.909L305.94 439.587L306.751 437.27L307.586 434.958L308.447 432.652L309.331 430.353L310.241 428.059L311.175 425.772L312.134 423.493L313.117 421.22L314.125 418.954L315.157 416.697L316.214 414.447L317.295 412.205L318.401 409.972L319.531 407.747L320.684 405.532L321.863 403.325L323.065 401.128L324.291 398.941L325.541 396.764L326.814 394.598L328.112 392.441L329.433 390.295L330.778 388.161L332.146 386.038L333.538 383.926L334.952 381.826L336.391 379.738L337.852 377.663L339.336 375.6L340.843 373.55L342.373 371.513L343.925 369.489L345.501 367.478L347.098 365.482L348.718 363.5L350.36 361.532L352.024 359.579L353.71 357.64L355.418 355.716L357.147 353.808L358.899 351.915L360.671 350.038L362.465 348.177L364.28 346.333L366.116 344.504L367.973 342.693L369.85 340.898L371.748 339.121L373.666 337.361L375.605 335.618L377.563 333.894L379.542 332.187L381.54 330.499L383.558 328.83L385.595 327.179L387.651 325.547L389.727 323.935L391.821 322.342L393.934 320.768L396.065 319.214L398.214 317.681L400.382 316.167L402.568 314.674L404.771 313.202L406.992 311.751L409.231 310.321L411.486 308.912L413.758 307.525L416.047 306.159L418.353 304.815L420.675 303.494L423.013 302.194L425.367 300.917L427.736 299.663L430.121 298.432L432.521 297.223L434.937 296.038L437.367 294.876L439.811 293.738L442.27 292.623L444.743 291.533L447.23 290.466L449.73 289.424L452.244 288.406L454.771 287.413L457.311 286.444L459.863 285.5L462.429 284.582L465.006 283.688L467.595 282.82L470.196 281.978L472.808 281.161L475.431 280.369L478.066 279.604L480.711 278.865L483.366 278.152L486.032 277.466L488.707 276.806L491.392 276.172L494.087 275.565L496.79 274.986L499.503 274.433L502.223 273.907L504.953 273.408L507.69 272.937L510.435 272.493L513.187 272.077L515.947 271.688L518.713 271.327L521.487 270.994L524.266 270.689L527.052 270.412L529.843 270.163L532.64 269.942L535.442 269.75L538.249 269.586L541.061 269.45L543.876 269.343L546.696 269.265L549.52 269.215L552.348 269.194L555.178 269.202L558.011 269.238L560.847 269.304L563.685 269.399L566.526 269.522L569.368 269.675L572.211 269.857L575.056 270.068L577.901 270.308L580.747 270.578L583.593 270.876L586.439 271.204L589.284 271.562L592.129 271.949L594.973 272.365L597.816 272.811L600.657 273.286L603.496 273.79L606.332 274.324L609.167 274.887L611.998 275.48L614.827 276.103L617.652 276.754L620.473 277.436L623.289 278.146L626.102 278.886L628.911 279.656L631.714 280.454L634.512 281.283L637.304 282.14L640.091 283.027L642.871 283.943L645.644 284.888L648.411 285.863L651.171 286.867L653.923 287.9L656.668 288.962L659.405 290.053L662.133 291.172L664.852 292.321L667.563 293.499L670.264 294.705L672.956 295.94L675.638 297.204L678.309 298.496L680.97 299.817L683.621 301.166L686.26 302.544L688.889 303.95L691.505 305.384L694.109 306.845L696.701 308.335L699.281 309.853L701.848 311.399L704.4 312.971L706.941 314.572L709.467 316.201L711.979 317.855L714.477 319.538L716.96 321.248L719.428 322.984L721.881 324.748L724.319 326.538L726.74 328.354L729.146 330.198L731.535 332.067L733.908 333.963L736.263 335.884L738.601 337.831L740.922 339.803L743.225 341.802L745.51 343.826L747.777 345.875L750.024 347.949L752.254 350.048L754.464 352.172L756.654 354.319L758.824 356.491L760.976 358.689L763.106 360.909L765.216 363.154L767.305 365.422L769.373 367.713L771.42 370.027L773.446 372.365L775.449 374.726L777.431 377.109L779.39 379.514L781.327 381.942L783.24 384.392L785.131 386.863L786.999 389.356L788.843 391.871L790.663 394.406L792.459 396.963L794.23 399.54L795.978 402.137L797.701 404.756L799.398 407.393L801.071 410.05L802.718 412.727L804.339 415.423L805.935 418.139L807.505 420.873L809.048 423.625L810.564 426.396L812.055 429.185L813.518 431.992L814.954 434.815L816.363 437.657L817.744 440.515L819.097 443.39L820.423 446.281L821.72 449.189L822.989 452.112L824.23 455.051L825.442 458.006L826.625 460.975L827.779 463.959L828.904 466.957L830 469.971L831.066 472.998L832.102 476.037L833.108 479.091L834.084 482.158L835.03 485.238L835.946 488.329L836.831 491.433L837.686 494.55L838.509 497.677L839.302 500.815L840.064 503.965L840.794 507.125L841.493 510.295L842.16 513.476L842.796 516.667L843.4 519.866L843.972 523.074L844.512 526.291L845.02 529.517L845.496 532.751L845.939 535.992L846.35 539.241L846.728 542.497L847.074 545.76L847.386 549.029L847.666 552.305L847.913 555.586L848.127 558.873L848.308 562.164L848.456 565.461L848.57 568.762L848.651 572.068L848.698 575.377L848.712 578.689L848.693 582.004L848.64 585.323L848.553 588.644L848.432 591.967L848.278 595.291L848.089 598.616L847.867 601.944L847.611 605.272L847.321 608.6L846.997 611.928L846.639 615.256L846.247 618.583L845.821 621.909L845.361 625.234L844.867 628.557L844.338 631.878L843.776 635.196L843.179 638.512L842.548 641.825L841.884 645.134L841.185 648.44L840.452 651.74L839.685 655.036L838.883 658.328L838.048 661.615L837.178 664.897L836.275 668.171L835.338 671.439L834.367 674.702L833.362 677.957L832.323 681.204L831.25 684.444L830.144 687.677L829.003 690.9L827.83 694.114L826.622 697.32L825.382 700.517L824.107 703.703L822.8 706.879L821.459 710.045L820.084 713.2L818.677 716.344L817.237 719.476L815.763 722.597L814.257 725.705L812.718 728.8L811.147 731.883L809.542 734.952L807.906 738.008L806.237 741.05L804.536 744.077L802.803 747.09L801.037 750.088L799.24 753.07L797.411 756.037L795.551 758.988L793.659 761.922L791.736 764.84L789.781 767.741L787.796 770.625L785.78 773.491L783.733 776.339L781.656 779.168L779.547 781.98L777.409 784.772L775.242 787.544L773.043 790.297L770.815 793.031L768.558 795.744L766.272 798.436L763.956 801.108L761.611 803.758L759.237 806.387L756.835 808.994L754.405 811.579L751.946 814.141L749.46 816.681L746.945 819.198L744.403 821.692L741.834 824.161L739.237 826.607L736.614 829.028L733.964 831.426L731.287 833.798L728.585 836.145L725.856 838.466L723.101 840.763L720.321 843.033L717.516 845.277L714.687 847.494L711.832 849.684L708.952 851.848L706.048 853.984L703.12 856.092L700.169 858.173L697.194 860.225L694.196 862.25L691.175 864.245L688.132 866.211L685.065 868.149L681.977 870.057L678.867 871.935L675.736 873.783L672.584 875.601L669.41 877.389L666.216 879.146L663.001 880.873L659.766 882.568L656.512 884.231L653.238 885.864L649.944 887.464L646.633 889.033L643.302 890.569L639.954 892.073L636.587 893.544L633.203 894.982L629.801 896.388L626.384 897.76L622.948 899.098L619.497 900.403L616.03 901.674L612.547 902.911L609.049 904.114L605.536 905.283L602.008 906.417L598.466 907.516L594.91 908.58L591.341 909.609L587.758 910.603L584.162 911.562L580.554 912.485L576.933 913.372L573.301 914.223L569.658 915.039L566.003 915.818L562.337 916.56L558.661 917.267L554.975 917.937L551.28 918.57L547.574 919.166L543.86 919.725L540.138 920.247L536.407 920.732L532.668 921.18L528.922 921.59L525.169 921.963L521.409 922.298L517.643 922.595L513.871 922.855L510.093 923.076L506.311 923.26L502.523 923.406L498.731 923.513L494.934 923.582L491.134 923.613L487.331 923.606L483.526 923.56L479.717 923.476L475.907 923.353L472.094 923.191L468.28 922.991L464.467 922.753L460.651 922.475L456.835 922.159L453.02 921.804L449.206 921.41L445.393 920.978L441.582 920.506L437.771 919.996L433.963 919.447L430.158 918.859L426.356 918.232L422.557 917.566L418.762 916.861L414.971 916.118L411.186 915.335L407.404 914.514L403.629 913.654L399.859 912.755L396.095 911.818L392.338 910.842L388.588 909.827L384.845 908.773L381.11 907.681L377.383 906.55L373.665 905.381L369.956 904.174L366.256 902.928L362.566 901.643L358.887 900.321L355.217 898.961L351.559 897.562L347.912 896.125L344.277 894.651L340.654 893.138L337.043 891.588L333.446 890.001L329.862 888.376L326.291 886.713L322.735 885.013L319.193 883.276L315.666 881.502L312.154 879.691L308.658 877.843L305.178 875.959L301.714 874.038L298.267 872.081L294.837 870.087L291.425 868.057L288.031 865.992L284.656 863.89L281.299 861.753L277.96 859.581L274.642 857.373L271.343 855.13L268.064 852.852L264.807 850.54L261.569 848.192L258.354 845.811L255.16 843.395L251.987 840.945L248.838 838.462L245.711 835.944L242.607 833.394L239.527 830.81L236.47 828.193L233.437 825.544L230.429 822.862L227.446 820.147L224.489 817.401L221.556 814.623L218.65 811.813L215.769 808.971L212.916 806.099L210.089 803.196L207.29 800.262L204.518 797.297L201.774 794.303L199.058 791.279L196.37 788.225L193.712 785.142L191.083 782.03L188.483 778.889L185.913 775.719L183.373 772.521L180.863 769.296L178.385 766.043L175.937 762.762L173.521 759.454L171.136 756.12L168.783 752.759L166.462 749.372L164.174 745.959L161.919 742.521L159.696 739.057L157.507 735.569L155.352 732.056L153.231 728.519L151.143 724.958L149.09 721.373L147.072 717.765L145.089 714.134L143.141 710.48L141.228 706.805L139.351 703.107L137.51 699.388L135.706 695.647L133.937 691.886L132.206 688.104L130.511 684.302L128.853 680.481L127.233 676.64L125.65 672.78L124.105 668.901L122.599 665.004L121.13 661.089L119.7 657.156L118.308 653.206L116.955 649.24L115.642 645.257L114.367 641.257L113.132 637.243L111.937 633.213L110.781 629.168L109.666 625.109L108.59 621.035L107.555 616.948L106.56 612.848L105.606 608.734L104.693 604.609L103.821 600.471L102.989 596.321L102.199 592.16L101.451 587.989L100.744 583.807L100.078 579.615L99.4547 575.413L98.873 571.202L98.3334 566.982L97.8359 562.754L97.3806 558.518L96.9678 554.275L96.5974 550.024L96.2696 545.767L95.9845 541.504L95.7422 537.235L95.5427 532.96L95.3862 528.68L95.2727 524.396L95.2023 520.108L95.1751 515.816L95.191 511.521L95.2503 507.223L95.353 502.923L95.499 498.621L95.6885 494.318L95.9214 490.013L96.198 485.708L96.518 481.403L96.8817 477.098L97.289 472.793L97.74 468.49L98.2346 464.189L98.7729 459.889L99.3549 455.593L99.9805 451.299L100.65 447.008L101.363 442.721L102.12 438.439L102.92 434.161L103.764 429.889L104.652 425.622L105.583 421.361L106.558 417.107L107.576 412.86L108.638 408.62L109.743 404.388L110.891 400.164L112.083 395.949L113.318 391.743L114.597 387.547L115.918 383.36L117.283 379.185L118.69 375.02L120.141 370.867L121.634 366.725L123.17 362.596L124.748 358.48L126.369 354.376L128.033 350.287L129.738 346.211L131.486 342.15L133.276 338.104L135.108 334.073L136.982 330.058L138.897 326.059L140.854 322.076L142.853 318.111L144.892 314.164L146.973 310.234L149.095 306.322L151.257 302.43L153.46 298.556L155.704 294.703L157.988 290.869L160.312 287.056L162.676 283.263L165.079 279.492L167.523 275.743L170.005 272.016L172.527 268.311L175.087 264.63L177.687 260.972L180.325 257.337L183.001 253.727L185.716 250.142L188.468 246.581L191.258 243.046L194.085 239.536L196.95 236.053L199.851 232.596L202.789 229.167L205.764 225.764L208.774 222.39L211.821 219.043L214.903 215.725L218.021 212.436L221.174 209.177L224.362 205.946L227.584 202.746L230.841 199.577L234.131 196.438L237.456 193.33L240.814 190.253L244.204 187.209L247.628 184.196L251.084 181.216L254.573 178.269L258.093 175.356L261.645 172.475L265.229 169.629L268.843 166.817L272.488 164.04L276.163 161.297L279.868 158.59L283.603 155.918L287.367 153.282L291.159 150.683L294.981 148.12L298.831 145.594L302.708 143.105L306.613 140.653L310.546 138.239L314.505 135.863L318.49 133.526L322.502 131.227L326.539 128.967L330.601 126.746L334.689 124.565L338.801 122.424L342.937 120.322L347.097 118.261L351.28 116.241L355.486 114.261L359.715 112.322L363.966 110.425L368.239 108.57L372.533 106.756Z" fill="black"/>
</g>
<defs>
<clipPath id="clip0_270_1317">
<rect width="1000" height="1000" fill="white"/>
</clipPath>
</defs>
</svg>
