<svg width="1000" height="1000" viewBox="0 0 1000 1000" fill="none" xmlns="http://www.w3.org/2000/svg">
<g id="F1934&#9;MI">
<rect width="1000" height="1000" fill="white"/>
<path id="Union" fill-rule="evenodd" clip-rule="evenodd" d="M417.085 482.056C442.345 493.58 470.423 500 500 500C610.457 500 700 410.457 700 300C700 189.543 610.457 100 500 100C389.543 100 300 189.543 300 300C300 413.297 326.107 555.37 351.229 666.565C363.914 722.708 376.59 772.003 386.098 807.279C390.855 824.929 394.827 839.098 397.621 848.893C399.019 853.791 400.122 857.598 400.882 860.201C401.263 861.503 401.557 862.504 401.76 863.191L401.868 863.557L401.994 863.983C409.888 890.445 437.832 905.807 464.293 897.913C490.754 890.02 505.558 861.333 497.666 834.873L497.562 834.518C497.492 834.283 497.413 834.013 497.324 833.711C497.194 833.267 497.043 832.751 496.872 832.165C496.167 829.753 495.122 826.148 493.785 821.461C491.111 812.085 487.27 798.388 482.652 781.255C473.41 746.967 461.086 699.035 448.771 644.527C437.236 593.473 425.913 537.513 417.085 482.056ZM600 300C600 355.228 555.228 400 500 400C444.772 400 400 355.228 400 300C400 244.772 444.772 200 500 200C555.228 200 600 244.772 600 300Z" fill="black"/>
</g>
</svg>
