<svg width="1000" height="500" viewBox="0 0 1000 500" fill="none" xmlns="http://www.w3.org/2000/svg">
<g id="F1933&#9;MELI">
<rect width="1000" height="500" fill="white"/>
<g id="Union">
<path d="M357.5 250C357.5 171.299 421.299 107.5 500 107.5C578.701 107.5 642.5 171.299 642.5 250V430C642.5 450.711 659.289 467.5 680 467.5C700.711 467.5 717.5 450.711 717.5 430V250C717.5 129.878 620.122 32.5 500 32.5C379.878 32.5 282.5 129.878 282.5 250V430C282.5 450.711 299.289 467.5 320 467.5C340.711 467.5 357.5 450.711 357.5 430V250Z" fill="black"/>
<path fill-rule="evenodd" clip-rule="evenodd" d="M612.5 250C612.5 312.132 562.132 362.5 500 362.5C437.868 362.5 387.5 312.132 387.5 250C387.5 187.868 437.868 137.5 500 137.5C562.132 137.5 612.5 187.868 612.5 250ZM537.5 250C537.5 270.711 520.711 287.5 500 287.5C479.289 287.5 462.5 270.711 462.5 250C462.5 229.289 479.289 212.5 500 212.5C520.711 212.5 537.5 229.289 537.5 250Z" fill="black"/>
</g>
</g>
</svg>
