<svg width="1000" height="1000" viewBox="0 0 1000 1000" fill="none" xmlns="http://www.w3.org/2000/svg">
<g id="F1938&#9;MONSI">
<rect width="1000" height="1000" fill="white"/>
<g id="Vector">
<path fill-rule="evenodd" clip-rule="evenodd" d="M950 100C950 127.614 927.614 150 900 150H350V850H900C927.614 850 950 872.386 950 900C950 927.614 927.614 950 900 950H300C272.386 950 250 927.614 250 900V100C250 72.3858 272.386 50 300 50H900C927.614 50 950 72.3858 950 100Z" fill="black"/>
<path d="M125 575C83.5786 575 50 541.421 50 500C50 458.579 83.5786 425 125 425C166.421 425 200 458.579 200 500C200 541.421 166.421 575 125 575Z" fill="black"/>
</g>
</g>
</svg>
