<svg width="1000" height="1000" viewBox="0 0 1000 1000" fill="none" xmlns="http://www.w3.org/2000/svg">
<g id="F193B&#9;MUSI">
<rect width="1000" height="1000" fill="white"/>
<path id="Union" fill-rule="evenodd" clip-rule="evenodd" d="M250 450C360.457 450 450 360.457 450 250C450 139.543 360.457 50 250 50C139.543 50 50 139.543 50 250C50 313.74 79.8179 370.517 126.266 407.141C109.296 451.507 100 499.668 100 550C100 770.914 279.086 950 500 950C720.914 950 900 770.914 900 550C900 499.668 890.704 451.507 873.735 407.14C920.182 370.516 950 313.74 950 250C950 139.543 860.457 50 750 50C639.543 50 550 139.543 550 250C550 360.457 639.543 450 750 450C760.897 450 771.591 449.128 782.016 447.451C793.653 479.447 800 513.982 800 550C800 715.685 665.685 850 500 850C334.315 850 200 715.685 200 550C200 513.982 206.347 479.447 217.984 447.451L217.972 447.449C228.4 449.128 239.098 450 250 450ZM250 350C305.228 350 350 305.228 350 250C350 194.772 305.228 150 250 150C194.772 150 150 194.772 150 250C150 305.228 194.772 350 250 350ZM850 250C850 305.228 805.228 350 750 350C694.772 350 650 305.228 650 250C650 194.772 694.772 150 750 150C805.228 150 850 194.772 850 250Z" fill="black"/>
</g>
</svg>
