<svg width="1000" height="1000" viewBox="0 0 1000 1000" fill="none" xmlns="http://www.w3.org/2000/svg">
<g id="F193F&#9;NASIN">
<rect width="1000" height="1000" fill="white"/>
<path id="Union" d="M550 100C550 72.3858 527.614 50 500 50C472.386 50 450 72.3858 450 100V329.289L214.645 564.645C195.118 584.171 195.118 615.829 214.645 635.355C234.171 654.882 265.829 654.882 285.355 635.355L450 470.711V900C450 927.614 472.386 950 500 950C527.614 950 550 927.614 550 900V470.711L714.645 635.355C734.171 654.882 765.829 654.882 785.355 635.355C804.882 615.829 804.882 584.171 785.355 564.645L550 329.289V100Z" fill="black"/>
</g>
</svg>
