<svg width="1000" height="1000" viewBox="0 0 1000 1000" fill="none" xmlns="http://www.w3.org/2000/svg">
<g id="F1936&#9;MOKU">
<rect width="1000" height="1000" fill="white"/>
<path id="Union" fill-rule="evenodd" clip-rule="evenodd" d="M125 50C97.3858 50 75 72.3858 75 100C75 304.986 220.122 476.076 413.231 516.135C320.821 543.654 245.178 604.403 205.398 683.08L172.434 584.189C163.702 557.991 135.386 543.833 109.189 552.566C82.9913 561.298 68.8333 589.614 77.5657 615.811L177.566 915.811C185.321 939.076 208.803 953.282 233.009 949.354C257.215 945.426 275 924.523 275 900V810C275 703.244 376.626 600 525 600C673.374 600 775 703.244 775 810V900C775 927.614 797.386 950 825 950C852.614 950 875 927.614 875 900V810C875 664.135 762.728 544.136 612.865 509.851C792.805 460.41 925 295.643 925 100C925 72.3858 902.614 50 875 50H125ZM500 425C337.511 425 202.873 305.755 178.822 150H821.178C797.127 305.755 662.489 425 500 425Z" fill="black"/>
</g>
</svg>
