<svg width="1000" height="1000" viewBox="0 0 1000 1000" fill="none" xmlns="http://www.w3.org/2000/svg">
<g id="F1933&#9;MELI">
<rect width="1000" height="1000" fill="white"/>
<g id="Vector">
<path fill-rule="evenodd" clip-rule="evenodd" d="M500 150C306.7 150 150 306.7 150 500V900C150 927.614 127.614 950 100 950C72.3858 950 50 927.614 50 900V500C50 251.472 251.472 50 500 50C748.528 50 950 251.472 950 500V900C950 927.614 927.614 950 900 950C872.386 950 850 927.614 850 900V500C850 306.7 693.3 150 500 150Z" fill="black"/>
<path fill-rule="evenodd" clip-rule="evenodd" d="M500 300C389.543 300 300 389.543 300 500C300 610.457 389.543 700 500 700C610.457 700 700 610.457 700 500C700 389.543 610.457 300 500 300ZM200 500C200 334.315 334.315 200 500 200C665.685 200 800 334.315 800 500C800 665.685 665.685 800 500 800C334.315 800 200 665.685 200 500Z" fill="black"/>
</g>
</g>
</svg>
