<svg width="1000" height="1000" viewBox="0 0 1000 1000" fill="none" xmlns="http://www.w3.org/2000/svg">
<g id="F1936&#9;MOKU">
<rect width="1000" height="1000" fill="white"/>
<path id="Union" fill-rule="evenodd" clip-rule="evenodd" d="M100 50C72.3858 50 50 72.3858 50 100C50 298.609 178.665 467.167 357.189 526.867C278.976 557.794 215.625 613.408 180.398 683.08L147.434 584.189C138.702 557.991 110.386 543.833 84.1885 552.566C57.9913 561.298 43.8333 589.614 52.5657 615.811L152.566 915.811C160.321 939.076 183.803 953.282 208.009 949.354C232.215 945.426 250 924.523 250 900V810C250 703.244 351.626 600 500 600C648.374 600 750 703.244 750 810V900C750 927.614 772.386 950 800 950C827.614 950 850 927.614 850 900V810C850 682.596 764.349 574.926 642.81 526.867C821.335 467.167 950 298.609 950 100C950 72.3858 927.614 50 900 50H100ZM500 450C323.676 450 177.806 319.615 153.544 150H846.456C822.194 319.615 676.324 450 500 450Z" fill="black"/>
</g>
</svg>
