<svg width="1000" height="500" viewBox="0 0 1000 500" fill="none" xmlns="http://www.w3.org/2000/svg">
<g id="F193E&#9;NASA" clip-path="url(#clip0_404_659)">
<rect width="1000" height="500" fill="white"/>
<path id="Vector (Stroke)" fill-rule="evenodd" clip-rule="evenodd" d="M420.354 66.8393L422.437 65.9839L424.53 65.149L426.633 64.3346L428.745 63.5409L430.867 62.7679L432.997 62.0159L435.137 61.2847L437.285 60.5747L439.442 59.8859L441.607 59.2183L443.781 58.5721L445.962 57.9473L448.15 57.3442L450.346 56.7626L452.55 56.2029L454.76 55.6649L456.977 55.1488L459.201 54.6548L461.431 54.1828L463.667 53.733L465.909 53.3054L468.157 52.9L470.41 52.5171L472.668 52.1566L474.932 51.8186L477.2 51.5031L479.473 51.2103L481.75 50.9402L484.031 50.6928L486.317 50.4683L488.606 50.2665L490.898 50.0877L493.193 49.9319L495.492 49.7991L497.793 49.6893L500.097 49.6025L502.403 49.5389L504.711 49.4985L507.021 49.4813L509.332 49.4873L511.645 49.5166L513.959 49.5691L516.274 49.645L518.589 49.7442L520.905 49.8667L523.221 50.0126L525.537 50.182L527.853 50.3747L530.168 50.5908L532.482 50.8304L534.796 51.0934L537.108 51.3798L539.418 51.6896L541.727 52.0229L544.034 52.3796L546.339 52.7597L548.641 53.1633L550.941 53.5902L553.238 54.0406L555.531 54.5143L557.821 55.0114L560.108 55.5318L562.39 56.0755L564.669 56.6426L566.943 57.2328L569.213 57.8463L571.478 58.4831L573.738 59.1429L575.992 59.8259L578.241 60.532L580.485 61.2611L582.722 62.0132L584.953 62.7883L587.177 63.5863L589.395 64.4071L591.606 65.2508L593.81 66.1171L596.006 67.0062L598.195 67.9178L600.376 68.8521L602.549 69.8088L604.713 70.7879L606.869 71.7894L609.016 72.8132L611.154 73.8591L613.283 74.9271L615.402 76.0173L617.511 77.1293L619.611 78.2633L621.7 79.419L623.78 80.5965L625.848 81.7955L627.905 83.016L629.952 84.2579L631.987 85.5213L634.011 86.8057L636.023 88.1112L638.023 89.4378L640.011 90.7854L641.986 92.1535L643.949 93.5423L645.899 94.9518L647.836 96.3818L649.76 97.8319L651.67 99.3022L653.567 100.793L655.45 102.303L657.319 103.834L659.173 105.383L661.013 106.953L662.838 108.542L664.648 110.15L666.443 111.777L668.223 113.423L669.987 115.088L671.736 116.772L673.468 118.475L675.185 120.195L676.885 121.934L678.569 123.691L680.236 125.467L681.886 127.259L683.519 129.07L685.054 130.807C693.883 140.796 692.944 156.05 682.955 164.88C672.966 173.709 657.711 172.769 648.882 162.78L647.506 161.224L646.2 159.775L644.878 158.34L643.542 156.917L642.195 155.511L640.832 154.117L639.46 152.741L638.074 151.379L636.675 150.033L635.261 148.698L633.841 147.384L632.402 146.08L630.957 144.796L629.498 143.526L628.025 142.27L626.543 141.031L625.051 139.809L623.546 138.602L622.031 137.411L620.505 136.237L618.97 135.079L617.422 133.936L615.866 132.812L614.298 131.703L612.723 130.612L611.135 129.536L609.54 128.478L607.935 127.436L606.323 126.413L604.698 125.404L603.066 124.414L601.427 123.441L599.779 122.486L598.119 121.546L596.456 120.626L594.785 119.724L593.101 118.836L591.416 117.97L589.72 117.118L588.019 116.286L586.309 115.471L584.594 114.674L582.87 113.894L581.143 113.134L579.408 112.391L577.668 111.666L575.92 110.958L574.169 110.27L572.41 109.599L570.649 108.947L568.88 108.312L567.108 107.697L565.33 107.099L563.549 106.52L561.763 105.96L559.974 105.417L558.178 104.893L556.382 104.388L554.582 103.902L552.774 103.432L550.968 102.983L549.159 102.552L547.344 102.139L545.528 101.745L543.709 101.369L541.889 101.012L540.067 100.674L538.244 100.354L536.417 100.053L534.589 99.7705L532.761 99.5066L530.931 99.2612L529.102 99.0346L527.271 98.8265L525.438 98.6367L523.607 98.4658L521.775 98.3133L519.943 98.1794L518.11 98.0639L516.281 97.9671L514.449 97.8887L512.62 97.8287L510.791 97.7872L508.964 97.7641L507.138 97.7593L505.313 97.7729L503.491 97.8049L501.67 97.855L499.851 97.9235L498.035 98.0102L496.222 98.115L494.41 98.238L492.602 98.379L490.797 98.5381L488.994 98.7152L487.196 98.9102L485.401 99.1232L483.609 99.354L481.822 99.6025L480.039 99.8688L478.26 100.153L476.485 100.454L474.715 100.774L472.95 101.11L471.19 101.464L469.435 101.836L467.685 102.225L465.941 102.63L464.202 103.054L462.469 103.494L460.743 103.951L459.022 104.425L457.308 104.916L455.6 105.424L453.899 105.949L452.205 106.49L450.517 107.047L448.837 107.622L447.164 108.212L445.499 108.819L443.841 109.442L442.191 110.081L440.549 110.736L438.915 111.407L437.289 112.093L435.672 112.796L434.063 113.514L432.463 114.247L430.872 114.996L429.29 115.76L427.716 116.54L426.152 117.335L424.598 118.144L423.053 118.968L421.518 119.808L419.993 120.661L418.477 121.53L416.972 122.412L415.477 123.31L413.993 124.221L412.519 125.146L411.055 126.086L409.603 127.039L408.162 128.005L406.731 128.986L405.312 129.98L403.904 130.987L402.507 132.007L401.122 133.041L399.749 134.088L398.387 135.147L397.037 136.219L395.7 137.303L394.374 138.401L393.062 139.51L391.761 140.631L390.473 141.764L389.197 142.91L387.934 144.067L386.684 145.236L385.447 146.416L384.223 147.607L383.012 148.81L381.814 150.024L380.63 151.248L379.459 152.483L378.301 153.73L377.157 154.986L376.027 156.253L374.911 157.529L373.809 158.816L372.72 160.113L371.646 161.419L370.586 162.735L369.54 164.061L368.508 165.395L367.491 166.739L366.488 168.092L365.5 169.453L364.527 170.823L363.568 172.202L362.624 173.588L361.694 174.983L360.78 176.386L359.881 177.797L358.997 179.216L358.128 180.642L357.274 182.075L356.435 183.516L355.612 184.963L354.803 186.418L354.011 187.879L353.234 189.347L352.472 190.821L351.726 192.302L350.995 193.788L350.281 195.28L349.582 196.778L348.898 198.282L348.231 199.791L347.579 201.305L346.943 202.825L346.323 204.349L345.719 205.878L345.131 207.411L344.559 208.95L344.003 210.492L343.463 212.037L342.939 213.589L342.431 215.142L341.94 216.699L341.464 218.26L341.005 219.825L340.562 221.392L340.135 222.962L339.724 224.535L339.329 226.11L338.951 227.688L338.589 229.268L338.243 230.851L337.914 232.434L337.6 234.021L337.304 235.607L337.023 237.196L336.758 238.786L336.51 240.378L336.278 241.97L336.062 243.562L335.863 245.156L335.68 246.749L335.513 248.343L335.362 249.937L335.227 251.531L335.109 253.125L335.006 254.718L334.92 256.311L334.85 257.903L334.796 259.494L334.758 261.084L334.736 262.673L334.73 264.26L334.74 265.846L334.766 267.43L334.808 269.012L334.866 270.592L334.94 272.171L335.029 273.746L335.134 275.319L335.255 276.89L335.392 278.458L335.544 280.023L335.712 281.584L335.895 283.143L336.094 284.697L336.308 286.249L336.538 287.796L336.783 289.339L337.043 290.879L337.319 292.414L337.609 293.945L337.915 295.472L338.236 296.994L338.572 298.511L338.923 300.023L339.288 301.53L339.669 303.031L340.064 304.528L340.473 306.019L340.898 307.504L341.336 308.983L341.79 310.456L342.257 311.924L342.739 313.385L343.235 314.839L343.745 316.288L344.27 317.729L344.808 319.164L345.36 320.592L345.926 322.012L346.505 323.426L347.099 324.832L347.705 326.231L348.325 327.622L348.959 329.005L349.606 330.381L350.265 331.749L350.938 333.108L351.625 334.46L352.323 335.803L353.035 337.137L353.759 338.463L354.496 339.781L355.245 341.089L356.007 342.389L356.781 343.679L357.567 344.96L358.365 346.232L359.176 347.495L359.997 348.748L360.831 349.992L361.677 351.225L362.534 352.45L363.402 353.663L364.281 354.868L365.172 356.061L366.074 357.245L366.987 358.418L367.91 359.581L368.844 360.733L369.789 361.875L370.745 363.005L371.71 364.125L372.687 365.235L373.672 366.332L374.668 367.419L375.674 368.495L376.69 369.559L377.715 370.612L378.75 371.654L379.794 372.684L380.847 373.702L381.909 374.708L382.981 375.703L384.061 376.686L385.149 377.657L386.247 378.616L387.353 379.563L388.468 380.498L389.59 381.42L390.72 382.33L391.858 383.227L393.006 384.113L394.158 384.985L395.32 385.845L396.489 386.693L397.665 387.528L398.847 388.349L400.038 389.158L401.235 389.955L402.438 390.738L403.647 391.508L404.865 392.266L406.088 393.01L407.315 393.74L408.551 394.459L409.792 395.163L411.038 395.854L412.291 396.532L413.548 397.197L414.81 397.848L416.079 398.486L417.351 399.11L418.627 399.72L419.912 400.318L421.197 400.901L422.49 401.472L423.784 402.027L425.084 402.57L426.387 403.098L427.697 403.614L429.008 404.115L430.321 404.602L431.641 405.077L432.961 405.536L434.287 405.983L435.614 406.414L436.944 406.833L438.279 407.238L439.612 407.628L440.951 408.005L442.294 408.368L443.634 408.716L444.979 409.051L446.324 409.372L447.674 409.679L449.021 409.972L450.375 410.252L451.725 410.516L453.077 410.768L454.434 411.005L455.786 411.228L457.145 411.438L458.498 411.633L459.857 411.815L461.211 411.983L462.57 412.137L463.927 412.277L465.284 412.403L466.638 412.516L467.997 412.614L469.351 412.699L470.705 412.77L472.059 412.828L473.412 412.871L474.764 412.901L476.112 412.917L477.463 412.92L478.808 412.909L480.156 412.885L481.499 412.846L482.841 412.795L484.179 412.73L485.519 412.651L486.85 412.56L488.186 412.454L489.515 412.336L490.841 412.204L492.164 412.059L493.486 411.901L494.806 411.729L496.118 411.545L497.429 411.348L498.737 411.138L500.044 410.914L501.341 410.678L502.637 410.429L503.929 410.167L505.216 409.893L506.501 409.605L507.779 409.306L509.054 408.993L510.325 408.668L511.586 408.332L512.847 407.982L514.105 407.619L515.352 407.246L516.597 406.86L517.836 406.462L519.069 406.051L520.298 405.629L521.519 405.195L522.735 404.749L523.944 404.292L525.149 403.823L526.347 403.342L527.541 402.849L528.724 402.346L529.9 401.832L531.075 401.304L532.239 400.767L533.397 400.219L534.549 399.659L535.691 399.09L536.831 398.507L537.959 397.915L539.08 397.313L540.198 396.699L541.304 396.076L542.402 395.442L543.495 394.797L544.578 394.143L545.655 393.478L546.723 392.803L547.781 392.12L548.833 391.425L549.879 390.719L550.91 390.007L551.937 389.283L552.955 388.55L553.966 387.806L554.962 387.058L555.957 386.294L556.937 385.527L557.911 384.748L558.874 383.961L559.83 383.164L560.776 382.359L561.712 381.547L562.639 380.725L563.558 379.893L564.465 379.057L565.361 378.212L566.253 377.355L567.13 376.495L567.999 375.625L568.859 374.746L569.707 373.863L570.547 372.97L571.374 372.071L572.194 371.163L573.003 370.249L573.802 369.327L574.589 368.401L575.367 367.465L576.134 366.525L576.889 365.578L577.638 364.621L578.372 363.662L579.097 362.695L579.809 361.726L580.515 360.744L581.207 359.76L581.889 358.77L582.558 357.776L583.22 356.772L583.867 355.768L584.505 354.756L585.133 353.738L585.747 352.719L586.352 351.691L586.945 350.66L587.527 349.624L588.099 348.583L588.658 347.538L589.206 346.49L589.743 345.436L590.268 344.38L590.783 343.317L591.285 342.254L591.777 341.185L592.257 340.114L592.726 339.037L593.182 337.959L593.627 336.878L594.061 335.793L594.484 334.704L594.894 333.614L595.293 332.521L595.681 331.424L596.056 330.33L596.421 329.226L596.774 328.124L597.115 327.018L597.444 325.915L597.762 324.804L598.069 323.693L598.363 322.584L598.646 321.471L598.917 320.356L599.177 319.238L599.425 318.124L599.661 317.005L599.885 315.889L600.099 314.768L600.3 313.65L600.49 312.527L600.669 311.406L600.835 310.289L600.99 309.166L601.134 308.044L601.266 306.924L601.387 305.802L601.496 304.685L601.593 303.563L601.679 302.444L601.754 301.326L601.817 300.21L601.869 299.091L601.91 297.976L601.939 296.861L601.957 295.75L601.963 294.636L601.958 293.524L601.943 292.418L601.916 291.312L601.877 290.204L601.828 289.103L601.767 288.004L601.696 286.904L601.613 285.805L601.52 284.715L601.415 283.619L601.3 282.534L601.174 281.445L601.037 280.365L600.889 279.283L600.731 278.205L600.561 277.131L600.382 276.061L600.192 274.994L599.991 273.929L599.78 272.87L599.557 271.812L599.325 270.759L599.083 269.712L598.831 268.667L598.567 267.623L598.295 266.588L598.011 265.556L597.718 264.528L597.416 263.506L597.102 262.485L596.78 261.472L596.447 260.464L596.104 259.455L595.753 258.459L595.39 257.462L595.02 256.475L594.639 255.49L594.249 254.511L593.85 253.538L593.441 252.57L593.024 251.609L592.596 250.651L592.161 249.701L591.715 248.754L591.262 247.817L590.799 246.882L590.327 245.955L589.848 245.036L589.359 244.12L588.863 243.213L588.357 242.311L587.843 241.416L587.321 240.528L586.789 239.644L586.252 238.771L585.704 237.901L585.151 237.04L584.589 236.186L584.018 235.338L583.44 234.497L582.854 233.664L582.261 232.836L581.662 232.02L581.053 231.207L580.439 230.405L579.815 229.605L579.187 228.819L578.55 228.036L577.906 227.262L577.257 226.498L576.598 225.737L575.936 224.988L575.267 224.247L574.589 223.511L573.906 222.785L573.218 222.067L572.523 221.357L571.82 220.654L571.113 219.961L570.4 219.275L569.68 218.598L568.956 217.929L568.224 217.268L567.488 216.616L566.747 215.973L566 215.338L565.249 214.713L564.49 214.094L563.729 213.486L562.961 212.885L562.189 212.294L561.413 211.711L560.631 211.137L559.845 210.572L559.056 210.016L558.26 209.469L557.462 208.931L556.657 208.401L555.85 207.88L555.042 207.371L554.223 206.867L553.405 206.374L552.584 205.891L551.758 205.416L550.928 204.95L550.094 204.494L549.259 204.046L548.421 203.61L547.578 203.18L546.731 202.76L545.886 202.351L545.033 201.949L544.181 201.558L543.325 201.176L542.466 200.803L541.604 200.439L540.743 200.085L539.878 199.74L539.01 199.405L538.141 199.079L537.27 198.762L536.399 198.455L535.523 198.156L534.647 197.868L533.771 197.589L532.892 197.319L532.012 197.058L531.131 196.807L530.249 196.566L529.366 196.333L528.482 196.11L527.598 195.897L526.712 195.693L525.828 195.498L524.943 195.313L524.054 195.136L523.17 194.97L522.28 194.811L521.395 194.663L520.509 194.524L519.621 194.395L518.735 194.274L517.849 194.163L516.962 194.061L516.078 193.968L515.194 193.884L514.309 193.809L513.426 193.744L512.545 193.688L511.664 193.64L510.783 193.602L509.906 193.573L509.027 193.552L508.152 193.541L507.277 193.539L506.403 193.545L505.532 193.56L504.662 193.585L503.794 193.618L502.929 193.659L502.064 193.71L501.202 193.769L500.343 193.837L499.485 193.913L498.63 193.998L497.777 194.092L496.927 194.194L496.079 194.305L495.235 194.424L494.392 194.551L493.553 194.687L492.716 194.831L491.884 194.983L491.053 195.143L490.226 195.312L489.402 195.489L488.581 195.674L487.765 195.866L486.951 196.067L486.141 196.276L485.335 196.492L484.532 196.716L483.733 196.948L482.939 197.188L482.148 197.435L481.36 197.69L480.577 197.953L479.799 198.223L479.024 198.5L478.254 198.785L477.489 199.077L476.727 199.376L475.97 199.683L475.218 199.996L474.47 200.317L473.727 200.645L472.989 200.979L472.256 201.321L471.528 201.669L470.804 202.024L470.087 202.385L469.372 202.754L468.664 203.129L467.961 203.51L467.264 203.898L466.572 204.292L465.885 204.692L465.203 205.099L464.527 205.512L463.857 205.93L463.192 206.355L462.533 206.786L461.879 207.223L461.231 207.665L460.59 208.113L459.954 208.567L459.323 209.026L458.699 209.491L458.081 209.961L457.469 210.437L456.863 210.918L456.263 211.404L455.669 211.895L455.081 212.392L454.501 212.893L453.925 213.399L453.357 213.91L452.795 214.425L452.239 214.946L451.689 215.472L451.147 216.001L450.611 216.535L450.081 217.073L449.558 217.616L449.04 218.164L448.532 218.714L448.028 219.27L447.532 219.828L447.042 220.391L446.56 220.958L446.083 221.529L445.614 222.103L445.152 222.68L444.696 223.262L444.248 223.846L443.806 224.435L443.372 225.026L442.944 225.62L442.523 226.218L442.109 226.819L441.703 227.422L441.304 228.028L440.911 228.638L440.525 229.25L440.147 229.864L439.776 230.481L439.412 231.1L439.055 231.722L438.704 232.347L438.362 232.972L438.027 233.6L437.698 234.231L437.377 234.864L437.063 235.499L436.756 236.134L436.457 236.772L436.164 237.412L435.879 238.052L435.601 238.695L435.33 239.34L435.066 239.986L434.81 240.631L434.561 241.279L434.318 241.929L434.084 242.577L433.856 243.229L433.636 243.881L433.422 244.533L433.216 245.186L433.017 245.839L432.826 246.493L432.641 247.148L432.464 247.803L432.293 248.459L432.13 249.114L431.974 249.77L431.824 250.427L431.683 251.082L431.548 251.738L431.42 252.394L431.299 253.049L431.185 253.704L431.078 254.359L430.978 255.013L430.885 255.666L430.799 256.32L430.72 256.972L430.648 257.623L430.582 258.275L430.524 258.925L430.472 259.574L430.427 260.222L430.389 260.87L430.358 261.513L430.333 262.159L430.315 262.802L430.303 263.444L430.299 264.084L430.3 264.723L430.309 265.361L430.324 265.996L430.345 266.63L430.373 267.262L430.407 267.892L430.448 268.52L430.495 269.148L430.548 269.771L430.608 270.394L430.673 271.013L430.746 271.631L430.824 272.247L430.908 272.86L430.999 273.471L431.095 274.079L431.198 274.685L431.306 275.287L431.421 275.888L431.541 276.485L431.667 277.081L431.799 277.673L431.937 278.262L432.08 278.848L432.23 279.431L432.384 280.012L432.545 280.589L432.71 281.162L432.882 281.734L433.058 282.301L433.24 282.865L433.428 283.426L433.621 283.983L433.819 284.537L434.022 285.087L434.23 285.634L434.443 286.178L434.662 286.717L434.885 287.253L435.113 287.784L435.346 288.313L435.585 288.838L435.827 289.358L436.075 289.875L436.327 290.388L436.584 290.897L436.844 291.401L437.11 291.902L437.38 292.398L437.655 292.89L437.934 293.379L438.217 293.862L438.504 294.341L438.796 294.817L439.091 295.288L439.391 295.754L439.694 296.216L440.002 296.674L440.314 297.127L440.628 297.575L440.948 298.02L441.27 298.459L441.596 298.894L441.926 299.325L442.259 299.75L442.596 300.171L442.936 300.588L443.279 300.999L443.626 301.406L443.976 301.808L444.329 302.205L444.684 302.597L445.044 302.985L445.406 303.368L445.77 303.745L446.138 304.118L446.509 304.486L446.882 304.849L447.258 305.207L447.636 305.56L448.017 305.908L448.4 306.251L448.786 306.59L449.174 306.922L449.564 307.25L449.956 307.572L450.352 307.891L450.748 308.204L451.147 308.512L451.548 308.814L451.95 309.111L452.354 309.403L452.762 309.692L453.168 309.973L453.579 310.25L453.989 310.522L454.402 310.788L454.817 311.05L455.231 311.306L455.648 311.558L456.067 311.804L456.487 312.045L456.906 312.281L457.328 312.511L457.751 312.737L458.174 312.957L458.598 313.172L459.024 313.383L459.45 313.588L459.877 313.788L460.304 313.983L460.731 314.172L461.161 314.357L461.59 314.537L462.019 314.711L462.449 314.881L462.879 315.045L463.309 315.204L463.742 315.359L464.17 315.507L464.601 315.652L465.033 315.791L465.464 315.926L465.895 316.055L466.324 316.179L466.755 316.299L467.187 316.413L467.614 316.522L468.044 316.627L468.473 316.727L468.903 316.823L469.329 316.912L469.757 316.998L470.184 317.079L470.61 317.154L471.034 317.226L471.46 317.292L471.882 317.354L472.306 317.411L472.727 317.463L473.148 317.511L473.568 317.555L473.987 317.593L474.404 317.627L474.819 317.657L475.234 317.682L475.648 317.703L476.06 317.719L476.471 317.731L476.881 317.739L477.287 317.742L477.695 317.741L478.101 317.736L478.502 317.726L478.905 317.713L479.304 317.695L479.702 317.673L480.098 317.647L480.493 317.617L480.886 317.582L481.276 317.544L481.663 317.502L482.052 317.456L482.435 317.406L482.818 317.352L483.199 317.295L483.577 317.233L483.953 317.168L484.326 317.099L484.698 317.027L485.067 316.951L485.434 316.871L485.798 316.788L486.159 316.702L486.521 316.611L486.877 316.518L487.232 316.421L487.584 316.321L487.932 316.218L488.281 316.11L488.623 316.001L488.967 315.887L489.305 315.771L489.64 315.652L489.974 315.53L490.305 315.404L490.633 315.276L490.958 315.145L491.28 315.011L491.599 314.874L491.915 314.735L492.229 314.592L492.54 314.447L492.848 314.299L493.151 314.15L493.453 313.997L493.752 313.841L494.047 313.684L494.34 313.524L494.629 313.361L494.916 313.196L495.198 313.03L495.479 312.86L495.755 312.689L496.028 312.516L496.299 312.341L496.566 312.163L496.83 311.984L497.091 311.802L497.349 311.619L497.604 311.433L497.854 311.247L498.101 311.059L498.348 310.867L498.587 310.677L498.826 310.483L499.06 310.288L499.293 310.09L499.52 309.893L499.745 309.694L499.966 309.493L500.185 309.29L500.399 309.087L500.61 308.883L500.819 308.677L501.023 308.471L501.225 308.263L501.423 308.054L501.617 307.844L501.81 307.632L501.997 307.422L502.183 307.208L502.363 306.996L502.542 306.781L502.717 306.567L502.888 306.352L503.057 306.136L503.221 305.919L503.383 305.702L503.542 305.485L503.696 305.268L503.849 305.048L503.997 304.83L504.141 304.612L504.284 304.391L504.422 304.174L504.559 303.952L504.69 303.735L504.82 303.514L504.946 303.294L505.069 303.075L505.188 302.855L505.304 302.637L505.418 302.416L505.528 302.198L505.636 301.978L505.739 301.761L505.841 301.542L505.939 301.324L506.034 301.106L506.126 300.889L506.214 300.674L506.3 300.457L506.384 300.241L506.464 300.026L506.541 299.813L506.615 299.598L506.687 299.387L506.755 299.174L506.822 298.962L506.885 298.751L506.945 298.543L507.002 298.333L507.057 298.125L507.109 297.919L507.159 297.713L507.206 297.508L507.25 297.303L507.292 297.101L507.331 296.9L507.368 296.699L507.401 296.501L507.434 296.301L507.463 296.105L507.489 295.91L507.514 295.715L507.536 295.522L507.556 295.331L507.574 295.141L507.589 294.953L507.602 294.765L507.613 294.579L507.622 294.396L507.628 294.211L507.633 294.032L507.635 293.852L507.636 293.674L507.634 293.498L507.631 293.323L507.626 293.149L507.619 292.98L507.61 292.809L507.599 292.641L507.586 292.475L507.572 292.31L507.556 292.149L507.538 291.988L507.519 291.829L507.498 291.671L507.476 291.517L507.452 291.362L507.427 291.211L507.4 291.062L507.372 290.915L507.343 290.77L507.312 290.625L507.28 290.484L507.247 290.344L507.212 290.206L507.177 290.07L507.14 289.936L507.102 289.805L507.064 289.676L507.023 289.546L506.983 289.422L506.942 289.298L506.899 289.176L506.856 289.057L506.811 288.938L506.767 288.825L506.722 288.712L506.675 288.6L506.629 288.491L506.581 288.384L506.533 288.278L506.485 288.176L506.436 288.075L506.387 287.976L506.337 287.878L506.288 287.785L506.237 287.692L506.187 287.601L506.136 287.513L506.085 287.427L506.034 287.342L505.983 287.26L505.932 287.179L505.881 287.101L505.83 287.025L505.779 286.951L505.728 286.878L505.677 286.808L505.627 286.74L505.576 286.672L505.527 286.609L505.478 286.548L505.426 286.485L505.378 286.427L505.329 286.37L505.282 286.316L505.235 286.263L505.186 286.21L505.141 286.162L505.096 286.115L505.049 286.068L505.005 286.025L504.961 285.982L504.919 285.942L504.876 285.903L504.835 285.866L504.312 285.407L504.135 285.238C504.049 285.163 503.872 285.012 503.612 284.803C502.991 284.306 501.966 283.536 500.63 282.703C497.802 280.94 494.475 279.45 491.195 278.939C478.022 276.886 469.008 264.544 471.06 251.371C473.113 238.199 485.455 229.184 498.628 231.237C510.389 233.069 519.912 237.833 526.174 241.737C529.383 243.738 531.962 245.655 533.809 247.136C534.738 247.881 535.498 248.528 536.076 249.037C536.347 249.276 536.58 249.485 536.772 249.661L536.902 249.776L537.374 250.2L537.84 250.63L538.303 251.066L538.761 251.508L539.214 251.957L539.663 252.412L540.106 252.872L540.546 253.339L540.98 253.812L541.409 254.29L541.834 254.775L542.253 255.266L542.667 255.761L543.075 256.262L543.479 256.769L543.878 257.283L544.271 257.801L544.658 258.324L545.04 258.853L545.416 259.388L545.786 259.927L546.151 260.472L546.511 261.022L546.864 261.577L547.211 262.137L547.552 262.702L547.887 263.272L548.217 263.847L548.54 264.427L548.857 265.01L549.168 265.6L549.472 266.193L549.77 266.791L550.061 267.393L550.346 267.999L550.625 268.61L550.897 269.225L551.162 269.845L551.421 270.468L551.672 271.096L551.918 271.728L552.156 272.362L552.387 273.001L552.612 273.644L552.829 274.29L553.039 274.94L553.242 275.593L553.439 276.25L553.628 276.911L553.81 277.574L553.984 278.24L554.151 278.909L554.311 279.582L554.464 280.258L554.609 280.937L554.747 281.618L554.877 282.302L555 282.988L555.115 283.678L555.222 284.37L555.322 285.064L555.414 285.759L555.499 286.457L555.576 287.158L555.645 287.861L555.706 288.566L555.759 289.272L555.805 289.981L555.843 290.691L555.872 291.403L555.894 292.116L555.908 292.83L555.914 293.546L555.912 294.263L555.902 294.982L555.884 295.702L555.857 296.422L555.823 297.144L555.78 297.866L555.73 298.589L555.671 299.313L555.604 300.037L555.529 300.762L555.446 301.487L555.354 302.213L555.255 302.939L555.147 303.665L555.031 304.39L554.906 305.116L554.774 305.842L554.633 306.567L554.484 307.292L554.326 308.018L554.161 308.741L553.987 309.465L553.804 310.188L553.614 310.91L553.415 311.632L553.208 312.351L552.992 313.07L552.769 313.788L552.537 314.505L552.296 315.22L552.048 315.934L551.791 316.647L551.526 317.357L551.253 318.066L550.971 318.774L550.681 319.479L550.383 320.183L550.077 320.884L549.763 321.583L549.44 322.28L549.11 322.974L548.771 323.666L548.424 324.356L548.069 325.042L547.706 325.726L547.334 326.408L546.955 327.086L546.567 327.762L546.172 328.434L545.769 329.103L545.357 329.769L544.938 330.431L544.511 331.09L544.076 331.745L543.633 332.397L543.183 333.045L542.724 333.689L542.258 334.33L541.784 334.966L541.302 335.598L540.813 336.226L540.316 336.85L539.812 337.469L539.3 338.085L538.78 338.695L538.253 339.301L537.719 339.902L537.177 340.498L536.629 341.09L536.072 341.676L535.509 342.257L534.938 342.834L534.36 343.405L533.775 343.971L533.182 344.531L532.584 345.086L531.978 345.636L531.364 346.18L530.744 346.718L530.118 347.25L529.485 347.776L528.845 348.297L528.198 348.811L527.545 349.319L526.885 349.821L526.219 350.317L525.546 350.807L524.867 351.29L524.182 351.766L523.491 352.236L522.794 352.699L522.09 353.156L521.38 353.606L520.664 354.049L519.943 354.484L519.216 354.913L518.482 355.336L517.744 355.75L516.999 356.157L516.249 356.557L515.494 356.95L514.733 357.335L513.967 357.713L513.195 358.083L512.419 358.446L511.638 358.8L510.851 359.148L510.059 359.487L509.263 359.818L508.461 360.142L507.656 360.457L506.846 360.764L506.031 361.063L505.21 361.354L504.386 361.637L503.559 361.911L502.726 362.177L501.89 362.434L501.049 362.683L500.204 362.924L499.356 363.155L498.504 363.379L497.648 363.593L496.789 363.799L495.925 363.996L495.059 364.184L494.189 364.363L493.316 364.533L492.441 364.694L491.561 364.847L490.678 364.99L489.794 365.124L488.906 365.249L488.015 365.364L487.122 365.471L486.227 365.568L485.328 365.656L484.428 365.734L483.526 365.803L482.622 365.863L481.715 365.913L480.806 365.954L479.896 365.985L478.984 366.006L478.07 366.018L477.155 366.02L476.239 366.013L475.321 365.996L474.402 365.969L473.482 365.933L472.561 365.886L471.638 365.83L470.716 365.765L469.792 365.689L468.868 365.603L467.944 365.508L467.019 365.403L466.094 365.288L465.168 365.163L464.243 365.028L463.317 364.883L462.392 364.728L461.467 364.563L460.543 364.389L459.618 364.204L458.694 364.009L457.772 363.804L456.85 363.59L455.929 363.365L455.008 363.13L454.089 362.886L453.172 362.631L452.255 362.366L451.34 362.092L450.426 361.807L449.514 361.512L448.604 361.207L447.696 360.893L446.79 360.568L445.886 360.233L444.984 359.889L444.084 359.534L443.187 359.17L442.292 358.795L441.4 358.411L440.511 358.017L439.624 357.613L438.74 357.199L437.86 356.775L436.982 356.341L436.109 355.898L435.238 355.445L434.371 354.982L433.507 354.509L432.647 354.027L431.791 353.535L430.939 353.033L430.091 352.522L429.247 352.001L428.407 351.471L427.572 350.931L426.741 350.382L425.915 349.823L425.093 349.254L424.276 348.677L423.464 348.09L422.657 347.493L421.855 346.888L421.058 346.273L420.267 345.649L419.481 345.017L418.7 344.374L417.925 343.723L417.156 343.063L416.393 342.394L415.635 341.716L414.884 341.03L414.139 340.334L413.399 339.63L412.666 338.917L411.94 338.196L411.22 337.465L410.507 336.727L409.8 335.98L409.1 335.224L408.407 334.461L407.721 333.689L407.042 332.909L406.371 332.121L405.706 331.324L405.049 330.52L404.4 329.708L403.758 328.888L403.123 328.06L402.497 327.224L401.878 326.381L401.267 325.53L400.664 324.672L400.07 323.806L399.483 322.933L398.905 322.053L398.335 321.166L397.773 320.271L397.22 319.37L396.676 318.461L396.14 317.546L395.613 316.624L395.095 315.695L394.586 314.759L394.086 313.817L393.595 312.869L393.113 311.914L392.641 310.953L392.178 309.986L391.724 309.013L391.28 308.033L390.845 307.048L390.42 306.057L390.004 305.061L389.599 304.059L389.203 303.051L388.817 302.037L388.441 301.019L388.075 299.995L387.719 298.966L387.374 297.933L387.038 296.894L386.713 295.85L386.399 294.802L386.095 293.749L385.801 292.691L385.518 291.63L385.245 290.563L384.983 289.493L384.732 288.419L384.492 287.34L384.262 286.258L384.044 285.172L383.836 284.082L383.639 282.989L383.454 281.892L383.279 280.792L383.116 279.689L382.963 278.583L382.822 277.473L382.692 276.361L382.574 275.246L382.467 274.129L382.371 273.009L382.287 271.886L382.214 270.762L382.153 269.635L382.103 268.506L382.065 267.375L382.039 266.242L382.024 265.108L382.02 263.972L382.029 262.834L382.049 261.695L382.081 260.555L382.125 259.414L382.181 258.272L382.248 257.129L382.327 255.985L382.419 254.841L382.522 253.696L382.637 252.551L382.764 251.406L382.903 250.26L383.054 249.115L383.216 247.97L383.391 246.825L383.578 245.68L383.777 244.536L383.988 243.392L384.211 242.25L384.446 241.108L384.693 239.967L384.952 238.828L385.223 237.689L385.506 236.552L385.801 235.417L386.109 234.283L386.428 233.151L386.759 232.021L387.102 230.893L387.458 229.767L387.825 228.643L388.204 227.522L388.596 226.403L388.999 225.287L389.414 224.174L389.841 223.064L390.281 221.957L390.732 220.853L391.194 219.752L391.669 218.655L392.156 217.561L392.654 216.471L393.164 215.385L393.686 214.303L394.22 213.225L394.765 212.151L395.322 211.081L395.891 210.016L396.472 208.955L397.063 207.899L397.667 206.848L398.282 205.802L398.908 204.761L399.546 203.725L400.195 202.695L400.856 201.67L401.528 200.65L402.211 199.637L402.905 198.629L403.61 197.627L404.327 196.631L405.055 195.641L405.793 194.657L406.543 193.68L407.303 192.71L408.074 191.746L408.856 190.789L409.649 189.839L410.452 188.896L411.267 187.96L412.091 187.031L412.926 186.11L413.771 185.196L414.627 184.29L415.493 183.392L416.369 182.501L417.256 181.618L418.152 180.744L419.058 179.877L419.975 179.019L420.901 178.17L421.837 177.328L422.782 176.496L423.737 175.672L424.702 174.857L425.676 174.051L426.66 173.254L427.652 172.466L428.654 171.688L429.665 170.919L430.685 170.159L431.714 169.409L432.752 168.669L433.799 167.938L434.854 167.217L435.918 166.507L436.99 165.806L438.07 165.116L439.159 164.435L440.256 163.766L441.361 163.106L442.474 162.458L443.595 161.819L444.724 161.192L445.86 160.576L447.004 159.97L448.156 159.376L449.314 158.792L450.481 158.22L451.654 157.659L452.834 157.11L454.021 156.572L455.215 156.045L456.415 155.53L457.622 155.027L458.836 154.535L460.056 154.056L461.282 153.588L462.515 153.133L463.753 152.689L464.997 152.258L466.247 151.839L467.503 151.432L468.764 151.038L470.03 150.656L471.302 150.286L472.579 149.929L473.861 149.585L475.148 149.254L476.44 148.935L477.736 148.629L479.037 148.336L480.342 148.056L481.652 147.79L482.965 147.536L484.283 147.295L485.604 147.067L486.929 146.853L488.258 146.652L489.59 146.465L490.926 146.29L492.265 146.13L493.607 145.982L494.951 145.849L496.299 145.728L497.649 145.622L499.002 145.529L500.357 145.45L501.715 145.384L503.074 145.333L504.435 145.295L505.799 145.271L507.164 145.26L508.53 145.264L509.898 145.282L511.267 145.314L512.637 145.359L514.008 145.419L515.381 145.493L516.754 145.58L518.127 145.682L519.5 145.798L520.874 145.928L522.248 146.073L523.622 146.231L524.996 146.404L526.369 146.59L527.742 146.791L529.115 147.006L530.486 147.236L531.857 147.479L533.226 147.737L534.594 148.009L535.961 148.295L537.327 148.596L538.691 148.91L540.053 149.239L541.413 149.582L542.771 149.94L544.127 150.311L545.48 150.697L546.83 151.097L548.178 151.511L549.524 151.939L550.866 152.381L552.205 152.837L553.541 153.308L554.873 153.793L556.202 154.291L557.527 154.804L558.848 155.331L560.165 155.871L561.478 156.426L562.787 156.994L564.091 157.577L565.39 158.173L566.685 158.783L567.975 159.407L569.26 160.044L570.539 160.696L571.813 161.361L573.082 162.04L574.346 162.732L575.603 163.438L576.854 164.157L578.1 164.89L579.339 165.636L580.571 166.395L581.798 167.168L583.017 167.954L584.23 168.753L585.436 169.565L586.635 170.391L587.826 171.229L589.01 172.081L590.187 172.945L591.356 173.822L592.518 174.711L593.671 175.614L594.816 176.529L595.954 177.457L597.082 178.397L598.203 179.349L599.315 180.314L600.418 181.291L601.512 182.28L602.597 183.281L603.673 184.295L604.74 185.32L605.798 186.357L606.846 187.406L607.884 188.466L608.913 189.538L609.931 190.622L610.94 191.717L611.938 192.823L612.927 193.94L613.905 195.069L614.872 196.209L615.828 197.359L616.774 198.52L617.709 199.692L618.633 200.875L619.546 202.068L620.447 203.272L621.338 204.486L622.216 205.71L623.083 206.944L623.939 208.188L624.782 209.442L625.614 210.706L626.434 211.98L627.241 213.262L628.036 214.555L628.819 215.856L629.59 217.168L630.347 218.487L631.092 219.816L631.824 221.154L632.544 222.5L633.25 223.855L633.944 225.218L634.624 226.59L635.29 227.97L635.944 229.358L636.584 230.754L637.21 232.158L637.823 233.569L638.422 234.988L639.007 236.414L639.578 237.848L640.135 239.288L640.678 240.736L641.207 242.191L641.722 243.652L642.222 245.119L642.708 246.594L643.179 248.074L643.636 249.561L644.078 251.054L644.505 252.552L644.918 254.057L645.316 255.566L645.698 257.082L646.066 258.602L646.419 260.128L646.756 261.658L647.078 263.194L647.385 264.734L647.677 266.279L647.953 267.827L648.214 269.381L648.459 270.938L648.688 272.499L648.902 274.064L649.101 275.633L649.283 277.205L649.45 278.78L649.601 280.358L649.736 281.939L649.856 283.523L649.959 285.11L650.046 286.699L650.117 288.291L650.173 289.884L650.212 291.48L650.235 293.078L650.241 294.677L650.232 296.277L650.206 297.88L650.164 299.483L650.106 301.087L650.031 302.692L649.941 304.297L649.833 305.904L649.71 307.51L649.57 309.117L649.413 310.724L649.241 312.331L649.051 313.937L648.846 315.543L648.623 317.148L648.385 318.752L648.13 320.355L647.858 321.957L647.57 323.558L647.266 325.157L646.945 326.755L646.607 328.351L646.253 329.944L645.883 331.536L645.496 333.125L645.093 334.712L644.673 336.296L644.237 337.877L643.785 339.455L643.316 341.03L642.83 342.601L642.329 344.169L641.811 345.733L641.277 347.294L640.726 348.85L640.16 350.402L639.577 351.949L638.978 353.492L638.363 355.031L637.731 356.564L637.084 358.093L636.42 359.616L635.741 361.133L635.046 362.646L634.334 364.152L633.607 365.653L632.864 367.147L632.106 368.635L631.331 370.117L630.541 371.592L629.735 373.061L628.914 374.522L628.077 375.977L627.225 377.424L626.357 378.864L625.474 380.296L624.576 381.721L623.663 383.137L622.734 384.546L621.791 385.947L620.832 387.339L619.859 388.723L618.871 390.098L617.868 391.464L616.85 392.821L615.818 394.169L614.772 395.507L613.71 396.836L612.635 398.156L611.545 399.466L610.441 400.766L609.323 402.056L608.191 403.335L607.045 404.604L605.885 405.863L604.712 407.111L603.525 408.348L602.325 409.574L601.11 410.789L599.883 411.993L598.643 413.185L597.389 414.366L596.123 415.535L594.843 416.692L593.551 417.837L592.247 418.97L590.929 420.091L589.6 421.2L588.257 422.296L586.903 423.379L585.537 424.449L584.159 425.507L582.768 426.551L581.367 427.583L579.953 428.601L578.528 429.605L577.092 430.596L575.645 431.573L574.186 432.536L572.717 433.486L571.237 434.421L569.746 435.342L568.244 436.249L566.733 437.141L565.211 438.019L563.679 438.882L562.136 439.73L560.584 440.564L559.023 441.382L557.452 442.185L555.871 442.973L554.281 443.746L552.682 444.503L551.074 445.245L549.458 445.971L547.833 446.681L546.198 447.376L544.557 448.054L542.906 448.716L541.248 449.363L539.582 449.993L537.908 450.606L536.227 451.204L534.538 451.784L532.842 452.349L531.138 452.896L529.428 453.427L527.712 453.941L525.989 454.437L524.259 454.917L522.523 455.38L520.781 455.825L519.033 456.254L517.28 456.665L515.521 457.058L513.756 457.434L511.986 457.793L510.212 458.134L508.432 458.457L506.648 458.763L504.859 459.051L503.066 459.321L501.269 459.573L499.468 459.807L497.663 460.023L495.855 460.221L494.043 460.401L492.227 460.563L490.409 460.706L488.588 460.832L486.764 460.939L484.938 461.027L483.109 461.098L481.279 461.15L479.446 461.183L477.611 461.198L475.775 461.194L473.938 461.172L472.099 461.132L470.26 461.072L468.419 460.994L466.578 460.898L464.737 460.782L462.895 460.649L461.053 460.496L459.211 460.324L457.37 460.134L455.529 459.926L453.689 459.698L451.849 459.452L450.011 459.186L448.174 458.903L446.338 458.6L444.504 458.278L442.672 457.938L440.842 457.579L439.014 457.202L437.189 456.805L435.366 456.39L433.546 455.956L431.729 455.503L429.915 455.032L428.104 454.542L426.298 454.034L424.494 453.506L422.695 452.96L420.9 452.396L419.11 451.813L417.323 451.212L415.542 450.592L413.766 449.953L411.994 449.296L410.228 448.621L408.467 447.927L406.712 447.216L404.963 446.485L403.22 445.737L401.483 444.971L399.753 444.186L398.029 443.383L396.312 442.563L394.602 441.724L392.9 440.868L391.204 439.994L389.516 439.101L387.836 438.192L386.164 437.264L384.5 436.319L382.844 435.357L381.197 434.377L379.558 433.38L377.929 432.365L376.308 431.334L374.696 430.285L373.094 429.219L371.502 428.136L369.919 427.036L368.346 425.92L366.783 424.787L365.231 423.637L363.689 422.471L362.157 421.288L360.637 420.089L359.127 418.874L357.629 417.642L356.141 416.395L354.666 415.132L353.202 413.852L351.75 412.558L350.309 411.247L348.881 409.921L347.466 408.58L346.063 407.223L344.672 405.852L343.294 404.465L341.93 403.063L340.578 401.647L339.24 400.216L337.915 398.77L336.604 397.31L335.307 395.836L334.023 394.347L332.754 392.845L331.499 391.328L330.258 389.798L329.032 388.255L327.82 386.697L326.624 385.127L325.442 383.543L324.275 381.946L323.124 380.336L321.988 378.714L320.868 377.079L319.763 375.431L318.674 373.771L317.601 372.099L316.545 370.415L315.504 368.719L314.48 367.011L313.472 365.292L312.481 363.561L311.507 361.819L310.549 360.067L309.609 358.303L308.685 356.528L307.779 354.743L306.89 352.947L306.019 351.142L305.165 349.326L304.329 347.5L303.511 345.665L302.711 343.82L301.929 341.965L301.165 340.102L300.419 338.229L299.691 336.348L298.982 334.458L298.292 332.559L297.62 330.652L296.967 328.737L296.333 326.814L295.718 324.884L295.121 322.945L294.544 321L293.986 319.047L293.448 317.087L292.929 315.121L292.429 313.148L291.949 311.168L291.488 309.182L291.047 307.19L290.626 305.193L290.225 303.189L289.843 301.181L289.482 299.167L289.14 297.148L288.819 295.124L288.518 293.095L288.237 291.063L287.977 289.025L287.737 286.984L287.517 284.939L287.318 282.891L287.139 280.838L286.98 278.783L286.843 276.725L286.726 274.664L286.63 272.6L286.554 270.534L286.499 268.466L286.465 266.396L286.452 264.324L286.46 262.25L286.488 260.175L286.538 258.099L286.608 256.022L286.7 253.945L286.812 251.866L286.946 249.788L287.1 247.71L287.276 245.631L287.473 243.553L287.69 241.476L287.929 239.399L288.189 237.324L288.47 235.249L288.772 233.176L289.095 231.105L289.439 229.035L289.805 226.968L290.191 224.903L290.599 222.84L291.027 220.78L291.477 218.723L291.947 216.669L292.439 214.619L292.951 212.572L293.485 210.529L294.039 208.489L294.615 206.455L295.211 204.424L295.828 202.398L296.466 200.377L297.125 198.361L297.805 196.351L298.505 194.346L299.226 192.346L299.967 190.353L300.729 188.365L301.512 186.384L302.315 184.41L303.138 182.442L303.982 180.482L304.846 178.528L305.731 176.582L306.635 174.644L307.56 172.713L308.505 170.791L309.47 168.876L310.454 166.971L311.459 165.073L312.483 163.185L313.527 161.306L314.591 159.436L315.674 157.575L316.777 155.725L317.898 153.884L319.04 152.053L320.2 150.232L321.38 148.422L322.578 146.623L323.796 144.834L325.032 143.057L326.287 141.291L327.56 139.536L328.852 137.793L330.163 136.062L331.492 134.343L332.838 132.637L334.203 130.942L335.586 129.261L336.987 127.592L338.405 125.936L339.842 124.294L341.295 122.665L342.766 121.049L344.254 119.447L345.759 117.859L347.281 116.286L348.82 114.726L350.376 113.181L351.948 111.651L353.537 110.135L355.142 108.635L356.763 107.15L358.4 105.68L360.053 104.226L361.721 102.787L363.405 101.364L365.105 99.9576L366.82 98.5671L368.55 97.193L370.295 95.8354L372.054 94.4945L373.828 93.1705L375.617 91.8635L377.42 90.5737L379.237 89.3012L381.068 88.0462L382.913 86.8088L384.772 85.5892L386.644 84.3876L388.529 83.204L390.428 82.0386L392.339 80.8916L394.263 79.7632L396.2 78.6534L398.149 77.5623L400.11 76.4902L402.083 75.4372L404.069 74.4034L406.065 73.3889L408.074 72.3938L410.093 71.4184L412.124 70.4626L414.165 69.5267L416.218 68.6108L418.28 67.7149L420.354 66.8393Z" fill="black"/>
</g>
<defs>
<clipPath id="clip0_404_659">
<rect width="1000" height="500" fill="white"/>
</clipPath>
</defs>
</svg>
