<svg width="1000" height="500" viewBox="0 0 1000 500" fill="none" xmlns="http://www.w3.org/2000/svg">
<g id="F1939&#9;MU">
<rect width="1000" height="500" fill="white"/>
<g id="Group 78">
<g id="Union">
<path d="M499.999 382.195C519.835 382.195 535.915 366.114 535.915 346.278C535.915 326.442 519.835 310.361 499.999 310.361C480.162 310.361 464.082 326.442 464.082 346.278C464.082 366.114 480.162 382.195 499.999 382.195Z" fill="black"/>
<path fill-rule="evenodd" clip-rule="evenodd" d="M458.222 75.107C440.848 50.8251 412.41 35 380.276 35C327.379 35 284.498 77.8812 284.498 130.778C284.498 161.303 298.778 188.492 321.021 206.031C312.895 227.277 308.443 250.34 308.443 274.443C308.443 380.237 394.206 465.999 499.999 465.999C605.792 465.999 691.555 380.237 691.555 274.443C691.555 250.34 687.103 227.276 678.977 206.03C701.219 188.491 715.498 161.302 715.498 130.778C715.498 77.8812 672.617 35 619.72 35C587.586 35 559.148 50.8251 541.774 75.107C539.278 78.5962 537.01 82.26 534.992 86.0765C523.646 83.9822 511.951 82.8877 499.999 82.8877C488.047 82.8877 476.35 83.9823 465.004 86.0769C462.987 82.2602 460.718 78.5963 458.222 75.107ZM380.276 151.556C391.751 151.556 401.054 142.253 401.054 130.778C401.054 119.303 391.751 110 380.276 110C368.801 110 359.498 119.303 359.498 130.778C359.498 142.253 368.801 151.556 380.276 151.556ZM383.443 274.443C383.443 256.985 387.282 240.424 394.16 225.557C420.518 221.729 443.398 207.167 458.222 186.449C463.633 178.886 467.971 170.502 471.013 161.52C480.281 159.149 489.993 157.888 499.999 157.888C510.005 157.888 519.716 159.148 528.983 161.52C532.025 170.501 536.363 178.885 541.774 186.449C556.599 207.168 579.479 221.73 605.838 225.557C612.717 240.424 616.555 256.986 616.555 274.443C616.555 338.815 564.371 390.999 499.999 390.999C435.627 390.999 383.443 338.815 383.443 274.443ZM619.72 151.556C631.195 151.556 640.498 142.253 640.498 130.778C640.498 119.303 631.195 110 619.72 110C608.245 110 598.942 119.303 598.942 130.778C598.942 142.253 608.245 151.556 619.72 151.556Z" fill="black"/>
</g>
</g>
</g>
</svg>
