<svg width="1000" height="500" viewBox="0 0 1000 500" fill="none" xmlns="http://www.w3.org/2000/svg">
<g id="F1932&#9;MANI">
<rect width="1000" height="500" fill="white"/>
<g id="Group 73">
<path id="Union" fill-rule="evenodd" clip-rule="evenodd" d="M399.858 105.145C385.258 100.247 376.729 94.8922 371.182 89.5018C365.251 83.7372 360.139 75.4218 356.303 60.6019C351.112 40.5522 330.651 28.5066 310.601 33.6971C290.551 38.8877 278.506 59.349 283.696 79.3987C290.039 103.9 300.747 125.632 318.911 143.286C325.558 149.746 332.83 155.294 340.636 160.098C318.189 191.867 305.001 230.644 305.001 272.501C305.001 380.196 392.305 467.501 500.001 467.501C607.696 467.501 695.001 380.196 695.001 272.501C695.001 230.643 681.812 191.866 659.364 160.098C667.17 155.294 674.441 149.746 681.088 143.286C699.253 125.632 709.96 103.9 716.303 79.3987C721.494 59.349 709.448 38.8877 689.398 33.6971C669.349 28.5066 648.887 40.5522 643.697 60.6019C639.86 75.4218 634.748 83.7372 628.817 89.5018C623.271 94.892 614.742 100.247 600.142 105.144C570.871 87.5919 536.614 77.5009 500.001 77.5009C463.386 77.5009 429.129 87.5921 399.858 105.145ZM620.001 272.501C620.001 338.775 566.275 392.501 500.001 392.501C433.726 392.501 380.001 338.775 380.001 272.501C380.001 206.227 433.726 152.501 500.001 152.501C566.275 152.501 620.001 206.227 620.001 272.501Z" fill="black"/>
</g>
</g>
</svg>
