<svg width="1000" height="1000" viewBox="0 0 1000 1000" fill="none" xmlns="http://www.w3.org/2000/svg">
<g id="F1938&#9;MONSI">
<rect width="1000" height="1000" fill="white"/>
<g id="Vector">
<path fill-rule="evenodd" clip-rule="evenodd" d="M900 100C900 127.614 877.614 150 850 150H400V850H850C877.614 850 900 872.386 900 900C900 927.614 877.614 950 850 950H350C322.386 950 300 927.614 300 900V100C300 72.3858 322.386 50 350 50H850C877.614 50 900 72.3858 900 100Z" fill="black"/>
<path d="M175 575C133.579 575 100 541.421 100 500C100 458.579 133.579 425 175 425C216.421 425 250 458.579 250 500C250 541.421 216.421 575 175 575Z" fill="black"/>
</g>
</g>
</svg>
