<svg width="1000" height="500" viewBox="0 0 1000 500" fill="none" xmlns="http://www.w3.org/2000/svg">
<g id="F1938&#9;MONSI">
<rect width="1000" height="500" fill="white"/>
<g id="Vector">
<path fill-rule="evenodd" clip-rule="evenodd" d="M707.5 70C707.5 90.7107 690.711 107.5 670 107.5H507.5V392.5H670C690.711 392.5 707.5 409.289 707.5 430C707.5 450.711 690.711 467.5 670 467.5H470C449.289 467.5 432.5 450.711 432.5 430V70C432.5 49.2893 449.289 32.5 470 32.5H670C690.711 32.5 707.5 49.2893 707.5 70Z" fill="black"/>
<path d="M350 300C322.386 300 300 277.614 300 250C300 222.386 322.386 200 350 200C377.614 200 400 222.386 400 250C400 277.614 377.614 300 350 300Z" fill="black"/>
</g>
</g>
</svg>
