<svg width="1000" height="500" viewBox="0 0 1000 500" fill="none" xmlns="http://www.w3.org/2000/svg">
<g id="F193D&#9;NANPA">
<rect width="1000" height="500" fill="white"/>
<path id="Union" fill-rule="evenodd" clip-rule="evenodd" d="M713.056 317.5C713.056 338.211 696.266 355 675.556 355H605.003V430C605.003 450.711 588.214 467.5 567.503 467.5C546.792 467.5 530.003 450.711 530.003 430V355H470.003V430C470.003 450.711 453.213 467.5 432.503 467.5C411.792 467.5 395.003 450.711 395.003 430V355H320C299.289 355 282.5 338.211 282.5 317.5C282.5 296.789 299.289 280 320 280H395.003V220H324.445C303.735 220 286.945 203.211 286.945 182.5C286.945 161.789 303.735 145 324.445 145H395.003V70C395.003 49.2893 411.792 32.5 432.503 32.5C453.213 32.5 470.003 49.2893 470.003 70V145H530.003V74.5C530.003 53.7893 546.792 37 567.503 37C588.213 37 605.003 53.7893 605.003 74.5V145H680.001C700.712 145 717.501 161.789 717.501 182.5C717.501 203.211 700.712 220 680.001 220H605.003V280H675.556C696.266 280 713.056 296.789 713.056 317.5ZM530.003 220H470.003V280H530.003V220Z" fill="black"/>
</g>
</svg>
