<svg width="1000" height="1000" viewBox="0 0 1000 1000" fill="none" xmlns="http://www.w3.org/2000/svg">
<g id="F193A&#9;MUN">
<rect width="1000" height="1000" fill="white"/>
<path id="Ellipse 8 (Stroke)" fill-rule="evenodd" clip-rule="evenodd" d="M226.735 231.919C303.115 296.078 351.842 392.366 351.842 500.055C351.842 607.731 303.203 704.002 226.831 768.162C287.691 819.278 366.124 850 451.771 850C645.07 850 801.771 693.3 801.771 500C801.771 306.7 645.07 150 451.771 150C366.079 150 287.608 180.754 226.735 231.919ZM111.169 205.897C193.611 110.497 315.654 50 451.771 50C700.299 50 901.771 251.472 901.771 500C901.771 748.528 700.299 950 451.771 950C315.702 950 193.697 889.546 111.256 794.204C101.448 782.861 97.249 767.715 99.8157 752.942C102.382 738.168 111.444 725.326 124.503 717.956C200.626 674.994 251.842 593.473 251.842 500.055C251.842 406.68 200.549 325.111 124.419 282.129C111.364 274.759 102.306 261.921 99.7389 247.151C97.1719 232.382 101.367 217.24 111.169 205.897Z" fill="black"/>
</g>
</svg>
