<svg width="1000" height="500" viewBox="0 0 1000 500" fill="none" xmlns="http://www.w3.org/2000/svg">
<g id="F1930&#9;MA">
<rect width="1000" height="500" fill="white"/>
<path id="Union" fill-rule="evenodd" clip-rule="evenodd" d="M282.5 250C282.5 129.878 379.878 32.5 500 32.5C620.122 32.5 717.5 129.878 717.5 250C717.5 370.122 620.122 467.5 500 467.5C379.878 467.5 282.5 370.122 282.5 250ZM462.5 112.486C413.941 125.697 375.697 163.941 362.486 212.5H462.5V112.486ZM537.5 112.486V212.5H637.514C624.303 163.941 586.059 125.697 537.5 112.486ZM462.5 287.5H362.486C375.697 336.059 413.941 374.303 462.5 387.514V287.5ZM537.5 387.514V287.5H637.514C624.303 336.059 586.059 374.303 537.5 387.514Z" fill="black"/>
</g>
</svg>
