<svg width="1000" height="500" viewBox="0 0 1000 500" fill="none" xmlns="http://www.w3.org/2000/svg">
<g id="F193A&#9;MUN">
<rect width="1000" height="500" fill="white"/>
<path id="Ellipse 8 (Stroke)" fill-rule="evenodd" clip-rule="evenodd" d="M400.298 130.682C429.972 161.643 448.279 203.685 448.279 250.025C448.279 296.352 430.008 338.387 400.344 369.348C422.742 384.004 449.493 392.5 478.247 392.5C556.947 392.5 620.747 328.701 620.747 250C620.747 171.299 556.947 107.5 478.247 107.5C449.473 107.5 422.705 116.007 400.298 130.682ZM313.627 107.846C353.454 61.759 412.454 32.5 478.247 32.5C598.369 32.5 695.747 129.878 695.747 250C695.747 370.122 598.369 467.5 478.247 467.5C412.478 467.5 353.495 438.262 313.669 392.203C306.313 383.696 303.164 372.336 305.089 361.256C307.014 350.176 313.81 340.545 323.604 335.017C353.339 318.235 373.279 286.434 373.279 250.025C373.279 213.642 353.311 181.815 323.564 165.02C313.773 159.493 306.979 149.864 305.054 138.787C303.129 127.709 306.275 116.353 313.627 107.846Z" fill="black"/>
</g>
</svg>
