<svg width="1000" height="500" viewBox="0 0 1000 500" fill="none" xmlns="http://www.w3.org/2000/svg">
<g id="F193F&#9;NASIN">
<rect width="1000" height="500" fill="white"/>
<path id="Union" d="M550.5 70C550.5 42.3858 528.114 20 500.5 20C472.886 20 450.5 42.3858 450.5 70V161.789L352.645 259.645C333.118 279.171 333.118 310.829 352.645 330.355C372.171 349.882 403.829 349.882 423.355 330.355L450.5 303.211V430C450.5 457.614 472.886 480 500.5 480C528.114 480 550.5 457.614 550.5 430V303.211L577.645 330.355C597.171 349.882 628.829 349.882 648.355 330.355C667.882 310.829 667.882 279.171 648.355 259.645L550.5 161.789V70Z" fill="black"/>
</g>
</svg>
