<svg width="1000" height="1000" viewBox="0 0 1000 1000" fill="none" xmlns="http://www.w3.org/2000/svg">
<g id="F1930&#9;MA">
<rect width="1000" height="1000" fill="white"/>
<path id="Union" fill-rule="evenodd" clip-rule="evenodd" d="M500 950C748.528 950 950 748.528 950 500C950 251.472 748.528 50 500 50C251.472 50 50 251.472 50 500C50 748.528 251.472 950 500 950ZM550 846.456C703.285 824.53 824.53 703.285 846.456 550H550V846.456ZM450 846.456V550H153.544C175.47 703.285 296.715 824.53 450 846.456ZM550 450H846.456C824.53 296.715 703.285 175.47 550 153.544V450ZM450 153.544V450H153.544C175.47 296.715 296.715 175.47 450 153.544Z" fill="black"/>
</g>
</svg>
