<svg width="1000" height="500" viewBox="0 0 1000 500" fill="none" xmlns="http://www.w3.org/2000/svg">
<rect width="1000" height="500" fill="white"/>
<path fill-rule="evenodd" clip-rule="evenodd" d="M456.187 292.144C469.911 296.91 484.653 299.5 500 299.5C573.73 299.5 633.5 239.73 633.5 166C633.5 92.27 573.73 32.5 500 32.5C426.27 32.5 366.5 92.27 366.5 166C366.5 275.794 387.951 354.446 443.692 449.038C454.207 466.881 477.195 472.822 495.038 462.308C512.881 451.793 518.822 428.805 508.308 410.962C483.554 368.956 466.75 331.439 456.187 292.144ZM441.5 166C441.5 133.691 467.691 107.5 500 107.5C532.309 107.5 558.5 133.691 558.5 166C558.5 198.309 532.309 224.5 500 224.5C467.691 224.5 441.5 198.309 441.5 166Z" fill="black"/>
</svg>
