<svg width="1000" height="1000" viewBox="0 0 1000 1000" fill="none" xmlns="http://www.w3.org/2000/svg">
<g id="F1931&#9;MAMA">
<rect width="1000" height="1000" fill="white"/>
<path id="Union" fill-rule="evenodd" clip-rule="evenodd" d="M500 50C306.7 50 150 206.7 150 400C150 522.52 212.954 630.337 308.279 692.867C302.893 710.97 300 730.147 300 750C300 860.457 389.543 950 500 950C610.457 950 700 860.457 700 750C700 730.147 697.107 710.97 691.721 692.867C787.046 630.337 850 522.52 850 400C850 206.7 693.3 50 500 50ZM250 400C250 261.929 361.929 150 500 150C638.071 150 750 261.929 750 400C750 538.071 638.071 650 500 650C361.929 650 250 538.071 250 400ZM599 735.802C567.608 745.042 534.383 750 500 750C465.617 750 432.392 745.042 401 735.802C400.341 740.44 400 745.18 400 750C400 805.228 444.772 850 500 850C555.228 850 600 805.228 600 750C600 745.18 599.659 740.44 599 735.802Z" fill="black"/>
</g>
</svg>
