<svg width="1000" height="1000" viewBox="0 0 1000 1000" fill="none" xmlns="http://www.w3.org/2000/svg">
<g id="F1939&#9;MU">
<rect width="1000" height="1000" fill="white"/>
<g id="Union">
<path d="M500 775C541.421 775 575 741.421 575 700C575 658.579 541.421 625 500 625C458.579 625 425 658.579 425 700C425 741.421 458.579 775 500 775Z" fill="black"/>
<path fill-rule="evenodd" clip-rule="evenodd" d="M900 550C900 499.668 890.704 451.507 873.735 407.14C920.182 370.516 950 313.74 950 250C950 139.543 860.457 50 750 50C673.255 50 606.606 93.2258 573.072 156.659C549.38 152.286 524.957 150 500 150C475.043 150 450.62 152.286 426.928 156.659C393.394 93.2258 326.745 50 250 50C139.543 50 50 139.543 50 250C50 313.74 79.8179 370.517 126.266 407.141C109.296 451.507 100 499.668 100 550C100 770.914 279.086 950 500 950C720.914 950 900 770.914 900 550ZM350 250C350 305.228 305.228 350 250 350C194.772 350 150 305.228 150 250C150 194.772 194.772 150 250 150C305.228 150 350 194.772 350 250ZM449.958 254.155C447.746 362.694 359.069 450 250 450C239.103 450 228.409 449.128 217.984 447.451C206.347 479.447 200 513.982 200 550C200 715.685 334.315 850 500 850C665.685 850 800 715.685 800 550C800 513.982 793.653 479.447 782.016 447.451C771.591 449.128 760.897 450 750 450C640.931 450 552.254 362.694 550.042 254.155C533.769 251.422 517.05 250 500 250C482.95 250 466.231 251.422 449.958 254.155ZM750 350C805.228 350 850 305.228 850 250C850 194.772 805.228 150 750 150C694.772 150 650 194.772 650 250C650 305.228 694.772 350 750 350Z" fill="black"/>
</g>
</g>
</svg>
