<svg width="1000" height="500" viewBox="0 0 1000 500" fill="none" xmlns="http://www.w3.org/2000/svg">
<g id="F1937&#9;MOLI">
<rect width="1000" height="500" fill="white"/>
<g id="Group 76">
<g id="Union">
<path d="M352.483 188.483C367.128 173.839 390.872 173.839 405.517 188.483L416.5 199.467L427.483 188.483C442.128 173.839 465.872 173.839 480.516 188.483C495.161 203.128 495.161 226.872 480.516 241.517L469.533 252.5L480.516 263.483C495.161 278.128 495.161 301.872 480.516 316.516C465.872 331.161 442.128 331.161 427.483 316.516L416.5 305.533L405.517 316.516C390.872 331.161 367.128 331.161 352.483 316.516C337.839 301.872 337.839 278.128 352.483 263.483L363.467 252.5L352.483 241.517C337.839 226.872 337.839 203.128 352.483 188.483Z" fill="black"/>
<path d="M572.517 188.483C557.872 173.839 534.128 173.839 519.483 188.483C504.839 203.128 504.839 226.872 519.483 241.517L530.467 252.5L519.483 263.483C504.839 278.128 504.839 301.872 519.483 316.516C534.128 331.161 557.872 331.161 572.517 316.516L583.5 305.533L594.483 316.516C609.128 331.161 632.872 331.161 647.516 316.516C662.161 301.872 662.161 278.128 647.516 263.483L636.533 252.5L647.516 241.517C662.161 226.872 662.161 203.128 647.516 188.483C632.872 173.839 609.128 173.839 594.483 188.483L583.5 199.467L572.517 188.483Z" fill="black"/>
<path fill-rule="evenodd" clip-rule="evenodd" d="M750 250C750 369.846 638.071 467 500 467C361.929 467 250 369.846 250 250C250 130.154 361.929 33 500 33C638.071 33 750 130.154 750 250ZM675 250C675 318.808 606.97 392 500 392C393.03 392 325 318.808 325 250C325 181.192 393.03 108 500 108C606.97 108 675 181.192 675 250Z" fill="black"/>
</g>
</g>
</g>
</svg>
