<svg width="1000" height="500" viewBox="0 0 1000 500" fill="none" xmlns="http://www.w3.org/2000/svg">
<g id="F1931&#9;MAMA">
<rect width="1000" height="500" fill="white"/>
<path id="Union" fill-rule="evenodd" clip-rule="evenodd" d="M500 32.5C409.061 32.5 335.34 106.221 335.34 197.161C335.34 241.977 353.244 282.612 382.291 312.302C379.317 322.863 377.727 334.002 377.727 345.514C377.727 413.043 432.47 467.787 500 467.787C567.53 467.787 622.274 413.043 622.274 345.514C622.274 334.002 620.683 322.863 617.71 312.302C646.756 282.612 664.661 241.977 664.661 197.161C664.661 106.221 590.94 32.5 500 32.5ZM410.34 197.161C410.34 147.642 450.482 107.5 500 107.5C549.518 107.5 589.661 147.642 589.661 197.161C589.661 246.679 549.518 286.821 500 286.821C450.482 286.821 410.34 246.679 410.34 197.161ZM546.274 355.23C531.595 359.52 516.066 361.821 500 361.821C483.934 361.821 468.406 359.52 453.726 355.23C458.207 376.677 477.222 392.787 500 392.787C522.778 392.787 541.794 376.677 546.274 355.23Z" fill="black"/>
</g>
</svg>
