<svg width="1000" height="1000" viewBox="0 0 1000 1000" fill="none" xmlns="http://www.w3.org/2000/svg">
<g id="F1934&#9;MI">
<rect width="1000" height="1000" fill="white"/>
<path id="Union" fill-rule="evenodd" clip-rule="evenodd" d="M300 573.611C353.076 621.115 423.165 650 500 650C665.685 650 800 515.685 800 350C800 184.315 665.685 50 500 50C334.315 50 200 184.315 200 350V900C200 927.614 222.386 950 250 950C277.614 950 300 927.614 300 900V573.611ZM300 350C300 239.543 389.543 150 500 150C610.457 150 700 239.543 700 350C700 460.457 610.457 550 500 550C389.543 550 300 460.457 300 350Z" fill="black"/>
</g>
</svg>
