<svg width="1000" height="500" viewBox="0 0 1000 500" fill="none" xmlns="http://www.w3.org/2000/svg">
<g id="F193B&#9;MUSI">
<rect width="1000" height="500" fill="white"/>
<path id="Union" fill-rule="evenodd" clip-rule="evenodd" d="M476 130C476 178.364 440.236 218.375 393.711 225.028C386.836 239.926 383 256.516 383 274.001C383 338.618 435.383 391.001 500 391.001C564.617 391.001 617 338.618 617 274.001C617 256.516 613.165 239.926 606.289 225.028C559.764 218.375 524 178.364 524 130C524 76.9807 566.98 34 620 34C673.019 34 716 76.9807 716 130C716 160.595 701.687 187.848 679.392 205.427C687.538 226.724 692 249.841 692 274.001C692 380.04 606.039 466.001 500 466.001C393.961 466.001 308 380.04 308 274.001C308 249.841 312.462 226.724 320.608 205.428C298.313 187.848 284 160.596 284 130C284 76.9807 326.981 34 380 34C433.019 34 476 76.9807 476 130ZM380 151C391.598 151 401 141.598 401 130C401 118.402 391.598 109 380 109C368.402 109 359 118.402 359 130C359 141.598 368.402 151 380 151ZM641 130C641 141.598 631.598 151 620 151C608.402 151 599 141.598 599 130C599 118.402 608.402 109 620 109C631.598 109 641 118.402 641 130Z" fill="black"/>
</g>
</svg>
