<svg width="1000" height="1000" viewBox="0 0 1000 1000" fill="none" xmlns="http://www.w3.org/2000/svg">
<g id="F1933&#9;MELI">
<rect width="1000" height="1000" fill="white"/>
<path id="Union" fill-rule="evenodd" clip-rule="evenodd" d="M750 300C750 420.948 664.112 521.836 550 544.999V625H675C702.614 625 725 647.386 725 675C725 702.614 702.614 725 675 725H550V850C550 877.614 527.614 900 500 900C472.386 900 450 877.614 450 850V725H325C297.386 725 275 702.614 275 675C275 647.386 297.386 625 325 625H450V544.999C335.888 521.836 250 420.948 250 300C250 161.929 361.929 50 500 50C638.071 50 750 161.929 750 300ZM500 150C417.157 150 350 217.157 350 300C350 382.843 417.157 450 500 450C582.843 450 650 382.843 650 300C650 217.157 582.843 150 500 150Z" fill="black"/>
</g>
</svg>
