<svg width="1000" height="1000" viewBox="0 0 1000 1000" fill="none" xmlns="http://www.w3.org/2000/svg">
<g id="F1938&#9;MONSI">
<rect width="1000" height="1000" fill="white"/>
<g id="Vector">
<path fill-rule="evenodd" clip-rule="evenodd" d="M800 900C800 872.386 777.614 850 750 850H500V150H750C777.614 150 800 127.614 800 100C800 72.3857 777.614 50 750 50H450C422.386 50 400 72.3857 400 100V900C400 927.614 422.386 950 450 950H750C777.614 950 800 927.614 800 900Z" fill="black"/>
<path d="M275 425C233.579 425 200 458.579 200 500C200 541.421 233.579 575 275 575C316.421 575 350 541.421 350 500C350 458.579 316.421 425 275 425Z" fill="black"/>
</g>
</g>
</svg>
