<svg width="1000" height="1000" viewBox="0 0 1000 1000" fill="none" xmlns="http://www.w3.org/2000/svg">
<g id="F1935&#9;MIJE">
<rect width="1000" height="1000" fill="white"/>
<path id="Union" fill-rule="evenodd" clip-rule="evenodd" d="M100 450C100 229.086 279.086 50 500 50C720.914 50 900 229.086 900 450C900 544.595 867.164 631.52 812.269 700H900C927.614 700 950 722.386 950 750V900C950 927.614 927.614 950 900 950C872.386 950 850 927.614 850 900V800H694C693.934 800 693.867 800 693.801 800C636.388 831.858 570.313 850 500 850C429.687 850 363.612 831.858 306.199 800C306.133 800 306.066 800 306 800H150V900C150 927.614 127.614 950 100 950C72.3858 950 50 927.614 50 900V750C50 722.386 72.3858 700 100 700H187.731C132.836 631.52 100 544.595 100 450ZM500 150C334.315 150 200 284.315 200 450C200 615.685 334.315 750 500 750C665.685 750 800 615.685 800 450C800 284.315 665.685 150 500 150Z" fill="black"/>
</g>
</svg>
