<svg width="1000" height="1000" viewBox="0 0 1000 1000" fill="none" xmlns="http://www.w3.org/2000/svg">
<g id="F1937&#9;MOLI">
<rect width="1000" height="1000" fill="white"/>
<g id="Union">
<path d="M239.645 389.645C259.171 370.118 290.829 370.118 310.355 389.645L350 429.289L389.645 389.645C409.171 370.118 440.829 370.118 460.355 389.645C479.882 409.171 479.882 440.829 460.355 460.355L420.711 500L460.355 539.645C479.882 559.171 479.882 590.829 460.355 610.355C440.829 629.882 409.171 629.882 389.645 610.355L350 570.711L310.355 610.355C290.829 629.882 259.171 629.882 239.645 610.355C220.118 590.829 220.118 559.171 239.645 539.645L279.289 500L239.645 460.355C220.118 440.829 220.118 409.171 239.645 389.645Z" fill="black"/>
<path d="M610.355 389.645C590.829 370.118 559.171 370.118 539.645 389.645C520.118 409.171 520.118 440.829 539.645 460.355L579.289 500L539.645 539.645C520.118 559.171 520.118 590.829 539.645 610.355C559.171 629.882 590.829 629.882 610.355 610.355L650 570.711L689.645 610.355C709.171 629.882 740.829 629.882 760.355 610.355C779.882 590.829 779.882 559.171 760.355 539.645L720.711 500L760.355 460.355C779.882 440.829 779.882 409.171 760.355 389.645C740.829 370.118 709.171 370.118 689.645 389.645L650 429.289L610.355 389.645Z" fill="black"/>
<path fill-rule="evenodd" clip-rule="evenodd" d="M950 500C950 748.528 748.528 950 500 950C251.472 950 50 748.528 50 500C50 251.472 251.472 50 500 50C748.528 50 950 251.472 950 500ZM850 500C850 693.3 693.3 850 500 850C306.7 850 150 693.3 150 500C150 306.7 306.7 150 500 150C693.3 150 850 306.7 850 500Z" fill="black"/>
</g>
</g>
</svg>
