<svg width="1000" height="500" viewBox="0 0 1000 500" fill="none" xmlns="http://www.w3.org/2000/svg">
<g id="F1936&#9;MOKU">
<rect width="1000" height="500" fill="white"/>
<path id="Union" fill-rule="evenodd" clip-rule="evenodd" d="M331 32.5C310.289 32.5 293.5 49.2893 293.5 70C293.5 154.84 344.725 227.715 417.933 259.385C400.012 269.638 384.258 282.797 371.606 298.23L366.576 283.141C360.027 263.494 338.79 252.875 319.142 259.424C299.494 265.974 288.875 287.211 295.425 306.859L340.425 441.859C346.241 459.307 363.853 469.962 382.007 467.016C400.162 464.07 413.5 448.392 413.5 430V389.5C413.5 351.433 450.72 310 511 310C571.281 310 608.5 351.433 608.5 389.5V430C608.5 450.711 625.29 467.5 646 467.5C666.711 467.5 683.5 450.711 683.5 430V389.5C683.5 329.56 646.431 279.548 593.461 253.781C660.264 219.649 706 150.166 706 70C706 49.2893 689.211 32.5 668.5 32.5H331ZM499.75 201.25C440.293 201.25 390.071 161.715 373.935 107.5H625.565C609.43 161.715 559.207 201.25 499.75 201.25Z" fill="black"/>
</g>
</svg>
