<svg width="1000" height="1000" viewBox="0 0 1000 1000" fill="none" xmlns="http://www.w3.org/2000/svg">
<g id="F193C&#9;MUTE">
<rect width="1000" height="1000" fill="white"/>
<g id="Vector">
<path fill-rule="evenodd" clip-rule="evenodd" d="M750 925C722.386 925 700 902.614 700 875V125C700 97.3857 722.386 75 750 75C777.614 75 800 97.3857 800 125V875C800 902.614 777.614 925 750 925Z" fill="black"/>
<path fill-rule="evenodd" clip-rule="evenodd" d="M500 950C472.386 950 450 927.614 450 900V100C450 72.3858 472.386 50 500 50C527.614 50 550 72.3858 550 100V900C550 927.614 527.614 950 500 950Z" fill="black"/>
<path fill-rule="evenodd" clip-rule="evenodd" d="M250 925C222.386 925 200 902.614 200 875V125C200 97.3857 222.386 75 250 75C277.614 75 300 97.3857 300 125V875C300 902.614 277.614 925 250 925Z" fill="black"/>
</g>
</g>
</svg>
