<svg width="1000" height="500" viewBox="0 0 1000 500" fill="none" xmlns="http://www.w3.org/2000/svg">
<g id="F1948&#9;PAKALA">
<rect width="1000" height="500" fill="white"/>
<path id="Union" fill-rule="evenodd" clip-rule="evenodd" d="M365 32.5C344.289 32.5 327.5 49.2893 327.5 70V430C327.5 450.711 344.289 467.5 365 467.5H635C655.711 467.5 672.5 450.711 672.5 430V70C672.5 49.2893 655.711 32.5 635 32.5H365ZM402.5 392.5V107.5H486.268L417.219 231.788C410.766 243.403 410.942 257.565 417.68 269.017C424.418 280.469 436.713 287.5 450 287.5H486.268L427.935 392.5H402.5ZM513.732 392.5H597.5V107.5H572.065L513.732 212.5H550C563.287 212.5 575.582 219.531 582.32 230.982C589.058 242.434 589.234 256.596 582.781 268.211L513.732 392.5Z" fill="black"/>
</g>
</svg>
