<svg width="1000" height="1000" viewBox="0 0 1000 1000" fill="none" xmlns="http://www.w3.org/2000/svg">
<g id="F194F&#9;PIMEJA">
<rect width="1000" height="1000" fill="white"/>
<path id="Union" fill-rule="evenodd" clip-rule="evenodd" d="M543.302 150C534.37 134.53 517.864 125 500 125C482.137 125 465.631 134.53 456.699 150L66.9878 825C58.0562 840.47 58.0562 859.53 66.9878 875C75.9194 890.47 92.4258 900 110.289 900H889.712C907.575 900 924.082 890.47 933.013 875C941.945 859.53 941.945 840.47 933.013 825L543.302 150ZM321.144 800H196.892L380.061 482.741L442.255 590.385L321.144 800ZM436.635 800H563.366L500 690.329L436.635 800ZM678.857 800H803.109L619.94 482.741L557.746 590.385L678.857 800ZM562.216 382.76L500 275L437.785 382.76L500 490.44L562.216 382.76Z" fill="black"/>
</g>
</svg>
