<svg width="1000" height="1000" viewBox="0 0 1000 1000" fill="none" xmlns="http://www.w3.org/2000/svg">
<g id="F1942&#9;NIMI">
<rect width="1000" height="1000" fill="white"/>
<path id="lipu (Stroke)" fill-rule="evenodd" clip-rule="evenodd" d="M261 750C144.468 750 50 655.532 50 539V461C50 344.468 144.468 250 261 250L739 250C855.532 250 950 344.468 950 461V539C950 655.532 855.532 750 739 750H261ZM150 539C150 600.304 199.696 650 261 650H739C800.304 650 850 600.304 850 539V461C850 399.696 800.304 350 739 350L261 350C199.696 350 150 399.696 150 461V539Z" fill="black"/>
</g>
</svg>
