<svg width="1000" height="500" viewBox="0 0 1000 500" fill="none" xmlns="http://www.w3.org/2000/svg">
<g id="F1942&#9;NIMI">
<rect width="1000" height="500" fill="white"/>
<path id="lipu (Stroke)" fill-rule="evenodd" clip-rule="evenodd" d="M350 437.5C246.447 437.5 162.5 353.553 162.5 250C162.5 146.447 246.447 62.5 350 62.5L650 62.5C753.553 62.5 837.5 146.447 837.5 250C837.5 353.553 753.553 437.5 650 437.5L350 437.5ZM237.5 250C237.5 312.132 287.868 362.5 350 362.5H650C712.132 362.5 762.5 312.132 762.5 250C762.5 187.868 712.132 137.5 650 137.5L350 137.5C287.868 137.5 237.5 187.868 237.5 250Z" fill="black"/>
</g>
</svg>
