<svg width="1000" height="500" viewBox="0 0 1000 500" fill="none" xmlns="http://www.w3.org/2000/svg">
<g id="F194A&#9;PALISA">
<rect width="1000" height="500" fill="white"/>
<path id="Rectangle 21 (Stroke)" fill-rule="evenodd" clip-rule="evenodd" d="M395.5 137.05C395.5 79.3086 442.309 32.5 500.05 32.5C557.791 32.5 604.6 79.3086 604.6 137.05V362.95C604.6 420.691 557.791 467.5 500.05 467.5C442.309 467.5 395.5 420.691 395.5 362.95V137.05ZM500.05 107.5C483.73 107.5 470.5 120.73 470.5 137.05V362.95C470.5 379.27 483.73 392.5 500.05 392.5C516.37 392.5 529.6 379.27 529.6 362.95V137.05C529.6 120.73 516.37 107.5 500.05 107.5Z" fill="black"/>
</g>
</svg>
