<svg width="1000" height="500" viewBox="0 0 1000 500" fill="none" xmlns="http://www.w3.org/2000/svg">
<g id="F1949&#9;PALI">
<rect width="1000" height="500" fill="white"/>
<path id="Union" fill-rule="evenodd" clip-rule="evenodd" d="M625.264 265.026C647.921 240.331 661.75 207.405 661.75 171.25C661.75 94.6205 599.63 32.5 523 32.5C446.37 32.5 384.25 94.6205 384.25 171.25C384.25 207.406 398.079 240.331 420.736 265.026C406.598 274.309 394.046 285.495 383.606 298.23L378.576 283.141C372.027 263.494 350.79 252.875 331.142 259.424C311.494 265.974 300.875 287.211 307.425 306.859L352.425 441.859C358.241 459.307 375.853 469.962 394.007 467.016C412.162 464.07 425.5 448.392 425.5 430V389.5C425.5 351.433 462.72 310 523 310C583.281 310 620.5 351.433 620.5 389.5V430C620.5 450.711 637.29 467.5 658 467.5C678.711 467.5 695.5 450.711 695.5 430V389.5C695.5 337.351 667.441 292.717 625.264 265.026ZM523 235C558.208 235 586.75 206.458 586.75 171.25C586.75 136.042 558.208 107.5 523 107.5C487.792 107.5 459.25 136.042 459.25 171.25C459.25 206.458 487.792 235 523 235Z" fill="black"/>
</g>
</svg>
