<svg width="1000" height="500" viewBox="0 0 1000 500" fill="none" xmlns="http://www.w3.org/2000/svg">
<g id="F194B&#9;PAN">
<rect width="1000" height="500" fill="white"/>
<g id="Vector">
<path fill-rule="evenodd" clip-rule="evenodd" d="M361.483 43.4835C376.128 28.8388 399.872 28.8388 414.517 43.4835L500.5 129.467L586.483 43.4835C601.128 28.8388 624.872 28.8388 639.517 43.4835C654.161 58.1282 654.161 81.8718 639.517 96.5165L527.017 209.017C512.372 223.661 488.628 223.661 473.983 209.017L361.483 96.5165C346.839 81.8718 346.839 58.1282 361.483 43.4835Z" fill="black"/>
<path fill-rule="evenodd" clip-rule="evenodd" d="M361.483 167.233C376.128 152.589 399.872 152.589 414.517 167.233L500.5 253.217L586.483 167.233C601.128 152.589 624.872 152.589 639.517 167.233C654.161 181.878 654.161 205.622 639.517 220.267L527.017 332.767C512.372 347.411 488.628 347.411 473.983 332.767L361.483 220.267C346.839 205.622 346.839 181.878 361.483 167.233Z" fill="black"/>
<path fill-rule="evenodd" clip-rule="evenodd" d="M361.483 290.983C376.128 276.339 399.872 276.339 414.517 290.983L500.5 376.967L586.483 290.983C601.128 276.339 624.872 276.339 639.517 290.983C654.161 305.628 654.161 329.372 639.517 344.017L527.017 456.517C512.372 471.161 488.628 471.161 473.983 456.517L361.483 344.017C346.839 329.372 346.839 305.628 361.483 290.983Z" fill="black"/>
</g>
</g>
</svg>
