<svg width="1000" height="1000" viewBox="0 0 1000 1000" fill="none" xmlns="http://www.w3.org/2000/svg">
<g id="F194E&#9;PILIN">
<rect width="1000" height="1000" fill="white"/>
<path id="Vector 150 (Stroke)" fill-rule="evenodd" clip-rule="evenodd" d="M468.647 888.979C469.061 889.292 469.382 889.535 469.609 889.706L470 890C487.778 903.333 512.222 903.333 530 890L530.391 889.706C530.618 889.535 530.939 889.292 531.353 888.979C532.18 888.352 533.375 887.442 534.914 886.262C537.991 883.903 542.445 880.461 548.079 876.035C559.342 867.185 575.344 854.382 594.509 838.411C632.769 806.528 683.972 761.739 735.355 710.355C786.53 659.181 839.052 600.311 879.103 540.235C918.263 481.495 950 415.029 950 350C950 211.929 838.071 100 700 100C629.224 100 570.355 131.993 528.998 168.98C518.6 178.279 508.859 188.303 500 198.733C491.141 188.303 481.4 178.279 471.002 168.98C429.645 131.993 370.776 100 300 100C161.929 100 50 211.929 50 350C50 415.029 81.7373 481.495 120.897 540.235C160.948 600.311 213.47 659.181 264.645 710.355C316.028 761.739 367.231 806.528 405.491 838.411C424.656 854.382 440.658 867.185 451.921 876.035C457.555 880.461 462.009 883.903 465.086 886.262C466.625 887.442 467.82 888.352 468.647 888.979ZM300 200C217.157 200 150 267.157 150 350C150 384.971 168.263 431.005 204.103 484.765C239.052 537.189 286.53 590.819 335.355 639.645C383.972 688.261 432.769 730.972 469.509 761.589C481.017 771.178 491.308 779.554 500 786.523C508.692 779.554 518.983 771.178 530.491 761.589C567.231 730.972 616.028 688.261 664.645 639.645C713.47 590.819 760.948 537.189 795.897 484.765C831.737 431.005 850 384.971 850 350C850 267.157 782.843 200 700 200C660.319 200 624.188 218.007 595.66 243.52C565.733 270.283 551.224 298.831 549.029 309.806C544.355 333.177 523.834 350 500 350C476.166 350 455.645 333.177 450.971 309.806C448.776 298.831 434.266 270.283 404.34 243.52C375.812 218.007 339.681 200 300 200Z" fill="black"/>
</g>
</svg>
