<svg width="1000" height="1000" viewBox="0 0 1000 1000" fill="none" xmlns="http://www.w3.org/2000/svg">
<g id="F1946&#9;ONA">
<rect width="1000" height="1000" fill="white"/>
<path id="Union" fill-rule="evenodd" clip-rule="evenodd" d="M517.936 582.909C506.413 557.648 499.992 529.57 499.992 499.993C499.992 389.536 589.535 299.993 699.992 299.993C810.449 299.993 899.992 389.536 899.992 499.993C899.992 610.45 810.449 699.993 699.992 699.993C586.695 699.993 444.622 673.887 333.428 648.764C277.285 636.079 227.989 623.403 192.713 613.895C175.063 609.138 160.895 605.166 151.099 602.372C146.201 600.975 142.394 599.871 139.791 599.111C138.489 598.731 137.488 598.436 136.801 598.233L136.435 598.125L136.009 597.999C109.547 590.105 94.1847 562.162 102.079 535.7C109.972 509.239 138.659 494.436 165.119 502.327L165.474 502.431C165.709 502.501 165.979 502.58 166.282 502.669C166.725 502.799 167.241 502.95 167.828 503.122C170.239 503.826 173.844 504.871 178.531 506.208C187.907 508.883 201.605 512.723 218.737 517.341C253.025 526.583 300.957 538.907 355.466 551.222C406.519 562.757 462.479 574.081 517.936 582.909ZM699.992 399.993C644.764 399.993 599.992 444.765 599.992 499.993C599.992 555.222 644.764 599.993 699.992 599.993C755.221 599.993 799.992 555.222 799.992 499.993C799.992 444.765 755.221 399.993 699.992 399.993Z" fill="black"/>
</g>
</svg>
