<svg width="1000" height="500" viewBox="0 0 1000 500" fill="none" xmlns="http://www.w3.org/2000/svg">
<rect width="1000" height="500" fill="white"/>
<path fill-rule="evenodd" clip-rule="evenodd" d="M290.31 399.857L290.474 399.981C303.813 409.996 322.176 410.004 335.515 399.989L335.578 399.942L335.69 399.857C335.782 399.788 335.906 399.694 336.062 399.575C336.374 399.339 336.813 399.005 337.37 398.577C338.484 397.722 340.073 396.492 342.07 394.922C346.061 391.783 351.695 387.27 358.428 381.653C371.841 370.464 389.868 354.684 408.03 336.503C426.036 318.478 445.051 297.227 459.806 275.072C473.895 253.917 487.5 226.975 487.5 198.571C487.5 140.027 440.079 92.5 381.5 92.5C351.054 92.5 328.502 106.174 313 120.758C297.498 106.174 274.946 92.5 244.5 92.5C185.921 92.5 138.5 140.027 138.5 198.571C138.5 226.975 152.105 253.917 166.194 275.072C180.949 297.227 199.964 318.478 217.97 336.503C236.132 354.684 254.159 370.464 267.572 381.653C274.305 387.27 279.939 391.783 283.93 394.922C285.927 396.492 287.516 397.722 288.63 398.577C289.187 399.005 289.626 399.339 289.938 399.575L290.072 399.677L290.192 399.768L290.31 399.857ZM244.5 167.5C227.416 167.5 213.5 181.374 213.5 198.571C213.5 204.454 217.02 216.083 228.618 233.499C239.551 249.915 254.786 267.236 271.03 283.497C286 298.483 301.086 311.836 313 321.869C324.914 311.836 340 298.483 354.97 283.497C371.214 267.236 386.449 249.915 397.382 233.499C408.98 216.083 412.5 204.454 412.5 198.571C412.5 181.374 398.584 167.5 381.5 167.5C375.32 167.5 370.012 169.865 363.668 176.078C357.726 181.897 353.495 188.274 348.276 196.139L348.275 196.141C346.937 198.158 345.533 200.272 344.02 202.5C337.039 212.776 325.423 218.929 313 218.929C300.577 218.929 288.961 212.776 281.98 202.5C280.467 200.272 279.064 198.158 277.725 196.141L277.724 196.139C272.505 188.274 268.274 181.897 262.332 176.078C255.988 169.865 250.68 167.5 244.5 167.5Z" fill="black"/>
<path fill-rule="evenodd" clip-rule="evenodd" d="M664.81 399.857L664.974 399.981C678.313 409.996 696.676 410.004 710.015 399.989L710.078 399.942L710.19 399.857C710.282 399.788 710.406 399.694 710.562 399.575C710.874 399.339 711.313 399.005 711.87 398.577C712.984 397.722 714.573 396.492 716.57 394.922C720.561 391.783 726.195 387.27 732.928 381.653C746.341 370.464 764.368 354.684 782.53 336.503C800.536 318.478 819.551 297.227 834.306 275.072C848.395 253.917 862 226.975 862 198.571C862 140.027 814.579 92.5 756 92.5C725.554 92.5 703.002 106.174 687.5 120.758C671.998 106.174 649.446 92.5 619 92.5C560.421 92.5 513 140.027 513 198.571C513 226.975 526.605 253.917 540.694 275.072C555.449 297.227 574.464 318.478 592.47 336.503C610.632 354.684 628.659 370.464 642.072 381.653C648.805 387.27 654.439 391.783 658.43 394.922C660.427 396.492 662.016 397.722 663.13 398.577C663.687 399.005 664.126 399.339 664.438 399.575L664.572 399.677L664.692 399.768L664.81 399.857ZM619 167.5C601.916 167.5 588 181.374 588 198.571C588 204.454 591.52 216.083 603.118 233.499C614.051 249.915 629.286 267.236 645.53 283.497C660.5 298.483 675.586 311.836 687.5 321.869C699.414 311.836 714.5 298.483 729.47 283.497C745.714 267.236 760.949 249.915 771.882 233.499C783.48 216.083 787 204.454 787 198.571C787 181.374 773.084 167.5 756 167.5C749.82 167.5 744.512 169.865 738.168 176.078C732.226 181.897 727.995 188.274 722.776 196.139L722.775 196.141C721.436 198.158 720.033 200.272 718.52 202.5C711.539 212.776 699.923 218.929 687.5 218.929C675.077 218.929 663.461 212.776 656.48 202.5C654.967 200.272 653.564 198.158 652.225 196.141L652.224 196.139C647.005 188.274 642.774 181.897 636.832 176.078C630.488 169.865 625.18 167.5 619 167.5Z" fill="black"/>
</svg>
