<svg width="1000" height="1000" viewBox="0 0 1000 1000" fill="none" xmlns="http://www.w3.org/2000/svg">
<g id="F194C&#9;PANA">
<rect width="1000" height="1000" fill="white"/>
<g id="Group 48">
<g id="Vector">
<path fill-rule="evenodd" clip-rule="evenodd" d="M600.191 352.374C462.224 352.374 350.38 464.218 350.38 602.186V900C350.38 922.644 335.162 942.462 313.285 948.306C291.408 954.15 268.334 944.562 257.042 924.934L56.6691 576.652C42.8985 552.716 51.1387 522.149 75.0741 508.378C99.0095 494.608 129.576 502.848 143.347 526.784L250.381 712.828V602.186C250.381 408.99 406.996 252.374 600.191 252.374C793.385 252.374 950 408.99 950 602.186V900C950 927.614 927.614 950 900 950C872.386 950 850.001 927.614 850.001 900V602.186C850.001 464.218 738.157 352.374 600.191 352.374Z" fill="black"/>
<path fill-rule="evenodd" clip-rule="evenodd" d="M601.19 50C628.804 50 651.189 72.3858 651.189 100V149.969C651.189 177.583 628.804 199.969 601.19 199.969C573.576 199.969 551.19 177.583 551.19 149.969V100C551.19 72.3858 573.576 50 601.19 50Z" fill="black"/>
<path fill-rule="evenodd" clip-rule="evenodd" d="M828.063 103.271C853.26 114.568 865.686 144.634 855.817 170.424L836.695 220.392C826.825 246.183 798.398 257.932 773.2 246.635C748.003 235.337 735.577 205.272 745.447 179.482L764.569 129.514C774.438 103.723 802.866 91.9743 828.063 103.271Z" fill="black"/>
<path fill-rule="evenodd" clip-rule="evenodd" d="M373.453 103.271C398.651 91.9743 427.078 103.723 436.948 129.514L456.07 179.482C465.939 205.272 453.513 235.337 428.316 246.635C403.118 257.932 374.691 246.183 364.822 220.392L345.7 170.424C335.83 144.634 348.256 114.568 373.453 103.271Z" fill="black"/>
</g>
</g>
</g>
</svg>
