<svg width="1000" height="1000" viewBox="0 0 1000 1000" fill="none" xmlns="http://www.w3.org/2000/svg">
<g id="F1943&#9;NOKA">
<rect width="1000" height="1000" fill="white"/>
<path id="Ellipse 1 (Stroke)" fill-rule="evenodd" clip-rule="evenodd" d="M150 50C177.614 50 200 72.3858 200 100V850H700C755.228 850 800 805.228 800 750C800 694.772 755.228 650 700 650H450C422.386 650 400 627.614 400 600V100C400 72.3858 422.386 50 450 50C477.614 50 500 72.3858 500 100V550H700C810.457 550 900 639.543 900 750C900 860.457 810.457 950 700 950H150C122.386 950 100 927.614 100 900V100C100 72.3858 122.386 50 150 50Z" fill="black"/>
</g>
</svg>
