<svg width="1000" height="500" viewBox="0 0 1000 500" fill="none" xmlns="http://www.w3.org/2000/svg">
<g id="F1946&#9;ONA">
<rect width="1000" height="500" fill="white"/>
<path id="Union" fill-rule="evenodd" clip-rule="evenodd" d="M508.645 306.586C500.843 289.328 496.499 270.171 496.499 250C496.499 174.061 558.06 112.5 633.999 112.5C709.938 112.5 771.499 174.061 771.499 250C771.499 325.939 709.938 387.5 633.999 387.5C486.298 387.5 392.38 370.424 254.132 318.433C234.747 311.143 224.942 289.519 232.232 270.133C239.523 250.748 261.147 240.943 280.532 248.233C366.72 280.646 433.143 298.349 508.645 306.586ZM633.999 312.5C668.517 312.5 696.499 284.518 696.499 250C696.499 215.482 668.517 187.5 633.999 187.5C599.481 187.5 571.499 215.482 571.499 250C571.499 284.518 599.481 312.5 633.999 312.5Z" fill="black"/>
</g>
</svg>
