<svg width="1000" height="1000" viewBox="0 0 1000 1000" fill="none" xmlns="http://www.w3.org/2000/svg">
<g id="F1946&#9;ONA">
<rect width="1000" height="1000" fill="white"/>
<path id="Union" fill-rule="evenodd" clip-rule="evenodd" d="M650 800H100C72.3858 800 50 777.614 50 750C50 722.386 72.3858 700 100 700H426.389C378.885 646.924 350 576.835 350 500C350 334.315 484.315 200 650 200C815.685 200 950 334.315 950 500C950 665.685 815.685 800 650 800ZM650 700C760.457 700 850 610.457 850 500C850 389.543 760.457 300 650 300C539.543 300 450 389.543 450 500C450 610.457 539.543 700 650 700Z" fill="black"/>
</g>
</svg>
