<svg width="1000" height="500" viewBox="0 0 1000 500" fill="none" xmlns="http://www.w3.org/2000/svg">
<g id="F1943&#9;NOKA">
<rect width="1000" height="500" fill="white"/>
<path id="Ellipse 1 (Stroke)" fill-rule="evenodd" clip-rule="evenodd" d="M343 32.5C363.711 32.5 380.5 49.2893 380.5 70V392.5H590.5C607.069 392.5 620.5 379.069 620.5 362.5C620.5 345.931 607.069 332.5 590.5 332.5H478C457.289 332.5 440.5 315.711 440.5 295V70C440.5 49.2893 457.289 32.5 478 32.5C498.711 32.5 515.5 49.2893 515.5 70V257.5H590.5C648.49 257.5 695.5 304.51 695.5 362.5C695.5 420.49 648.49 467.5 590.5 467.5H343C322.289 467.5 305.5 450.711 305.5 430V70C305.5 49.2893 322.289 32.5 343 32.5Z" fill="black"/>
</g>
</svg>
