<svg width="1000" height="1000" viewBox="0 0 1000 1000" fill="none" xmlns="http://www.w3.org/2000/svg">
<g id="F194B&#9;PAN">
<rect width="1000" height="1000" fill="white"/>
<g id="Group 42">
<g id="Vector">
<path fill-rule="evenodd" clip-rule="evenodd" d="M214.645 64.6447C234.171 45.1184 265.829 45.1184 285.355 64.6447L500 279.289L714.645 64.6447C734.171 45.1184 765.829 45.1184 785.355 64.6447C804.882 84.1709 804.882 115.829 785.355 135.355L535.355 385.355C515.829 404.882 484.171 404.882 464.645 385.355L214.645 135.355C195.118 115.829 195.118 84.1709 214.645 64.6447Z" fill="black"/>
<path fill-rule="evenodd" clip-rule="evenodd" d="M214.645 339.645C234.171 320.118 265.829 320.118 285.355 339.645L500 554.289L714.645 339.645C734.171 320.118 765.829 320.118 785.355 339.645C804.882 359.171 804.882 390.829 785.355 410.355L535.355 660.355C515.829 679.882 484.171 679.882 464.645 660.355L214.645 410.355C195.118 390.829 195.118 359.171 214.645 339.645Z" fill="black"/>
<path fill-rule="evenodd" clip-rule="evenodd" d="M214.645 614.645C234.171 595.118 265.829 595.118 285.355 614.645L500 829.289L714.645 614.645C734.171 595.118 765.829 595.118 785.355 614.645C804.882 634.171 804.882 665.829 785.355 685.355L535.355 935.355C515.829 954.882 484.171 954.882 464.645 935.355L214.645 685.355C195.118 665.829 195.118 634.171 214.645 614.645Z" fill="black"/>
</g>
</g>
</g>
</svg>
