<svg width="1000" height="1000" viewBox="0 0 1000 1000" fill="none" xmlns="http://www.w3.org/2000/svg">
<g id="F1944&#9;O">
<rect width="1000" height="1000" fill="white"/>
<g id="Vector">
<path fill-rule="evenodd" clip-rule="evenodd" d="M500 850C555.228 850 600 805.228 600 750C600 694.772 555.228 650 500 650C444.772 650 400 694.772 400 750C400 805.228 444.772 850 500 850ZM500 950C610.457 950 700 860.457 700 750C700 639.543 610.457 550 500 550C389.543 550 300 639.543 300 750C300 860.457 389.543 950 500 950Z" fill="black"/>
<path fill-rule="evenodd" clip-rule="evenodd" d="M500 50C527.614 50 550 72.3858 550 100V450C550 477.614 527.614 500 500 500C472.386 500 450 477.614 450 450V100C450 72.3858 472.386 50 500 50Z" fill="black"/>
</g>
</g>
</svg>
