<svg width="1000" height="1000" viewBox="0 0 1000 1000" fill="none" xmlns="http://www.w3.org/2000/svg">
<g id="F1949&#9;PALI">
<rect width="1000" height="1000" fill="white"/>
<path id="Union" fill-rule="evenodd" clip-rule="evenodd" d="M671.764 539.773C734.697 489.378 775 411.895 775 325C775 173.122 651.878 50 500 50C348.122 50 225 173.122 225 325C225 411.895 265.303 489.377 328.236 539.773C263.392 572.095 211.167 622.225 180.398 683.08L147.434 584.189C138.702 557.991 110.386 543.833 84.1885 552.566C57.9913 561.298 43.8333 589.614 52.5657 615.811L152.566 915.811C160.321 939.076 183.803 953.282 208.009 949.354C232.215 945.426 250 924.523 250 900V810C250 703.244 351.626 600 500 600C648.374 600 750 703.244 750 810V900C750 927.614 772.386 950 800 950C827.614 950 850 927.614 850 900V810C850 692.972 777.732 592.594 671.764 539.773ZM500 500C596.65 500 675 421.65 675 325C675 228.35 596.65 150 500 150C403.35 150 325 228.35 325 325C325 421.65 403.35 500 500 500Z" fill="black"/>
</g>
</svg>
