<svg width="1000" height="500" viewBox="0 0 1000 500" fill="none" xmlns="http://www.w3.org/2000/svg">
<g id="F194E&#9;PILIN">
<rect width="1000" height="500" fill="white"/>
<g id="Vector 150 (Stroke)">
<path fill-rule="evenodd" clip-rule="evenodd" d="M476.47 459.438C476.691 459.606 476.865 459.737 476.989 459.831L477.214 460C490.548 470 508.881 470 522.214 460L522.439 459.831C522.564 459.737 522.737 459.606 522.958 459.438C523.4 459.103 524.032 458.623 524.841 458.002C526.458 456.762 528.786 454.964 531.722 452.657C537.591 448.045 545.91 441.389 555.864 433.094C575.719 416.548 602.336 393.268 629.088 366.517C655.683 339.921 683.289 309.028 704.488 277.23C725.018 246.434 742.929 209.843 742.929 172.857C742.929 95.34 680.089 32.5 602.571 32.5C562.508 32.5 529.553 50.6021 506.771 70.9762C504.362 73.1306 502.006 75.3656 499.714 77.6688C497.423 75.3656 495.067 73.1306 492.658 70.9762C469.876 50.6021 436.921 32.5 396.857 32.5C319.34 32.5 256.5 95.34 256.5 172.857C256.5 209.843 274.41 246.434 294.941 277.23C316.14 309.028 343.745 339.921 370.341 366.517C397.093 393.268 423.709 416.548 443.564 433.094C453.519 441.389 461.837 448.045 467.707 452.657C470.643 454.964 472.97 456.762 474.588 458.002C475.397 458.623 476.028 459.103 476.47 459.438ZM396.857 107.5C360.761 107.5 331.5 136.761 331.5 172.857C331.5 187.3 339.304 208.566 357.345 235.627C374.717 261.686 398.54 288.65 423.374 313.484C448.05 338.16 472.862 359.881 491.578 375.477C494.447 377.868 497.167 380.11 499.714 382.191C502.262 380.11 504.981 377.868 507.85 375.477C526.566 359.881 551.378 338.16 576.055 313.484C600.888 288.65 624.711 261.686 642.084 235.627C660.124 208.566 667.929 187.3 667.929 172.857C667.929 136.761 638.667 107.5 602.571 107.5C585.829 107.5 569.927 115.112 556.767 126.881C550.29 132.673 545.107 138.949 541.474 144.577C539.671 147.37 538.386 149.794 537.539 151.697C536.766 153.434 536.521 154.367 536.488 154.493C536.483 154.512 536.483 154.513 536.486 154.497C532.98 172.026 517.59 184.643 499.714 184.643C481.842 184.643 466.453 172.03 462.944 154.506C462.943 154.503 462.943 154.5 462.943 154.497C462.945 154.508 462.945 154.511 462.944 154.506L462.941 154.493C462.907 154.367 462.663 153.433 461.89 151.697C461.042 149.794 459.757 147.37 457.955 144.577C454.322 138.949 449.138 132.673 442.661 126.881C429.502 115.112 413.6 107.5 396.857 107.5Z" fill="black"/>
<path fill-rule="evenodd" clip-rule="evenodd" d="M462.944 154.506C462.943 154.503 462.943 154.5 462.943 154.497C462.945 154.508 462.945 154.511 462.944 154.506Z" fill="black"/>
</g>
</g>
</svg>
