<svg width="1000" height="1000" viewBox="0 0 1000 1000" fill="none" xmlns="http://www.w3.org/2000/svg">
<g id="F1945&#9;OLIN">
<rect width="1000" height="1000" fill="white"/>
<g id="Vector">
<path fill-rule="evenodd" clip-rule="evenodd" d="M469.966 489.974L470 490C487.778 503.333 512.256 503.308 530.034 489.974L530.246 489.815C530.377 489.716 530.555 489.582 530.779 489.412C531.228 489.072 531.861 488.59 532.668 487.971C534.28 486.735 536.586 484.953 539.485 482.675C545.28 478.122 553.469 471.569 563.259 463.411C582.769 447.153 608.972 424.239 635.355 397.855C661.53 371.681 689.052 340.936 710.353 308.985C730.763 278.37 750 240.029 750 200C750 117.157 682.843 50 600 50C555.424 50 522.804 70.7582 500.699 92.3842C500.465 92.6127 500.232 92.8419 500 93.0717C499.768 92.8419 499.535 92.6127 499.301 92.3842C477.196 70.7582 444.576 50 400 50C317.157 50 250 117.157 250 200C250 240.029 269.237 278.37 289.647 308.985C310.948 340.936 338.47 371.681 364.645 397.855C391.028 424.239 417.231 447.153 436.741 463.411C446.531 471.569 454.72 478.122 460.515 482.675C463.414 484.953 465.72 486.735 467.332 487.971C468.139 488.59 468.772 489.072 469.221 489.412C469.445 489.582 469.623 489.716 469.754 489.815L469.966 489.974ZM400 150C372.386 150 350 172.386 350 200C350 209.971 355.763 227.88 372.853 253.515C389.052 277.814 411.53 303.319 435.355 327.145C458.641 350.43 482.102 371.013 500 385.956C517.898 371.013 541.359 350.43 564.645 327.145C588.47 303.319 610.948 277.814 627.147 253.515C644.237 227.88 650 209.971 650 200C650 172.386 627.614 150 600 150C589.348 150 580.467 154.242 570.63 163.866C561.572 172.727 555.078 182.509 547.412 194.055L547.409 194.06C545.482 196.962 543.481 199.977 541.346 203.116C532.037 216.805 516.555 225 500 225C483.445 225 467.963 216.805 458.654 203.116C456.518 199.975 454.516 196.959 452.588 194.055C444.922 182.509 438.428 172.727 429.37 163.866C419.533 154.242 410.652 150 400 150Z" fill="black"/>
<path fill-rule="evenodd" clip-rule="evenodd" d="M469.966 939.974L470 940C487.778 953.333 512.256 953.308 530.034 939.974L530.246 939.815C530.377 939.716 530.555 939.582 530.779 939.412C531.228 939.072 531.861 938.59 532.668 937.971C534.28 936.735 536.586 934.953 539.485 932.675C545.28 928.122 553.469 921.569 563.259 913.411C582.769 897.153 608.972 874.239 635.355 847.855C661.53 821.681 689.052 790.936 710.353 758.985C730.763 728.37 750 690.029 750 650C750 567.157 682.843 500 600 500C555.424 500 522.804 520.758 500.699 542.384C500.465 542.613 500.232 542.842 500 543.072C499.768 542.842 499.535 542.613 499.301 542.384C477.196 520.758 444.576 500 400 500C317.157 500 250 567.157 250 650C250 690.029 269.237 728.37 289.647 758.985C310.948 790.936 338.47 821.681 364.645 847.855C391.028 874.239 417.231 897.153 436.741 913.411C446.531 921.569 454.72 928.122 460.515 932.675C463.414 934.953 465.72 936.735 467.332 937.971C468.139 938.59 468.772 939.072 469.221 939.412C469.445 939.582 469.623 939.716 469.754 939.815L469.966 939.974ZM400 600C372.386 600 350 622.386 350 650C350 659.971 355.763 677.88 372.853 703.515C389.052 727.814 411.53 753.319 435.355 777.145C458.641 800.43 482.102 821.013 500 835.956C517.898 821.013 541.359 800.43 564.645 777.145C588.47 753.319 610.948 727.814 627.147 703.515C644.237 677.88 650 659.971 650 650C650 622.386 627.614 600 600 600C589.348 600 580.467 604.242 570.63 613.866C561.572 622.727 555.078 632.509 547.412 644.055L547.409 644.06C545.482 646.962 543.481 649.977 541.346 653.115C532.037 666.805 516.555 675 500 675C483.445 675 467.963 666.805 458.654 653.115C456.518 649.975 454.516 646.959 452.588 644.055C444.922 632.509 438.428 622.727 429.37 613.866C419.533 604.242 410.652 600 400 600Z" fill="black"/>
</g>
</g>
</svg>
