<svg width="1000" height="1000" viewBox="0 0 1000 1000" fill="none" xmlns="http://www.w3.org/2000/svg">
<g id="F1945&#9;OLIN">
<rect width="1000" height="1000" fill="white"/>
<path id="Union" fill-rule="evenodd" clip-rule="evenodd" d="M666.667 50C775.469 50 875 126.776 875 234.42C875 257.034 869.252 279.518 859.962 301.221C914.017 340.715 950 400.49 950 471.43C950 531.716 916.002 591.227 876.968 641.414C836.545 693.387 783.734 744.086 732.54 787.967C681.079 832.076 629.828 870.502 591.562 897.835C570.357 912.981 548.958 927.925 527.055 942.053C510.585 952.642 489.432 952.653 472.962 942.064C451.053 927.933 429.649 912.985 408.438 897.835C370.172 870.502 318.921 832.076 267.46 787.967C216.266 744.086 163.455 693.387 123.032 641.414C83.9981 591.227 50 531.716 50 471.43C50 400.49 85.9827 340.715 140.038 301.221C130.748 279.518 125 257.034 125 234.42C125 126.776 224.531 50 333.333 50C390.349 50 438.612 72.0909 473.408 98.7491C483.191 106.244 492.094 114.235 500 122.426C507.905 114.235 516.809 106.244 526.591 98.7491C561.388 72.0909 609.651 50 666.667 50ZM214.604 263.434C241.675 254.689 270.555 250 300 250C368.419 250 426.335 276.524 468.09 308.532C479.83 317.531 490.513 327.126 500 336.961C509.487 327.126 520.17 317.531 531.91 308.532C573.665 276.524 631.581 250 700 250C729.445 250 758.324 254.689 785.396 263.434C789.641 252.38 791.667 242.673 791.667 234.42C791.667 184.356 741.959 133.286 666.667 133.286C631.635 133.286 600.732 146.89 577.29 164.849C565.61 173.797 556.366 183.401 549.898 191.986C543.407 200.601 541.127 206.284 540.647 207.926C540.233 209.747 539.697 211.532 539.048 213.269C534.912 224.331 526.143 233.456 514.537 237.757C509.954 239.467 505.039 240.383 499.997 240.378C494.959 240.382 490.048 239.467 485.468 237.759C473.863 233.46 465.094 224.338 460.955 213.278C460.304 211.538 459.768 209.75 459.353 207.926C458.872 206.283 456.592 200.6 450.102 191.986C443.634 183.401 434.39 173.797 422.71 164.849C399.268 146.89 368.365 133.286 333.333 133.286C258.04 133.286 208.333 184.356 208.333 234.42C208.333 242.673 210.359 252.38 214.604 263.434ZM300 350.001C209.649 350.001 150 411.32 150 471.43C150 496.86 166.002 533.778 201.968 580.02C236.545 624.476 283.734 670.207 332.54 712.041C381.079 753.646 429.828 790.222 466.562 816.461C479.398 825.63 490.722 833.504 500 839.854C509.278 833.504 520.602 825.63 533.438 816.461C570.172 790.222 618.921 753.646 667.46 712.041C716.266 670.207 763.455 624.476 798.032 580.02C833.998 533.778 850 496.86 850 471.43C850 411.32 790.351 350.001 700 350.001C657.962 350.001 620.878 366.334 592.747 387.898C578.732 398.642 567.639 410.173 559.878 420.48C552.089 430.824 549.353 437.648 548.776 439.62C548.279 441.806 547.637 443.949 546.858 446.034C541.894 459.317 531.371 470.273 517.444 475.437C511.945 477.49 506.047 478.59 499.997 478.584C493.951 478.589 488.057 477.49 482.561 475.439C468.635 470.277 458.113 459.325 453.147 446.046C452.365 443.957 451.722 441.81 451.224 439.619C450.647 437.647 447.911 430.824 440.122 420.48C432.361 410.173 421.268 398.642 407.253 387.898C379.122 366.334 342.038 350.001 300 350.001Z" fill="black"/>
</g>
</svg>
