<svg width="1000" height="500" viewBox="0 0 1000 500" fill="none" xmlns="http://www.w3.org/2000/svg">
<g id="F194C&#9;PANA">
<rect width="1000" height="500" fill="white"/>
<g id="Vector">
<path fill-rule="evenodd" clip-rule="evenodd" d="M545.086 217.5C488.659 217.5 447.67 259.393 447.67 305.418V430C447.67 446.76 436.549 461.485 420.429 466.07C404.308 470.654 387.103 463.986 378.283 449.735L288.114 304.041C277.215 286.43 282.656 263.318 300.267 252.419C317.877 241.52 340.989 246.961 351.888 264.571L372.824 298.399C376.741 209.372 454.845 142.5 545.086 142.5C637.683 142.5 717.501 212.91 717.501 305.418V430C717.501 450.711 700.712 467.5 680.001 467.5C659.291 467.5 642.501 450.711 642.501 430V305.418C642.501 259.393 601.512 217.5 545.086 217.5Z" fill="black"/>
<path fill-rule="evenodd" clip-rule="evenodd" d="M545.535 32.5C566.246 32.5 583.035 49.2893 583.035 70V92.4859C583.035 113.197 566.246 129.986 545.535 129.986C524.825 129.986 508.035 113.197 508.035 92.4859V70C508.035 49.2893 524.825 32.5 545.535 32.5Z" fill="black"/>
<path fill-rule="evenodd" clip-rule="evenodd" d="M652.99 57.4629C671.888 65.9357 681.208 88.4846 673.806 107.827L665.201 130.313C657.799 149.656 636.478 158.468 617.58 149.995C598.681 141.522 589.362 118.973 596.764 99.6303L605.369 77.1446C612.771 57.8019 634.092 48.9901 652.99 57.4629Z" fill="black"/>
<path fill-rule="evenodd" clip-rule="evenodd" d="M437.692 57.4629C456.59 48.9901 477.911 57.8019 485.313 77.1446L493.918 99.6303C501.32 118.973 492.001 141.522 473.102 149.995C454.204 158.468 432.883 149.656 425.481 130.313L416.876 107.827C409.474 88.4846 418.793 65.9357 437.692 57.4629Z" fill="black"/>
</g>
</g>
</svg>
