<svg width="1000" height="1000" viewBox="0 0 1000 1000" fill="none" xmlns="http://www.w3.org/2000/svg">
<g id="F194A&#9;PALISA">
<rect width="1000" height="1000" fill="white"/>
<path id="Rectangle 21 (Stroke)" fill-rule="evenodd" clip-rule="evenodd" d="M302 249C302 139.095 391.095 50 501 50C610.905 50 700 139.095 700 249V751C700 860.905 610.905 950 501 950C391.095 950 302 860.905 302 751V249ZM501 150C446.324 150 402 194.324 402 249V751C402 805.676 446.324 850 501 850C555.676 850 600 805.676 600 751V249C600 194.324 555.676 150 501 150Z" fill="black"/>
</g>
</svg>
