<svg width="1000" height="1000" viewBox="0 0 1000 1000" fill="none" xmlns="http://www.w3.org/2000/svg">
<g id="F1948&#9;PAKALA">
<rect width="1000" height="1000" fill="white"/>
<path id="Union" fill-rule="evenodd" clip-rule="evenodd" d="M200 50C172.386 50 150 72.3858 150 100V900C150 927.614 172.386 950 200 950H800C827.614 950 850 927.614 850 900V100C850 72.3858 827.614 50 800 50H200ZM250 850V150H537.866L328.078 472.75C318.085 488.124 317.309 507.733 326.054 523.849C334.8 539.964 351.665 550 370 550H537.866L342.866 850H250ZM462.134 850H750V150H657.134L462.134 450H630C648.336 450 665.2 460.036 673.946 476.151C682.691 492.267 681.915 511.876 671.922 527.249L462.134 850Z" fill="black"/>
</g>
</svg>
