<svg width="1000" height="500" viewBox="0 0 1000 500" fill="none" xmlns="http://www.w3.org/2000/svg">
<g id="F1944&#9;O">
<rect width="1000" height="500" fill="white"/>
<g id="Vector">
<path fill-rule="evenodd" clip-rule="evenodd" d="M500 375C513.807 375 525 363.807 525 350C525 336.193 513.807 325 500 325C486.193 325 475 336.193 475 350C475 363.807 486.193 375 500 375ZM500 450C555.228 450 600 405.228 600 350C600 294.772 555.228 250 500 250C444.772 250 400 294.772 400 350C400 405.228 444.772 450 500 450Z" fill="black"/>
<path fill-rule="evenodd" clip-rule="evenodd" d="M500 42.5C520.711 42.5 537.5 59.2893 537.5 80V200C537.5 220.711 520.711 237.5 500 237.5C479.289 237.5 462.5 220.711 462.5 200L462.5 80C462.5 59.2893 479.289 42.5 500 42.5Z" fill="black"/>
</g>
</g>
</svg>
