<svg width="1000" height="1000" viewBox="0 0 1000 1000" fill="none" xmlns="http://www.w3.org/2000/svg">
<g id="F1941&#9;NI">
<rect width="1000" height="1000" fill="white"/>
<path id="Union" d="M550 100C550 72.3858 527.614 50 500 50C472.386 50 450 72.3858 450 100V779.289L285.355 614.645C265.829 595.118 234.171 595.118 214.645 614.645C195.118 634.171 195.118 665.829 214.645 685.355L464.645 935.355C469.446 940.157 474.981 943.777 480.889 946.218C486.644 948.6 492.94 949.939 499.542 949.998C499.847 950.001 500.153 950.001 500.458 949.998C507.06 949.939 513.356 948.6 519.111 946.218C525.019 943.777 530.554 940.157 535.355 935.355L785.355 685.355C804.882 665.829 804.882 634.171 785.355 614.645C765.829 595.118 734.171 595.118 714.645 614.645L550 779.289V100Z" fill="black"/>
</g>
</svg>
