<svg width="1000" height="1000" viewBox="0 0 1000 1000" fill="none" xmlns="http://www.w3.org/2000/svg">
<g id="F194F&#9;PIMEJA">
<rect width="1000" height="1000" fill="white"/>
<path id="Union" fill-rule="evenodd" clip-rule="evenodd" d="M543.302 150C534.37 134.53 517.864 125 500 125C482.137 125 465.631 134.53 456.699 150L66.9878 825C58.0562 840.47 58.0562 859.53 66.9878 875C75.9194 890.47 92.4258 900 110.289 900H889.712C907.575 900 924.082 890.47 933.013 875C941.945 859.53 941.945 840.47 933.013 825L543.302 150ZM270.933 800H196.892L405.145 439.295L442.165 503.417L270.933 800ZM386.403 800H613.398L499.9 603.417L386.403 800ZM728.868 800H803.109L594.756 439.122L557.635 503.417L728.868 800ZM537.021 339.122L500 275L462.88 339.295L499.9 403.417L537.021 339.122Z" fill="black"/>
</g>
</svg>
