<svg width="1000" height="500" viewBox="0 0 1000 500" fill="none" xmlns="http://www.w3.org/2000/svg">
<g id="F194F&#9;PIMEJA">
<rect width="1000" height="500" fill="white"/>
<path id="Union" fill-rule="evenodd" clip-rule="evenodd" d="M532.478 51.25C525.78 39.6475 513.4 32.5 500.002 32.5C486.605 32.5 474.225 39.6475 467.526 51.25L259.68 411.25C252.982 422.853 252.982 437.147 259.68 448.75C266.379 460.353 278.759 467.5 292.156 467.5H707.848C721.246 467.5 733.626 460.353 740.324 448.75C747.023 437.147 747.023 422.853 740.324 411.25L532.478 51.25ZM398.36 392.5H357.108L436.038 255.79L456.693 291.54L398.36 392.5ZM484.979 392.5H515.026L500.002 366.498L484.979 392.5ZM601.644 392.5H642.897L563.967 255.79L543.312 291.54L601.644 392.5ZM520.674 180.804L500.002 145L479.331 180.804L500.002 216.581L520.674 180.804Z" fill="black"/>
</g>
</svg>
