<svg width="1000" height="1000" viewBox="0 0 1000 1000" fill="none" xmlns="http://www.w3.org/2000/svg">
<g id="F1955&#9;PU">
<rect width="1000" height="1000" fill="white"/>
<g id="Group 43">
<g id="Vector">
<path fill-rule="evenodd" clip-rule="evenodd" d="M150 100C150 72.3858 172.386 50 200 50H800C827.614 50 850 72.3858 850 100V900C850 927.614 827.614 950 800 950H200C172.386 950 150 927.614 150 900V100ZM250 150V850H750V150H250Z" fill="black"/>
<path fill-rule="evenodd" clip-rule="evenodd" d="M670 570C670 663.888 593.888 740 500 740C406.112 740 330 663.888 330 570C330 476.112 406.112 400 500 400C593.888 400 670 476.112 670 570ZM500 800C627.025 800 730 697.025 730 570C730 442.975 627.025 340 500 340C372.975 340 270 442.975 270 570C270 697.025 372.975 800 500 800Z" fill="black"/>
<path fill-rule="evenodd" clip-rule="evenodd" d="M570 570C570 608.66 538.66 640 500 640C461.34 640 430 608.66 430 570C430 553.431 416.569 540 400 540C383.431 540 370 553.431 370 570C370 641.797 428.203 700 500 700C571.797 700 630 641.797 630 570C630 553.431 616.569 540 600 540C583.431 540 570 553.431 570 570Z" fill="black"/>
<path fill-rule="evenodd" clip-rule="evenodd" d="M282.506 272.362C292.248 262.577 308.077 262.542 317.861 272.283L368.085 322.283C377.87 332.024 377.905 347.853 368.163 357.638C358.422 367.423 342.593 367.458 332.808 357.717L282.585 307.717C272.8 297.976 272.765 282.147 282.506 272.362Z" fill="black"/>
<path fill-rule="evenodd" clip-rule="evenodd" d="M634.069 357.638C643.81 367.423 659.639 367.458 669.424 357.717L719.647 307.717C729.432 297.976 729.467 282.147 719.726 272.362C709.985 262.577 694.155 262.542 684.371 272.283L634.147 322.283C624.363 332.024 624.327 347.853 634.069 357.638Z" fill="black"/>
<path fill-rule="evenodd" clip-rule="evenodd" d="M501.473 195.056C515.311 195.056 526.529 206.224 526.529 220L526.529 290.711C526.529 304.487 515.311 315.655 501.473 315.655C487.635 315.655 476.417 304.487 476.417 290.711L476.418 220C476.418 206.224 487.635 195.056 501.473 195.056Z" fill="black"/>
</g>
</g>
</g>
</svg>
