<svg width="1000" height="500" viewBox="0 0 1000 500" fill="none" xmlns="http://www.w3.org/2000/svg">
<g id="F1951&#9;PIPI">
<rect width="1000" height="500" fill="white"/>
<g id="Union">
<path d="M467 69C467 88.33 451.33 104 432 104C412.67 104 397 88.33 397 69C397 49.67 412.67 34 432 34C451.33 34 467 49.67 467 69Z" fill="black"/>
<path d="M500 112.5C520.711 112.5 537.5 129.289 537.5 150V192.5H690C710.711 192.5 727.5 209.289 727.5 230C727.5 250.711 710.711 267.5 690 267.5H537.5V312.5H690C710.711 312.5 727.5 329.289 727.5 350C727.5 370.711 710.711 387.5 690 387.5H537.5V430C537.5 450.711 520.711 467.5 500 467.5C479.289 467.5 462.5 450.711 462.5 430V387.5H312C291.289 387.5 274.5 370.711 274.5 350C274.5 329.289 291.289 312.5 312 312.5H462.5V267.5H312C291.289 267.5 274.5 250.711 274.5 230C274.5 209.289 291.289 192.5 312 192.5H462.5V150C462.5 129.289 479.289 112.5 500 112.5Z" fill="black"/>
<path d="M567 104C586.33 104 602 88.33 602 69C602 49.67 586.33 34 567 34C547.67 34 532 49.67 532 69C532 88.33 547.67 104 567 104Z" fill="black"/>
</g>
</g>
</svg>
