<svg width="1000" height="1000" viewBox="0 0 1000 1000" fill="none" xmlns="http://www.w3.org/2000/svg">
<g id="F1951&#9;PIPI">
<rect width="1000" height="1000" fill="white"/>
<g id="Union">
<path d="M325 200C366.421 200 400 166.421 400 125C400 83.5786 366.421 50 325 50C283.579 50 250 83.5786 250 125C250 166.421 283.579 200 325 200Z" fill="black"/>
<path d="M184.5 375C184.5 354.289 201.289 337.5 222 337.5H450V250C450 222.386 472.386 200 500 200C527.614 200 550 222.386 550 250V337.5H785C805.711 337.5 822.5 354.289 822.5 375C822.5 395.711 805.711 412.5 785 412.5H550V537.5H800C820.711 537.5 837.5 554.289 837.5 575C837.5 595.711 820.711 612.5 800 612.5H550V737.5H781C801.711 737.5 818.5 754.289 818.5 775C818.5 795.711 801.711 812.5 781 812.5H550V900C550 927.614 527.614 950 500 950C472.386 950 450 927.614 450 900V812.5H219C198.289 812.5 181.5 795.711 181.5 775C181.5 754.289 198.289 737.5 219 737.5H450V612.5H200C179.289 612.5 162.5 595.711 162.5 575C162.5 554.289 179.289 537.5 200 537.5H450V412.5H222C201.289 412.5 184.5 395.711 184.5 375Z" fill="black"/>
<path d="M750 125C750 166.421 716.421 200 675 200C633.579 200 600 166.421 600 125C600 83.5786 633.579 50 675 50C716.421 50 750 83.5786 750 125Z" fill="black"/>
</g>
</g>
</svg>
