<svg width="1000" height="1000" viewBox="0 0 1000 1000" fill="none" xmlns="http://www.w3.org/2000/svg">
<g id="F1950&#9;PINI">
<rect width="1000" height="1000" fill="white"/>
<path id="Union" d="M550 150H900C927.614 150 950 127.614 950 100C950 72.3858 927.614 50 900 50H100C72.3858 50 50 72.3858 50 100C50 127.614 72.3858 150 100 150H450V850H100C72.3858 850 50 872.386 50 900C50 927.614 72.3858 950 100 950H900C927.614 950 950 927.614 950 900C950 872.386 927.614 850 900 850H550V150Z" fill="black"/>
</g>
</svg>
