<svg width="1000" height="1000" viewBox="0 0 1000 1000" fill="none" xmlns="http://www.w3.org/2000/svg">
<g id="F195F&#9;SINPIN">
<rect width="1000" height="1000" fill="white"/>
<g id="Vector">
<path fill-rule="evenodd" clip-rule="evenodd" d="M50 100C50 127.614 72.3858 150 100 150H650V850H100C72.3858 850 50 872.386 50 900C50 927.614 72.3858 950 100 950H700C727.614 950 750 927.614 750 900V100C750 72.3858 727.614 50 700 50H100C72.3858 50 50 72.3858 50 100Z" fill="black"/>
<path d="M875 575C916.421 575 950 541.421 950 500C950 458.579 916.421 425 875 425C833.579 425 800 458.579 800 500C800 541.421 833.579 575 875 575Z" fill="black"/>
</g>
</g>
</svg>
