<svg width="1000" height="1000" viewBox="0 0 1000 1000" fill="none" xmlns="http://www.w3.org/2000/svg">
<g id="F195D&#9;SIN">
<rect width="1000" height="1000" fill="white"/>
<g id="Vector">
<path fill-rule="evenodd" clip-rule="evenodd" d="M600 700C600 672.386 622.386 650 650 650H900C927.614 650 950 672.386 950 700C950 727.614 927.614 750 900 750H650C622.386 750 600 727.614 600 700Z" fill="black"/>
<path fill-rule="evenodd" clip-rule="evenodd" d="M500 250C527.614 250 550 272.386 550 300V550C550 577.614 527.614 600 500 600C472.386 600 450 577.614 450 550V300C450 272.386 472.386 250 500 250Z" fill="black"/>
<path fill-rule="evenodd" clip-rule="evenodd" d="M50 700C50 672.386 72.3858 650 100 650H350C377.614 650 400 672.386 400 700C400 727.614 377.614 750 350 750H100C72.3858 750 50 727.614 50 700Z" fill="black"/>
</g>
</g>
</svg>
