<svg width="1000" height="1000" viewBox="0 0 1000 1000" fill="none" xmlns="http://www.w3.org/2000/svg">
<g id="F1956&#9;SAMA">
<rect width="1000" height="1000" fill="white"/>
<g id="Group 44">
<path id="Vector 3 (Stroke)" fill-rule="evenodd" clip-rule="evenodd" d="M950 250C950 277.614 927.614 300 900 300L100 300C72.3858 300 50 277.614 50 250C50 222.386 72.3858 200 100 200L900 200C927.614 200 950 222.386 950 250Z" fill="black"/>
<path id="Vector 1 (Stroke)" fill-rule="evenodd" clip-rule="evenodd" d="M950 750C950 777.614 927.614 800 900 800L100 800C72.3858 800 50 777.614 50 750C50 722.386 72.3858 700 100 700L900 700C927.614 700 950 722.386 950 750Z" fill="black"/>
</g>
</g>
</svg>
