<svg width="1000" height="500" viewBox="0 0 1000 500" fill="none" xmlns="http://www.w3.org/2000/svg">
<g id="F1959&#9;SEME">
<rect width="1000" height="500" fill="white"/>
<g id="Union">
<path d="M462.559 281.765C462.559 251.166 478.107 229.187 495.221 214.216C511.199 200.239 531.329 189.927 546.51 182.161L547.033 181.894C564.003 173.213 575.674 167.243 583.846 160.708C587.559 157.74 589.004 155.8 589.481 155.004C589.654 154.715 589.649 154.716 589.633 154.719C589.628 154.72 589.622 154.721 589.619 154.715C589.618 154.713 589.618 154.71 589.618 154.706C589.618 140.163 583.674 130.459 570.537 122.536C555.519 113.479 531.332 107.5 500.059 107.5C468.786 107.5 444.599 113.479 429.581 122.536C416.444 130.459 410.5 140.163 410.5 154.706C410.5 175.417 393.711 192.206 373 192.206C352.289 192.206 335.5 175.417 335.5 154.706C335.5 110.771 357.999 78.1227 390.848 58.3118C421.817 39.6352 461.159 32.5 500.059 32.5C538.959 32.5 578.301 39.6352 609.269 58.3118C642.119 78.1227 664.618 110.771 664.618 154.706C664.618 185.292 647.176 206.099 630.683 219.286C616.323 230.768 598.243 239.977 584.135 247.163C582.95 247.767 581.792 248.356 580.666 248.932C564.083 257.415 552.448 263.801 544.603 270.665C537.893 276.534 537.559 279.54 537.559 281.765V302.941C537.559 323.652 520.77 340.441 500.059 340.441C479.348 340.441 462.559 323.652 462.559 302.941V281.765Z" fill="black"/>
<path d="M450 410C450 437.614 472.386 460 500 460C527.615 460 550 437.614 550 410C550 382.386 527.615 360 500 360C472.386 360 450 382.386 450 410Z" fill="black"/>
</g>
</g>
</svg>
