<svg width="1000" height="500" viewBox="0 0 1000 500" fill="none" xmlns="http://www.w3.org/2000/svg">
<g id="F195A&#9;SEWI">
<rect width="1000" height="500" fill="white"/>
<g id="Vector">
<path fill-rule="evenodd" clip-rule="evenodd" d="M670 458.32C649.289 458.32 632.5 441.531 632.5 420.82V80C632.5 59.2893 649.289 42.5 670 42.5C690.711 42.5 707.5 59.2893 707.5 80V420.82C707.5 441.531 690.711 458.32 670 458.32Z" fill="black"/>
<path fill-rule="evenodd" clip-rule="evenodd" d="M320.842 380.526C320.835 380.488 321.021 380.242 321.422 379.902C321.049 380.394 320.849 380.564 320.842 380.526Z" fill="black"/>
<path fill-rule="evenodd" clip-rule="evenodd" d="M622.5 95.2936C622.5 74.583 605.711 57.7936 585 57.7936C564.289 57.7936 547.5 74.583 547.5 95.2936C547.5 148.929 547.469 226.961 541.296 291.423C539.236 312.933 536.583 331.816 533.347 347.208C530.596 334.738 528.285 320.089 526.435 304.021C521.637 262.356 520.557 217.153 520.434 189.325C520.5 181.311 520.5 174.758 520.5 170.13V169.85C520.5 149.228 503.849 132.476 483.228 132.351C462.606 132.225 445.753 148.774 445.503 169.395C445.445 174.128 445.399 180.833 445.431 189.03C445.192 217.075 444.126 262.312 439.366 304.064C437.135 323.634 434.229 341.092 430.675 355.076C428.268 346.067 426.18 335.546 424.462 324.064C421.522 304.413 420.012 284.438 419.25 269.165C418.872 261.585 418.684 255.288 418.591 250.927C418.544 248.749 418.522 247.061 418.511 245.946C418.505 245.388 418.502 244.974 418.501 244.714C418.496 224.007 401.708 206.906 381 206.906C360.292 206.906 343.504 224.007 343.499 244.714C343.498 244.974 343.495 245.388 343.489 245.946C343.478 247.061 343.456 248.749 343.409 250.927C343.316 255.288 343.128 261.585 342.75 269.165C341.988 284.438 340.478 304.413 337.538 324.064C334.507 344.32 330.325 361.582 325.273 372.836C324.225 375.17 323.338 376.856 322.639 378.042C305.453 381.463 292.5 396.629 292.5 414.82C292.5 435.531 309.289 452.32 330 452.32C354.032 452.32 370.331 439.282 381 425.256C391.669 439.282 407.968 452.32 432 452.32C452.398 452.32 467.515 441.715 477.14 430.639C479.244 428.217 481.187 425.671 482.985 423.042C484.795 425.685 486.752 428.244 488.872 430.677C498.501 441.728 513.614 452.32 534 452.32C555.281 452.32 570.599 440.65 579.987 429.046C588.948 417.97 594.866 404.384 599.079 391.672C607.615 365.924 612.699 332.564 615.954 298.573C622.5 230.217 622.5 148.927 622.5 96.033V95.2936ZM320.842 380.526C320.835 380.488 321.021 380.242 321.422 379.902C321.049 380.394 320.849 380.564 320.842 380.526Z" fill="black"/>
</g>
</g>
</svg>
