<svg width="1000" height="500" viewBox="0 0 1000 500" fill="none" xmlns="http://www.w3.org/2000/svg">
<g id="F1956&#9;SAMA">
<rect width="1000" height="500" fill="white"/>
<g id="Group 92">
<g id="Vector">
<path fill-rule="evenodd" clip-rule="evenodd" d="M737.5 138C737.5 158.711 720.711 175.5 700 175.5H300C279.289 175.5 262.5 158.711 262.5 138C262.5 117.289 279.289 100.5 300 100.5H700C720.711 100.5 737.5 117.289 737.5 138Z" fill="black"/>
<path fill-rule="evenodd" clip-rule="evenodd" d="M737.5 363C737.5 383.711 720.711 400.5 700 400.5H300C279.289 400.5 262.5 383.711 262.5 363C262.5 342.289 279.289 325.5 300 325.5H700C720.711 325.5 737.5 342.289 737.5 363Z" fill="black"/>
</g>
</g>
</g>
</svg>
