<svg width="1000" height="500" viewBox="0 0 1000 500" fill="none" xmlns="http://www.w3.org/2000/svg">
<g id="F195B&#9;SIJELO">
<rect width="1000" height="500" fill="white"/>
<path id="Union" d="M357.5 430C357.5 450.711 340.711 467.5 320 467.5C299.289 467.5 282.5 450.711 282.5 430V70C282.5 49.2893 299.289 32.5 320 32.5H680C700.711 32.5 717.5 49.2893 717.5 70V430C717.5 450.711 700.711 467.5 680 467.5C659.289 467.5 642.5 450.711 642.5 430V107.5H537.5V404.286C537.5 424.996 520.711 441.786 500 441.786C479.289 441.786 462.5 424.996 462.5 404.286V107.5H357.5V430Z" fill="black"/>
</g>
</svg>
