<svg width="1000" height="1000" viewBox="0 0 1000 1000" fill="none" xmlns="http://www.w3.org/2000/svg">
<g id="F195A&#9;SEWI">
<rect width="1000" height="1000" fill="white"/>
<g id="Vector">
<path fill-rule="evenodd" clip-rule="evenodd" d="M100 950C127.614 950 150 927.614 150 900V350H850V900C850 927.614 872.386 950 900 950C927.614 950 950 927.614 950 900V300C950 272.386 927.614 250 900 250H100C72.3858 250 50 272.386 50 300V900C50 927.614 72.3858 950 100 950Z" fill="black"/>
<path d="M575 125C575 83.5786 541.421 50 500 50C458.579 50 425 83.5786 425 125C425 166.421 458.579 200 500 200C541.421 200 575 166.421 575 125Z" fill="black"/>
</g>
</g>
</svg>
