<svg width="1000" height="1000" viewBox="0 0 1000 1000" fill="none" xmlns="http://www.w3.org/2000/svg">
<g id="F1952&#9;POKA">
<rect width="1000" height="1000" fill="white"/>
<g id="Vector">
<path fill-rule="evenodd" clip-rule="evenodd" d="M100 175C127.614 175 150 197.386 150 225V725H650V225C650 197.386 672.386 175 700 175C727.614 175 750 197.386 750 225V775C750 802.614 727.614 825 700 825H100C72.3858 825 50 802.614 50 775V225C50 197.386 72.3858 175 100 175Z" fill="black"/>
<path d="M950 500C950 541.421 916.421 575 875 575C833.579 575 800 541.421 800 500C800 458.579 833.579 425 875 425C916.421 425 950 458.579 950 500Z" fill="black"/>
</g>
</g>
</svg>
