<svg width="1000" height="1000" viewBox="0 0 1000 1000" fill="none" xmlns="http://www.w3.org/2000/svg">
<g id="F1957&#9;SELI">
<rect width="1000" height="1000" fill="white"/>
<g id="Vector">
<path d="M575 875C575 916.421 541.422 950 500 950C458.579 950 425 916.421 425 875C425 833.579 458.579 800 500 800C541.422 800 575 833.579 575 875Z" fill="black"/>
<path fill-rule="evenodd" clip-rule="evenodd" d="M500 50C527.614 50 550 72.3858 550 100V600C550 627.614 527.614 650 500 650C472.386 650 450 627.614 450 600V100C450 72.3858 472.386 50 500 50Z" fill="black"/>
<path fill-rule="evenodd" clip-rule="evenodd" d="M871.44 127.685C896.467 139.355 907.295 169.104 895.625 194.131L684.316 647.285C672.645 672.312 642.896 683.14 617.869 671.469C592.842 659.799 582.014 630.05 593.685 605.023L804.994 151.869C816.664 126.842 846.413 116.014 871.44 127.685Z" fill="black"/>
<path fill-rule="evenodd" clip-rule="evenodd" d="M128.869 127.685C103.842 139.355 93.0145 169.104 104.685 194.131L315.994 647.285C327.664 672.312 357.413 683.14 382.44 671.469C407.467 659.799 418.295 630.05 406.625 605.023L195.316 151.869C183.645 126.842 153.896 116.014 128.869 127.685Z" fill="black"/>
</g>
</g>
</svg>
