<svg width="1000" height="500" viewBox="0 0 1000 500" fill="none" xmlns="http://www.w3.org/2000/svg">
<g id="F195E&#9;SINA">
<rect width="1000" height="500" fill="white"/>
<path id="Union" fill-rule="evenodd" clip-rule="evenodd" d="M456.187 207.856C469.911 203.09 484.653 200.5 500 200.5C573.73 200.5 633.5 260.27 633.5 334C633.5 407.73 573.73 467.5 500 467.5C426.27 467.5 366.5 407.73 366.5 334C366.5 224.206 387.951 145.554 443.692 50.9617C454.207 33.1186 477.195 27.1777 495.038 37.6924C512.881 48.207 518.822 71.1955 508.308 89.0385C483.554 131.044 466.75 168.561 456.187 207.856ZM441.5 334C441.5 366.309 467.691 392.5 500 392.5C532.309 392.5 558.5 366.309 558.5 334C558.5 301.691 532.309 275.5 500 275.5C467.691 275.5 441.5 301.691 441.5 334Z" fill="black"/>
</g>
</svg>
