<svg width="1000" height="1000" viewBox="0 0 1000 1000" fill="none" xmlns="http://www.w3.org/2000/svg">
<g id="F1958&#9;SELO">
<rect width="1000" height="1000" fill="white"/>
<path id="Union" d="M100 950C127.614 950 150 927.614 150 900V150H250V850C250 877.614 272.386 900 300 900C327.614 900 350 877.614 350 850V150H650V850C650 877.614 672.386 900 700 900C727.614 900 750 877.614 750 850V150H850V900C850 927.614 872.386 950 900 950C927.614 950 950 927.614 950 900V100C950 72.3858 927.614 50 900 50H100C72.3858 50 50 72.3858 50 100V900C50 927.614 72.3858 950 100 950Z" fill="black"/>
</g>
</svg>
