<svg width="1000" height="1000" viewBox="0 0 1000 1000" fill="none" xmlns="http://www.w3.org/2000/svg">
<g id="F1959&#9;SEME">
<rect width="1000" height="1000" fill="white"/>
<g id="Vector">
<path d="M575 875C575 916.421 541.421 950 500 950C458.579 950 425 916.421 425 875C425 833.579 458.579 800 500 800C541.421 800 575 833.579 575 875Z" fill="black"/>
<path fill-rule="evenodd" clip-rule="evenodd" d="M513.954 469.518C478.893 500.19 450 542.334 450 600V700C450 727.614 472.386 750 500 750C527.614 750 550 727.614 550 700V600C550 580.166 558.607 563.319 579.796 544.783C602.5 524.922 634.336 507.827 672.771 488.166C675.297 486.873 677.86 485.566 680.452 484.244C714.47 466.895 753.687 446.895 784.349 422.379C818.583 395.007 850 355.807 850 300C850 211.37 805.385 146.074 737.954 105.407C673.031 66.2529 587.927 50 500 50C412.073 50 326.969 66.2529 262.046 105.407C194.615 146.074 150 211.37 150 300C150 327.614 172.386 350 200 350C227.614 350 250 327.614 250 300C250 250.559 272.542 215.855 313.69 191.04C357.345 164.711 422.242 150 500 150C577.758 150 642.655 164.711 686.31 191.04C727.458 215.855 750 250.559 750 300C750 313.229 743.917 326.672 721.901 344.275C699.502 362.184 668.898 377.832 631.525 396.941C630.103 397.668 628.671 398.4 627.229 399.138C590.664 417.843 547.5 440.172 513.954 469.518Z" fill="black"/>
</g>
</g>
</svg>
