<svg width="1000" height="500" viewBox="0 0 1000 500" fill="none" xmlns="http://www.w3.org/2000/svg">
<g id="F1957&#9;SELI">
<rect width="1000" height="500" fill="white"/>
<g id="Vector">
<path fill-rule="evenodd" clip-rule="evenodd" d="M500.235 12.5C520.946 12.5 537.735 29.2893 537.735 50V251.176C537.735 271.887 520.946 288.676 500.235 288.676C479.525 288.676 462.735 271.887 462.735 251.176V50C462.735 29.2893 479.525 12.5 500.235 12.5Z" fill="black"/>
<path fill-rule="evenodd" clip-rule="evenodd" d="M659.116 43.3851C678.996 49.1921 690.404 70.0154 684.597 89.8954L625.996 290.514C620.189 310.394 599.365 321.803 579.485 315.996C559.606 310.189 548.197 289.365 554.004 269.486L612.606 68.8664C618.413 48.9865 639.236 37.5781 659.116 43.3851Z" fill="black"/>
<path fill-rule="evenodd" clip-rule="evenodd" d="M341.585 43.3562C361.481 37.6042 382.273 49.07 388.025 68.9659L446.025 269.585C451.777 289.481 440.311 310.273 420.415 316.025C400.519 321.777 379.727 310.311 373.975 290.415L315.975 89.7958C310.223 69.8999 321.689 49.1082 341.585 43.3562Z" fill="black"/>
<path d="M500 450C472.386 450 450 427.614 450 400C450 372.386 472.386 350 500 350C527.614 350 550 372.386 550 400C550 427.614 527.614 450 500 450Z" fill="black"/>
</g>
</g>
</svg>
