<svg width="1000" height="500" viewBox="0 0 1000 500" fill="none" xmlns="http://www.w3.org/2000/svg">
<g id="F195F&#9;SINPIN">
<rect width="1000" height="500" fill="white"/>
<g id="Vector">
<path fill-rule="evenodd" clip-rule="evenodd" d="M262.5 430C262.5 409.289 279.289 392.5 300 392.5H462.5V107.5H300C279.289 107.5 262.5 90.7107 262.5 70C262.5 49.2893 279.289 32.5 300 32.5H500C520.711 32.5 537.5 49.2893 537.5 70V430C537.5 450.711 520.711 467.5 500 467.5H300C279.289 467.5 262.5 450.711 262.5 430Z" fill="black"/>
<path d="M620 200C647.614 200 670 222.386 670 250C670 277.614 647.614 300 620 300C592.386 300 570 277.614 570 250C570 222.386 592.386 200 620 200Z" fill="black"/>
</g>
</g>
</svg>
