<svg width="1000" height="1000" viewBox="0 0 1000 1000" fill="none" xmlns="http://www.w3.org/2000/svg">
<g id="F195B&#9;SIJELO">
<rect width="1000" height="1000" fill="white"/>
<path id="Union" d="M150 900C150 927.614 127.614 950 100 950C72.3858 950 50 927.614 50 900V100C50 72.3858 72.3858 50 100 50H900C927.614 50 950 72.3858 950 100V900C950 927.614 927.614 950 900 950C872.386 950 850 927.614 850 900V150H550V850C550 877.614 527.614 900 500 900C472.386 900 450 877.614 450 850V150H150V900Z" fill="black"/>
</g>
</svg>
