<svg width="1000" height="500" viewBox="0 0 1000 500" fill="none" xmlns="http://www.w3.org/2000/svg">
<g id="F1955&#9;PU">
<rect width="1000" height="500" fill="white"/>
<g id="Vector">
<path fill-rule="evenodd" clip-rule="evenodd" d="M292.5 69C292.5 48.2893 309.289 31.5 330 31.5H670C690.711 31.5 707.5 48.2893 707.5 69V450C707.5 470.711 690.711 487.5 670 487.5H330C309.289 487.5 292.5 470.711 292.5 450V69ZM367.5 106.5V412.5H632.5V106.5H367.5Z" fill="black"/>
<path fill-rule="evenodd" clip-rule="evenodd" d="M574.93 292.674C574.93 334.288 541.195 368.023 499.581 368.023C457.967 368.023 424.232 334.288 424.232 292.674C424.232 251.06 457.967 217.325 499.581 217.325C541.195 217.325 574.93 251.06 574.93 292.674ZM499.581 408.023C563.286 408.023 614.93 356.379 614.93 292.674C614.93 228.968 563.286 177.325 499.581 177.325C435.876 177.325 384.232 228.968 384.232 292.674C384.232 356.379 435.876 408.023 499.581 408.023Z" fill="black"/>
<path fill-rule="evenodd" clip-rule="evenodd" d="M520 296C520 307.83 510.591 317 499.5 317C488.409 317 479 307.83 479 296C479 284.954 470.046 276 459 276C447.954 276 439 284.954 439 296C439 329.457 465.856 357 499.5 357C533.144 357 560 329.457 560 296C560 284.954 551.046 276 540 276C528.954 276 520 284.954 520 296Z" fill="black"/>
<path fill-rule="evenodd" clip-rule="evenodd" d="M377.826 141.889C385.619 134.062 398.283 134.033 406.111 141.826L430.054 165.664C437.882 173.457 437.91 186.12 430.117 193.948C422.324 201.776 409.661 201.804 401.833 194.011L377.889 170.174C370.062 162.381 370.033 149.717 377.826 141.889Z" fill="black"/>
<path fill-rule="evenodd" clip-rule="evenodd" d="M568.826 193.948C576.619 201.775 589.283 201.804 597.111 194.011L621.054 170.173C628.882 162.38 628.91 149.717 621.117 141.889C613.324 134.061 600.661 134.033 592.833 141.826L568.889 165.663C561.062 173.456 561.033 186.12 568.826 193.948Z" fill="black"/>
<path fill-rule="evenodd" clip-rule="evenodd" d="M500.284 109.762C511.354 109.762 520.328 118.697 520.328 129.718V153.282C520.328 164.303 511.354 173.238 500.284 173.238C489.213 173.238 480.239 164.303 480.239 153.282V129.718C480.239 118.697 489.213 109.762 500.284 109.762Z" fill="black"/>
</g>
</g>
</svg>
