<svg width="1000" height="1000" viewBox="0 0 1000 1000" fill="none" xmlns="http://www.w3.org/2000/svg">
<g id="F1951&#9;PIPI">
<rect width="1000" height="1000" fill="white"/>
<g id="Union">
<path d="M325 200C366.421 200 400 166.421 400 125C400 83.5786 366.421 50 325 50C283.579 50 250 83.5786 250 125C250 166.421 283.579 200 325 200Z" fill="black"/>
<path d="M80 400C80 372.386 102.386 350 130 350H450V250C450 222.386 472.386 200 500 200C527.614 200 550 222.386 550 250V350H880C907.614 350 930 372.386 930 400C930 427.614 907.614 450 880 450H550V550H900C927.614 550 950 572.386 950 600C950 627.614 927.614 650 900 650H550V750H875C902.614 750 925 772.386 925 800C925 827.614 902.614 850 875 850H550V900C550 927.614 527.614 950 500 950C472.386 950 450 927.614 450 900V850H125C97.3858 850 75 827.614 75 800C75 772.386 97.3858 750 125 750H450V650H100C72.3858 650 50 627.614 50 600C50 572.386 72.3858 550 100 550H450V450H130C102.386 450 80 427.614 80 400Z" fill="black"/>
<path d="M750 125C750 166.421 716.421 200 675 200C633.579 200 600 166.421 600 125C600 83.5786 633.579 50 675 50C716.421 50 750 83.5786 750 125Z" fill="black"/>
</g>
</g>
</svg>
