<svg width="1000" height="1000" viewBox="0 0 1000 1000" fill="none" xmlns="http://www.w3.org/2000/svg">
<g id="F1952&#9;POKA">
<rect width="1000" height="1000" fill="white"/>
<g id="Vector">
<path fill-rule="evenodd" clip-rule="evenodd" d="M100 100C127.614 100 150 122.386 150 150V800H650V150C650 122.386 672.386 100 700 100C727.614 100 750 122.386 750 150V850C750 877.614 727.614 900 700 900H100C72.3858 900 50 877.614 50 850V150C50 122.386 72.3858 100 100 100Z" fill="black"/>
<path d="M950 500C950 541.421 916.421 575 875 575C833.579 575 800 541.421 800 500C800 458.579 833.579 425 875 425C916.421 425 950 458.579 950 500Z" fill="black"/>
</g>
</g>
</svg>
