<svg width="1000" height="1000" viewBox="0 0 1000 1000" fill="none" xmlns="http://www.w3.org/2000/svg">
<g id="F1958&#9;SELO">
<rect width="1000" height="1000" fill="white"/>
<path id="Union" fill-rule="evenodd" clip-rule="evenodd" d="M200 850C200 877.614 177.614 900 150 900C122.386 900 100 877.614 100 850V150C100 122.386 122.386 100 150 100H300H700H850C877.614 100 900 122.386 900 150V850C900 877.614 877.614 900 850 900C822.386 900 800 877.614 800 850V200H750V800C750 827.614 727.614 850 700 850C672.386 850 650 827.614 650 800V200H350V800C350 827.614 327.614 850 300 850C272.386 850 250 827.614 250 800V200H200V850Z" fill="black"/>
</g>
</svg>
