<svg width="1000" height="500" viewBox="0 0 1000 500" fill="none" xmlns="http://www.w3.org/2000/svg">
<g id="F195D&#9;SIN">
<rect width="1000" height="500" fill="white"/>
<g id="Vector">
<path fill-rule="evenodd" clip-rule="evenodd" d="M575 400C575 379.289 591.789 362.5 612.5 362.5H800C820.711 362.5 837.5 379.289 837.5 400C837.5 420.711 820.711 437.5 800 437.5H612.5C591.789 437.5 575 420.711 575 400Z" fill="black"/>
<path fill-rule="evenodd" clip-rule="evenodd" d="M500 62.5C520.711 62.5 537.5 79.2893 537.5 100V287.5C537.5 308.211 520.711 325 500 325C479.289 325 462.5 308.211 462.5 287.5V100C462.5 79.2893 479.289 62.5 500 62.5Z" fill="black"/>
<path fill-rule="evenodd" clip-rule="evenodd" d="M162.5 400C162.5 379.289 179.289 362.5 200 362.5H387.5C408.211 362.5 425 379.289 425 400C425 420.711 408.211 437.5 387.5 437.5H200C179.289 437.5 162.5 420.711 162.5 400Z" fill="black"/>
</g>
</g>
</svg>
