<svg width="1000" height="1000" viewBox="0 0 1000 1000" fill="none" xmlns="http://www.w3.org/2000/svg">
<g id="F195E&#9;SINA">
<rect width="1000" height="1000" fill="white"/>
<path id="Union" fill-rule="evenodd" clip-rule="evenodd" d="M417.083 517.93C442.343 506.407 470.421 499.986 499.998 499.986C610.455 499.986 699.998 589.529 699.998 699.986C699.998 810.443 610.455 899.986 499.998 899.986C389.541 899.986 299.998 810.443 299.998 699.986C299.998 586.69 326.105 444.616 351.227 333.422C363.912 277.279 376.588 227.983 386.096 192.707C390.853 175.058 394.825 160.889 397.619 151.093C399.017 146.195 400.12 142.388 400.88 139.785C401.261 138.483 401.555 137.482 401.758 136.795L401.866 136.43L401.992 136.003C409.886 109.541 437.83 94.1788 464.292 102.073C490.752 109.967 505.556 138.653 497.665 165.114L497.56 165.468C497.491 165.704 497.411 165.973 497.322 166.276C497.192 166.719 497.041 167.235 496.87 167.822C496.165 170.233 495.12 173.838 493.783 178.525C491.109 187.901 487.268 201.599 482.65 218.732C473.408 253.02 461.084 300.951 448.769 355.46C437.234 406.513 425.911 462.473 417.083 517.93ZM599.998 699.986C599.998 644.758 555.227 599.986 499.998 599.986C444.77 599.986 399.998 644.758 399.998 699.986C399.998 755.215 444.77 799.986 499.998 799.986C555.227 799.986 599.998 755.215 599.998 699.986Z" fill="black"/>
</g>
</svg>
