<svg width="1000" height="1000" viewBox="0 0 1000 1000" fill="none" xmlns="http://www.w3.org/2000/svg">
<g id="F1950&#9;PINI">
<rect width="1000" height="1000" fill="white"/>
<path id="Union" d="M550 200H850C877.614 200 900 177.614 900 150C900 122.386 877.614 100 850 100H150C122.386 100 100 122.386 100 150C100 177.614 122.386 200 150 200H450V800H150C122.386 800 100 822.386 100 850C100 877.614 122.386 900 150 900H850C877.614 900 900 877.614 900 850C900 822.386 877.614 800 850 800H550V200Z" fill="black"/>
</g>
</svg>
