<svg width="1000" height="500" viewBox="0 0 1000 500" fill="none" xmlns="http://www.w3.org/2000/svg">
<g id="F1952&#9;POKA">
<rect width="1000" height="500" fill="white"/>
<g id="Vector">
<path fill-rule="evenodd" clip-rule="evenodd" d="M205 112.5C225.711 112.5 242.5 129.289 242.5 150V312.5H567.5V150C567.5 129.289 584.289 112.5 605 112.5C625.711 112.5 642.5 129.289 642.5 150V350C642.5 370.711 625.711 387.5 605 387.5H205C184.289 387.5 167.5 370.711 167.5 350V150C167.5 129.289 184.289 112.5 205 112.5Z" fill="black"/>
<path d="M795 250C795 277.614 772.614 300 745 300C717.386 300 695 277.614 695 250C695 222.386 717.386 200 745 200C772.614 200 795 222.386 795 250Z" fill="black"/>
</g>
</g>
</svg>
