<svg width="1000" height="500" viewBox="0 0 1000 500" fill="none" xmlns="http://www.w3.org/2000/svg">
<g id="F1950&#9;PINI">
<rect width="1000" height="500" fill="white"/>
<path id="Union" d="M537.5 107.5H680C700.711 107.5 717.5 90.7107 717.5 70C717.5 49.2893 700.711 32.5 680 32.5H320C299.289 32.5 282.5 49.2893 282.5 70C282.5 90.7107 299.289 107.5 320 107.5H462.5V392.5H320C299.289 392.5 282.5 409.289 282.5 430C282.5 450.711 299.289 467.5 320 467.5H680C700.711 467.5 717.5 450.711 717.5 430C717.5 409.289 700.711 392.5 680 392.5H537.5V107.5Z" fill="black"/>
</g>
</svg>
