<svg width="1000" height="1000" viewBox="0 0 1000 1000" fill="none" xmlns="http://www.w3.org/2000/svg">
<g id="F195F&#9;SINPIN">
<rect width="1000" height="1000" fill="white"/>
<g id="Vector">
<path fill-rule="evenodd" clip-rule="evenodd" d="M100 900C100 872.386 122.386 850 150 850H600V150H150C122.386 150 100 127.614 100 100C100 72.3857 122.386 50 150 50H650C677.614 50 700 72.3857 700 100V900C700 927.614 677.614 950 650 950H150C122.386 950 100 927.614 100 900Z" fill="black"/>
<path d="M825 425C866.421 425 900 458.579 900 500C900 541.421 866.421 575 825 575C783.579 575 750 541.421 750 500C750 458.579 783.579 425 825 425Z" fill="black"/>
</g>
</g>
</svg>
