<svg width="1000" height="500" viewBox="0 0 1000 500" fill="none" xmlns="http://www.w3.org/2000/svg">
<g id="F195C&#9;SIKE">
<rect width="1000" height="500" fill="white"/>
<g id="Union">
<path fill-rule="evenodd" clip-rule="evenodd" d="M617.5 250C617.5 314.893 564.893 367.5 500 367.5C435.107 367.5 382.5 314.893 382.5 250C382.5 185.107 435.107 132.5 500 132.5C564.893 132.5 617.5 185.107 617.5 250ZM500 292.5C523.472 292.5 542.5 273.472 542.5 250C542.5 226.528 523.472 207.5 500 207.5C476.528 207.5 457.5 226.528 457.5 250C457.5 273.472 476.528 292.5 500 292.5Z" fill="black"/>
<path fill-rule="evenodd" clip-rule="evenodd" d="M500 32.5C379.878 32.5 282.5 129.878 282.5 250C282.5 370.122 379.878 467.5 500 467.5C620.122 467.5 717.5 370.122 717.5 250C717.5 129.878 620.122 32.5 500 32.5ZM357.5 250C357.5 171.299 421.299 107.5 500 107.5C578.701 107.5 642.5 171.299 642.5 250C642.5 328.701 578.701 392.5 500 392.5C421.299 392.5 357.5 328.701 357.5 250Z" fill="black"/>
</g>
</g>
</svg>
