<svg width="1000" height="1000" viewBox="0 0 1000 1000" fill="none" xmlns="http://www.w3.org/2000/svg">
<g id="F195C&#9;SIKE">
<rect width="1000" height="1000" fill="white"/>
<g id="Vector">
<path fill-rule="evenodd" clip-rule="evenodd" d="M500 850C693.3 850 850 693.3 850 500C850 306.7 693.3 150 500 150C306.7 150 150 306.7 150 500C150 693.3 306.7 850 500 850ZM500 950C748.528 950 950 748.528 950 500C950 251.472 748.528 50 500 50C251.472 50 50 251.472 50 500C50 748.528 251.472 950 500 950Z" fill="black"/>
<path fill-rule="evenodd" clip-rule="evenodd" d="M650 500C650 582.843 582.843 650 500 650C417.157 650 350 582.843 350 500C350 417.157 417.157 350 500 350C582.843 350 650 417.157 650 500ZM500 750C638.071 750 750 638.071 750 500C750 361.929 638.071 250 500 250C361.929 250 250 361.929 250 500C250 638.071 361.929 750 500 750Z" fill="black"/>
</g>
</g>
</svg>
