<svg width="1000" height="1000" viewBox="0 0 1000 1000" fill="none" xmlns="http://www.w3.org/2000/svg">
<g id="F1957&#9;SELI">
<rect width="1000" height="1000" fill="white"/>
<g id="Vector">
<path d="M575 875C575 916.421 541.422 950 500 950C458.579 950 425 916.421 425 875C425 833.579 458.579 800 500 800C541.422 800 575 833.579 575 875Z" fill="black"/>
<path fill-rule="evenodd" clip-rule="evenodd" d="M500 50C527.614 50 550 72.3858 550 100V575C550 602.614 527.614 625 500 625C472.386 625 450 602.614 450 575V100C450 72.3858 472.386 50 500 50Z" fill="black"/>
<path fill-rule="evenodd" clip-rule="evenodd" d="M871.397 124.036C896.435 135.683 907.291 165.422 895.645 190.46L695.336 621.088C683.689 646.126 653.95 656.982 628.912 645.335C603.874 633.689 593.018 603.95 604.665 578.912L804.974 148.284C816.621 123.246 846.359 112.39 871.397 124.036Z" fill="black"/>
<path fill-rule="evenodd" clip-rule="evenodd" d="M128.939 124.024C153.984 112.392 183.716 123.265 195.348 148.31L395.348 578.939C406.98 603.984 396.106 633.716 371.061 645.348C346.017 656.98 316.284 646.106 304.652 621.061L104.652 190.433C93.0206 165.388 103.894 135.656 128.939 124.024Z" fill="black"/>
</g>
</g>
</svg>
