<svg width="1000" height="1000" viewBox="0 0 1000 1000" fill="none" xmlns="http://www.w3.org/2000/svg">
<g id="F195A&#9;SEWI">
<rect width="1000" height="1000" fill="white"/>
<g id="Vector">
<path fill-rule="evenodd" clip-rule="evenodd" d="M900 960C872.386 960 850 937.614 850 910V110C850 82.3858 872.386 60 900 60C927.614 60 950 82.3858 950 110V910C950 937.614 927.614 960 900 960Z" fill="black"/>
<path fill-rule="evenodd" clip-rule="evenodd" d="M170 500.171C169.999 500.268 169.999 500.404 169.998 500.577C169.998 500.632 169.998 500.69 169.998 500.753C169.999 500.493 169.999 500.299 170 500.171Z" fill="black"/>
<path fill-rule="evenodd" clip-rule="evenodd" d="M750 150C750 122.386 727.614 100 700 100C672.386 100 650 122.386 650 150C650 275.508 649.958 460.537 635.229 613.972C627.82 691.151 616.975 756.914 601.926 802.201C594.331 825.059 586.807 839.096 580.776 846.532C580.295 847.125 579.855 847.641 579.456 848.088C579.02 847.641 578.535 847.116 577.998 846.502C572.187 839.849 564.871 827.306 557.375 806.944C542.497 766.533 531.661 708.775 524.214 644.266C512.694 544.476 510.129 436.676 509.843 370.567C510 351.731 510 336.307 510 325.397V325.384V325C510 297.504 487.799 275.168 460.304 275.001C432.809 274.834 410.338 296.898 410.004 324.392C409.869 335.446 409.762 351.082 409.839 370.173C409.276 436.573 406.741 544.417 395.323 644.323C387.948 708.856 377.218 766.616 362.423 807.029C354.968 827.393 347.686 839.919 341.908 846.552C340.571 848.087 339.553 849.057 338.844 849.652C338.148 849.287 336.802 848.443 334.873 846.606C329.838 841.81 323.231 832.559 316.221 816.982C302.184 785.789 291.737 741.185 284.447 692.583C277.278 644.79 273.641 596.563 271.813 560.003C270.902 541.798 270.449 526.654 270.223 516.116C270.11 510.851 270.054 506.745 270.027 503.992C270.013 502.616 270.006 501.579 270.003 500.906C270.001 500.569 270.001 500.323 270 500.171L270 499.99C269.995 472.38 247.611 450 220 450C192.389 450 170.005 472.38 170 499.99V500L170 500.171C169.999 500.299 169.999 500.493 169.998 500.753L169.997 500.906C169.994 501.579 169.987 502.616 169.973 503.992C169.946 506.745 169.89 510.851 169.777 516.116C169.551 526.654 169.098 541.798 168.187 560.003C166.359 596.563 162.722 644.79 155.553 692.583C148.263 741.185 137.816 785.789 123.779 816.982C116.769 832.559 110.162 841.81 105.127 846.606C102.811 848.811 101.336 849.586 100.816 849.817C100.447 849.981 100.32 850 100 850C72.3858 850 50 872.386 50 900C50 927.614 72.3858 950 100 950C162.297 950 196.959 898.046 214.971 858.018C216.706 854.163 218.381 850.218 220 846.194C221.618 850.218 223.294 854.163 225.029 858.018C243.041 898.046 277.703 950 340 950C373.65 950 399.484 932.702 417.311 912.237C434.501 892.502 446.907 867.139 456.327 841.408C457.55 838.07 458.742 834.667 459.905 831.204C461.085 834.696 462.294 838.128 463.533 841.493C473.006 867.225 485.463 892.573 502.683 912.287C520.529 932.719 546.368 950 580 950C614.824 950 640.929 931.117 658.443 909.523C675.381 888.639 687.544 861.66 696.824 833.736C715.524 777.461 727.18 702.599 734.771 623.528C750 464.891 750 275.515 750 151.008V150Z" fill="black"/>
</g>
</g>
</svg>
