<svg width="1000" height="1000" viewBox="0 0 1000 1000" fill="none" xmlns="http://www.w3.org/2000/svg">
<g id="F1952&#9;POKA">
<rect width="1000" height="1000" fill="white"/>
<g id="Vector">
<path d="M950 500C950 541.421 916.421 575 875 575C833.579 575 800 541.421 800 500C800 458.579 833.579 425 875 425C916.421 425 950 458.579 950 500Z" fill="black"/>
<path fill-rule="evenodd" clip-rule="evenodd" d="M100 300C127.614 300 150 322.386 150 350V600H650V350C650 322.386 672.386 300 700 300C727.614 300 750 322.386 750 350V650C750 677.614 727.614 700 700 700H100C72.3858 700 50 677.614 50 650V350C50 322.386 72.3858 300 100 300Z" fill="black"/>
</g>
</g>
</svg>
