<svg width="1000" height="500" viewBox="0 0 1000 500" fill="none" xmlns="http://www.w3.org/2000/svg">
<g id="F1958&#9;SELO">
<rect width="1000" height="500" fill="white"/>
<path id="Union" d="M357.5 430C357.5 450.711 340.711 467.5 320 467.5C299.289 467.5 282.5 450.711 282.5 430V70C282.5 49.2893 299.289 32.5 320 32.5H680C700.711 32.5 717.5 49.2893 717.5 70V430C717.5 450.711 700.711 467.5 680 467.5C659.289 467.5 642.5 450.711 642.5 430V107.5H607.5V404.286C607.5 424.996 590.711 441.786 570 441.786C549.289 441.786 532.5 424.996 532.5 404.286V107.5H467.5V404.286C467.5 424.996 450.711 441.786 430 441.786C409.289 441.786 392.5 424.996 392.5 404.286V107.5H357.5V430Z" fill="black"/>
</g>
</svg>
