<svg width="1000" height="1000" viewBox="0 0 1000 1000" fill="none" xmlns="http://www.w3.org/2000/svg">
<g id="F195E&#9;SINA">
<rect width="1000" height="1000" fill="white"/>
<g id="Group 41">
<path id="Union" fill-rule="evenodd" clip-rule="evenodd" d="M200 650V100C200 72.3858 222.386 50 250 50C277.614 50 300 72.3858 300 100V426.389C353.076 378.885 423.165 350 500 350C665.685 350 800 484.315 800 650C800 815.685 665.685 950 500 950C334.315 950 200 815.685 200 650ZM300 650C300 760.457 389.543 850 500 850C610.457 850 700 760.457 700 650C700 539.543 610.457 450 500 450C389.543 450 300 539.543 300 650Z" fill="black"/>
</g>
</g>
</svg>
