<svg width="1000" height="1000" viewBox="0 0 1000 1000" fill="none" xmlns="http://www.w3.org/2000/svg">
<g id="F195F&#9;SINPIN">
<rect width="1000" height="1000" fill="white"/>
<g id="Vector">
<path fill-rule="evenodd" clip-rule="evenodd" d="M200 900C200 872.386 222.386 850 250 850H500V150H250C222.386 150 200 127.614 200 100C200 72.3857 222.386 50 250 50H550C577.614 50 600 72.3857 600 100V900C600 927.614 577.614 950 550 950H250C222.386 950 200 927.614 200 900Z" fill="black"/>
<path d="M725 425C766.421 425 800 458.579 800 500C800 541.421 766.421 575 725 575C683.579 575 650 541.421 650 500C650 458.579 683.579 425 725 425Z" fill="black"/>
</g>
</g>
</svg>
