<svg width="1000" height="1000" viewBox="0 0 1000 1000" fill="none" xmlns="http://www.w3.org/2000/svg">
<g id="F195A&#9;SEWI">
<rect width="1000" height="1000" fill="white"/>
<g id="sewi alt">
<path fill-rule="evenodd" clip-rule="evenodd" d="M100 825C127.614 825 150 802.614 150 775V525H850V775C850 802.614 872.386 825 900 825C927.614 825 950 802.614 950 775V475C950 447.386 927.614 425 900 425H100C72.3858 425 50 447.386 50 475V775C50 802.614 72.3858 825 100 825Z" fill="black"/>
<path d="M575 300C575 258.579 541.421 225 500 225C458.579 225 425 258.579 425 300C425 341.421 458.579 375 500 375C541.421 375 575 341.421 575 300Z" fill="black"/>
</g>
</g>
</svg>
