<svg width="1000" height="1000" viewBox="0 0 1000 1000" fill="none" xmlns="http://www.w3.org/2000/svg">
<g id="F1961&#9;SONA">
<rect width="1000" height="1000" fill="white"/>
<g id="Vector">
<path fill-rule="evenodd" clip-rule="evenodd" d="M150 300C150 272.386 172.386 250 200 250H800C827.614 250 850 272.386 850 300V900C850 927.614 827.614 950 800 950H200C172.386 950 150 927.614 150 900V300ZM250 350V850H750V350H250Z" fill="black"/>
<path fill-rule="evenodd" clip-rule="evenodd" d="M500 50C527.614 50 550 72.3858 550 100V150C550 177.614 527.614 200 500 200C472.386 200 450 177.614 450 150V100C450 72.3858 472.386 50 500 50Z" fill="black"/>
<path fill-rule="evenodd" clip-rule="evenodd" d="M728.268 67.806C753.781 78.3735 765.896 107.622 755.328 133.134L736.194 179.328C725.626 204.84 696.378 216.955 670.866 206.388C645.354 195.82 633.238 166.572 643.806 141.06L662.94 94.8658C673.508 69.3536 702.756 57.2385 728.268 67.806Z" fill="black"/>
<path fill-rule="evenodd" clip-rule="evenodd" d="M270.866 67.806C296.378 57.2385 325.626 69.3536 336.194 94.8658L355.328 141.06C365.896 166.572 353.781 195.82 328.268 206.388C302.756 216.955 273.508 204.84 262.94 179.328L243.806 133.134C233.239 107.622 245.354 78.3735 270.866 67.806Z" fill="black"/>
</g>
</g>
</svg>
