<svg width="1000" height="1000" viewBox="0 0 1000 1000" fill="none" xmlns="http://www.w3.org/2000/svg">
<g id="F196C&#9;TOKI">
<rect width="1000" height="1000" fill="white"/>
<g id="Vector">
<path fill-rule="evenodd" clip-rule="evenodd" d="M500 400C389.544 400 300 489.543 300 600C300 710.457 389.544 800 500 800C610.457 800 700 710.457 700 600C700 489.543 610.457 400 500 400ZM200 600C200 434.315 334.315 300 500 300C665.686 300 800 434.315 800 600C800 765.685 665.686 900 500 900C334.315 900 200 765.685 200 600Z" fill="black"/>
<path fill-rule="evenodd" clip-rule="evenodd" d="M500 50C527.615 50 550 72.3858 550 100V200C550 227.614 527.615 250 500 250C472.386 250 450 227.614 450 200V100C450 72.3858 472.386 50 500 50Z" fill="black"/>
<path fill-rule="evenodd" clip-rule="evenodd" d="M225.001 123.686C248.915 109.879 279.495 118.073 293.302 141.987L343.302 228.59C357.109 252.504 348.915 283.084 325.001 296.891C301.086 310.698 270.506 302.504 256.699 278.59L206.699 191.987C192.892 168.073 201.086 137.493 225.001 123.686Z" fill="black"/>
<path fill-rule="evenodd" clip-rule="evenodd" d="M775.001 123.686C798.916 137.493 807.109 168.073 793.302 191.987L743.302 278.59C729.495 302.504 698.916 310.698 675.001 296.891C651.086 283.084 642.893 252.504 656.7 228.59L706.7 141.987C720.507 118.073 751.086 109.879 775.001 123.686Z" fill="black"/>
</g>
</g>
</svg>
