<svg width="1000" height="500" viewBox="0 0 1000 500" fill="none" xmlns="http://www.w3.org/2000/svg">
<g id="F1964&#9;SUNO">
<rect width="1000" height="500" fill="white"/>
<path id="Union" fill-rule="evenodd" clip-rule="evenodd" d="M462.5 70V104.726C409.79 118.292 368.292 159.79 354.726 212.5H320C299.289 212.5 282.5 229.289 282.5 250C282.5 270.711 299.289 287.5 320 287.5H354.726C368.292 340.21 409.79 381.708 462.5 395.274V430C462.5 450.711 479.289 467.5 500 467.5C520.711 467.5 537.5 450.711 537.5 430V395.274C590.21 381.708 631.708 340.21 645.274 287.5H680C700.711 287.5 717.5 270.711 717.5 250C717.5 229.289 700.711 212.5 680 212.5H645.274C631.708 159.79 590.21 118.292 537.5 104.726V70C537.5 49.2893 520.711 32.5 500 32.5C479.289 32.5 462.5 49.2893 462.5 70ZM500 175C458.579 175 425 208.579 425 250C425 291.421 458.579 325 500 325C541.421 325 575 291.421 575 250C575 208.579 541.421 175 500 175Z" fill="black"/>
</g>
</svg>
