<svg width="1000" height="1000" viewBox="0 0 1000 1000" fill="none" xmlns="http://www.w3.org/2000/svg">
<g id="F1960&#9;SITELEN">
<rect width="1000" height="1000" fill="white"/>
<g id="Vector">
<path fill-rule="evenodd" clip-rule="evenodd" d="M150 100C150 72.3858 172.386 50 200 50H800C827.614 50 850 72.3858 850 100V900C850 927.614 827.614 950 800 950H200C172.386 950 150 927.614 150 900V100ZM250 150V850H750V150H250Z" fill="black"/>
<path d="M400 500C400 527.614 377.614 550 350 550C322.386 550 300 527.614 300 500C300 472.386 322.386 450 350 450C377.614 450 400 472.386 400 500Z" fill="black"/>
<path d="M550 500C550 527.614 527.614 550 500 550C472.386 550 450 527.614 450 500C450 472.386 472.386 450 500 450C527.614 450 550 472.386 550 500Z" fill="black"/>
<path d="M700 500C700 527.614 677.614 550 650 550C622.386 550 600 527.614 600 500C600 472.386 622.386 450 650 450C677.614 450 700 472.386 700 500Z" fill="black"/>
</g>
</g>
</svg>
