<svg width="1000" height="500" viewBox="0 0 1000 500" fill="none" xmlns="http://www.w3.org/2000/svg">
<g id="F196E&#9;TU">
<rect width="1000" height="500" fill="white"/>
<g id="Group 107">
<g id="Vector">
<path fill-rule="evenodd" clip-rule="evenodd" d="M613 467.5C592.289 467.5 575.5 450.711 575.5 430V70C575.5 49.2893 592.289 32.5 613 32.5C633.711 32.5 650.5 49.2893 650.5 70V430C650.5 450.711 633.711 467.5 613 467.5Z" fill="black"/>
<path fill-rule="evenodd" clip-rule="evenodd" d="M388 467.5C367.289 467.5 350.5 450.711 350.5 430V70C350.5 49.2893 367.289 32.5 388 32.5C408.711 32.5 425.5 49.2893 425.5 70V430C425.5 450.711 408.711 467.5 388 467.5Z" fill="black"/>
</g>
</g>
</g>
</svg>
