<svg width="1000" height="500" viewBox="0 0 1000 500" fill="none" xmlns="http://www.w3.org/2000/svg">
<g id="F196F&#9;UNPA">
<rect width="1000" height="500" fill="white"/>
<path id="Ellipse 6 (Stroke)" fill-rule="evenodd" clip-rule="evenodd" d="M444.346 317.356C462.398 319.49 481.3 320.526 500.001 320.526C518.853 320.526 537.91 319.474 556.094 317.304C555.943 341.223 549.623 355.344 542.32 363.24C535.354 370.77 523.011 377.5 500.11 377.5C477.215 377.5 464.957 370.775 458.054 363.287C450.799 355.416 444.505 341.305 444.346 317.356ZM629.935 299.177C630.686 305.033 631.096 310.805 631.096 316.427C631.096 353.282 621.399 388.199 597.378 414.168C572.931 440.597 538.531 452.5 500.11 452.5C461.685 452.5 427.309 440.591 402.908 414.12C378.954 388.132 369.343 353.22 369.343 316.427C369.343 310.863 369.744 305.152 370.479 299.356C365.69 297.28 361.105 295.006 356.789 292.514C325.29 274.333 299.453 249.009 288.255 215.68C276.736 181.394 282.989 145.502 302.421 111.853C322.175 77.6455 350.949 54.812 386.753 48.2219C421.349 41.854 456.35 51.7956 487.768 69.9303C491.935 72.3354 496.054 75.0551 500.111 78.0319C504.167 75.0552 508.285 72.3355 512.452 69.9303C543.844 51.8104 578.802 41.8463 613.374 48.2248C649.156 54.8265 677.853 77.6911 697.581 111.853C717.013 145.502 723.266 181.394 711.746 215.68C700.548 249.009 674.711 274.333 643.213 292.514C639.02 294.934 634.575 297.149 629.935 299.177ZM533.469 244.201C522.639 245.077 511.37 245.526 500.001 245.526C488.755 245.526 477.607 245.087 466.885 244.23C471.296 235.125 476.214 225.897 481.517 216.786C487.428 206.63 493.708 196.809 500.144 187.636C506.601 196.819 512.901 206.651 518.832 216.818C524.135 225.909 529.054 235.117 533.469 244.201ZM553.184 133.07C564.002 147.438 574.301 163.059 583.615 179.027C592.585 194.403 600.827 210.419 607.829 226.317C627.971 214.237 637.257 201.896 640.652 191.793C643.841 182.3 643.861 168.804 632.633 149.36C621.7 130.429 609.996 123.867 599.766 121.98C588.901 119.975 573.323 122.114 553.184 133.07ZM447.074 133.091C436.272 147.463 425.992 163.088 416.696 179.059C407.718 194.484 399.473 210.552 392.475 226.498C372.124 214.361 362.761 201.946 359.35 191.793C356.16 182.3 356.14 168.804 367.369 149.36C378.275 130.474 390.012 123.882 400.329 121.983C411.281 119.967 426.934 122.13 447.074 133.091Z" fill="black"/>
</g>
</svg>
