<svg width="1000" height="1000" viewBox="0 0 1000 1000" fill="none" xmlns="http://www.w3.org/2000/svg">
<g id="F1969&#9;TAWA">
<rect width="1000" height="1000" fill="white"/>
<path id="Vector 127 (Stroke)" d="M865.518 763.793C811.464 815.273 755.853 841.805 686.248 848.363L447.724 85.0863C441.312 64.5656 422.499 50.4416 401.004 50.0102C379.509 49.5787 360.144 62.9364 352.913 83.1833L102.913 783.183C97.5032 798.331 99.7111 815.157 108.846 828.396L108.918 828.5L108.996 828.612C109.051 828.69 109.11 828.775 109.173 828.865C109.301 829.046 109.447 829.252 109.612 829.481C109.941 829.939 110.345 830.491 110.826 831.132C111.787 832.413 113.055 834.048 114.642 835.984C117.814 839.856 122.27 844.947 128.107 850.832C139.778 862.602 157.016 877.598 180.566 892.363C228.065 922.143 299.717 950 400 950C427.615 950 450 927.614 450 900C450 872.386 427.615 850 400 850C319.283 850 265.935 827.857 233.685 807.637C222.695 800.747 213.971 793.962 207.331 788.134L396.839 257.513L602.276 914.914C608.799 935.788 628.131 950 650 950C762.839 950 852.772 914.027 934.483 836.207C954.48 817.163 955.252 785.514 936.207 765.517C917.163 745.521 885.514 744.749 865.518 763.793Z" fill="black"/>
</g>
</svg>
