<svg width="1000" height="1000" viewBox="0 0 1000 1000" fill="none" xmlns="http://www.w3.org/2000/svg">
<g id="F1962&#9;SOWELI">
<rect width="1000" height="1000" fill="white"/>
<g id="Vector">
<path fill-rule="evenodd" clip-rule="evenodd" d="M450 650C477.614 650 500 672.386 500 700V900C500 927.614 477.614 950 450 950C422.386 950 400 927.614 400 900V700C400 672.386 422.386 650 450 650Z" fill="black"/>
<path fill-rule="evenodd" clip-rule="evenodd" d="M150 650C177.614 650 200 672.386 200 700V900C200 927.614 177.614 950 150 950C122.386 950 100 927.614 100 900V700C100 672.386 122.386 650 150 650Z" fill="black"/>
<path fill-rule="evenodd" clip-rule="evenodd" d="M300 650C327.614 650 350 672.386 350 700V900C350 927.614 327.614 950 300 950C272.386 950 250 927.614 250 900V700C250 672.386 272.386 650 300 650Z" fill="black"/>
<path d="M750 400C750 441.421 716.421 475 675 475C633.579 475 600 441.421 600 400C600 358.579 633.579 325 675 325C716.421 325 750 358.579 750 400Z" fill="black"/>
<path d="M500 400C500 441.421 466.421 475 425 475C383.579 475 350 441.421 350 400C350 358.579 383.579 325 425 325C466.421 325 500 358.579 500 400Z" fill="black"/>
<path d="M100 50C72.3858 50 50 72.3858 50 100C50 127.614 72.3858 150 100 150H600C738.071 150 850 261.929 850 400C850 538.071 738.071 650 600 650C572.386 650 550 672.386 550 700V900C550 927.614 572.386 950 600 950C627.614 950 650 927.614 650 900V746.456C819.615 722.194 950 576.324 950 400C950 206.7 793.3 50 600 50H100Z" fill="black"/>
</g>
</g>
</svg>
