<svg width="1000" height="1000" viewBox="0 0 1000 1000" fill="none" xmlns="http://www.w3.org/2000/svg">
<g id="F1966&#9;SUWI">
<rect width="1000" height="1000" fill="white"/>
<g id="Vector">
<path fill-rule="evenodd" clip-rule="evenodd" d="M64.6447 485.355C84.1709 504.882 115.829 504.882 135.355 485.355L250 370.711L364.645 485.355C384.171 504.882 415.829 504.882 435.355 485.355C454.882 465.829 454.882 434.171 435.355 414.645L285.355 264.645C265.829 245.118 234.171 245.118 214.645 264.645L64.6447 414.645C45.1184 434.171 45.1184 465.829 64.6447 485.355Z" fill="black"/>
<path fill-rule="evenodd" clip-rule="evenodd" d="M564.645 485.355C584.171 504.882 615.829 504.882 635.355 485.355L750 370.711L864.645 485.355C884.171 504.882 915.829 504.882 935.355 485.355C954.882 465.829 954.882 434.171 935.355 414.645L785.355 264.645C765.829 245.118 734.171 245.118 714.645 264.645L564.645 414.645C545.118 434.171 545.118 465.829 564.645 485.355Z" fill="black"/>
<path d="M580 675C580 716.421 546.421 750 505 750C463.579 750 430 716.421 430 675C430 633.579 463.579 600 505 600C546.421 600 580 633.579 580 675Z" fill="black"/>
</g>
</g>
</svg>
