<svg width="1000" height="500" viewBox="0 0 1000 500" fill="none" xmlns="http://www.w3.org/2000/svg">
<rect width="1000" height="500" fill="white"/>
<path d="M643.138 357.845C624.474 375.62 605.789 385.892 583.338 390.157L479.793 58.8148C474.984 43.4242 460.874 32.8312 444.753 32.5076C428.632 32.184 414.108 42.2023 408.685 57.3874L296.185 372.387C292.127 383.749 293.783 396.368 300.635 406.297L300.687 406.373L300.743 406.454C300.782 406.509 300.822 406.567 300.865 406.627C300.95 406.749 301.045 406.881 301.148 407.024C301.354 407.311 301.596 407.641 301.874 408.012C302.43 408.753 303.132 409.657 303.986 410.699C305.693 412.783 308.014 415.429 310.997 418.437C316.962 424.451 325.606 431.949 337.287 439.272C360.949 454.107 395.938 467.5 444 467.5C464.711 467.5 481.5 450.711 481.5 430C481.5 409.289 464.711 392.5 444 392.5C410.613 392.5 389.352 383.393 377.126 375.728C376.425 375.289 375.75 374.851 375.1 374.417L441.629 188.135L520.707 441.185C525.6 456.841 540.098 467.5 556.5 467.5C611.129 467.5 655.303 449.831 694.862 412.155C709.86 397.872 710.439 374.135 696.155 359.138C681.872 344.141 658.136 343.562 643.138 357.845Z" fill="black"/>
</svg>
