<svg width="1000" height="500" viewBox="0 0 1000 500" fill="none" xmlns="http://www.w3.org/2000/svg">
<g id="F1966&#9;SUWI">
<rect width="1000" height="500" fill="white"/>
<g id="Vector">
<path fill-rule="evenodd" clip-rule="evenodd" d="M255.483 233.335C270.128 247.979 293.872 247.979 308.517 233.335L363.818 178.033L419.12 233.335C433.765 247.979 457.508 247.979 472.153 233.335C486.798 218.69 486.798 194.946 472.153 180.302L390.335 98.4835C375.69 83.8388 351.946 83.8388 337.302 98.4835L255.483 180.302C240.839 194.946 240.839 218.69 255.483 233.335Z" fill="black"/>
<path fill-rule="evenodd" clip-rule="evenodd" d="M528.211 233.335C542.855 247.979 566.599 247.979 581.244 233.335L636.545 178.033L691.847 233.335C706.492 247.979 730.236 247.979 744.88 233.335C759.525 218.69 759.525 194.946 744.88 180.302L663.062 98.4835C648.417 83.8388 624.674 83.8388 610.029 98.4835L528.211 180.302C513.566 194.946 513.566 218.69 528.211 233.335Z" fill="black"/>
<path d="M500 420C472.386 420 450 397.614 450 370C450 342.386 472.386 320 500 320C527.614 320 550 342.386 550 370C550 397.614 527.614 420 500 420Z" fill="black"/>
</g>
</g>
</svg>
