<svg width="1000" height="1000" viewBox="0 0 1000 1000" fill="none" xmlns="http://www.w3.org/2000/svg">
<g id="F196C&#9;TOKI">
<rect width="1000" height="1000" fill="white"/>
<g id="Vector">
<path fill-rule="evenodd" clip-rule="evenodd" d="M500 50C527.614 50 550 72.3858 550 100V150C550 177.614 527.614 200 500 200C472.386 200 450 177.614 450 150V100C450 72.3858 472.386 50 500 50Z" fill="black"/>
<path fill-rule="evenodd" clip-rule="evenodd" d="M728.268 67.806C753.78 78.3735 765.895 107.622 755.328 133.134L736.194 179.328C725.626 204.84 696.378 216.955 670.865 206.388C645.353 195.82 633.238 166.572 643.806 141.06L662.94 94.8658C673.507 69.3536 702.756 57.2385 728.268 67.806Z" fill="black"/>
<path fill-rule="evenodd" clip-rule="evenodd" d="M270.866 67.806C296.378 57.2385 325.626 69.3536 336.194 94.8658L355.328 141.06C365.896 166.572 353.781 195.82 328.268 206.388C302.756 216.955 273.508 204.84 262.94 179.328L243.806 133.134C233.239 107.622 245.354 78.3735 270.866 67.806Z" fill="black"/>
<path fill-rule="evenodd" clip-rule="evenodd" d="M500 850C638.071 850 750 738.071 750 600C750 461.929 638.071 350 500 350C361.929 350 250 461.929 250 600C250 738.071 361.929 850 500 850ZM500 950C693.3 950 850 793.3 850 600C850 406.7 693.3 250 500 250C306.7 250 150 406.7 150 600C150 793.3 306.7 950 500 950Z" fill="black"/>
</g>
</g>
</svg>
