<svg width="1000" height="500" viewBox="0 0 1000 500" fill="none" xmlns="http://www.w3.org/2000/svg">
<g id="F196C&#9;TOKI">
<rect width="1000" height="500" fill="white"/>
<g id="Vector">
<path fill-rule="evenodd" clip-rule="evenodd" d="M500 227.5C454.436 227.5 417.5 264.437 417.5 310C417.5 355.563 454.436 392.5 500 392.5C545.563 392.5 582.5 355.563 582.5 310C582.5 264.437 545.563 227.5 500 227.5ZM342.5 310C342.5 223.015 413.015 152.5 500 152.5C586.985 152.5 657.5 223.015 657.5 310C657.5 396.985 586.985 467.5 500 467.5C413.015 467.5 342.5 396.985 342.5 310Z" fill="black"/>
<path fill-rule="evenodd" clip-rule="evenodd" d="M500 32.5C520.71 32.5 537.5 49.2893 537.5 70V110C537.5 130.711 520.71 147.5 500 147.5C479.289 147.5 462.5 130.711 462.5 110V70C462.5 49.2893 479.289 32.5 500 32.5Z" fill="black"/>
<path fill-rule="evenodd" clip-rule="evenodd" d="M362.479 68.9992C380.79 59.3226 403.478 66.3221 413.155 84.6331L433.155 122.479C442.831 140.79 435.832 163.478 417.521 173.155C399.21 182.832 376.521 175.832 366.845 157.521L346.845 119.675C337.168 101.364 344.167 78.6759 362.479 68.9992Z" fill="black"/>
<path fill-rule="evenodd" clip-rule="evenodd" d="M637.521 68.9992C655.832 78.6759 662.831 101.364 653.155 119.675L633.155 157.521C623.478 175.832 600.79 182.832 582.479 173.155C564.167 163.478 557.168 140.79 566.845 122.479L586.845 84.6331C596.521 66.3221 619.21 59.3226 637.521 68.9992Z" fill="black"/>
</g>
</g>
</svg>
