<svg width="1000" height="1000" viewBox="0 0 1000 1000" fill="none" xmlns="http://www.w3.org/2000/svg">
<g id="F1964&#9;SUNO">
<rect width="1000" height="1000" fill="white"/>
<path id="Union" fill-rule="evenodd" clip-rule="evenodd" d="M450 100V204.148C324.375 225.224 225.224 324.375 204.148 450H100C72.3858 450 50 472.386 50 500C50 527.614 72.3858 550 100 550H204.148C225.224 675.625 324.375 774.776 450 795.852V900C450 927.614 472.386 950 500 950C527.614 950 550 927.614 550 900V795.852C675.625 774.776 774.776 675.625 795.852 550H900C927.614 550 950 527.614 950 500C950 472.386 927.614 450 900 450H795.852C774.776 324.375 675.625 225.224 550 204.148V100C550 72.3858 527.614 50 500 50C472.386 50 450 72.3858 450 100ZM500 300C389.543 300 300 389.543 300 500C300 610.457 389.543 700 500 700C610.457 700 700 610.457 700 500C700 389.543 610.457 300 500 300Z" fill="black"/>
</g>
</svg>
