<svg width="1000" height="500" viewBox="0 0 1000 500" fill="none" xmlns="http://www.w3.org/2000/svg">
<rect width="1000" height="500" fill="white"/>
<path d="M601.9 80C601.9 59.2893 585.111 42.5 564.4 42.5C543.689 42.5 526.9 59.2893 526.9 80V193.226C505.078 195.427 484.881 199.152 468.609 202.768C455.811 205.613 445.119 208.462 437.556 210.623C433.768 211.705 430.749 212.619 428.624 213.28C427.562 213.611 426.722 213.879 426.12 214.073C425.819 214.17 425.577 214.249 425.397 214.308L425.292 214.342C425.247 214.357 425.207 214.37 425.173 214.382L425.042 214.425C405.394 220.974 394.776 242.211 401.325 261.859C407.871 281.495 429.507 291.976 449.145 285.451C449.508 285.334 450.1 285.145 450.905 284.895C452.516 284.393 454.975 283.647 458.16 282.737C464.542 280.914 473.772 278.451 484.879 275.982C497.327 273.216 511.744 270.532 526.9 268.685V420C526.9 440.711 543.689 457.5 564.4 457.5C585.111 457.5 601.9 440.711 601.9 420V228.997C601.9 228.915 601.901 228.833 601.901 228.75C601.901 228.668 601.9 228.586 601.9 228.504V80Z" fill="black"/>
</svg>
