<svg width="1000" height="1000" viewBox="0 0 1000 1000" fill="none" xmlns="http://www.w3.org/2000/svg">
<g id="F1962&#9;SOWELI">
<rect width="1000" height="1000" fill="white"/>
<g id="Union">
<path d="M50 100C50 72.3858 72.3896 50 100.004 50H600C793.3 50 950 206.7 950 400C950 576.324 819.615 722.194 650 746.456V900C650 927.614 627.614 950 600 950C572.386 950 550 927.614 550 900V700C550 672.386 572.386 650 600 650C738.071 650 850 538.071 850 400C850 261.929 738.071 150 600 150H100.004C72.3896 150 50 127.614 50 100Z" fill="black"/>
<path d="M450 700C450 672.386 427.614 650 400 650C372.386 650 350 672.386 350 700V900C350 927.614 372.386 950 400 950C427.614 950 450 927.614 450 900V700Z" fill="black"/>
<path d="M200 650C227.614 650 250 672.386 250 700V900C250 927.614 227.614 950 200 950C172.386 950 150 927.614 150 900V700C150 672.386 172.386 650 200 650Z" fill="black"/>
<path d="M750 400C750 441.421 716.421 475 675 475C633.579 475 600 441.421 600 400C600 358.579 633.579 325 675 325C716.421 325 750 358.579 750 400Z" fill="black"/>
<path d="M425 475C466.421 475 500 441.421 500 400C500 358.579 466.421 325 425 325C383.579 325 350 358.579 350 400C350 441.421 383.579 475 425 475Z" fill="black"/>
</g>
</g>
</svg>
