<svg width="1000" height="500" viewBox="0 0 1000 500" fill="none" xmlns="http://www.w3.org/2000/svg">
<g id="F1963&#9;SULI">
<rect width="1000" height="500" fill="white"/>
<path id="Vector 125 (Stroke)" fill-rule="evenodd" clip-rule="evenodd" d="M500.5 467.5C518.375 467.5 533.766 454.883 537.272 437.354C539.162 427.903 551.78 373.501 576.785 305.056C601.884 236.354 638.536 156.106 687.6 93.0228C700.316 76.6748 697.371 53.1144 681.022 40.3993C664.674 27.6842 641.114 30.6292 628.399 46.9772C572.464 118.894 532.615 207.396 506.339 279.319C504.318 284.851 502.372 290.301 500.5 295.654C498.628 290.301 496.681 284.851 494.66 279.319C468.384 207.396 428.536 118.894 372.6 46.9772C359.885 30.6292 336.325 27.6842 319.977 40.3993C303.629 53.1144 300.684 76.6748 313.399 93.0228C362.464 156.106 399.115 236.354 424.214 305.056C449.219 373.501 461.838 427.903 463.728 437.354C467.234 454.883 482.624 467.5 500.5 467.5Z" fill="black"/>
</g>
</svg>
