<svg width="1000" height="1000" viewBox="0 0 1000 1000" fill="none" xmlns="http://www.w3.org/2000/svg">
<g id="F196F&#9;UNPA">
<rect width="1000" height="1000" fill="white"/>
<path id="Ellipse 6 (Stroke)" fill-rule="evenodd" clip-rule="evenodd" d="M382.278 775.675C358.567 749.952 342.985 708.881 342.985 648.949C342.985 638.671 344.229 626.704 346.735 613.274C394.952 620.969 447.702 624.725 500.001 624.725C552.637 624.725 605.731 620.92 654.199 613.124C656.734 626.618 657.992 638.636 657.992 648.949C657.992 708.798 642.331 749.863 618.514 775.611C595.265 800.746 558.033 818 500.245 818C442.463 818 405.393 800.752 382.278 775.675ZM751.464 589.454C755.627 610.119 757.992 630.155 757.992 648.949C757.992 725.337 737.913 793.797 691.924 843.515C645.368 893.847 578.726 918 500.245 918C421.757 918 355.197 893.841 308.75 843.451C262.897 793.708 242.985 725.254 242.985 648.949C242.985 630.252 245.319 610.325 249.433 589.768C230.868 583.288 213.638 575.726 198.415 566.94C132.815 529.074 82.5212 478.345 61.053 414.45C39.1563 349.279 50.2636 279.472 89.7999 211.01C129.766 141.803 186.135 98.28 254.373 85.7202C321 73.4568 390.66 92.2443 456.153 130.048C470.958 138.593 485.723 149.337 500.251 161.687C514.769 149.338 529.529 138.594 544.335 130.048C609.794 92.2642 679.347 73.4465 745.893 85.7241C814.052 98.2994 870.27 141.864 910.202 211.01C949.738 279.472 960.845 349.279 938.948 414.45C917.48 478.345 867.187 529.074 801.586 566.94C786.609 575.585 769.687 583.044 751.464 589.454ZM623.659 516.591C585.037 521.97 542.699 524.725 500.001 524.725C457.605 524.725 415.563 522.009 377.162 516.704C391.517 482.136 409.629 445.957 430.116 410.757C451.843 373.428 475.866 337.842 500.294 306.954C524.774 337.854 548.857 373.456 570.641 410.799C591.144 445.948 609.278 482.071 623.659 516.591ZM569.821 233.877C600.812 271.605 630.672 315.247 657.019 360.412C682.417 403.953 704.976 449.638 722.263 493.691C733.687 489.484 743.511 484.998 751.595 480.332C804.008 450.079 832.937 415.99 844.156 382.6C854.946 350.486 852.203 310.541 823.604 261.019C795.401 212.18 761.839 190.354 727.749 184.064C692.045 177.477 646.88 186.32 594.326 216.655C586.73 221.04 578.519 226.801 569.821 233.877ZM430.723 233.914C399.777 271.647 369.975 315.291 343.689 360.454C318.299 404.078 295.763 449.85 278.511 493.974C266.757 489.685 256.672 485.103 248.406 480.332C195.994 450.079 167.064 415.99 155.846 382.6C145.056 350.486 147.799 310.541 176.397 261.019C204.566 212.241 238.22 190.373 272.475 184.068C308.34 177.467 353.642 186.34 406.162 216.655C413.773 221.049 422.003 226.823 430.723 233.914Z" fill="black"/>
</g>
</svg>
