<svg width="1000" height="1000" viewBox="0 0 1000 1000" fill="none" xmlns="http://www.w3.org/2000/svg">
<g id="F1969&#9;TAWA">
<rect width="1000" height="1000" fill="white"/>
<path id="Vector 126 (Stroke)" d="M327.413 84.6499C334.101 63.9171 353.443 49.9008 375.227 50.0005C397.011 50.1003 416.224 64.2931 422.722 85.0863L661.447 849.015C700.556 847.08 743.887 842.562 781.293 837.886C805.801 834.823 827.26 831.757 842.577 829.459C850.23 828.312 856.333 827.358 860.498 826.695C862.58 826.364 864.177 826.106 865.239 825.932C865.562 825.88 865.835 825.835 866.058 825.798L866.426 825.738L866.768 825.681C894.005 821.144 919.774 839.543 924.313 866.78C928.853 894.019 910.405 919.788 883.167 924.328H883.166L882.695 924.406L882.189 924.489C881.945 924.529 881.659 924.576 881.331 924.629C880.147 924.822 878.424 925.101 876.209 925.453C871.781 926.158 865.384 927.157 857.411 928.353C841.478 930.743 819.188 933.927 793.696 937.114C743.263 943.418 678.233 950 624.996 950C603.127 950 583.795 935.787 577.272 914.914L374.242 265.21L190.719 834.134C199.672 835.347 209.358 836.615 219.553 837.882C269.49 844.087 329.437 850 374.998 850C402.612 850 424.998 872.386 424.998 900C424.998 927.614 402.612 950 374.998 950C322.928 950 257.877 943.413 207.222 937.118C181.6 933.934 159.104 930.753 143.001 928.366C134.943 927.171 128.47 926.173 123.988 925.47C121.746 925.118 120.002 924.84 118.804 924.648C118.505 924.6 118.239 924.557 118.009 924.52L117.425 924.425C103.057 922.068 89.9097 913.479 82.3234 901.052C74.7371 888.624 72.9447 873.507 77.4147 859.65L327.413 84.6499Z" fill="black"/>
</g>
</svg>
