<svg width="1000" height="1000" viewBox="0 0 1000 1000" fill="none" xmlns="http://www.w3.org/2000/svg">
<g id="F196C&#9;TOKI">
<rect width="1000" height="1000" fill="white"/>
<g id="Vector">
<path fill-rule="evenodd" clip-rule="evenodd" d="M499.999 400C389.542 400 299.999 489.543 299.999 600C299.999 710.457 389.542 800 499.999 800C610.456 800 699.999 710.457 699.999 600C699.999 489.543 610.456 400 499.999 400ZM199.999 600C199.999 434.315 334.313 300 499.999 300C665.684 300 799.999 434.315 799.999 600C799.999 765.685 665.684 900 499.999 900C334.313 900 199.999 765.685 199.999 600Z" fill="black"/>
<path fill-rule="evenodd" clip-rule="evenodd" d="M499.999 50C527.613 50 549.999 72.3858 549.999 100V200C549.999 227.614 527.613 250 499.999 250C472.384 250 449.999 227.614 449.999 200V100C449.999 72.3858 472.384 50 499.999 50Z" fill="black"/>
<path fill-rule="evenodd" clip-rule="evenodd" d="M224.999 123.686C248.913 109.879 279.493 118.073 293.3 141.987L343.3 228.59C357.107 252.504 348.913 283.084 324.999 296.891C301.084 310.698 270.504 302.504 256.697 278.59L206.697 191.987C192.89 168.073 201.084 137.493 224.999 123.686Z" fill="black"/>
<path fill-rule="evenodd" clip-rule="evenodd" d="M774.999 123.686C798.913 137.493 807.107 168.073 793.3 191.987L743.3 278.59C729.493 302.504 698.913 310.698 674.999 296.891C651.084 283.084 642.89 252.504 656.697 228.59L706.697 141.987C720.504 118.073 751.084 109.879 774.999 123.686Z" fill="black"/>
</g>
</g>
</svg>
