<svg width="1000" height="500" viewBox="0 0 1000 500" fill="none" xmlns="http://www.w3.org/2000/svg">
<g id="F1965&#9;SUPA">
<rect width="1000" height="500" fill="white"/>
<path id="Union" d="M250 118.5C229.289 118.5 212.5 135.289 212.5 156C212.5 176.711 229.289 193.5 250 193.5H368.75V343.5C368.75 364.211 385.539 381 406.25 381C426.961 381 443.75 364.211 443.75 343.5V193.5H556.25V343.5C556.25 364.211 573.039 381 593.75 381C614.461 381 631.25 364.211 631.25 343.5V193.5H750C770.711 193.5 787.5 176.711 787.5 156C787.5 135.289 770.711 118.5 750 118.5H250Z" fill="black"/>
</g>
</svg>
