<svg width="1000" height="500" viewBox="0 0 1000 500" fill="none" xmlns="http://www.w3.org/2000/svg">
<g id="F1962&#9;SOWELI">
<rect width="1000" height="500" fill="white"/>
<g id="Vector">
<path fill-rule="evenodd" clip-rule="evenodd" d="M455 302.5C475.711 302.5 492.5 319.29 492.5 340V430C492.5 450.711 475.711 467.5 455 467.5C434.289 467.5 417.5 450.711 417.5 430V340C417.5 319.29 434.289 302.5 455 302.5Z" fill="black"/>
<path fill-rule="evenodd" clip-rule="evenodd" d="M365 302.5C385.711 302.5 402.5 319.29 402.5 340V430C402.5 450.711 385.711 467.5 365 467.5C344.289 467.5 327.5 450.711 327.5 430V340C327.5 319.29 344.289 302.5 365 302.5Z" fill="black"/>
<path fill-rule="evenodd" clip-rule="evenodd" d="M365 302.5C385.711 302.5 402.5 319.29 402.5 340V430C402.5 450.711 385.711 467.5 365 467.5C344.289 467.5 327.5 450.711 327.5 430V340C327.5 319.29 344.289 302.5 365 302.5Z" fill="black"/>
<path d="M615 206.25C615 225.58 599.33 241.25 580 241.25C560.67 241.25 545 225.58 545 206.25C545 186.92 560.67 171.25 580 171.25C599.33 171.25 615 186.92 615 206.25Z" fill="black"/>
<path d="M502.5 206.25C502.5 225.58 486.83 241.25 467.5 241.25C448.17 241.25 432.5 225.58 432.5 206.25C432.5 186.92 448.17 171.25 467.5 171.25C486.83 171.25 502.5 186.92 502.5 206.25Z" fill="black"/>
<path d="M320.002 32.5C299.291 32.5 282.5 49.2896 282.5 70.0003C282.5 90.711 299.291 107.5 320.002 107.5H545C598.848 107.5 642.5 151.153 642.5 205C642.5 258.848 598.848 302.5 545 302.5C524.289 302.5 507.5 319.29 507.5 340V430C507.5 450.711 524.289 467.5 545 467.5C565.711 467.5 582.5 450.711 582.5 430V373.413C659.738 356.291 717.5 287.391 717.5 205C717.5 109.731 640.269 32.5003 545 32.5003L320.002 32.5Z" fill="black"/>
</g>
</g>
</svg>
