<svg width="1000" height="1000" viewBox="0 0 1000 1000" fill="none" xmlns="http://www.w3.org/2000/svg">
<g id="F1965&#9;SUPA">
<rect width="1000" height="1000" fill="white"/>
<path id="Union" d="M100 200C72.3858 200 50 222.386 50 250C50 277.614 72.3858 300 100 300H300V750C300 777.614 322.386 800 350 800C377.614 800 400 777.614 400 750V300H600V750C600 777.614 622.386 800 650 800C677.614 800 700 777.614 700 750V300H900C927.614 300 950 277.614 950 250C950 222.386 927.614 200 900 200H100Z" fill="black"/>
</g>
</svg>
