<svg width="1000" height="1000" viewBox="0 0 1000 1000" fill="none" xmlns="http://www.w3.org/2000/svg">
<g id="F196A&#9;TELO">
<rect width="1000" height="1000" fill="white"/>
<g id="Group 28">
<g id="Vector">
<path d="M547.217 682.157C575.901 768.763 664.932 814.104 746.06 783.459C827.187 752.814 869.725 657.775 841.04 571.169C831.841 543.394 845.487 512.906 871.518 503.073C897.55 493.24 926.11 507.785 935.309 535.56C982.385 677.696 912.583 833.723 779.373 884.041C647.136 933.992 502.158 860.983 453.995 720.869C453.605 719.887 453.24 718.886 452.901 717.868C424.098 631.306 334.97 586.002 253.843 616.647C172.715 647.292 130.274 742.295 159.078 828.856C168.315 856.616 154.701 887.092 128.669 896.925C102.637 906.758 74.0463 892.225 64.809 864.465C17.5378 722.403 87.1814 566.435 220.391 516.117C352.569 466.188 497.633 539.051 546.054 678.969C546.47 680.011 546.858 681.074 547.217 682.157Z" fill="black"/>
<path d="M547.217 282.157C575.901 368.763 664.932 414.104 746.06 383.459C827.187 352.814 869.725 257.775 841.04 171.169C831.841 143.394 845.487 112.906 871.518 103.073C897.55 93.24 926.11 107.785 935.309 135.56C982.385 277.696 912.583 433.723 779.373 484.041C647.136 533.992 502.158 460.983 453.995 320.869C453.605 319.887 453.24 318.886 452.901 317.868C424.098 231.306 334.97 186.002 253.843 216.647C172.715 247.292 130.274 342.295 159.078 428.856C168.315 456.616 154.701 487.092 128.669 496.925C102.637 506.758 74.0463 492.225 64.809 464.465C17.5378 322.403 87.1814 166.435 220.391 116.117C352.569 66.1884 497.633 139.051 546.054 278.969C546.47 280.011 546.858 281.074 547.217 282.157Z" fill="black"/>
</g>
</g>
</g>
</svg>
