<svg width="1000" height="500" viewBox="0 0 1000 500" fill="none" xmlns="http://www.w3.org/2000/svg">
<g id="F196B&#9;TENPO">
<rect width="1000" height="500" fill="white"/>
<g id="Group 105">
<g id="Vector">
<path fill-rule="evenodd" clip-rule="evenodd" d="M500 391C577.872 391 641 327.872 641 250C641 172.128 577.872 109 500 109C422.128 109 359 172.128 359 250C359 327.872 422.128 391 500 391ZM500 466C619.294 466 716 369.294 716 250C716 130.706 619.294 34 500 34C380.706 34 284 130.706 284 250C284 369.294 380.706 466 500 466Z" fill="black"/>
<path fill-rule="evenodd" clip-rule="evenodd" d="M500 112.5C520.711 112.5 537.5 129.289 537.5 150V212.5H572C592.711 212.5 609.5 229.289 609.5 250C609.5 270.711 592.711 287.5 572 287.5H500C479.289 287.5 462.5 270.711 462.5 250V150C462.5 129.289 479.289 112.5 500 112.5Z" fill="black"/>
</g>
</g>
</g>
</svg>
