<svg width="1000" height="1000" viewBox="0 0 1000 1000" fill="none" xmlns="http://www.w3.org/2000/svg">
<g id="F196B&#9;TENPO">
<rect width="1000" height="1000" fill="white"/>
<g id="Vector">
<path fill-rule="evenodd" clip-rule="evenodd" d="M500 850C693.3 850 850 693.3 850 500C850 306.7 693.3 150 500 150C306.7 150 150 306.7 150 500C150 693.3 306.7 850 500 850ZM500 950C748.528 950 950 748.528 950 500C950 251.472 748.528 50 500 50C251.472 50 50 251.472 50 500C50 748.528 251.472 950 500 950Z" fill="black"/>
<path fill-rule="evenodd" clip-rule="evenodd" d="M500 200C527.614 200 550 222.386 550 250V450H650C677.614 450 700 472.386 700 500C700 527.614 677.614 550 650 550H500C472.386 550 450 527.614 450 500V250C450 222.386 472.386 200 500 200Z" fill="black"/>
</g>
</g>
</svg>
