<svg width="1000" height="1000" viewBox="0 0 1000 1000" fill="none" xmlns="http://www.w3.org/2000/svg">
<g id="F1969&#9;TAWA">
<rect width="1000" height="1000" fill="white"/>
<path id="Vector 125 (Stroke)" fill-rule="evenodd" clip-rule="evenodd" d="M400 50C377.057 50 357.057 65.6149 351.493 87.8732L151.493 887.873C147.759 902.81 151.114 918.635 160.59 930.771C170.065 942.906 184.603 950 200 950H400C427.614 950 450 927.614 450 900C450 872.386 427.614 850 400 850H264.039L400 306.155L551.493 912.127C557.057 934.385 577.057 950 600 950H800C827.614 950 850 927.614 850 900C850 872.386 827.614 850 800 850H639.039L448.507 87.8732C442.943 65.6149 422.943 50 400 50Z" fill="black"/>
</g>
</svg>
