<svg width="1000" height="1000" viewBox="0 0 1000 1000" fill="none" xmlns="http://www.w3.org/2000/svg">
<g id="F1967&#9;TAN">
<rect width="1000" height="1000" fill="white"/>
<path id="Union" fill-rule="evenodd" clip-rule="evenodd" d="M304.59 574.7C328.223 446.842 440.302 350 575 350C726.878 350 850 473.122 850 625C850 646.915 847.446 668.169 842.643 688.505C836.294 715.38 852.934 742.313 879.809 748.661C906.684 755.009 933.616 738.369 939.964 711.495C946.535 683.679 950 654.712 950 625C950 417.893 782.107 250 575 250C382.519 250 223.908 395.018 202.466 581.756L135.355 514.645C115.829 495.118 84.1709 495.118 64.6447 514.645C45.1184 534.171 45.1184 565.829 64.6447 585.355L214.645 735.355C234.171 754.882 265.829 754.882 285.355 735.355L435.355 585.355C454.882 565.829 454.882 534.171 435.355 514.645C415.829 495.118 384.171 495.118 364.645 514.645L304.59 574.7Z" fill="black"/>
</g>
</svg>
