<svg width="1000" height="1000" viewBox="0 0 1000 1000" fill="none" xmlns="http://www.w3.org/2000/svg">
<g id="F1967&#9;TAN">
<rect width="1000" height="1000" fill="white"/>
<path id="Union" d="M304.59 449.7C328.223 321.842 440.302 225 575 225C726.878 225 850 348.122 850 500C850 651.878 726.878 775 575 775C547.386 775 525 797.386 525 825C525 852.614 547.386 875 575 875C782.107 875 950 707.107 950 500C950 292.893 782.107 125 575 125C382.519 125 223.908 270.018 202.466 456.756L135.355 389.645C115.829 370.118 84.1709 370.118 64.6447 389.645C45.1184 409.171 45.1184 440.829 64.6447 460.355L214.645 610.355C234.171 629.882 265.829 629.882 285.355 610.355L435.355 460.355C454.882 440.829 454.882 409.171 435.355 389.645C415.829 370.118 384.171 370.118 364.645 389.645L304.59 449.7Z" fill="black"/>
</g>
</svg>
