<svg width="1000" height="1000" viewBox="0 0 1000 1000" fill="none" xmlns="http://www.w3.org/2000/svg">
<g id="F1966&#9;SUWI">
<rect width="1000" height="1000" fill="white"/>
<g id="Vector">
<path fill-rule="evenodd" clip-rule="evenodd" d="M64.6447 435.355C84.1709 454.882 115.829 454.882 135.355 435.355L250 320.711L364.645 435.355C384.171 454.882 415.829 454.882 435.355 435.355C454.882 415.829 454.882 384.171 435.355 364.645L285.355 214.645C265.829 195.118 234.171 195.118 214.645 214.645L64.6447 364.645C45.1184 384.171 45.1184 415.829 64.6447 435.355Z" fill="black"/>
<path fill-rule="evenodd" clip-rule="evenodd" d="M564.645 435.355C584.171 454.882 615.829 454.882 635.355 435.355L750 320.711L864.645 435.355C884.171 454.882 915.829 454.882 935.355 435.355C954.882 415.829 954.882 384.171 935.355 364.645L785.355 214.645C765.829 195.118 734.171 195.118 714.645 214.645L564.645 364.645C545.118 384.171 545.118 415.829 564.645 435.355Z" fill="black"/>
<path d="M580 725C580 766.421 546.421 800 505 800C463.579 800 430 766.421 430 725C430 683.579 463.579 650 505 650C546.421 650 580 683.579 580 725Z" fill="black"/>
</g>
</g>
</svg>
