<svg width="1000" height="500" viewBox="0 0 1000 500" fill="none" xmlns="http://www.w3.org/2000/svg">
<g id="F1967&#9;TAN">
<rect width="1000" height="500" fill="white"/>
<path id="Union" d="M423.492 260.799C441.739 214.368 486.968 181.5 539.874 181.5C608.909 181.5 664.874 237.464 664.874 306.5C664.874 316.483 663.711 326.146 661.53 335.379C656.769 355.535 669.249 375.734 689.405 380.496C709.561 385.257 729.76 372.777 734.521 352.621C738.027 337.778 739.874 322.331 739.874 306.5C739.874 196.043 650.331 106.5 539.874 106.5C450.227 106.5 374.355 165.482 348.949 246.757L340.743 235.036C328.864 218.071 305.481 213.948 288.516 225.827C271.55 237.707 267.427 261.09 279.306 278.055L340.143 364.939C352.023 381.904 375.406 386.027 392.371 374.148L479.255 313.311C496.22 301.432 500.343 278.049 488.464 261.084C476.585 244.119 453.202 239.995 436.237 251.875L423.492 260.799Z" fill="black"/>
</g>
</svg>
