<svg width="1000" height="1000" viewBox="0 0 1000 1000" fill="none" xmlns="http://www.w3.org/2000/svg">
<g id="F1963&#9;SULI">
<rect width="1000" height="1000" fill="white"/>
<path id="Vector 125 (Stroke)" fill-rule="evenodd" clip-rule="evenodd" d="M500 950C523.834 950 544.355 933.177 549.029 909.806C553.55 887.203 582.041 764.667 638.214 610.907C694.513 456.805 777.381 274.808 889.468 130.697C906.422 108.9 902.495 77.4858 880.697 60.5323C858.9 43.5788 827.486 47.5056 810.533 69.3029C689.286 225.192 602.154 418.195 544.286 576.592C527.079 623.693 512.35 668.04 500 707.836C487.651 668.04 472.922 623.693 455.714 576.592C397.846 418.195 310.715 225.192 189.468 69.3029C172.514 47.5056 141.101 43.5788 119.303 60.5323C97.506 77.4858 93.5792 108.9 110.533 130.697C222.619 274.808 305.488 456.805 361.786 610.907C417.96 764.667 446.451 887.203 450.971 909.806C455.646 933.177 476.166 950 500 950Z" fill="black"/>
</g>
</svg>
