<svg width="1000" height="500" viewBox="0 0 1000 500" fill="none" xmlns="http://www.w3.org/2000/svg">
<g id="F1960&#9;SITELEN">
<rect width="1000" height="500" fill="white"/>
<g id="Vector">
<path fill-rule="evenodd" clip-rule="evenodd" d="M292.5 70C292.5 49.2893 309.289 32.5 330 32.5H670C690.711 32.5 707.5 49.2893 707.5 70V430C707.5 450.711 690.711 467.5 670 467.5H330C309.289 467.5 292.5 450.711 292.5 430V70ZM367.5 107.5V392.5H632.5V107.5H367.5Z" fill="black"/>
<path d="M450 250.5C450 271.211 433.211 288 412.5 288C391.789 288 375 271.211 375 250.5C375 229.789 391.789 213 412.5 213C433.211 213 450 229.789 450 250.5Z" fill="black"/>
<path d="M537.5 250.5C537.5 271.211 520.711 288 500 288C479.289 288 462.5 271.211 462.5 250.5C462.5 229.789 479.289 213 500 213C520.711 213 537.5 229.789 537.5 250.5Z" fill="black"/>
<path d="M625 250.5C625 271.211 608.211 288 587.5 288C566.789 288 550 271.211 550 250.5C550 229.789 566.789 213 587.5 213C608.211 213 625 229.789 625 250.5Z" fill="black"/>
</g>
</g>
</svg>
