<svg width="1000" height="1000" viewBox="0 0 1000 1000" fill="none" xmlns="http://www.w3.org/2000/svg">
<g id="F196A&#9;TELO">
<rect width="1000" height="1000" fill="white"/>
<g id="Vector">
<path fill-rule="evenodd" clip-rule="evenodd" d="M263.22 209.419C335.949 180.436 422.681 220.865 452.306 315.008C496.423 455.209 638.286 537.479 773.799 483.477C840.185 457.022 877.4 411.92 901.039 359.372C917.645 322.46 928.552 278.714 938.91 237.174C942.048 224.592 945.134 212.214 948.313 200.288C955.427 173.606 939.563 146.209 912.88 139.096C886.198 131.983 858.801 147.846 851.688 174.529C847.341 190.834 843.561 205.943 840.03 220.06C830.299 258.956 822.455 290.309 809.842 318.346C794.656 352.102 774.516 375.544 736.78 390.581C664.051 419.564 577.319 379.135 547.694 284.992C503.577 144.791 361.714 62.5207 226.201 116.523C159.831 142.972 122.613 188.031 98.9667 240.559C82.3506 277.471 71.4405 321.217 61.0781 362.766C57.9455 375.327 54.863 387.687 51.6879 399.597C44.5748 426.28 60.4388 453.676 87.1212 460.789C113.804 467.903 141.2 452.039 148.313 425.356C152.653 409.077 156.428 393.992 159.955 379.898C169.692 340.984 177.537 309.633 190.153 281.608C205.332 247.89 225.468 224.463 263.22 209.419Z" fill="black"/>
<path fill-rule="evenodd" clip-rule="evenodd" d="M263.22 609.419C335.949 580.436 422.681 620.865 452.306 715.008C496.423 855.209 638.286 937.479 773.799 883.477C840.185 857.022 877.4 811.92 901.039 759.372C917.645 722.46 928.552 678.714 938.91 637.174C942.048 624.592 945.134 612.214 948.313 600.288C955.427 573.606 939.563 546.209 912.88 539.096C886.198 531.983 858.801 547.846 851.688 574.529C847.341 590.834 843.561 605.943 840.03 620.06C830.299 658.956 822.455 690.309 809.842 718.346C794.656 752.102 774.516 775.544 736.78 790.581C664.051 819.564 577.319 779.135 547.694 684.992C503.577 544.791 361.714 462.521 226.201 516.523C159.831 542.972 122.613 588.031 98.9667 640.559C82.3506 677.471 71.4405 721.217 61.0781 762.766C57.9455 775.327 54.863 787.687 51.6879 799.597C44.5748 826.28 60.4388 853.676 87.1212 860.789C113.804 867.903 141.2 852.039 148.313 825.356C152.653 809.077 156.428 793.992 159.955 779.898C169.692 740.984 177.537 709.633 190.153 681.608C205.332 647.89 225.468 624.463 263.22 609.419Z" fill="black"/>
</g>
</g>
</svg>
