<svg width="1000" height="500" viewBox="0 0 1000 500" fill="none" xmlns="http://www.w3.org/2000/svg">
<g id="F196A&#9;TELO" clip-path="url(#clip0_404_851)">
<rect width="1000" height="500" fill="white"/>
<path id="Ellipse 8 (Stroke)" fill-rule="evenodd" clip-rule="evenodd" d="M354.326 198.943C395.858 182.392 446.62 205.045 464.229 261.006C492.709 351.51 584.819 405.544 673.438 370.229C716.72 352.981 741.046 323.439 756.349 289.422C766.982 265.786 773.996 237.643 780.49 211.588C782.424 203.829 784.312 196.255 786.235 189.04C791.57 169.028 779.672 148.481 759.66 143.146C739.648 137.811 719.101 149.709 713.766 169.721C710.965 180.228 708.557 189.851 706.328 198.76C700.306 222.824 695.59 241.673 687.952 258.652C678.989 278.575 667.468 291.872 645.674 300.557C604.142 317.108 553.38 294.455 535.771 238.494C507.291 147.99 415.181 93.9558 326.562 129.271C283.292 146.514 258.963 176.028 243.655 210.034C233.015 233.67 226 261.813 219.503 287.874C217.572 295.62 215.687 303.183 213.766 310.388C208.431 330.4 220.329 350.948 240.341 356.283C260.353 361.617 280.9 349.719 286.235 329.708C289.032 319.217 291.436 309.609 293.662 300.715C299.688 276.639 304.405 257.792 312.045 240.82C321.002 220.922 332.52 207.633 354.326 198.943Z" fill="black"/>
<path id="Ellipse 9" d="M100 812.477C130 699.943 140.589 604.464 244.71 562.971C348.831 521.478 463.128 582.828 499.999 700C536.871 817.172 651.168 878.522 755.289 837.029C859.41 795.536 870 699.942 900 587.408" stroke="black" stroke-width="100" stroke-linecap="round"/>
</g>
<defs>
<clipPath id="clip0_404_851">
<rect width="1000" height="500" fill="white"/>
</clipPath>
</defs>
</svg>
