<svg width="1000" height="500" viewBox="0 0 1000 500" fill="none" xmlns="http://www.w3.org/2000/svg">
<g id="F1962&#9;SOWELI">
<rect width="1000" height="500" fill="white"/>
<g id="Vector">
<path fill-rule="evenodd" clip-rule="evenodd" d="M483 302.5C503.711 302.5 520.5 319.289 520.5 340V430C520.5 450.711 503.711 467.5 483 467.5C462.289 467.5 445.5 450.711 445.5 430V340C445.5 319.289 462.289 302.5 483 302.5Z" fill="black"/>
<path fill-rule="evenodd" clip-rule="evenodd" d="M393 302.5C413.711 302.5 430.5 319.289 430.5 340V430C430.5 450.711 413.711 467.5 393 467.5C372.289 467.5 355.5 450.711 355.5 430V340C355.5 319.289 372.289 302.5 393 302.5Z" fill="black"/>
<path fill-rule="evenodd" clip-rule="evenodd" d="M308 302.5C328.711 302.5 345.5 319.289 345.5 340V430C345.5 450.711 328.711 467.5 308 467.5C287.289 467.5 270.5 450.711 270.5 430V340C270.5 319.289 287.289 302.5 308 302.5Z" fill="black"/>
<path d="M643 206.25C643 225.58 627.33 241.25 608 241.25C588.67 241.25 573 225.58 573 206.25C573 186.92 588.67 171.25 608 171.25C627.33 171.25 643 186.92 643 206.25Z" fill="black"/>
<path d="M530.5 206.25C530.5 225.58 514.83 241.25 495.5 241.25C476.17 241.25 460.5 225.58 460.5 206.25C460.5 186.92 476.17 171.25 495.5 171.25C514.83 171.25 530.5 186.92 530.5 206.25Z" fill="black"/>
<path d="M293 32.5C272.289 32.5 255.5 49.2893 255.5 70C255.5 90.7107 272.292 107.5 293.002 107.5H573C626.848 107.5 670.5 151.152 670.5 205C670.5 258.848 626.848 302.5 573 302.5C552.289 302.5 535.5 319.289 535.5 340V430C535.5 450.711 552.289 467.5 573 467.5C593.711 467.5 610.5 450.711 610.5 430V373.412C687.738 356.29 745.5 287.391 745.5 205C745.5 109.731 668.269 32.5 573 32.5H293Z" fill="black"/>
</g>
</g>
</svg>
