<svg width="1000" height="1000" viewBox="0 0 1000 1000" fill="none" xmlns="http://www.w3.org/2000/svg">
<g id="F1968&#9;TASO">
<rect width="1000" height="1000" fill="white"/>
<path id="Union" d="M649.999 50C677.614 50 699.999 72.3858 699.999 100V449.807C700 449.871 700 449.936 700 450C700 450.065 700 450.129 699.999 450.194V900C699.999 927.614 677.614 950 649.999 950C622.385 950 599.999 927.614 599.999 900V501.847C547.091 505.614 496 514.609 454.597 523.809C427.599 529.809 405.136 535.801 389.518 540.264C381.716 542.493 375.644 544.334 371.592 545.595C369.567 546.225 368.048 546.709 367.072 547.024C366.584 547.182 366.232 547.297 366.02 547.366C365.915 547.401 365.844 547.424 365.809 547.435C339.619 556.15 311.296 542 302.566 515.812C293.834 489.615 308.007 461.294 334.204 452.561L334.41 452.493C334.521 452.456 334.667 452.408 334.85 452.348C335.215 452.228 335.724 452.062 336.371 451.853C337.666 451.436 339.516 450.846 341.885 450.109C346.622 448.635 353.441 446.57 362.045 444.112C379.239 439.199 403.651 432.691 432.903 426.191C478.85 415.98 537.788 405.548 599.999 401.624V100C599.999 72.3858 622.385 50 649.999 50Z" fill="black"/>
</g>
</svg>
