<svg width="1000" height="500" viewBox="0 0 1000 500" fill="none" xmlns="http://www.w3.org/2000/svg">
<g id="F197B&#9;KIPISI">
<rect width="1000" height="500" fill="white"/>
<g id="Vector">
<path fill-rule="evenodd" clip-rule="evenodd" d="M676.517 73.4835C691.161 88.1282 691.161 111.872 676.517 126.517L376.517 426.517C361.872 441.161 338.128 441.161 323.483 426.517C308.839 411.872 308.839 388.128 323.483 373.483L623.484 73.4835C638.128 58.8388 661.872 58.8388 676.517 73.4835Z" fill="black"/>
<path d="M440 130C440 163.137 413.137 190 380 190C346.863 190 320 163.137 320 130C320 96.8629 346.863 70 380 70C413.137 70 440 96.8629 440 130Z" fill="black"/>
<path d="M680 370C680 403.137 653.137 430 620 430C586.863 430 560 403.137 560 370C560 336.863 586.863 310 620 310C653.137 310 680 336.863 680 370Z" fill="black"/>
</g>
</g>
</svg>
