<svg width="1000" height="500" viewBox="0 0 1000 500" fill="none" xmlns="http://www.w3.org/2000/svg">
<g id="F1974&#9;WASO">
<rect width="1000" height="500" fill="white"/>
<g id="Vector">
<path fill-rule="evenodd" clip-rule="evenodd" d="M425.5 39.9993C442.069 27.5729 465.574 30.9307 478 47.4993L680.5 317.499C689.022 328.862 690.393 344.065 684.041 356.77C677.689 369.474 664.704 377.499 650.5 377.499H418V429.999C418 450.71 401.211 467.499 380.5 467.499C359.789 467.499 343 450.71 343 429.999V339.999C343 319.289 359.789 302.499 380.5 302.499H575.5L418 92.4993C405.574 75.9307 408.931 52.4257 425.5 39.9993Z" fill="black"/>
<path d="M531.5 262.499C531.5 281.829 515.83 297.499 496.5 297.499C477.17 297.499 461.5 281.829 461.5 262.499C461.5 243.169 477.17 227.499 496.5 227.499C515.83 227.499 531.5 243.169 531.5 262.499Z" fill="black"/>
<path d="M419 262.499C419 281.829 403.33 297.499 384 297.499C364.67 297.499 349 281.829 349 262.499C349 243.169 364.67 227.499 384 227.499C403.33 227.499 419 243.169 419 262.499Z" fill="black"/>
</g>
</g>
</svg>
