<svg width="1000" height="1000" viewBox="0 0 1000 1000" fill="none" xmlns="http://www.w3.org/2000/svg">
<g id="F1972&#9;WALO">
<rect width="1000" height="1000" fill="white"/>
<path id="Union" fill-rule="evenodd" clip-rule="evenodd" d="M500 125C517.864 125 534.37 134.53 543.302 150L713.405 444.628L874.753 351.675C898.68 337.891 929.252 346.113 943.037 370.041C956.822 393.968 948.599 424.54 924.672 438.325L763.405 531.231L933.013 825C941.945 840.47 941.945 859.53 933.013 875C924.082 890.47 907.575 900 889.712 900H110.289C92.4258 900 75.9194 890.47 66.9878 875C58.0562 859.53 58.0562 840.47 66.9878 825L236.524 531.355L75.0411 438.325C51.1136 424.54 42.8912 393.968 56.6759 370.041C70.4606 346.113 101.032 337.891 124.96 351.675L286.524 444.753L456.699 150C465.631 134.53 482.137 125 500 125ZM648.505 532.217C649.328 534.199 650.288 536.151 651.388 538.061C652.504 539.998 653.73 541.833 655.054 543.561L803.109 800H196.892L346.039 541.669C346.844 540.51 347.608 539.306 348.325 538.061C349.027 536.843 349.672 535.608 350.26 534.358L500 275L648.505 532.217Z" fill="black"/>
</g>
</svg>
