<svg width="1000" height="500" viewBox="0 0 1000 500" fill="none" xmlns="http://www.w3.org/2000/svg">
<g id="F197A&#9;OKO">
<rect width="1000" height="500" fill="white"/>
<g id="Union">
<path d="M560 250.5C560 283.637 533.137 310.5 500 310.5C466.863 310.5 440 283.637 440 250.5C440 217.363 466.863 190.5 500 190.5C533.137 190.5 560 217.363 560 250.5Z" fill="black"/>
<path fill-rule="evenodd" clip-rule="evenodd" d="M283.687 177.631C338.273 120.842 415.009 85.5 499.999 85.5C584.989 85.5 661.725 120.842 716.311 177.631C718.145 179.539 719.953 181.471 721.737 183.427C740.025 203.483 755.629 226.031 767.98 250.5C754.425 277.355 736.951 301.895 716.311 323.369C661.725 380.158 584.989 415.5 499.999 415.5C415.009 415.5 338.273 380.158 283.687 323.369C263.047 301.895 245.573 277.355 232.018 250.5C245.573 223.645 263.047 199.105 283.687 177.631ZM319.982 250.5C361.032 305.15 426.387 340.5 499.999 340.5C573.611 340.5 638.966 305.15 680.015 250.5C638.966 195.85 573.611 160.5 499.999 160.5C426.387 160.5 361.032 195.85 319.982 250.5Z" fill="black"/>
</g>
</g>
</svg>
