<svg width="1000" height="1000" viewBox="0 0 1000 1000" fill="none" xmlns="http://www.w3.org/2000/svg">
<g id="F197C&#9;LEKO">
<rect width="1000" height="1000" fill="white"/>
<g id="Vector">
<path fill-rule="evenodd" clip-rule="evenodd" d="M100 150C100 122.386 122.386 100 150 100H850C877.614 100 900 122.386 900 150V850C900 877.614 877.614 900 850 900H150C122.386 900 100 877.614 100 850V150ZM200 200V800H800V200H200Z" fill="black"/>
<path fill-rule="evenodd" clip-rule="evenodd" d="M300 350C300 322.386 322.386 300 350 300H650C677.614 300 700 322.386 700 350V650C700 677.614 677.614 700 650 700H350C322.386 700 300 677.614 300 650V350ZM400 400V600H600V400H400Z" fill="black"/>
</g>
</g>
</svg>
