<svg width="1000" height="1000" viewBox="0 0 1000 1000" fill="none" xmlns="http://www.w3.org/2000/svg">
<g id="F197B&#9;KIPISI">
<rect width="1000" height="1000" fill="white"/>
<g id="Vector">
<path fill-rule="evenodd" clip-rule="evenodd" d="M835.355 164.645C854.882 184.171 854.882 215.829 835.355 235.355L235.355 835.355C215.829 854.882 184.171 854.882 164.645 835.355C145.118 815.829 145.118 784.171 164.645 764.645L764.645 164.645C784.171 145.118 815.829 145.118 835.355 164.645Z" fill="black"/>
<path d="M349 250C349 305.228 304.228 350 249 350C193.772 350 149 305.228 149 250C149 194.772 193.772 150 249 150C304.228 150 349 194.772 349 250Z" fill="black"/>
<path d="M850 750C850 805.228 805.228 850 750 850C694.772 850 650 805.228 650 750C650 694.772 694.772 650 750 650C805.228 650 850 694.772 850 750Z" fill="black"/>
</g>
</g>
</svg>
