<svg width="1000" height="1000" viewBox="0 0 1000 1000" fill="none" xmlns="http://www.w3.org/2000/svg">
<g id="F1977&#9;WILE">
<rect width="1000" height="1000" fill="white"/>
<path id="Vector" d="M150 500C150 580.458 159.912 659.585 185.605 716.753C198.218 744.816 213.638 765.342 231.401 778.771C248.519 791.711 270.304 800 299.999 800C382.842 800 449.999 732.843 449.999 650C449.999 622.386 472.387 600 500.001 600C527.615 600 550.001 622.386 550.001 650C550.001 732.843 617.158 800 700.001 800C729.696 800 751.481 791.711 768.599 778.771C786.362 765.342 801.782 744.816 814.395 716.753C840.088 659.585 850 580.458 850 500C850 429.815 841.012 373.802 820.809 325.075C800.757 276.714 768.38 232.451 717.104 187.654C696.309 169.486 694.179 137.899 712.347 117.104C730.515 96.3079 762.102 94.1781 782.898 112.346C843.61 165.388 886.232 221.772 913.183 286.775C939.982 351.411 950 421.478 950 500C950 585.542 939.912 681.415 905.606 757.747C888.218 796.434 863.639 832.283 828.902 858.542C793.52 885.289 750.306 900 700.001 900C618.221 900 545.611 860.732 500 800.023C454.389 860.732 381.779 900 299.999 900C249.694 900 206.48 885.289 171.098 858.542C136.361 832.283 111.782 796.434 94.394 757.747C60.0879 681.415 50 585.542 50 500C50 421.478 60.0175 351.411 86.8167 286.775C113.768 221.772 156.39 165.388 217.102 112.346C237.898 94.1781 269.485 96.3079 287.653 117.104C305.821 137.899 303.691 169.486 282.896 187.654C231.62 232.451 199.243 276.714 179.191 325.075C158.988 373.802 150 429.815 150 500Z" fill="black"/>
</g>
</svg>
