<svg width="1000" height="500" viewBox="0 0 1000 500" fill="none" xmlns="http://www.w3.org/2000/svg">
<g id="F197F&#9;JASIMA">
<rect width="1000" height="500" fill="white"/>
<g id="Group 116">
<path id="Union" d="M499.999 32.5C520.71 32.5 537.499 49.2893 537.499 70V153.666C549.848 185.291 578.799 195.673 600.995 186.827C613.679 181.773 620.181 174.474 625.747 162.102C630.838 150.785 633.925 138.453 638.146 121.587L638.146 121.585C639.786 115.034 641.597 107.799 643.763 99.6742C649.098 79.6625 669.645 67.7645 689.657 73.0994C709.669 78.4343 721.567 98.9819 716.232 118.994C714.95 123.802 713.66 128.985 712.314 134.393C707.613 153.274 702.231 174.896 694.144 192.872C682.239 219.337 662.931 242.882 628.76 256.499C597.117 269.109 565.129 267.303 537.499 255.137V333.666C549.848 365.291 578.799 375.673 600.995 366.827C613.679 361.773 620.181 354.474 625.747 342.102C630.838 330.785 633.925 318.453 638.146 301.587L638.147 301.585C639.786 295.034 641.597 287.799 643.763 279.674C649.098 259.662 669.645 247.765 689.657 253.099C709.669 258.434 721.567 278.982 716.232 298.994C714.95 303.802 713.66 308.985 712.314 314.393C707.613 333.274 702.231 354.896 694.144 372.872C682.239 399.337 662.931 422.882 628.76 436.499C596.992 449.159 564.875 447.288 537.17 434.991C534.729 453.342 519.017 467.5 499.999 467.5C479.288 467.5 462.499 450.711 462.499 430V346.343C450.152 314.712 421.198 304.327 398.999 313.173C386.303 318.232 379.804 325.529 374.244 337.881C369.153 349.191 366.066 361.521 361.841 378.396C360.203 384.937 358.395 392.162 356.232 400.274C350.897 420.286 330.35 432.184 310.338 426.849C290.326 421.514 278.428 400.967 283.763 380.955C285.043 376.153 286.332 370.977 287.676 365.578C292.378 346.693 297.762 325.071 305.854 307.094C317.765 280.635 337.076 257.114 371.235 243.501C402.879 230.891 434.868 232.697 462.499 244.865V166.343C450.152 134.712 421.198 124.327 398.999 133.173C386.303 138.232 379.804 145.529 374.244 157.881C369.153 169.191 366.066 181.521 361.841 198.396C360.204 204.937 358.395 212.162 356.232 220.274C350.897 240.286 330.35 252.184 310.338 246.849C290.326 241.514 278.428 220.967 283.763 200.955C285.043 196.153 286.332 190.978 287.676 185.58L287.676 185.578C292.378 166.693 297.762 145.071 305.854 127.094C317.765 100.635 337.076 77.1137 371.235 63.5012C403.004 50.8409 435.122 52.7119 462.828 65.0104C465.268 46.6586 480.98 32.5 499.999 32.5Z" fill="black"/>
</g>
</g>
</svg>
