<svg width="1000" height="500" viewBox="0 0 1000 500" fill="none" xmlns="http://www.w3.org/2000/svg">
<g id="F197C&#9;LEKO">
<rect width="1000" height="500" fill="white"/>
<g id="Vector">
<path fill-rule="evenodd" clip-rule="evenodd" d="M282.5 70C282.5 49.2893 299.289 32.5 320 32.5H680C700.711 32.5 717.5 49.2893 717.5 70V430C717.5 450.711 700.711 467.5 680 467.5H320C299.289 467.5 282.5 450.711 282.5 430V70ZM357.5 107.5V392.5H642.5V107.5H357.5Z" fill="black"/>
<path fill-rule="evenodd" clip-rule="evenodd" d="M385.357 172.857C385.357 152.146 402.146 135.357 422.857 135.357H577.143C597.854 135.357 614.643 152.146 614.643 172.857V327.143C614.643 347.854 597.854 364.643 577.143 364.643H422.857C402.146 364.643 385.357 347.854 385.357 327.143V172.857ZM460.357 210.357V289.643H539.643V210.357H460.357Z" fill="black"/>
</g>
</g>
</svg>
