<svg width="1000" height="1000" viewBox="0 0 1000 1000" fill="none" xmlns="http://www.w3.org/2000/svg">
<g id="F1976&#9;WEKA">
<rect width="1000" height="1000" fill="white"/>
<g id="Vector">
<path fill-rule="evenodd" clip-rule="evenodd" d="M64.6447 64.6447C84.1709 45.1184 115.829 45.1184 135.355 64.6447L410.355 339.645C429.882 359.171 429.882 390.829 410.355 410.355C390.829 429.882 359.171 429.882 339.645 410.355L64.6447 135.355C45.1184 115.829 45.1184 84.1709 64.6447 64.6447ZM614.645 614.645C634.171 595.118 665.829 595.118 685.355 614.645L935.355 864.645C954.882 884.171 954.882 915.829 935.355 935.355C915.829 954.882 884.171 954.882 864.645 935.355L614.645 685.355C595.118 665.829 595.118 634.171 614.645 614.645Z" fill="black"/>
<path fill-rule="evenodd" clip-rule="evenodd" d="M64.6447 935.355C84.1709 954.882 115.829 954.882 135.355 935.355L410.355 660.355C429.882 640.829 429.882 609.171 410.355 589.645C390.829 570.118 359.171 570.118 339.645 589.645L64.6447 864.645C45.1184 884.171 45.1184 915.829 64.6447 935.355ZM614.645 385.355C634.171 404.882 665.829 404.882 685.355 385.355L935.355 135.355C954.882 115.829 954.882 84.1709 935.355 64.6447C915.829 45.1185 884.171 45.1185 864.645 64.6447L614.645 314.645C595.118 334.171 595.118 365.829 614.645 385.355Z" fill="black"/>
</g>
</g>
</svg>
