<svg width="1000" height="500" viewBox="0 0 1000 500" fill="none" xmlns="http://www.w3.org/2000/svg">
<g id="F1979&#9;KIN">
<rect width="1000" height="500" fill="white"/>
<g id="Union">
<path d="M537.499 70C537.499 49.2893 520.71 32.5 499.999 32.5C479.288 32.5 462.499 49.2893 462.499 70L462.499 170C462.499 190.711 479.288 207.5 499.999 207.5C520.71 207.5 537.499 190.711 537.499 170V70Z" fill="black"/>
<path d="M537.499 259C537.499 238.289 520.71 221.5 499.999 221.5C479.288 221.5 462.499 238.289 462.499 259V279.602L444.748 269.354C426.812 258.998 403.878 265.143 393.522 283.079C383.167 301.015 389.312 323.95 407.248 334.305L424.997 344.553L407.248 354.8C389.312 365.155 383.167 388.09 393.522 406.026C403.878 423.962 426.812 430.107 444.748 419.752L462.499 409.504V430C462.499 450.711 479.288 467.5 499.999 467.5C520.71 467.5 537.499 450.711 537.499 430V409.506L555.248 419.753C573.184 430.108 596.118 423.963 606.474 406.027C616.829 388.091 610.684 365.156 592.748 354.801L574.997 344.553L592.748 334.305C610.684 323.949 616.829 301.015 606.474 283.079C596.118 265.143 573.184 258.997 555.248 269.353L537.499 279.6V259Z" fill="black"/>
</g>
</g>
</svg>
