<svg width="1000" height="500" viewBox="0 0 1000 500" fill="none" xmlns="http://www.w3.org/2000/svg">
<g id="F1972&#9;WALO">
<rect width="1000" height="500" fill="white"/>
<path id="Union" fill-rule="evenodd" clip-rule="evenodd" d="M500.334 32.5C513.732 32.5 526.112 39.6475 532.81 51.25L618.12 199.012L694.794 154.84C712.739 144.501 735.668 150.668 746.007 168.614C756.345 186.56 750.178 209.488 732.233 219.827L655.621 263.963L740.656 411.25C747.355 422.853 747.355 437.147 740.656 448.75C733.958 460.353 721.578 467.5 708.18 467.5H292.488C279.091 467.5 266.711 460.353 260.012 448.75C253.314 437.147 253.314 422.853 260.012 411.25L345.01 264.031L268.281 219.827C250.335 209.488 244.168 186.56 254.507 168.614C264.845 150.668 287.774 144.501 305.72 154.84L382.51 199.079L467.858 51.25C474.557 39.6475 486.937 32.5 500.334 32.5ZM569.824 265.36C570.371 266.606 570.992 267.834 571.686 269.04C572.393 270.267 573.159 271.439 573.978 272.555L643.229 392.5H357.44L427.397 271.331C427.897 270.59 428.374 269.827 428.827 269.04C429.268 268.275 429.679 267.5 430.061 266.718L500.334 145L569.824 265.36Z" fill="black"/>
</g>
</svg>
