<svg width="1000" height="1000" viewBox="0 0 1000 1000" fill="none" xmlns="http://www.w3.org/2000/svg">
<g id="F197F&#9;JASIMA">
<rect width="1000" height="1000" fill="white"/>
<path id="Union" d="M500 50C527.614 50 550 72.3858 550 100V289.945C581.31 371.451 667.4 413.172 746.06 383.459C827.187 352.814 869.725 257.775 841.04 171.169C831.841 143.394 845.487 112.906 871.518 103.073C897.55 93.24 926.11 107.785 935.309 135.56C982.385 277.696 912.583 433.723 779.373 484.041C699.52 514.205 615.021 499.531 550 452.319V689.945C581.31 771.451 667.4 813.172 746.06 783.459C827.187 752.814 869.725 657.775 841.04 571.169C831.841 543.394 845.487 512.906 871.518 503.073C897.55 493.24 926.11 507.785 935.309 535.56C982.385 677.696 912.583 833.723 779.373 884.041C699.52 914.205 615.021 899.531 550 852.319V900C550 927.614 527.614 950 500 950C472.386 950 450 927.614 450 900V709.806C418.487 628.526 332.413 586.968 253.843 616.647C172.715 647.292 130.274 742.295 159.078 828.856C168.315 856.617 154.701 887.092 128.669 896.925C102.637 906.758 74.0463 892.225 64.809 864.465C17.5378 722.403 87.1815 566.435 220.391 516.117C300.282 485.939 384.879 500.62 450 547.851V309.806C418.487 228.526 332.413 186.968 253.843 216.647C172.715 247.292 130.274 342.295 159.078 428.856C168.315 456.616 154.701 487.092 128.669 496.925C102.637 506.758 74.0463 492.225 64.809 464.465C17.5378 322.403 87.1815 166.435 220.391 116.117C300.282 85.9394 384.879 100.62 450 147.851V100C450 72.3858 472.386 50 500 50Z" fill="black"/>
</g>
</svg>
