<svg width="1000" height="1000" viewBox="0 0 1000 1000" fill="none" xmlns="http://www.w3.org/2000/svg">
<g id="F1971&#9;UTALA">
<rect width="1000" height="1000" fill="white"/>
<path id="Union" d="M802.012 179.984C818.572 157.886 814.082 126.548 791.984 109.988C769.886 93.4284 738.548 97.9178 721.988 120.016L500 416.242L278.012 120.016C261.452 97.9178 230.114 93.4284 208.016 109.988C185.918 126.548 181.428 157.886 197.988 179.984L437.518 499.619L254.688 743.591L197.438 571.7C188.712 545.501 160.399 531.336 134.2 540.062C108.001 548.788 93.8359 577.1 102.562 603.3L189.99 865.8C195.869 883.45 211.06 896.376 229.423 899.355C247.786 902.333 266.284 894.871 277.44 879.984L500 582.995L722.56 879.984C733.716 894.871 752.214 902.333 770.577 899.355C788.94 896.376 804.131 883.45 810.01 865.8L897.438 603.3C906.164 577.1 891.999 548.788 865.8 540.062C839.601 531.336 811.288 545.501 802.562 571.7L745.312 743.591L562.482 499.619L802.012 179.984Z" fill="black"/>
</g>
</svg>
