<svg width="1000" height="1000" viewBox="0 0 1000 1000" fill="none" xmlns="http://www.w3.org/2000/svg">
<g id="F1975&#9;WAWA">
<rect width="1000" height="1000" fill="white"/>
<g id="Vector">
<path fill-rule="evenodd" clip-rule="evenodd" d="M499.999 350C389.542 350 299.999 439.543 299.999 550C299.999 660.457 389.542 750 499.999 750C610.456 750 699.999 660.457 699.999 550C699.999 439.543 610.456 350 499.999 350ZM199.999 550C199.999 384.314 334.314 250 499.999 250C665.685 250 799.999 384.314 799.999 550C799.999 715.685 665.685 850 499.999 850C334.314 850 199.999 715.685 199.999 550Z" fill="black"/>
<path fill-rule="evenodd" clip-rule="evenodd" d="M904.526 100.205C932.027 102.705 952.294 127.026 949.794 154.527L899.794 704.527C897.294 732.027 872.973 752.295 845.472 749.794C817.972 747.294 797.705 722.974 800.205 695.473L850.205 145.473C852.705 117.972 877.025 97.7051 904.526 100.205Z" fill="black"/>
<path fill-rule="evenodd" clip-rule="evenodd" d="M95.4725 100.205C67.9717 102.705 47.7046 127.026 50.2046 154.527L100.205 704.527C102.705 732.027 127.025 752.295 154.526 749.794C182.027 747.294 202.294 722.974 199.794 695.473L149.794 145.473C147.294 117.972 122.973 97.7051 95.4725 100.205Z" fill="black"/>
</g>
</g>
</svg>
