<svg width="1000" height="1000" viewBox="0 0 1000 1000" fill="none" xmlns="http://www.w3.org/2000/svg">
<g id="F197B&#9;KIPISI">
<rect width="1000" height="1000" fill="white"/>
<g id="Vector">
<path fill-rule="evenodd" clip-rule="evenodd" d="M785.355 214.645C804.882 234.171 804.882 265.829 785.355 285.355L285.355 785.355C265.829 804.882 234.171 804.882 214.645 785.355C195.118 765.829 195.118 734.171 214.645 714.645L714.645 214.645C734.171 195.118 765.829 195.118 785.355 214.645Z" fill="black"/>
<path d="M400 300C400 355.228 355.228 400 300 400C244.772 400 200 355.228 200 300C200 244.772 244.772 200 300 200C355.228 200 400 244.772 400 300Z" fill="black"/>
<path d="M800 700C800 755.228 755.228 800 700 800C644.772 800 600 755.228 600 700C600 644.772 644.772 600 700 600C755.228 600 800 644.772 800 700Z" fill="black"/>
</g>
</g>
</svg>
