<svg width="1000" height="500" viewBox="0 0 1000 500" fill="none" xmlns="http://www.w3.org/2000/svg">
<g id="F1971&#9;UTALA">
<rect width="1000" height="500" fill="white"/>
<g id="Group 108">
<path id="Union" d="M664.752 92.4875C677.172 75.9141 673.805 52.4104 657.231 39.9905C640.658 27.5706 617.154 30.9376 604.734 47.5111L500 187.271L395.266 47.5111C382.846 30.9376 359.342 27.5706 342.769 39.9905C326.195 52.4104 322.828 75.9141 335.248 92.4875L453.139 249.804L377.908 350.193L355.579 283.149C349.034 263.5 327.8 252.876 308.151 259.421C288.501 265.965 277.877 287.2 284.422 306.849L329.385 441.849C333.794 455.086 345.187 464.782 358.96 467.016C372.732 469.249 386.606 463.653 394.972 452.488L500 312.336L605.028 452.488C613.394 463.653 627.268 469.249 641.04 467.016C654.813 464.782 666.206 455.086 670.615 441.849L715.578 306.849C722.123 287.2 711.499 265.965 691.849 259.421C672.2 252.876 650.966 263.5 644.421 283.149L622.092 350.193L546.861 249.804L664.752 92.4875Z" fill="black"/>
</g>
</g>
</svg>
