<svg width="1000" height="1000" viewBox="0 0 1000 1000" fill="none" xmlns="http://www.w3.org/2000/svg">
<g id="F1978&#9;NAMAKO">
<rect width="1000" height="1000" fill="white"/>
<g id="Group 46">
<g id="Vector">
<path fill-rule="evenodd" clip-rule="evenodd" d="M600 500C600 472.386 622.386 450 650 450H900C927.614 450 950 472.386 950 500C950 527.614 927.614 550 900 550H650C622.386 550 600 527.614 600 500Z" fill="black"/>
<path fill-rule="evenodd" clip-rule="evenodd" d="M500 50C527.614 50 550 72.3858 550 100V350C550 377.614 527.614 400 500 400C472.386 400 450 377.614 450 350V100C450 72.3858 472.386 50 500 50Z" fill="black"/>
<path fill-rule="evenodd" clip-rule="evenodd" d="M500 600C527.614 600 550 622.386 550 650V900C550 927.614 527.614 950 500 950C472.386 950 450 927.614 450 900V650C450 622.386 472.386 600 500 600Z" fill="black"/>
<path fill-rule="evenodd" clip-rule="evenodd" d="M50 500C50 472.386 72.3858 450 100 450H350C377.614 450 400 472.386 400 500C400 527.614 377.614 550 350 550H100C72.3858 550 50 527.614 50 500Z" fill="black"/>
</g>
</g>
</g>
</svg>
