<svg width="1000" height="1000" viewBox="0 0 1000 1000" fill="none" xmlns="http://www.w3.org/2000/svg">
<g id="F197D&#9;MONSUTA">
<rect width="1000" height="1000" fill="white"/>
<path id="Vector 30 (Stroke)" fill-rule="evenodd" clip-rule="evenodd" d="M500 750C521.95 750 541.333 735.684 547.789 714.704L628.057 453.832L699.416 641.574C706.725 660.805 725.067 673.595 745.639 673.807C766.21 674.019 784.812 661.609 792.516 642.533L838.461 528.763L853.637 566.342C863.978 591.947 893.118 604.322 918.723 593.981C944.328 583.641 956.702 554.501 946.362 528.896L884.823 376.515C877.19 357.613 858.846 345.238 838.461 345.238C818.076 345.238 799.732 357.613 792.099 376.515L747.564 486.792L669.814 282.235C662.227 262.275 642.801 249.335 621.459 250.026C600.116 250.717 581.567 264.886 575.288 285.296L500 529.982L424.712 285.296C418.432 264.886 399.883 250.717 378.541 250.026C357.198 249.335 337.772 262.275 330.185 282.235L252.435 486.792L207.9 376.515C200.267 357.613 181.923 345.238 161.538 345.238C141.153 345.238 122.809 357.613 115.176 376.515L53.6375 528.896C43.297 554.501 55.6713 583.641 81.2764 593.981C106.881 604.322 136.021 591.947 146.362 566.342L161.538 528.763L207.484 642.533C215.187 661.609 233.789 674.019 254.361 673.807C274.932 673.595 293.274 660.805 300.583 641.574L371.942 453.832L452.211 714.704C458.666 735.684 478.049 750 500 750Z" fill="black"/>
</g>
</svg>
