<svg width="1000" height="1000" viewBox="0 0 1000 1000" fill="none" xmlns="http://www.w3.org/2000/svg">
<g id="F1971&#9;UTALA">
<rect width="1000" height="1000" fill="white"/>
<path id="Union" fill-rule="evenodd" clip-rule="evenodd" d="M840 130C856.568 107.909 852.091 76.5686 830 60C807.909 43.4315 776.568 47.9086 760 70L500 416.667L240 70C223.432 47.9086 192.091 43.4315 170 60C147.909 76.5686 143.432 107.909 160 130L437.5 500L217.257 793.657L147.434 584.189C138.702 557.991 110.386 543.833 84.1885 552.566C57.9913 561.298 43.8333 589.614 52.5657 615.811L152.566 915.811C158.447 933.454 173.634 946.375 191.991 949.354C210.348 952.333 228.842 944.878 240 930L500 583.333L760 930C771.158 944.878 789.652 952.333 808.009 949.354C826.366 946.375 841.553 933.454 847.434 915.811L947.434 615.811C956.167 589.614 942.009 561.298 915.812 552.566C889.614 543.833 861.298 557.991 852.566 584.189L782.743 793.657L562.5 500L840 130Z" fill="black"/>
</g>
</svg>
