<svg width="1000" height="1000" viewBox="0 0 1000 1000" fill="none" xmlns="http://www.w3.org/2000/svg">
<g id="F197F&#9;JASIMA">
<rect width="1000" height="1000" fill="white"/>
<path id="Union" d="M499.999 50C527.614 50 549.999 72.3858 549.999 100V291.893C581.608 381.097 665.851 418.846 736.778 390.581C774.514 375.544 794.654 352.102 809.84 318.346C822.453 290.309 830.297 258.956 840.028 220.06C843.559 205.943 847.339 190.834 851.686 174.529C858.799 147.846 886.196 131.983 912.878 139.096C939.561 146.209 955.425 173.606 948.311 200.288C945.132 212.214 942.046 224.592 938.909 237.174C928.551 278.714 917.643 322.46 901.037 359.372C877.398 411.92 840.183 457.022 773.797 483.477C694.399 515.117 612.82 499.977 549.999 453.812V691.893C581.608 781.097 665.851 818.846 736.778 790.581C774.514 775.544 794.654 752.102 809.84 718.346C822.453 690.309 830.297 658.956 840.028 620.06C843.559 605.943 847.339 590.834 851.686 574.529C858.799 547.846 886.196 531.983 912.878 539.096C939.561 546.209 955.425 573.606 948.311 600.288C945.132 612.214 942.046 624.592 938.909 637.174C928.551 678.714 917.643 722.46 901.037 759.372C877.398 811.92 840.183 857.022 773.797 883.477C694.399 915.117 612.82 899.977 549.999 853.812V900C549.999 927.614 527.614 950 499.999 950C472.385 950 449.999 927.614 449.999 900V708.115C418.393 618.905 334.147 581.153 263.218 609.419C225.466 624.463 205.33 647.89 190.151 681.608C177.535 709.633 169.69 740.984 159.953 779.898L159.952 779.901C156.426 793.994 152.651 809.078 148.311 825.356C141.198 852.039 113.802 867.903 87.1192 860.789C60.4369 853.676 44.5729 826.28 51.686 799.597C54.8601 787.691 57.9417 775.334 61.0734 762.777L61.0762 762.766C71.4385 721.217 82.3486 677.471 98.9648 640.559C122.611 588.031 159.83 542.972 226.199 516.523C305.599 484.882 387.178 500.024 449.999 546.19V308.115C418.393 218.905 334.147 181.153 263.218 209.419C225.466 224.463 205.33 247.89 190.151 281.608C177.535 309.633 169.69 340.984 159.953 379.898L159.952 379.901C156.426 393.994 152.651 409.079 148.311 425.356C141.198 452.039 113.802 467.903 87.1192 460.789C60.4369 453.676 44.5729 426.28 51.686 399.597C54.86 387.691 57.9416 375.335 61.0732 362.778L61.0762 362.766C71.4385 321.217 82.3486 277.471 98.9648 240.559C122.611 188.031 159.83 142.972 226.199 116.523C305.599 84.882 387.178 100.024 449.999 146.19V100C449.999 72.3858 472.385 50 499.999 50Z" fill="black"/>
</g>
</svg>
