<svg width="1000" height="1000" viewBox="0 0 1000 1000" fill="none" xmlns="http://www.w3.org/2000/svg">
<g id="F197C&#9;LEKO">
<rect width="1000" height="1000" fill="white"/>
<g id="Vector">
<path fill-rule="evenodd" clip-rule="evenodd" d="M50 100C50 72.3858 72.3858 50 100 50H900C927.614 50 950 72.3858 950 100V900C950 927.614 927.614 950 900 950H100C72.3858 950 50 927.614 50 900V100ZM150 150V850H850V150H150Z" fill="black"/>
<path fill-rule="evenodd" clip-rule="evenodd" d="M250 300C250 272.386 272.386 250 300 250H700C727.614 250 750 272.386 750 300V700C750 727.614 727.614 750 700 750H300C272.386 750 250 727.614 250 700V300ZM350 350V650H650V350H350Z" fill="black"/>
</g>
</g>
</svg>
