<svg width="1000" height="1000" viewBox="0 0 1000 1000" fill="none" xmlns="http://www.w3.org/2000/svg">
<g id="F1974&#9;WASO">
<rect width="1000" height="1000" fill="white"/>
<g id="Vector">
<path fill-rule="evenodd" clip-rule="evenodd" d="M370 60C392.091 43.4315 423.431 47.9086 440 70L890 670C901.363 685.151 903.191 705.422 894.721 722.361C886.252 739.3 868.939 750 850 750H300V900C300 927.614 277.614 950 250 950C222.386 950 200 927.614 200 900V700C200 672.386 222.386 650 250 650H750L360 130C343.431 107.909 347.909 76.5686 370 60Z" fill="black"/>
<path d="M580 525C580 566.421 546.421 600 505 600C463.579 600 430 566.421 430 525C430 483.579 463.579 450 505 450C546.421 450 580 483.579 580 525Z" fill="black"/>
<path d="M330 525C330 566.421 296.421 600 255 600C213.579 600 180 566.421 180 525C180 483.579 213.579 450 255 450C296.421 450 330 483.579 330 525Z" fill="black"/>
</g>
</g>
</svg>
