<svg width="1000" height="500" viewBox="0 0 1000 500" fill="none" xmlns="http://www.w3.org/2000/svg">
<g id="F197D&#9;MONSUTA">
<rect width="1000" height="500" fill="white"/>
<path id="Vector 30 (Stroke)" fill-rule="evenodd" clip-rule="evenodd" d="M500 437.5C516.463 437.5 531 426.763 535.842 411.028L596.043 215.374L649.562 356.181C655.044 370.603 668.801 380.196 684.229 380.355C699.658 380.514 713.609 371.206 719.387 356.9L753.846 271.572L765.229 299.757C772.984 318.96 794.839 328.241 814.043 320.486C833.246 312.73 842.527 290.876 834.772 271.672L788.618 157.386C782.893 143.21 769.135 133.929 753.846 133.929C738.558 133.929 724.8 143.21 719.075 157.386L685.674 240.094L627.361 86.6766C621.671 71.706 607.102 62.0014 591.094 62.5197C575.087 63.0379 561.176 73.6646 556.466 88.9718L500 272.486L443.534 88.9718C438.824 73.6646 424.913 63.0379 408.906 62.5197C392.899 62.0014 378.329 71.706 372.639 86.6766L314.327 240.094L280.926 157.386C275.201 143.21 261.443 133.929 246.154 133.929C230.865 133.929 217.107 143.21 211.382 157.386L165.229 271.672C157.473 290.876 166.754 312.73 185.958 320.486C205.162 328.241 227.016 318.96 234.772 299.757L246.154 271.572L280.613 356.9C286.391 371.206 300.342 380.514 315.771 380.355C331.2 380.196 344.956 370.603 350.438 356.181L403.957 215.374L464.158 411.028C469 426.763 483.538 437.5 500 437.5Z" fill="black"/>
</g>
</svg>
