<svg width="1000" height="500" viewBox="0 0 1000 500" fill="none" xmlns="http://www.w3.org/2000/svg">
<g id="F1977&#9;WILE">
<rect width="1000" height="500" fill="white"/>
<path id="Union" d="M331.5 250.001C331.5 290.78 336.577 329.5 348.776 356.642C354.699 369.822 361.55 378.573 368.685 383.967C375.336 388.994 384.014 392.501 396.857 392.501C432.952 392.501 462.214 363.239 462.214 327.143C462.214 306.433 479.003 289.643 499.714 289.643C520.425 289.643 537.214 306.433 537.214 327.143C537.214 363.239 566.475 392.501 602.571 392.501C615.414 392.501 624.092 388.994 630.743 383.967C637.878 378.573 644.729 369.822 650.652 356.642C662.851 329.5 667.928 290.78 667.928 250.001C667.928 214.888 663.427 187.738 653.814 164.553C644.315 141.643 628.871 120.308 603.613 98.2409C588.016 84.6147 586.419 60.9248 600.045 45.3281C613.671 29.7313 637.361 28.1339 652.958 41.7602C685.294 70.0107 708.421 100.437 723.095 135.828C737.655 170.944 742.928 208.635 742.928 250.001C742.928 294.593 737.719 345.873 719.061 387.387C709.556 408.536 695.835 428.778 675.971 443.795C655.621 459.178 630.871 467.501 602.571 467.501C561.942 467.501 525.344 450.237 499.714 422.646C474.083 450.237 437.486 467.501 396.857 467.501C368.556 467.501 343.806 459.178 323.457 443.795C303.593 428.778 289.872 408.536 280.367 387.387C261.709 345.873 256.5 294.593 256.5 250.001C256.5 208.635 261.773 170.944 276.333 135.828C291.007 100.437 314.134 70.0107 346.47 41.7602C362.067 28.1339 385.757 29.7313 399.383 45.3281C413.009 60.9248 411.412 84.6147 395.815 98.2409C370.557 120.308 355.113 141.643 345.614 164.553C336.001 187.738 331.5 214.888 331.5 250.001Z" fill="black"/>
</g>
</svg>
