<svg width="1000" height="500" viewBox="0 0 1000 500" fill="none" xmlns="http://www.w3.org/2000/svg">
<g id="F1970&#9;UTA">
<rect width="1000" height="500" fill="white"/>
<g id="Vector">
<path fill-rule="evenodd" clip-rule="evenodd" d="M262.5 100C262.5 79.2893 279.289 62.5 300 62.5H700C720.711 62.5 737.5 79.2893 737.5 100C737.5 231.168 631.168 337.5 500 337.5C368.832 337.5 262.5 231.168 262.5 100ZM341.848 137.5C358.777 209.167 423.16 262.5 500 262.5C576.84 262.5 641.223 209.167 658.152 137.5H341.848Z" fill="black"/>
<path d="M550 410C550 437.614 527.614 460 500 460C472.386 460 450 437.614 450 410C450 382.386 472.386 360 500 360C527.614 360 550 382.386 550 410Z" fill="black"/>
</g>
</g>
</svg>
