<svg width="1000" height="500" viewBox="0 0 1000 500" fill="none" xmlns="http://www.w3.org/2000/svg">
<g id="F197E&#9;TONSI">
<rect width="1000" height="500" fill="white"/>
<path id="Union" fill-rule="evenodd" clip-rule="evenodd" d="M619.732 84.1497C589.836 52.3546 547.387 32.499 500.3 32.499C453.214 32.499 410.765 52.3544 380.869 84.1494L316.75 47.1305C298.814 36.7751 275.88 42.9205 265.524 60.8564C255.169 78.7924 261.314 101.727 279.25 112.082L343.331 149.08C338.82 164.063 336.396 179.95 336.396 196.404C336.396 274.023 390.35 339.041 462.801 355.998V429.999C462.801 450.71 479.59 467.499 500.301 467.499C521.011 467.499 537.801 450.71 537.801 429.999V355.998C610.251 339.041 664.205 274.023 664.205 196.404C664.205 179.95 661.781 164.063 657.27 149.08L721.351 112.083C739.287 101.727 745.432 78.7927 735.077 60.8567C724.721 42.9207 701.787 36.7754 683.851 47.1307L619.732 84.1497ZM500.3 285.308C549.401 285.308 589.205 245.504 589.205 196.404C589.205 180.532 585.046 165.632 577.758 152.733C577.601 152.475 577.447 152.215 577.295 151.952C577.151 151.704 577.011 151.454 576.874 151.204C561.398 125.043 532.898 107.499 500.3 107.499C467.705 107.499 439.207 125.04 423.731 151.198C423.592 151.45 423.451 151.702 423.307 151.952C423.154 152.217 422.998 152.479 422.84 152.739C415.554 165.636 411.396 180.534 411.396 196.404C411.396 245.504 451.2 285.308 500.3 285.308Z" fill="black"/>
</g>
</svg>
