<svg width="1000" height="500" viewBox="0 0 1000 500" fill="none" xmlns="http://www.w3.org/2000/svg">
<g id="F1975&#9;WAWA">
<rect width="1000" height="500" fill="white"/>
<g id="Vector">
<path fill-rule="evenodd" clip-rule="evenodd" d="M499.537 190.576C443.778 190.576 398.576 235.778 398.576 291.538C398.576 347.297 443.778 392.499 499.537 392.499C555.297 392.499 600.499 347.297 600.499 291.538C600.499 235.778 555.297 190.576 499.537 190.576ZM323.576 291.538C323.576 194.357 402.356 115.576 499.537 115.576C596.718 115.576 675.499 194.357 675.499 291.538C675.499 388.719 596.718 467.499 499.537 467.499C402.356 467.499 323.576 388.719 323.576 291.538Z" fill="black"/>
<path fill-rule="evenodd" clip-rule="evenodd" d="M749.466 32.6535C770.092 34.5285 785.292 52.7689 783.417 73.3946L755.725 378.01C753.85 398.636 735.609 413.836 714.984 411.961C694.358 410.086 679.158 391.845 681.033 371.22L708.725 66.6044C710.6 45.9788 728.841 30.7784 749.466 32.6535Z" fill="black"/>
<path fill-rule="evenodd" clip-rule="evenodd" d="M249.601 32.6535C228.976 34.5285 213.775 52.7689 215.651 73.3946L243.343 378.01C245.218 398.636 263.458 413.836 284.084 411.961C304.71 410.086 319.91 391.845 318.035 371.22L290.343 66.6044C288.467 45.9788 270.227 30.7784 249.601 32.6535Z" fill="black"/>
</g>
</g>
</svg>
