<svg width="1000" height="1000" viewBox="0 0 1000 1000" fill="none" xmlns="http://www.w3.org/2000/svg">
<g id="F1970&#9;UTA">
<rect width="1000" height="1000" fill="white"/>
<g id="Vector">
<path fill-rule="evenodd" clip-rule="evenodd" d="M50 200C50 172.386 72.3858 150 100 150H900C927.614 150 950 172.386 950 200C950 448.528 748.528 650 500 650C251.472 650 50 448.528 50 200ZM153.544 250C177.806 419.615 323.676 550 500 550C676.324 550 822.194 419.615 846.456 250H153.544Z" fill="black"/>
<path d="M575 775C575 816.421 541.421 850 500 850C458.579 850 425 816.421 425 775C425 733.579 458.579 700 500 700C541.421 700 575 733.579 575 775Z" fill="black"/>
</g>
</g>
</svg>
