<svg width="1000" height="500" viewBox="0 0 1000 500" fill="none" xmlns="http://www.w3.org/2000/svg">
<g id="F1976&#9;WEKA">
<rect width="1000" height="500" fill="white"/>
<g id="Vector">
<path fill-rule="evenodd" clip-rule="evenodd" d="M293.483 43.4835C308.128 28.8388 331.872 28.8388 346.517 43.4835L470.266 167.233C484.911 181.878 484.911 205.622 470.266 220.266C455.622 234.911 431.878 234.911 417.233 220.266L293.483 96.5165C278.839 81.8718 278.839 58.1282 293.483 43.4835ZM540.983 290.983C555.628 276.339 579.372 276.339 594.017 290.983L706.517 403.483C721.161 418.128 721.161 441.872 706.517 456.517C691.872 471.161 668.128 471.161 653.483 456.517L540.983 344.017C526.339 329.372 526.339 305.628 540.983 290.983Z" fill="black"/>
<path fill-rule="evenodd" clip-rule="evenodd" d="M293.483 456.517C308.128 471.161 331.872 471.161 346.517 456.517L470.266 332.767C484.911 318.122 484.911 294.378 470.266 279.734C455.622 265.089 431.878 265.089 417.233 279.734L293.483 403.483C278.839 418.128 278.839 441.872 293.483 456.517ZM540.983 209.017C555.628 223.661 579.372 223.661 594.017 209.017L706.517 96.5165C721.161 81.8719 721.161 58.1282 706.517 43.4835C691.872 28.8388 668.128 28.8388 653.483 43.4835L540.983 155.983C526.339 170.628 526.339 194.372 540.983 209.017Z" fill="black"/>
</g>
</g>
</svg>
