<svg width="1000" height="1000" viewBox="0 0 1000 1000" fill="none" xmlns="http://www.w3.org/2000/svg">
<g id="F197E&#9;TONSI">
<rect width="1000" height="1000" fill="white"/>
<g id="Group 47">
<path id="Union" fill-rule="evenodd" clip-rule="evenodd" d="M731.283 198.793C676.256 132.337 593.123 90 500.102 90C407.081 90 323.948 132.337 268.921 198.793L124.999 115.699C101.084 101.892 70.5044 110.085 56.6973 134C42.8902 157.915 51.084 188.494 74.9986 202.301L218.857 285.358C206.73 317.938 200.102 353.195 200.102 390C200.102 538.65 308.217 662.048 450.102 685.852V852C450.102 879.614 472.488 902 500.102 902C527.717 902 550.102 879.614 550.102 852V685.852C691.988 662.048 800.102 538.65 800.102 390C800.102 353.195 793.475 317.938 781.348 285.358L925.206 202.301C949.121 188.494 957.314 157.915 943.507 134C929.7 110.085 899.121 101.892 875.206 115.699L731.283 198.793ZM500.102 590C610.559 590 700.102 500.457 700.102 390C700.102 354.166 690.678 320.532 674.173 291.444C673.878 290.969 673.589 290.488 673.307 290C673.038 289.534 672.778 289.066 672.526 288.595C637.749 229.591 573.549 190 500.102 190C426.656 190 362.456 229.59 327.679 288.595C327.427 289.066 327.166 289.534 326.897 290C326.616 290.488 326.327 290.969 326.031 291.444C309.526 320.533 300.102 354.166 300.102 390C300.102 500.457 389.645 590 500.102 590Z" fill="black"/>
</g>
</g>
</svg>
