<svg width="1000" height="1000" viewBox="0 0 1000 1000" fill="none" xmlns="http://www.w3.org/2000/svg">
<g id="F1979&#9;KIN">
<rect width="1000" height="1000" fill="white"/>
<g id="Union">
<path d="M550 100C550 72.3858 527.614 50 500 50C472.386 50 450 72.3858 450 100V450C450 477.614 472.386 500 500 500C527.614 500 550 477.614 550 450V100Z" fill="black"/>
<path d="M550 600C550 572.386 527.614 550 500 550C472.386 550 450 572.386 450 600V663.398L395.096 631.699C371.182 617.892 340.602 626.086 326.795 650C312.988 673.915 321.182 704.495 345.096 718.302L399.999 750L345.094 781.699C321.18 795.506 312.986 826.085 326.793 850C340.6 873.915 371.18 882.108 395.094 868.301L450 836.601V900C450 927.614 472.386 950 500 950C527.614 950 550 927.614 550 900V836.603L604.904 868.302C628.819 882.109 659.398 873.915 673.205 850C687.012 826.086 678.819 795.506 654.904 781.699L599.999 750L654.902 718.301C678.817 704.494 687.01 673.915 673.203 650C659.396 626.085 628.817 617.892 604.902 631.699L550 663.396V600Z" fill="black"/>
</g>
</g>
</svg>
