<svg width="1000" height="1000" viewBox="0 0 1000 1000" fill="none" xmlns="http://www.w3.org/2000/svg">
<g id="F1980&#9;KIJETE...">
<rect width="1000" height="1000" fill="white"/>
<g id="Union">
<path fill-rule="evenodd" clip-rule="evenodd" d="M470.784 269.126C424.072 346.36 400 456.326 400 580V850H460.897C460.464 845.064 459.759 839.363 458.726 832.939C456.084 816.511 452.022 799.564 448.489 786.382C446.746 779.878 445.182 774.479 444.07 770.754C443.515 768.895 443.075 767.463 442.784 766.529L442.692 766.231C442.646 766.085 442.605 765.955 442.57 765.842C442.528 765.71 442.494 765.601 442.467 765.515C442.434 765.412 442.408 765.33 442.397 765.295C433.951 739.011 448.407 710.855 474.691 702.401C500.979 693.946 529.144 708.403 537.599 734.691L537.625 734.773L537.669 734.91C537.704 735.019 537.75 735.165 537.807 735.345C537.867 735.535 537.939 735.764 538.023 736.031L538.064 736.162C538.098 736.27 538.133 736.383 538.17 736.502L538.276 736.84C538.669 738.104 539.218 739.894 539.888 742.137C541.225 746.615 543.054 752.935 545.08 760.493C549.085 775.436 554.069 795.989 557.458 817.061C560.649 836.907 563.305 862.206 559.719 884.501C557.933 895.608 553.83 911.191 542.817 924.886C530 940.827 511.13 950 490 950H224.531C164.173 950 116.959 929.219 86.5358 889.896C57.9288 852.921 50 806.913 50 767C50 706.05 67.7117 649.624 97.0216 607.186C125.681 565.689 170.297 531.6 224.571 531.6C248.185 531.6 271.094 531.208 292.378 530.809C294.006 530.778 295.628 530.748 297.242 530.717L301.187 530.642C306.858 414.142 333.101 303.544 385.216 217.375C446.072 116.753 542.46 50.0006 674.857 50C698.023 49.9999 715.488 62.3668 725.501 77.0919C733.732 89.1961 736.759 102.295 738.189 110.512C740.959 126.439 740.948 145.792 740.94 160.096L740.939 160.966C740.939 161.433 740.939 161.895 740.939 162.35C740.939 178.421 741.034 190.541 742.164 199.694C799.864 230.56 847.83 256.502 881.375 281.168C916.825 307.234 950 341.74 950 392.4C950 439.833 919.139 478.925 889.881 507.172C864.598 531.581 832.863 555.062 800 577.034V900C800 927.614 777.614 950 750 950C722.386 950 700 927.614 700 900V522.676L722.996 507.919C762.623 482.489 796.678 458.154 820.425 435.228C846.065 410.475 850 396.567 850 392.4C850 392.375 850.001 392.345 850.002 392.309V392.308C850.033 390.995 850.237 382.396 822.135 361.732C793.57 340.728 749.233 316.875 683.442 281.691C666.677 272.726 657.355 258.687 652.263 247.568C647.238 236.594 644.826 225.292 643.478 216.099C640.929 198.72 640.935 178.941 640.938 164.068V164.044C640.939 163.472 640.939 162.907 640.939 162.35C640.939 158.627 640.931 155.219 640.91 152.099C565.725 161.693 510.338 203.726 470.784 269.126ZM320 850V630.316C313.854 630.42 307.396 630.543 300.636 630.671L300.608 630.671L300.583 630.672L300.443 630.674C298.407 630.713 296.345 630.752 294.255 630.791C289.612 630.878 284.855 630.966 280 631.05V850H320ZM179.305 664.014C186.35 653.813 193.416 646.578 200 641.572V847.853C180.939 844.098 171.302 836.038 165.627 828.704C156.092 816.379 150 795.887 150 767C150 724.75 162.411 688.476 179.305 664.014Z" fill="black"/>
<path d="M670 768C670 745.909 652.091 728 630 728C607.909 728 590 745.909 590 768V910C590 932.091 607.909 950 630 950C652.091 950 670 932.091 670 910V768Z" fill="black"/>
<path d="M756.25 400C756.25 427.614 733.864 450 706.25 450C678.636 450 656.25 427.614 656.25 400C656.25 372.386 678.636 350 706.25 350C733.864 350 756.25 372.386 756.25 400Z" fill="black"/>
<path d="M550 450C577.614 450 600 427.614 600 400C600 372.386 577.614 350 550 350C522.386 350 500 372.386 500 400C500 427.614 522.386 450 550 450Z" fill="black"/>
</g>
</g>
</svg>
