<svg width="1000" height="1000" viewBox="0 0 1000 1000" fill="none" xmlns="http://www.w3.org/2000/svg">
<g id="F1986&#9;N">
<rect width="1000" height="1000" fill="white"/>
<g id="Vector">
<path fill-rule="evenodd" clip-rule="evenodd" d="M500 650C444.772 650 400 694.772 400 750V900C400 927.614 377.614 950 350 950C322.386 950 300 927.614 300 900V750C300 639.543 389.543 550 500 550C610.457 550 700 639.543 700 750V900C700 927.614 677.614 950 650 950C622.386 950 600 927.614 600 900V750C600 694.772 555.228 650 500 650Z" fill="black"/>
<path fill-rule="evenodd" clip-rule="evenodd" d="M500 50C527.614 50 550 72.3858 550 100V450C550 477.614 527.614 500 500 500C472.386 500 450 477.614 450 450V100C450 72.3858 472.386 50 500 50Z" fill="black"/>
</g>
</g>
</svg>
