<svg width="1000" height="500" viewBox="0 0 1000 500" fill="none" xmlns="http://www.w3.org/2000/svg">
<g id="F1980&#9;KIJETE...">
<rect width="1000" height="500" fill="white"/>
<g id="Union">
<path fill-rule="evenodd" clip-rule="evenodd" d="M489.17 146.605C468.762 180.347 458.111 228.663 458.111 283.333C458.111 284.133 458.074 284.925 458 285.706V400.556H479.312C479.148 399.212 478.943 397.757 478.691 396.192C477.538 389.019 475.758 381.588 474.201 375.778C473.434 372.916 472.747 370.542 472.258 368.908C472.015 368.092 471.822 367.466 471.696 367.06C471.662 366.95 471.633 366.857 471.609 366.78L471.559 366.623L471.534 366.544C467.311 353.401 474.537 339.316 487.679 335.09C500.823 330.862 514.908 338.098 519.135 351.242L519.166 351.338L519.229 351.538C519.252 351.61 519.279 351.695 519.309 351.792C519.348 351.914 519.392 352.056 519.442 352.215C519.619 352.786 519.866 353.592 520.167 354.599C520.768 356.61 521.588 359.445 522.496 362.833C524.289 369.523 526.53 378.759 528.057 388.253C529.485 397.134 530.729 408.742 529.062 419.108C528.232 424.271 526.295 431.737 520.972 438.357C514.747 446.099 505.563 450.556 495.333 450.556H437.717C436.19 450.847 434.613 451 433 451C431.387 451 429.81 450.847 428.283 450.556H377.347C349.848 450.556 327.971 441.057 313.819 422.765C300.575 405.647 297 384.49 297 366.444C297 338.836 305.019 313.198 318.391 293.837C331.437 274.947 352.015 259.044 377.365 259.044C387.832 259.044 397.991 258.871 407.449 258.693L408.776 258.668C411.571 207.53 423.306 158.891 446.386 120.729C473.865 75.2934 517.547 45.0003 577.492 45C588.852 45 597.417 51.0789 602.297 58.2567C606.287 64.124 607.717 70.4086 608.376 74.1961C609.651 81.5227 609.644 90.3498 609.64 96.6503V96.6754C609.64 97.0289 609.639 97.3743 609.639 97.7111C609.639 104.071 609.677 108.869 610.012 112.552C635.039 125.944 656.085 137.37 670.923 148.281C686.861 160.001 702.556 176.059 702.556 199.956C702.556 222.239 688.092 240.313 674.988 252.964C663.906 263.662 650.126 273.922 635.889 283.497V425.555C635.889 439.362 624.696 450.556 610.889 450.556C597.082 450.556 585.889 439.362 585.889 425.555V256.338L597.387 248.96C614.967 237.678 629.911 226.983 640.26 216.992C651.555 206.087 652.556 200.606 652.556 199.956C652.556 199.758 652.536 199.688 652.505 199.595C652.462 199.467 652.284 198.986 651.674 198.109C650.308 196.147 647.369 193.023 641.303 188.563C628.808 179.375 609.319 168.882 579.997 153.201C571.838 148.838 567.345 142.027 564.925 136.742C562.538 131.53 561.416 126.218 560.797 122.003C559.634 114.071 559.637 105.098 559.639 98.5309L559.639 97.7111C559.639 97.2474 559.639 96.7958 559.639 96.3558C528.735 101.237 505.807 119.095 489.17 146.605ZM408 400.556L408 308.692C406.364 308.722 404.696 308.753 403 308.783V400.556H408ZM353 391.681V334.504C349.344 343.495 347 354.381 347 366.444C347 378.562 349.483 386.815 353 391.681Z" fill="black"/>
<path d="M613.667 203.334C613.667 215.607 603.718 225.556 591.445 225.556C579.172 225.556 569.223 215.607 569.223 203.334C569.223 191.061 579.172 181.111 591.445 181.111C603.718 181.111 613.667 191.061 613.667 203.334Z" fill="black"/>
<path d="M558 338C571.807 338 583 349.193 583 363V426.111C583 439.918 571.807 451.111 558 451.111C544.193 451.111 533 439.918 533 426.111V363C533 349.193 544.193 338 558 338Z" fill="black"/>
<path d="M544.222 203.334C544.222 215.607 534.273 225.556 522 225.556C509.727 225.556 499.777 215.607 499.777 203.334C499.777 191.061 509.727 181.111 522 181.111C534.273 181.111 544.222 191.061 544.222 203.334Z" fill="black"/>
</g>
</g>
</svg>
