<svg width="1000" height="1000" viewBox="0 0 1000 1000" fill="none" xmlns="http://www.w3.org/2000/svg">
<g id="F1985&#9;LANPAN">
<rect width="1000" height="1000" fill="white"/>
<g id="Vector">
<path fill-rule="evenodd" clip-rule="evenodd" d="M399.809 647.63C537.776 647.63 649.62 535.785 649.62 397.818L649.62 100.004C649.62 77.3595 664.838 57.5419 686.715 51.6978C708.592 45.8536 731.666 55.442 742.958 75.0698L943.331 423.352C957.101 447.288 948.861 477.855 924.926 491.625C900.99 505.396 870.424 497.156 856.653 473.22L749.619 287.176L749.619 397.818C749.619 591.014 593.004 747.63 399.809 747.63C206.615 747.63 50 591.014 50 397.818V100.004C50 72.3896 72.3855 50.0039 99.9995 50.0039C127.614 50.0039 149.999 72.3896 149.999 100.004V397.818C149.999 535.785 261.843 647.63 399.809 647.63Z" fill="black"/>
<path fill-rule="evenodd" clip-rule="evenodd" d="M398.81 950.004C371.196 950.004 348.811 927.618 348.811 900.004V850.035C348.811 822.421 371.196 800.035 398.81 800.035C426.424 800.035 448.81 822.421 448.81 850.035V900.004C448.81 927.618 426.424 950.004 398.81 950.004Z" fill="black"/>
<path fill-rule="evenodd" clip-rule="evenodd" d="M171.937 896.733C146.74 885.435 134.314 855.37 144.183 829.58L163.305 779.612C173.175 753.821 201.602 742.072 226.8 753.369C251.997 764.666 264.423 794.732 254.553 820.522L235.431 870.49C225.562 896.281 197.134 908.03 171.937 896.733Z" fill="black"/>
<path fill-rule="evenodd" clip-rule="evenodd" d="M626.547 896.733C601.349 908.03 572.922 896.281 563.052 870.49L543.93 820.522C534.061 794.732 546.487 764.666 571.684 753.369C596.882 742.072 625.309 753.821 635.178 779.612L654.3 829.58C664.17 855.37 651.744 885.435 626.547 896.733Z" fill="black"/>
</g>
</g>
</svg>
