<svg width="1000" height="500" viewBox="0 0 1000 500" fill="none" xmlns="http://www.w3.org/2000/svg">
<g id="F1982&#9;MESO">
<rect width="1000" height="500" fill="white"/>
<g id="Vector">
<path fill-rule="evenodd" clip-rule="evenodd" d="M365 32.5C385.711 32.5 402.5 49.2893 402.5 70V430C402.5 450.711 385.711 467.5 365 467.5C344.289 467.5 327.5 450.711 327.5 430V70C327.5 49.2893 344.289 32.5 365 32.5Z" fill="black"/>
<path fill-rule="evenodd" clip-rule="evenodd" d="M635 32.5C655.711 32.5 672.5 49.2893 672.5 70V430C672.5 450.711 655.711 467.5 635 467.5C614.289 467.5 597.5 450.711 597.5 430V70C597.5 49.2893 614.289 32.5 635 32.5Z" fill="black"/>
<path d="M550 250C550 277.614 527.614 300 500 300C472.386 300 450 277.614 450 250C450 222.386 472.386 200 500 200C527.614 200 550 222.386 550 250Z" fill="black"/>
</g>
</g>
</svg>
