<svg width="1000" height="1000" viewBox="0 0 1000 1000" fill="none" xmlns="http://www.w3.org/2000/svg">
<g id="F1984&#9;KOKOSILA">
<rect width="1000" height="1000" fill="white"/>
<g id="Union">
<path d="M499.999 50C527.614 50 549.999 72.3858 549.999 100V200C549.999 227.614 527.614 250 499.999 250C472.385 250 449.999 227.614 449.999 200V100C449.999 72.3858 472.385 50 499.999 50Z" fill="black"/>
<path fill-rule="evenodd" clip-rule="evenodd" d="M718.389 394.314C663.681 336.249 586.073 300 499.999 300C334.314 300 199.999 434.315 199.999 600C199.999 643.645 209.319 685.113 226.078 722.522L172.264 758.398C149.288 773.715 143.079 804.759 158.397 827.735C173.715 850.711 204.758 856.92 227.734 841.603L281.61 805.686C336.318 863.751 413.925 900 499.999 900C665.685 900 799.999 765.685 799.999 600C799.999 556.355 790.679 514.887 773.921 477.478L827.734 441.603C850.711 426.285 856.92 395.241 841.602 372.265C826.284 349.289 795.241 343.08 772.264 358.397L718.389 394.314ZM499.999 400C389.543 400 299.999 489.543 299.999 600C299.999 623.069 303.905 645.226 311.092 665.846L633.392 450.979C598.001 419.278 551.252 400 499.999 400ZM688.907 534.154L366.607 749.021C401.998 780.722 448.747 800 499.999 800C610.456 800 699.999 710.457 699.999 600C699.999 576.931 696.094 554.774 688.907 534.154Z" fill="black"/>
<path d="M293.301 141.987C279.494 118.073 248.914 109.879 224.999 123.686C201.085 137.493 192.891 168.073 206.698 191.987L256.698 278.59C270.505 302.504 301.085 310.698 324.999 296.891C348.914 283.084 357.108 252.504 343.301 228.59L293.301 141.987Z" fill="black"/>
<path d="M774.999 123.686C798.914 137.493 807.108 168.073 793.301 191.987L743.301 278.59C729.494 302.504 698.914 310.698 674.999 296.891C651.085 283.084 642.891 252.504 656.698 228.59L706.698 141.987C720.505 118.073 751.085 109.879 774.999 123.686Z" fill="black"/>
</g>
</g>
</svg>
