<svg width="1000" height="1000" viewBox="0 0 1000 1000" fill="none" xmlns="http://www.w3.org/2000/svg">
<g id="F1988&#9;KU">
<rect width="1000" height="1000" fill="white"/>
<g id="Union">
<path d="M700 675C700 716.421 666.421 750 625 750C583.579 750 550 716.421 550 675C550 633.579 583.579 600 625 600C666.421 600 700 633.579 700 675Z" fill="black"/>
<path fill-rule="evenodd" clip-rule="evenodd" d="M798.829 50H200C172.386 50 150 72.3858 150 100V900C150 927.614 172.386 950 200 950H498.92C499.606 950.014 500.295 950.014 500.986 950H800C827.614 950 850 927.614 850 900V550.753C850.007 550.282 850.007 549.811 850 549.341V101.114C850.071 97.9587 849.842 94.769 849.295 91.5844C848.257 85.459 846.104 79.7126 843.054 74.561C839.387 68.3384 834.492 63.1265 828.806 59.1268C822.874 54.9383 815.989 52.0087 808.541 50.7267C805.359 50.1719 802.107 49.923 798.829 50ZM750 458.063V171.778L468.487 275.795L750 458.063ZM750 577.193L433.019 371.961L540.043 850H750V577.193ZM437.567 850L308.707 274.424C303.237 249.99 316.683 225.277 340.17 216.599L520.415 150H250V850H437.567Z" fill="black"/>
</g>
</g>
</svg>
