<svg width="1000" height="500" viewBox="0 0 1000 500" fill="none" xmlns="http://www.w3.org/2000/svg">
<rect width="1000" height="500" fill="white"/>
<path fill-rule="evenodd" clip-rule="evenodd" d="M699.465 261.787C711.058 261.787 722 256.425 729.103 247.262C736.206 238.099 738.671 226.167 735.782 214.94C708.784 110.048 613.611 32.501 500.232 32.501C386.852 32.501 291.679 110.048 264.682 214.94C261.792 226.167 264.258 238.099 271.361 247.262C278.464 256.425 289.405 261.787 300.998 261.787H462.012L462.012 430.001C462.012 450.712 478.802 467.501 499.512 467.501C520.223 467.501 537.012 450.712 537.012 430.001V261.787H699.465ZM643.056 186.787C613.338 139.169 560.455 107.501 500.232 107.501C440.008 107.501 387.126 139.169 357.408 186.787H643.056Z" fill="black"/>
</svg>
