<svg width="1000" height="1000" viewBox="0 0 1000 1000" fill="none" xmlns="http://www.w3.org/2000/svg">
<g id="F1984&#9;KOKOSILA">
<rect width="1000" height="1000" fill="white"/>
<g id="Union">
<path d="M500.001 50C527.615 50 550.001 72.3858 550.001 100V200C550.001 227.614 527.615 250 500.001 250C472.387 250 450.001 227.614 450.001 200V100C450.001 72.3858 472.387 50 500.001 50Z" fill="black"/>
<path fill-rule="evenodd" clip-rule="evenodd" d="M708.587 384.38C654.6 332.144 581.055 300 500.001 300C334.316 300 200.001 434.315 200.001 600C200.001 645.669 210.206 688.956 228.46 727.702L180.437 762.042C157.974 778.104 152.786 809.334 168.848 831.796C184.91 854.259 216.14 859.447 238.602 843.385L285.565 809.803C340.027 865.46 415.98 900 500.001 900C665.686 900 800.001 765.685 800.001 600C800.001 551.396 788.443 505.491 767.924 464.885L819.567 427.957C842.029 411.895 847.218 380.665 831.156 358.203C815.094 335.74 783.863 330.552 761.401 346.614L708.587 384.38ZM500.001 400C389.544 400 300.001 489.543 300.001 600C300.001 623.895 304.191 646.811 311.877 668.053L625.188 444.016C590.919 416.478 547.384 400 500.001 400ZM685.1 524.11L368.378 750.587C403.551 781.356 449.598 800 500.001 800C610.458 800 700.001 710.457 700.001 600C700.001 573.137 694.705 547.511 685.1 524.11Z" fill="black"/>
<path d="M293.303 141.987C279.496 118.073 248.916 109.879 225.001 123.686C201.087 137.493 192.893 168.073 206.7 191.987L256.7 278.59C270.507 302.504 301.087 310.698 325.001 296.891C348.916 283.084 357.11 252.504 343.303 228.59L293.303 141.987Z" fill="black"/>
<path d="M775.001 123.686C798.916 137.493 807.11 168.073 793.303 191.987L743.303 278.59C729.496 302.504 698.916 310.698 675.001 296.891C651.087 283.084 642.893 252.504 656.7 228.59L706.7 141.987C720.507 118.073 751.087 109.879 775.001 123.686Z" fill="black"/>
</g>
</g>
</svg>
