<svg width="1000" height="500" viewBox="0 0 1000 500" fill="none" xmlns="http://www.w3.org/2000/svg">
<g id="F1988&#9;KU">
<rect width="1000" height="500" fill="white"/>
<g id="Group 122">
<g id="Union">
<path d="M592.5 330.001C592.5 349.331 576.83 365.001 557.5 365.001C538.17 365.001 522.5 349.331 522.5 330.001C522.5 310.671 538.17 295.001 557.5 295.001C576.83 295.001 592.5 310.671 592.5 330.001Z" fill="black"/>
<path fill-rule="evenodd" clip-rule="evenodd" d="M634.36 32.501H365C344.289 32.501 327.5 49.2903 327.5 70.001V430.001C327.5 450.712 344.289 467.501 365 467.501H499.217C499.714 467.511 500.212 467.511 500.712 467.501H635C655.711 467.501 672.5 450.712 672.5 430.001V273.368C672.513 272.801 672.513 272.235 672.5 271.67V70.5491C672.559 66.7237 672.035 62.8671 670.897 59.1187C669.592 54.8102 667.533 50.8294 664.874 47.3303C661.523 42.9049 657.345 39.4133 652.699 36.9322C647.061 33.921 640.733 32.3981 634.36 32.501ZM597.5 215.451V138.985L526.699 184.865L597.5 215.451ZM597.5 297.15L499.87 254.974L530.143 392.501H597.5V297.15ZM453.348 392.501L410.877 199.562C407.515 184.29 413.984 168.534 427.107 160.03L508.171 107.501H402.5V392.501H453.348Z" fill="black"/>
</g>
</g>
</g>
</svg>
