<svg width="1000" height="500" viewBox="0 0 1000 500" fill="none" xmlns="http://www.w3.org/2000/svg">
<g id="F1987&#9;MISIKEKE">
<rect width="1000" height="500" fill="white"/>
<g id="Group 121">
<path id="Union" fill-rule="evenodd" clip-rule="evenodd" d="M500 32.5C429.584 32.5 372.5 89.5837 372.5 160V340C372.5 410.416 429.584 467.5 500 467.5C570.416 467.5 627.5 410.416 627.5 340V160C627.5 89.5837 570.416 32.5 500 32.5ZM552.5 212.5V160C552.5 131.005 528.995 107.5 500 107.5C471.005 107.5 447.5 131.005 447.5 160V212.5H552.5ZM447.5 287.5H552.5V340C552.5 368.995 528.995 392.5 500 392.5C471.005 392.5 447.5 368.995 447.5 340V287.5Z" fill="black"/>
</g>
</g>
</svg>
