<svg width="1000" height="1000" viewBox="0 0 1000 1000" fill="none" xmlns="http://www.w3.org/2000/svg">
<g id="F1981&#9;SOKO">
<rect width="1000" height="1000" fill="white"/>
<path id="Union" fill-rule="evenodd" clip-rule="evenodd" d="M901 550C928.614 550 951 527.614 951 500C951 251.472 749.528 50 501 50C252.472 50 51 251.472 51 500C51 527.614 73.3857 550 101 550H450V900C450 927.614 472.386 950 500 950C527.614 950 550 927.614 550 900V550H901ZM501 150C677.324 150 823.194 280.385 847.456 450H154.544C178.806 280.385 324.676 150 501 150Z" fill="black"/>
</g>
</svg>
