<svg width="1000" height="1000" viewBox="0 0 1000 1000" fill="none" xmlns="http://www.w3.org/2000/svg">
<g id="F1984&#9;KOKOSILA">
<rect width="1000" height="1000" fill="white"/>
<g id="Union">
<path d="M500 50C527.614 50 550 72.3858 550 100V150C550 177.614 527.614 200 500 200C472.386 200 450 177.614 450 150V100C450 72.3858 472.386 50 500 50Z" fill="black"/>
<path fill-rule="evenodd" clip-rule="evenodd" d="M165.997 935.704C185.716 955.036 217.373 954.722 236.704 935.003L290.347 880.286C348.783 924.067 421.363 950 500 950C693.3 950 850 793.3 850 600C850 518.871 822.397 444.188 776.069 384.833L835.704 324.003C855.036 304.284 854.722 272.627 835.003 253.296C815.284 233.964 783.627 234.278 764.296 253.997L703.962 315.539C646.534 274.29 576.104 250 500 250C306.7 250 150 406.7 150 600C150 678.595 175.906 751.139 219.644 809.56L165.296 864.997C145.964 884.716 146.278 916.373 165.997 935.704ZM361.231 807.982C400.932 834.524 448.659 850 500 850C638.071 850 750 738.071 750 600C750 546.881 733.433 497.632 705.185 457.137L361.231 807.982ZM632.786 388.141L290.819 736.959C265.011 697.621 250 650.563 250 600C250 461.929 361.929 350 500 350C548.788 350 594.312 363.975 632.786 388.141Z" fill="black"/>
<path d="M736.194 179.328L755.328 133.134C765.896 107.622 753.78 78.3736 728.268 67.806C702.756 57.2385 673.508 69.3536 662.94 94.8658L643.806 141.06C633.238 166.572 645.353 195.82 670.866 206.388C696.378 216.955 725.626 204.84 736.194 179.328Z" fill="black"/>
<path d="M270.866 67.8063C296.378 57.2387 325.626 69.3538 336.194 94.8661L355.328 141.06C365.896 166.572 353.781 195.821 328.268 206.388C302.756 216.956 273.508 204.841 262.94 179.328L243.806 133.134C233.239 107.622 245.354 78.3738 270.866 67.8063Z" fill="black"/>
</g>
</g>
</svg>
