<svg width="1000" height="1000" viewBox="0 0 1000 1000" fill="none" xmlns="http://www.w3.org/2000/svg">
<g id="F1981&#9;SOKO">
<rect width="1000" height="1000" fill="white"/>
<path id="Union" fill-rule="evenodd" clip-rule="evenodd" d="M887.797 500C903.255 500 917.843 492.85 927.314 480.634C936.784 468.417 940.072 452.507 936.219 437.537C886.267 243.46 710.149 100 500.399 100C290.648 100 114.531 243.46 64.5786 437.537C60.7257 452.507 64.0132 468.417 73.4837 480.634C82.9542 492.85 97.5428 500 113 500H449.001L449.001 850C449.001 877.614 471.386 900 499.001 900C526.615 900 549.001 877.614 549.001 850L549.001 500H887.797ZM816.734 400C760.553 281.735 639.975 200 500.399 200C360.822 200 240.244 281.735 184.064 400H816.734Z" fill="black"/>
</g>
</svg>
