<svg width="1000" height="1000" viewBox="0 0 1000 1000" fill="none" xmlns="http://www.w3.org/2000/svg">
<g id="F1983&#9;EPIKU">
<rect width="1000" height="1000" fill="white"/>
<path id="Vector (Stroke)" fill-rule="evenodd" clip-rule="evenodd" d="M499.924 54C527.538 54 549.924 76.3858 549.924 104V287.848C549.924 315.462 527.538 337.848 499.924 337.848C472.31 337.848 449.924 315.462 449.924 287.848V104C449.924 76.3858 472.31 54 499.924 54ZM230.688 109.88C256.2 99.3122 285.449 111.427 296.016 136.94L366.372 306.793C376.939 332.305 364.824 361.553 339.312 372.121C313.8 382.688 284.551 370.573 273.984 345.061L203.628 175.208C193.061 149.696 205.176 120.447 230.688 109.88ZM703.986 136.941C714.553 111.429 743.802 99.3136 769.314 109.881C794.826 120.449 806.941 149.697 796.374 175.209L726.018 345.062C715.451 370.575 686.202 382.69 660.69 372.122C635.178 361.555 623.063 332.306 633.63 306.794L703.986 136.941ZM100 450C127.614 450 150 472.386 150 500C150 693.3 306.7 850 500 850C693.3 850 850 693.3 850 500C850 472.386 872.386 450 900 450C927.614 450 950 472.386 950 500C950 748.528 748.528 950 500 950C251.472 950 50 748.528 50 500C50 472.386 72.3858 450 100 450Z" fill="black"/>
</g>
</svg>
