<svg width="1000" height="1000" viewBox="0 0 1000 1000" fill="none" xmlns="http://www.w3.org/2000/svg">
<g id="F1987&#9;MISIKEKE">
<rect width="1000" height="1000" fill="white"/>
<path id="Union" fill-rule="evenodd" clip-rule="evenodd" d="M500 50C361.929 50 250 161.929 250 300V700C250 838.071 361.929 950 500 950C638.071 950 750 838.071 750 700V300C750 161.929 638.071 50 500 50ZM650 450V300C650 217.157 582.843 150 500 150C417.157 150 350 217.157 350 300V450H650ZM350 550H650V700C650 782.843 582.843 850 500 850C417.157 850 350 782.843 350 700V550Z" fill="black"/>
</g>
</svg>
