<svg width="1000" height="500" viewBox="0 0 1000 500" fill="none" xmlns="http://www.w3.org/2000/svg">
<g id="F1983&#9;EPIKU">
<rect width="1000" height="500" fill="white"/>
<g id="Vector">
<path fill-rule="evenodd" clip-rule="evenodd" d="M500.412 392.5C427.559 392.5 368.5 333.441 368.5 260.588C368.5 239.877 351.711 223.088 331 223.088C310.289 223.088 293.5 239.877 293.5 260.588C293.5 374.862 386.138 467.5 500.412 467.5C614.686 467.5 707.324 374.862 707.324 260.588C707.324 239.877 690.534 223.088 669.824 223.088C649.113 223.088 632.324 239.877 632.324 260.588C632.324 333.441 573.265 392.5 500.412 392.5Z" fill="black"/>
<path fill-rule="evenodd" clip-rule="evenodd" d="M570.222 221.508C589.356 229.434 611.292 220.348 619.218 201.213L649.016 129.276C656.941 110.141 647.855 88.2052 628.721 80.2795C609.587 72.3539 587.65 81.4402 579.725 100.574L549.927 172.512C542.001 191.646 551.088 213.583 570.222 221.508Z" fill="black"/>
<path fill-rule="evenodd" clip-rule="evenodd" d="M372.103 80.2798C391.238 72.3542 413.174 81.4405 421.1 100.575L450.897 172.513C458.823 191.647 449.736 213.583 430.602 221.509C411.468 229.434 389.532 220.348 381.606 201.214L351.809 129.276C343.883 110.142 352.969 88.2055 372.103 80.2798Z" fill="black"/>
<path fill-rule="evenodd" clip-rule="evenodd" d="M500.379 55.3701C521.09 55.3701 537.879 72.1594 537.879 92.8701V170.735C537.879 191.446 521.09 208.235 500.379 208.235C479.669 208.235 462.879 191.446 462.879 170.735V92.8701C462.879 72.1594 479.669 55.3701 500.379 55.3701Z" fill="black"/>
</g>
</g>
</svg>
