<svg width="1000" height="500" viewBox="0 0 1000 500" fill="none" xmlns="http://www.w3.org/2000/svg">
<g id="F1985&#9;LANPAN">
<rect width="1000" height="500" fill="white"/>
<g id="Vector">
<path fill-rule="evenodd" clip-rule="evenodd" d="M545.086 282.5C488.659 282.5 447.67 240.607 447.67 194.582V70.0003C447.67 53.2405 436.549 38.5156 420.429 33.9307C404.308 29.3459 387.103 36.0144 378.283 50.2656L288.114 195.96C277.215 213.57 282.656 236.682 300.267 247.581C317.877 258.481 340.989 253.04 351.888 235.429L372.824 201.602C376.741 290.629 454.845 357.5 545.086 357.5C637.683 357.5 717.501 287.09 717.501 194.582V70.0003C717.501 49.2896 700.712 32.5003 680.001 32.5003C659.291 32.5003 642.501 49.2896 642.501 70.0003V194.582C642.501 240.607 601.512 282.5 545.086 282.5Z" fill="black"/>
<path fill-rule="evenodd" clip-rule="evenodd" d="M545.535 467.5C566.246 467.5 583.035 450.711 583.035 430V407.514C583.035 386.804 566.246 370.014 545.535 370.014C524.825 370.014 508.035 386.804 508.035 407.514V430C508.035 450.711 524.825 467.5 545.535 467.5Z" fill="black"/>
<path fill-rule="evenodd" clip-rule="evenodd" d="M652.99 442.537C671.888 434.065 681.208 411.516 673.806 392.173L665.201 369.687C657.799 350.345 636.478 341.533 617.58 350.005C598.681 358.478 589.362 381.027 596.764 400.37L605.369 422.856C612.771 442.198 634.092 451.01 652.99 442.537Z" fill="black"/>
<path fill-rule="evenodd" clip-rule="evenodd" d="M437.692 442.537C456.59 451.01 477.911 442.198 485.313 422.856L493.918 400.37C501.32 381.027 492.001 358.478 473.102 350.005C454.204 341.533 432.883 350.345 425.481 369.687L416.876 392.173C409.474 411.516 418.793 434.065 437.692 442.537Z" fill="black"/>
</g>
</g>
</svg>
