<svg width="1000" height="500" viewBox="0 0 1000 500" fill="none" xmlns="http://www.w3.org/2000/svg">
<g id="F1986&#9;N">
<rect width="1000" height="500" fill="white"/>
<g id="Vector">
<path fill-rule="evenodd" clip-rule="evenodd" d="M500.5 332.5C483.931 332.5 470.5 345.931 470.5 362.5V430C470.5 450.711 453.711 467.5 433 467.5C412.289 467.5 395.5 450.711 395.5 430V362.5C395.5 304.51 442.51 257.5 500.5 257.5C558.49 257.5 605.5 304.51 605.5 362.5V430C605.5 450.711 588.711 467.5 568 467.5C547.289 467.5 530.5 450.711 530.5 430V362.5C530.5 345.931 517.069 332.5 500.5 332.5Z" fill="black"/>
<path fill-rule="evenodd" clip-rule="evenodd" d="M500.366 32.5002C521.077 32.4263 537.926 49.1555 538 69.8661L538.5 209.866C538.574 230.577 521.844 247.426 501.134 247.5C480.423 247.574 463.574 230.844 463.5 210.134L463 70.1339C462.926 49.4234 479.656 32.5742 500.366 32.5002Z" fill="black"/>
</g>
</g>
</svg>
