<svg width="1000" height="500" viewBox="0 0 1000 500" fill="none" xmlns="http://www.w3.org/2000/svg">
<g id="F1984&#9;KOKOSILA">
<rect width="1000" height="500" fill="white"/>
<g id="Union">
<path d="M500 32.5C520.711 32.5 537.5 49.2893 537.5 70V110C537.5 130.711 520.711 147.5 500 147.5C479.29 147.5 462.5 130.711 462.5 110V70C462.5 49.2893 479.29 32.5 500 32.5Z" fill="black"/>
<path fill-rule="evenodd" clip-rule="evenodd" d="M606.479 193.945C578.444 168.209 541.057 152.5 500 152.5C413.015 152.5 342.5 223.015 342.5 310C342.5 328.848 345.811 346.924 351.883 363.675L335.199 374.798C317.966 386.287 313.31 409.569 324.798 426.801C336.286 444.034 359.569 448.69 376.801 437.202L393.522 426.055C421.557 451.791 458.944 467.5 500 467.5C586.985 467.5 657.5 396.985 657.5 310C657.5 291.152 654.189 273.077 648.118 256.325L664.801 245.202C682.034 233.714 686.69 210.431 675.202 193.199C663.714 175.967 640.431 171.31 623.199 182.798L606.479 193.945ZM500 227.5C454.437 227.5 417.5 264.437 417.5 310C417.5 313.235 417.687 316.427 418.049 319.565L540.356 238.027C528.425 231.323 514.659 227.5 500 227.5ZM581.952 300.435L459.645 381.973C471.575 388.677 485.341 392.5 500 392.5C545.564 392.5 582.5 355.563 582.5 310C582.5 306.765 582.314 303.573 581.952 300.435Z" fill="black"/>
<path d="M409.852 79.4591C397.318 62.9719 373.792 59.7673 357.304 72.3015C340.817 84.8356 337.613 108.362 350.147 124.849L374.147 156.418C386.681 172.906 410.207 176.11 426.694 163.576C443.182 151.042 446.386 127.516 433.852 111.028L409.852 79.4591Z" fill="black"/>
<path d="M642.694 72.3016C659.182 84.8358 662.386 108.362 649.852 124.849L625.852 156.419C613.318 172.906 589.791 176.11 573.304 163.576C556.817 151.042 553.612 127.516 566.147 111.029L590.147 79.4593C602.681 62.9721 626.207 59.7675 642.694 72.3016Z" fill="black"/>
</g>
</g>
</svg>
