<svg width="1000" height="1000" viewBox="0 0 1000 1000" fill="none" xmlns="http://www.w3.org/2000/svg">
<g id="F19A3 POWE">
<rect width="1000" height="1000" fill="white"/>
<g id="Union">
<path d="M435.355 535.355C415.829 554.882 384.171 554.882 364.645 535.355C345.118 515.829 345.118 484.171 364.645 464.645L429.289 400L364.645 335.355C345.118 315.829 345.118 284.171 364.645 264.645C384.171 245.118 415.829 245.118 435.355 264.645L500 329.289L564.645 264.645C584.171 245.118 615.829 245.118 635.355 264.645C654.882 284.171 654.882 315.829 635.355 335.355L570.711 400L635.355 464.645C654.882 484.171 654.882 515.829 635.355 535.355C615.829 554.882 584.171 554.882 564.645 535.355L500 470.711L435.355 535.355Z" fill="black"/>
<path d="M50 700C50 672.386 72.3858 650 100 650H900C927.614 650 950 672.386 950 700C950 727.614 927.614 750 900 750H100C72.3858 750 50 727.614 50 700Z" fill="black"/>
</g>
</g>
</svg>
