<svg width="1000" height="1000" viewBox="0 0 1000 1000" fill="none" xmlns="http://www.w3.org/2000/svg">
<g id="F19A2 MAJUNA">
<rect width="1000" height="1000" fill="white"/>
<g id="Vector">
<path fill-rule="evenodd" clip-rule="evenodd" d="M600 700C600 672.386 622.386 650 650 650H900C927.614 650 950 672.386 950 700C950 727.614 927.614 750 900 750H650C622.386 750 600 727.614 600 700Z" fill="black"/>
<path fill-rule="evenodd" clip-rule="evenodd" d="M500 250C527.614 250 550 272.386 550 300V550C550 577.614 527.614 600 500 600C472.386 600 450 577.614 450 550V300C450 272.386 472.386 250 500 250Z" fill="black"/>
<path fill-rule="evenodd" clip-rule="evenodd" d="M50 700C50 672.386 72.3858 650 100 650H350C377.614 650 400 672.386 400 700C400 727.614 377.614 750 350 750H100C72.3858 750 50 727.614 50 700Z" fill="black"/>
<path fill-rule="evenodd" clip-rule="evenodd" d="M164.645 364.645C184.171 345.118 215.829 345.118 235.355 364.645L435.355 564.645C454.882 584.171 454.882 615.829 435.355 635.355C415.829 654.882 384.171 654.882 364.645 635.355L164.645 435.355C145.118 415.829 145.118 384.171 164.645 364.645Z" fill="black"/>
<path fill-rule="evenodd" clip-rule="evenodd" d="M564.645 635.355C584.171 654.882 615.829 654.882 635.355 635.355L835.355 435.355C854.882 415.829 854.882 384.171 835.355 364.645C815.829 345.118 784.171 345.118 764.645 364.645L564.645 564.645C545.118 584.171 545.118 615.829 564.645 635.355Z" fill="black"/>
</g>
</g>
</svg>
