<svg width="1000" height="500" viewBox="0 0 1000 500" fill="none" xmlns="http://www.w3.org/2000/svg">
<g id="F19A3 POWE">
<rect width="1000" height="500" fill="white"/>
<g id="Union">
<path d="M398.483 73.4835C413.128 58.8388 436.872 58.8388 451.517 73.4835L500 121.967L548.483 73.4835C563.128 58.8388 586.872 58.8388 601.517 73.4835C616.161 88.1282 616.161 111.872 601.517 126.517L553.033 175L601.517 223.483C616.161 238.128 616.161 261.872 601.517 276.517C586.872 291.161 563.128 291.161 548.483 276.517L500 228.033L451.517 276.517C436.872 291.161 413.128 291.161 398.483 276.517C383.839 261.872 383.839 238.128 398.483 223.483L446.967 175L398.483 126.517C383.839 111.872 383.839 88.1282 398.483 73.4835Z" fill="black"/>
<path d="M162.5 400C162.5 379.289 179.289 362.5 200 362.5H800C820.711 362.5 837.5 379.289 837.5 400C837.5 420.711 820.711 437.5 800 437.5H200C179.289 437.5 162.5 420.711 162.5 400Z" fill="black"/>
</g>
</g>
</svg>
