<svg width="1000" height="500" viewBox="0 0 1000 500" fill="none" xmlns="http://www.w3.org/2000/svg">
<g id="F19A1 APEJA">
<rect width="1000" height="500" fill="white"/>
<g id="Vector">
<path fill-rule="evenodd" clip-rule="evenodd" d="M501 392.5C507.904 392.5 513.5 386.904 513.5 380C513.5 373.096 507.904 367.5 501 367.5C494.096 367.5 488.5 373.096 488.5 380C488.5 386.904 494.096 392.5 501 392.5ZM588.5 380C588.5 428.325 549.325 467.5 501 467.5C452.675 467.5 413.5 428.325 413.5 380C413.5 331.675 452.675 292.5 501 292.5C549.325 292.5 588.5 331.675 588.5 380Z" fill="black"/>
<path fill-rule="evenodd" clip-rule="evenodd" d="M353.211 312.407C365.034 329.412 388.403 333.612 405.407 321.789L500.5 255.673L595.593 321.789C612.597 333.612 635.966 329.412 647.789 312.407C659.612 295.403 655.412 272.034 638.407 260.211L521.907 179.211C509.038 170.263 491.962 170.263 479.093 179.211L362.593 260.211C345.588 272.034 341.388 295.403 353.211 312.407Z" fill="black"/>
<path fill-rule="evenodd" clip-rule="evenodd" d="M401 132.5C407.904 132.5 413.5 126.904 413.5 120C413.5 113.096 407.904 107.5 401 107.5C394.096 107.5 388.5 113.096 388.5 120C388.5 126.904 394.096 132.5 401 132.5ZM488.5 120C488.5 168.325 449.325 207.5 401 207.5C352.675 207.5 313.5 168.325 313.5 120C313.5 71.6751 352.675 32.5 401 32.5C449.325 32.5 488.5 71.6751 488.5 120Z" fill="black"/>
<path fill-rule="evenodd" clip-rule="evenodd" d="M600 132.5C606.904 132.5 612.5 126.904 612.5 120C612.5 113.096 606.904 107.5 600 107.5C593.096 107.5 587.5 113.096 587.5 120C587.5 126.904 593.096 132.5 600 132.5ZM687.5 120C687.5 168.325 648.325 207.5 600 207.5C551.675 207.5 512.5 168.325 512.5 120C512.5 71.6751 551.675 32.5 600 32.5C648.325 32.5 687.5 71.6751 687.5 120Z" fill="black"/>
</g>
</g>
</svg>
