<svg width="1000" height="1000" viewBox="0 0 1000 1000" fill="none" xmlns="http://www.w3.org/2000/svg">
<g id="F19A1 APEJA">
<rect width="1000" height="1000" fill="white"/>
<g id="Union">
<path fill-rule="evenodd" clip-rule="evenodd" d="M131 265.5C131 163.603 213.603 81 315.5 81C417.397 81 500 163.603 500 265.5C500 367.397 417.397 450 315.5 450C213.603 450 131 367.397 131 265.5ZM231 265.5C231 218.832 268.832 181 315.5 181C362.168 181 400 218.832 400 265.5C400 312.168 362.168 350 315.5 350C268.832 350 231 312.168 231 265.5Z" fill="black"/>
<path fill-rule="evenodd" clip-rule="evenodd" d="M500 265.5C500 163.603 582.603 81 684.5 81C786.397 81 869 163.603 869 265.5C869 367.397 786.397 450 684.5 450C582.603 450 500 367.397 500 265.5ZM684.5 181C637.832 181 600 218.832 600 265.5C600 312.168 637.832 350 684.5 350C731.168 350 769 312.168 769 265.5C769 218.832 731.168 181 684.5 181Z" fill="black"/>
<path fill-rule="evenodd" clip-rule="evenodd" d="M315 765.5C315 663.603 397.603 581 499.5 581C601.397 581 684 663.603 684 765.5C684 867.397 601.397 950 499.5 950C397.603 950 315 867.397 315 765.5ZM415 765.5C415 718.832 452.832 681 499.5 681C546.168 681 584 718.832 584 765.5C584 812.168 546.168 850 499.5 850C452.832 850 415 812.168 415 765.5Z" fill="black"/>
<path d="M285.355 705.355C265.829 724.882 234.171 724.882 214.645 705.355C195.118 685.829 195.118 654.171 214.645 634.645L464.645 384.645C484.171 365.118 515.829 365.118 535.355 384.645L785.355 634.645C804.882 654.171 804.882 685.829 785.355 705.355C765.829 724.882 734.171 724.882 714.645 705.355L500 490.711L285.355 705.355Z" fill="black"/>
</g>
</g>
</svg>
