<svg width="1000" height="1000" viewBox="0 0 1000 1000" fill="none" xmlns="http://www.w3.org/2000/svg">
<rect width="1000" height="1000" fill="white"/>
<path fill-rule="evenodd" clip-rule="evenodd" d="M499.5 681C452.832 681 415 718.832 415 765.5C415 812.168 452.832 850 499.5 850C546.168 850 584 812.168 584 765.5C584 718.832 546.168 681 499.5 681ZM499.5 581C397.603 581 315 663.603 315 765.5C315 867.397 397.603 950 499.5 950C601.397 950 684 867.397 684 765.5C684 663.603 601.397 581 499.5 581Z" fill="black"/>
<path fill-rule="evenodd" clip-rule="evenodd" d="M315.5 181C268.832 181 231 218.832 231 265.5C231 312.168 268.832 350 315.5 350C362.168 350 400 312.168 400 265.5C400 218.832 362.168 181 315.5 181ZM315.5 81C213.603 81 131 163.603 131 265.5C131 367.397 213.603 450 315.5 450C417.397 450 500 367.397 500 265.5C500 163.603 417.397 81 315.5 81Z" fill="black"/>
<path fill-rule="evenodd" clip-rule="evenodd" d="M684.5 181C637.832 181 600 218.832 600 265.5C600 312.168 637.832 350 684.5 350C731.168 350 769 312.168 769 265.5C769 218.832 731.168 181 684.5 181ZM684.5 81C582.603 81 500 163.603 500 265.5C500 367.397 582.603 450 684.5 450C786.397 450 869 367.397 869 265.5C869 163.603 786.397 81 684.5 81Z" fill="black"/>
<path fill-rule="evenodd" clip-rule="evenodd" d="M210.957 681.235C228.207 702.798 259.672 706.294 281.235 689.043L500 514.031L718.765 689.043C740.328 706.294 771.793 702.798 789.043 681.235C806.294 659.672 802.798 628.207 781.235 610.957L531.235 410.957C512.974 396.348 487.026 396.348 468.765 410.957L218.765 610.957C197.202 628.207 193.706 659.672 210.957 681.235Z" fill="black"/>
</svg>
