<svg width="1000" height="1000" viewBox="0 0 1000 1000" fill="none" xmlns="http://www.w3.org/2000/svg">
<rect width="1000" height="1000" fill="white"/>
<path fill-rule="evenodd" clip-rule="evenodd" d="M650 700C650 672.386 672.386 650 700 650L900 650C927.614 650 950 672.386 950 700C950 727.614 927.614 750 900 750L700 750C672.386 750 650 727.614 650 700Z" fill="black"/>
<path fill-rule="evenodd" clip-rule="evenodd" d="M500 250C527.614 250 550 272.386 550 300V500C550 527.614 527.614 550 500 550C472.386 550 450 527.614 450 500V300C450 272.386 472.386 250 500 250Z" fill="black"/>
<path fill-rule="evenodd" clip-rule="evenodd" d="M50 700C50 672.386 72.3858 650 100 650H300C327.614 650 350 672.386 350 700C350 727.614 327.614 750 300 750H100C72.3858 750 50 727.614 50 700Z" fill="black"/>
<path fill-rule="evenodd" clip-rule="evenodd" d="M164.645 364.645C184.171 345.118 215.829 345.118 235.355 364.645L385.355 514.645C404.882 534.171 404.882 565.829 385.355 585.355C365.829 604.882 334.171 604.882 314.645 585.355L164.645 435.355C145.118 415.829 145.118 384.171 164.645 364.645Z" fill="black"/>
<path fill-rule="evenodd" clip-rule="evenodd" d="M614.645 585.355C634.171 604.882 665.829 604.882 685.355 585.355L835.355 435.355C854.882 415.829 854.882 384.171 835.355 364.645C815.829 345.118 784.171 345.118 764.645 364.645L614.645 514.645C595.118 534.171 595.118 565.829 614.645 585.355Z" fill="black"/>
</svg>
