<svg width="1000" height="500" viewBox="0 0 1000 500" fill="none" xmlns="http://www.w3.org/2000/svg">
<g id="F19A2 MAJUNA">
<rect width="1000" height="500" fill="white"/>
<g id="Vector">
<path fill-rule="evenodd" clip-rule="evenodd" d="M612.5 400C612.5 379.289 629.289 362.5 650 362.5L800 362.5C820.711 362.5 837.5 379.289 837.5 400C837.5 420.711 820.711 437.5 800 437.5L650 437.5C629.289 437.5 612.5 420.711 612.5 400Z" fill="black"/>
<path fill-rule="evenodd" clip-rule="evenodd" d="M500 62.5C520.711 62.5 537.5 79.2893 537.5 100V250C537.5 270.711 520.711 287.5 500 287.5C479.289 287.5 462.5 270.711 462.5 250V100C462.5 79.2893 479.289 62.5 500 62.5Z" fill="black"/>
<path fill-rule="evenodd" clip-rule="evenodd" d="M162.5 400C162.5 379.289 179.289 362.5 200 362.5H350C370.711 362.5 387.5 379.289 387.5 400C387.5 420.711 370.711 437.5 350 437.5H200C179.289 437.5 162.5 420.711 162.5 400Z" fill="black"/>
<path fill-rule="evenodd" clip-rule="evenodd" d="M248.483 148.483C263.128 133.839 286.872 133.839 301.516 148.483L414.016 260.983C428.661 275.628 428.661 299.372 414.016 314.016C399.372 328.661 375.628 328.661 360.983 314.016L248.483 201.516C233.839 186.872 233.839 163.128 248.483 148.483Z" fill="black"/>
<path fill-rule="evenodd" clip-rule="evenodd" d="M585.983 314.017C600.628 328.661 624.372 328.661 639.016 314.017L751.516 201.517C766.161 186.872 766.161 163.128 751.516 148.484C736.872 133.839 713.128 133.839 698.483 148.484L585.983 260.983C571.339 275.628 571.339 299.372 585.983 314.017Z" fill="black"/>
</g>
</g>
</svg>
