<svg width="1000" height="1000" viewBox="0 0 1000 1000" fill="none" xmlns="http://www.w3.org/2000/svg">
<g id="F19E2&#9;COMBINING CARTOUCHE EXTENSION">
<rect width="1000" height="1000" fill="white"/>
<g id="Vector">
<path fill-rule="evenodd" clip-rule="evenodd" d="M0 50C0 22.3858 22.3858 0 50 0H950C977.614 0 1000 22.3858 1000 50C1000 77.6142 977.614 100 950 100H50C22.3858 100 0 77.6142 0 50Z" fill="black"/>
<path fill-rule="evenodd" clip-rule="evenodd" d="M0 950C0 922.386 22.3858 900 50 900H950C977.614 900 1000 922.386 1000 950C1000 977.614 977.614 1000 950 1000H50C22.3858 1000 0 977.614 0 950Z" fill="black"/>
</g>
</g>
</svg>
