<svg width="1000" height="1000" viewBox="0 0 1000 1000" fill="none" xmlns="http://www.w3.org/2000/svg">
<rect width="1000" height="1000" fill="white"/>
<path d="M250 300C277.614 300 300 322.386 300 350V500H700V350C700 322.386 722.386 300 750 300C777.614 300 800 322.386 800 350V550C800 577.614 777.614 600 750 600H250C222.386 600 200 577.614 200 550V350C200 322.386 222.386 300 250 300Z" fill="black"/>
<path d="M500 849C555.228 849 600 804.228 600 749C600 693.772 555.228 649 500 649C444.772 649 400 693.772 400 749C400 804.228 444.772 849 500 849Z" fill="black"/>
<path fill-rule="evenodd" clip-rule="evenodd" d="M380 280V320H370C342.386 320 320 342.386 320 370C320 397.614 342.386 420 370 420H381C385.633 442.822 405.81 460 430 460C454.19 460 474.367 442.822 479 420H521C525.633 442.822 545.81 460 570 460C594.19 460 614.367 442.822 619 420H630C657.614 420 680 397.614 680 370C680 342.386 657.614 320 630 320H620V280H630C657.614 280 680 257.614 680 230C680 202.386 657.614 180 630 180H619C614.367 157.178 594.19 140 570 140C545.81 140 525.633 157.178 521 180H479C474.367 157.178 454.19 140 430 140C405.81 140 385.633 157.178 381 180H370C342.386 180 320 202.386 320 230C320 257.614 342.386 280 370 280H380ZM520 280H480V320H520V280Z" fill="black"/>
<path fill-rule="evenodd" clip-rule="evenodd" d="M145.031 852.132C55.381 761.764 0 637.35 0 500C0 223.858 223.858 0 500 0C776.142 0 1000 223.858 1000 500C1000 776.142 776.142 1000 500 1000C423.521 1000 351.052 982.829 286.238 952.132H99.9997C72.3855 952.132 49.9997 929.746 49.9997 902.132C49.9997 874.518 72.3855 852.132 99.9997 852.132H145.031ZM900 500C900 720.914 720.914 900 500 900C451.549 900 405.111 891.386 362.132 875.605V690C362.132 662.386 339.746 640 312.132 640C284.518 640 262.132 662.386 262.132 690V821.62C163.765 748.747 100 631.82 100 500C100 279.086 279.086 100 500 100C720.914 100 900 279.086 900 500Z" fill="black"/>
</svg>
