<svg width="1000" height="1000" viewBox="0 0 1000 1000" fill="none" xmlns="http://www.w3.org/2000/svg">
<rect width="1000" height="1000" fill="white"/>
<path fill-rule="evenodd" clip-rule="evenodd" d="M204.052 296.978C213.815 306.741 213.815 322.57 204.052 332.333C196.449 339.936 185.166 341.618 175.935 337.379C151.345 386.286 137.5 441.526 137.5 500V900C137.5 920.711 120.71 937.5 99.9996 937.5C79.289 937.5 62.4996 920.711 62.4996 900V500C62.4996 420.006 83.9687 345.026 121.459 280.509C92.2003 245.132 68.9666 209.886 53.5401 177.923C42.0939 154.207 34.315 131.008 32.3131 110.129C30.3316 89.4649 33.7812 67.1414 49.9607 50.962C66.1401 34.7826 88.4635 31.3329 109.128 33.3144C130.006 35.3164 153.205 43.0952 176.922 54.5415C208.795 69.9249 243.934 93.0722 279.212 122.216C344.02 84.258 419.469 62.5 500 62.5C580.51 62.5 655.942 84.2473 720.74 122.188C756.006 93.0573 791.132 69.92 822.996 54.5415C846.712 43.0952 869.911 35.3164 890.789 33.3144C911.454 31.3329 933.777 34.7826 949.957 50.962C966.136 67.1414 969.586 89.4649 967.604 110.129C965.602 131.008 957.823 154.207 946.377 177.923C930.959 209.868 907.742 245.093 878.506 280.45C916.018 344.981 937.5 419.982 937.5 500V900C937.5 920.711 920.71 937.5 900 937.5C879.289 937.5 862.5 920.711 862.5 900V500C862.5 441.514 848.649 386.263 824.049 337.348C814.805 341.626 803.487 339.955 795.865 332.333C786.102 322.57 786.102 306.741 795.865 296.978C796.756 296.086 797.644 295.194 798.527 294.302C773.728 258.379 742.612 227.152 706.785 202.226C705.836 203.164 704.888 204.106 703.941 205.054C694.178 214.817 678.349 214.817 668.586 205.054C660.863 197.331 659.249 185.812 663.744 176.503C614.56 151.558 558.922 137.5 500 137.5C441.051 137.5 385.389 151.571 336.189 176.536C340.664 185.84 339.045 197.34 331.332 205.054C321.568 214.817 305.739 214.817 295.976 205.054C295.04 204.118 294.104 203.186 293.167 202.259C257.343 227.192 226.232 258.424 201.439 294.35C202.306 295.227 203.177 296.102 204.052 296.978ZM150.464 236.841C174.797 204.571 203.496 175.779 235.682 151.341C207.145 128.895 179.586 111.346 155.188 99.5712C134.385 89.5304 117.162 84.3141 104.355 83.0861C91.335 81.8376 86.7102 84.9232 85.316 86.3173C83.9218 87.7115 80.8363 92.3363 82.0848 105.357C83.3128 118.163 88.5291 135.386 98.5699 156.19C110.367 180.633 127.959 208.248 150.464 236.841ZM901.347 156.19C889.558 180.617 871.98 208.214 849.495 236.787C825.16 204.526 796.461 175.741 764.276 151.309C792.798 128.879 820.342 111.341 844.729 99.5712C865.533 89.5304 882.755 84.3141 895.562 83.0861C908.582 81.8376 913.207 84.9232 914.601 86.3173C915.995 87.7115 919.081 92.3363 917.832 105.357C916.604 118.163 911.388 135.386 901.347 156.19Z" fill="black"/>
<path d="M320 580C333.807 580 345 591.193 345 605C345 640.899 374.101 670 410 670C445.898 670 475 640.899 475 605C475 591.193 486.193 580 500 580C513.807 580 525 591.193 525 605C525 640.899 554.101 670 590 670C625.898 670 655 640.899 655 605C655 591.193 666.193 580 680 580C693.807 580 705 591.193 705 605C705 668.513 653.512 720 590 720C553.555 720 521.069 703.047 500 676.596C478.93 703.047 446.445 720 410 720C346.487 720 295 668.513 295 605C295 591.193 306.193 580 320 580Z" fill="black"/>
<path fill-rule="evenodd" clip-rule="evenodd" d="M401.651 347.5C397.185 339.765 388.932 335 380.001 335C371.069 335 362.816 339.765 358.35 347.5L313.605 425H302.224C288.417 425 277.224 436.193 277.224 450C277.224 458.304 281.273 465.662 287.504 470.209L271.747 497.5C267.282 505.235 267.282 514.765 271.747 522.5C276.213 530.235 284.466 535 293.398 535H466.603C475.535 535 483.788 530.235 488.254 522.5C492.72 514.765 492.72 505.235 488.254 497.5L472.498 470.21C478.73 465.664 482.78 458.305 482.78 450C482.78 436.193 471.587 425 457.78 425H446.396L401.651 347.5ZM423.302 485L417.528 475H342.473L336.699 485H423.302ZM380.001 410L388.661 425H371.34L380.001 410Z" fill="black"/>
<path fill-rule="evenodd" clip-rule="evenodd" d="M641.651 347.5C637.185 339.765 628.932 335 620.001 335C611.069 335 602.816 339.765 598.35 347.5L553.605 425H542.224C528.417 425 517.224 436.193 517.224 450C517.224 458.304 521.273 465.662 527.504 470.209L511.747 497.5C507.282 505.235 507.282 514.765 511.747 522.5C516.213 530.235 524.466 535 533.398 535H706.603C715.535 535 723.788 530.235 728.254 522.5C732.72 514.765 732.72 505.235 728.254 497.5L712.498 470.21C718.73 465.664 722.78 458.305 722.78 450C722.78 436.193 711.587 425 697.78 425H686.396L641.651 347.5ZM576.699 485L582.473 475H657.528L663.302 485H576.699ZM620.001 410L611.34 425H628.661L620.001 410Z" fill="black"/>
<path fill-rule="evenodd" clip-rule="evenodd" d="M162.5 530C162.5 343.604 313.604 192.5 500 192.5C686.396 192.5 837.5 343.604 837.5 530C837.5 716.396 686.396 867.5 500 867.5C313.604 867.5 162.5 716.396 162.5 530ZM500 267.5C355.025 267.5 237.5 385.025 237.5 530C237.5 674.975 355.025 792.5 500 792.5C644.974 792.5 762.5 674.975 762.5 530C762.5 385.025 644.974 267.5 500 267.5Z" fill="black"/>
</svg>
