<svg width="1000" height="1000" viewBox="0 0 1000 1000" fill="none" xmlns="http://www.w3.org/2000/svg">
<rect width="1000" height="1000" fill="white"/>
<path d="M561 462.589C588.614 462.589 611 440.203 611 412.589C611 384.975 588.614 362.589 561 362.589C533.386 362.589 511 384.975 511 412.589C511 440.203 533.386 462.589 561 462.589Z" fill="black"/>
<path d="M757.25 412.589C757.25 440.203 734.864 462.589 707.25 462.589C679.636 462.589 657.25 440.203 657.25 412.589C657.25 384.975 679.636 362.589 707.25 362.589C734.864 362.589 757.25 384.975 757.25 412.589Z" fill="black"/>
<path fill-rule="evenodd" clip-rule="evenodd" d="M809.286 222.702C803.341 228.964 796.779 234.704 789.796 239.966C790.449 240.129 791.109 240.292 791.774 240.455C816.997 246.622 848.077 251.841 886.626 257.58C900.706 259.676 912.964 268.31 919.679 280.862C926.394 293.414 926.774 308.403 920.703 321.279C816.086 543.18 857.383 772.744 888.366 884.574C895.002 908.525 880.966 933.32 857.015 939.955C833.064 946.591 808.269 932.555 801.634 908.604C793.64 879.752 784.786 842.914 777.636 800.083L753.25 814.162V908.665C753.25 919.383 747.532 929.287 738.25 934.646C728.968 940.005 717.532 940.005 708.25 934.646L626.408 887.395L547.946 932.695C546.973 933.308 545.976 933.884 544.955 934.422L544.566 934.646C541.878 936.198 539.01 937.3 536.066 937.953C531.994 939.085 527.688 939.657 523.247 939.583L521.899 939.561C521.01 939.546 519.698 939.525 518.011 939.497C516.899 939.479 515.624 939.459 514.199 939.436L503.755 939.271C491.745 939.084 475.233 938.834 457.219 938.585C421.073 938.084 379.259 937.589 355.5 937.589H245.531C193.072 937.589 148.278 927.661 116.941 899.392C84.3198 869.965 76.0016 829.701 76 792.591C75.9979 745.195 99.471 707.537 132.287 683.102C164.271 659.287 205.213 647.589 245.571 647.589C249.679 647.589 253.785 647.6 257.87 647.612C281.455 647.677 304.336 647.741 322.583 645.593C302.643 503.18 328.97 373.158 388.502 275.695C389.068 274.769 389.636 273.847 390.207 272.927C375.012 266.058 360.531 257.516 348.063 246.874C329.309 230.866 311.001 206.235 309.266 173.132C307.531 140.029 323.165 113.62 340.142 95.7391C356.993 77.9919 378.798 64.4304 401.104 54.0957C446.038 33.2778 504.808 20.1262 567.253 16.8536C629.698 13.581 689.521 20.5174 736.385 36.5244C759.65 44.4708 782.752 55.6788 801.366 71.5674C820.12 87.5756 838.428 112.206 840.163 145.309C841.898 178.412 826.264 204.821 809.286 222.702ZM780.245 148.449C781.409 170.65 760.592 191.947 725.796 208.635C724.168 206.238 722.91 203.724 721.886 201.027C718.551 192.25 716.405 177.995 718.781 154.027C720.034 141.382 715.882 128.797 707.352 119.379C698.821 109.961 686.707 104.589 674 104.589C575.479 104.589 489.353 149.813 426.63 223.063C392.02 210.14 370.315 191.576 369.184 169.992C366.797 124.457 456.882 82.7202 570.393 76.7713C683.905 70.8224 777.859 102.914 780.245 148.449ZM482.067 297.752C476.209 305.628 470.616 313.918 465.308 322.609C417.294 401.214 393.52 511.973 412.563 638.977C412.731 639.74 412.877 640.513 413.002 641.294C416.801 665.134 421.124 688.51 425.627 710.705L499.566 668.016V573.513C499.566 562.795 505.284 552.892 514.566 547.533C523.848 542.174 535.284 542.174 544.566 547.533L626.408 594.784L708.25 547.533C717.532 542.174 728.968 542.174 738.25 547.533C747.532 552.892 753.25 562.795 753.25 573.513V668.016L764.47 674.494C760.243 573.319 771.11 456 816.155 337.379C799.823 334.446 784.533 331.336 770.398 327.879C741.031 320.699 713.591 311.333 690.764 296.795C686.457 294.052 682.326 291.132 678.386 288.025C648.446 295.186 615.845 299.823 582.176 301.588C547.397 303.41 513.432 302.066 482.067 297.752ZM638.54 235.011C619.77 238.297 599.794 240.582 579.035 241.67C564.441 242.435 550.171 242.571 536.376 242.13C564.558 220.571 595.972 205.964 629.405 199.095C630.947 210.845 633.642 222.172 637.755 232.994C638.012 233.671 638.273 234.343 638.54 235.011ZM446.789 803.635C444.945 796.309 443.031 788.542 441.076 780.393L499.566 814.162V849.195C488.258 849.021 474.005 848.809 458.652 848.596C455.431 836.955 451.329 821.665 446.789 803.635ZM566.408 852.754L559.566 856.704V848.803L566.408 852.754ZM559.566 779.521L626.408 818.113L693.25 779.521V702.657L626.408 664.066L559.566 702.657V779.521ZM686.408 852.754L693.25 856.704V848.803L686.408 852.754ZM759.816 741.089L753.25 744.88V737.298L759.816 741.089ZM693.25 625.475V633.375L686.408 629.425L693.25 625.475ZM559.566 625.475L566.408 629.425L559.566 633.375V625.475ZM493 741.089L499.566 744.88V737.298L493 741.089ZM369.211 823.169C371.432 831.991 373.554 840.189 375.53 847.667C368.066 847.617 361.283 847.589 355.5 847.589H301L301 737.207C313.131 736.792 325.228 736.016 336.219 734.591C340.037 734.095 344.165 733.476 348.461 732.659C355.459 766.612 362.768 797.579 369.211 823.169ZM221 740.166C207.207 743.137 195.158 748.498 186.037 755.288C172.649 765.258 165.999 777.599 166 792.587C166.001 817.848 171.703 827.584 177.224 832.565C182.59 837.404 194.585 843.952 221 846.506L221 740.166Z" fill="black"/>
<path fill-rule="evenodd" clip-rule="evenodd" d="M686.408 852.754L693.25 856.704V848.803L686.408 852.754Z" fill="black"/>
</svg>
