<svg width="1000" height="1000" viewBox="0 0 1000 1000" fill="none" xmlns="http://www.w3.org/2000/svg">
<rect width="1000" height="1000" fill="white"/>
<path d="M708.75 507.589C746.029 507.589 776.25 477.368 776.25 440.089C776.25 402.81 746.029 372.589 708.75 372.589C671.471 372.589 641.25 402.81 641.25 440.089C641.25 477.368 671.471 507.589 708.75 507.589Z" fill="black"/>
<path d="M610 440.089C610 477.368 579.779 507.589 542.5 507.589C505.221 507.589 475 477.368 475 440.089C475 402.81 505.221 372.589 542.5 372.589C579.779 372.589 610 402.81 610 440.089Z" fill="black"/>
<path fill-rule="evenodd" clip-rule="evenodd" d="M789.796 239.966C796.78 234.705 803.342 228.964 809.287 222.702C826.265 204.821 841.899 178.412 840.164 145.309C838.429 112.206 820.12 87.5756 801.367 71.5674C782.753 55.6788 759.651 44.4708 736.386 36.5244C689.522 20.5174 629.699 13.581 567.254 16.8536C504.809 20.1262 446.039 33.2778 401.105 54.0957C378.799 64.4304 356.994 77.9919 340.143 95.7391C323.166 113.62 307.532 140.029 309.267 173.132C311.002 206.235 329.31 230.866 348.064 246.874C360.531 257.516 375.013 266.058 390.207 272.927C389.636 273.847 389.068 274.769 388.502 275.695C328.97 373.158 302.643 503.18 322.583 645.593C304.336 647.741 281.455 647.677 257.87 647.612C253.785 647.6 249.679 647.589 245.571 647.589C205.213 647.589 164.271 659.287 132.287 683.102C99.471 707.537 75.9979 745.195 76 792.591C76.0016 829.701 84.3198 869.965 116.941 899.392C148.278 927.661 193.072 937.589 245.531 937.589H355.5C379.259 937.589 421.073 938.084 457.219 938.585C475.233 938.834 491.745 939.084 503.755 939.271L514.199 939.436C515.624 939.459 516.899 939.479 518.011 939.497C519.698 939.525 521.01 939.546 521.899 939.561L523.231 939.582C527.643 939.656 531.918 939.092 535.967 937.975C538.946 937.325 541.848 936.215 544.566 934.646L545.139 934.315C546.029 933.841 546.901 933.337 547.755 932.805L626.408 887.395L708.25 934.646C717.532 940.005 728.968 940.005 738.25 934.646C747.532 929.287 753.25 919.383 753.25 908.665V814.162L777.636 800.083C784.786 842.914 793.64 879.752 801.634 908.604C808.269 932.555 833.064 946.591 857.015 939.955C880.966 933.32 895.002 908.525 888.366 884.574C857.383 772.744 816.086 543.18 920.703 321.279C926.774 308.403 926.394 293.414 919.679 280.862C912.964 268.31 900.706 259.676 886.626 257.58C848.077 251.841 816.997 246.622 791.774 240.455C791.109 240.292 790.45 240.129 789.796 239.966ZM725.796 208.635C760.592 191.948 781.41 170.65 780.246 148.449C777.86 102.914 683.906 70.8224 570.394 76.7713C456.883 82.7202 366.798 124.457 369.185 169.992C370.316 191.576 392.021 210.14 426.63 223.063C489.353 149.813 575.479 104.589 674 104.589C686.707 104.589 698.821 109.961 707.352 119.379C715.882 128.797 720.034 141.382 718.781 154.027C716.405 177.995 718.551 192.25 721.886 201.027C722.911 203.724 724.168 206.238 725.796 208.635ZM482.067 297.752C476.209 305.628 470.616 313.918 465.308 322.609C418.077 399.932 394.302 508.369 411.666 632.777C412.735 635.467 413.527 638.316 414.002 641.294C417.771 664.949 422.057 688.147 426.522 710.188L499.566 668.016V573.513C499.566 562.795 505.284 552.892 514.566 547.533C523.848 542.174 535.284 542.174 544.566 547.533L626.408 594.784L708.25 547.533C717.532 542.174 728.968 542.174 738.25 547.533C747.532 552.892 753.25 562.795 753.25 573.513V668.016L764.47 674.494C760.243 573.319 771.11 456 816.155 337.379C799.823 334.446 784.533 331.336 770.398 327.879C741.031 320.699 713.591 311.333 690.764 296.795C686.457 294.052 682.327 291.132 678.387 288.025C648.447 295.186 615.846 299.823 582.177 301.588C547.398 303.41 513.433 302.066 482.067 297.752ZM638.54 235.011C619.77 238.297 599.795 240.582 579.036 241.67C564.442 242.435 550.171 242.571 536.376 242.13C564.558 220.571 595.972 205.964 629.405 199.095C630.947 210.845 633.642 222.172 637.755 232.994C638.012 233.671 638.273 234.343 638.54 235.011ZM447.789 803.635C445.995 796.51 444.136 788.968 442.237 781.063L499.566 814.162V849.195C488.505 849.025 474.626 848.818 459.656 848.61C456.434 836.968 452.331 821.673 447.789 803.635ZM566.408 852.754L559.566 856.704V848.803L566.408 852.754ZM559.566 779.521L626.408 818.113L693.25 779.521V702.657L626.408 664.066L559.566 702.657V779.521ZM686.408 852.754L693.25 856.704V848.803L686.408 852.754ZM759.816 741.089L753.25 744.88V737.298L759.816 741.089ZM693.25 625.475V633.375L686.408 629.425L693.25 625.475ZM559.566 625.475L566.408 629.425L559.566 633.375V625.475ZM493 741.089L499.566 744.88V737.298L493 741.089ZM336.219 734.591C340.321 734.059 344.781 733.383 349.422 732.474C356.432 766.499 363.756 797.533 370.211 823.169C372.433 831.994 374.556 840.194 376.532 847.674C368.673 847.62 361.54 847.589 355.5 847.589H301L301 737.207C313.131 736.792 325.228 736.016 336.219 734.591ZM221 846.506L221 740.166C207.207 743.137 195.158 748.498 186.037 755.288C172.649 765.258 165.999 777.599 166 792.587C166.001 817.848 171.703 827.584 177.224 832.565C182.59 837.404 194.585 843.952 221 846.506Z" fill="black"/>
</svg>
