<svg width="1000" height="1000" viewBox="0 0 1000 1000" fill="none" xmlns="http://www.w3.org/2000/svg">
<rect width="1000" height="1000" fill="white"/>
<path fill-rule="evenodd" clip-rule="evenodd" d="M200 50C172.386 50 150 72.3858 150 100V399.817C150 399.942 150 400.067 150 400.192V900C150 927.614 172.386 950 200 950H649.055C649.643 950.01 650.233 950.01 650.825 950H800C827.614 950 850 927.614 850 900V301.102C850.017 300.349 850.017 299.598 850 298.848V100C850 72.3858 827.614 50 800 50H200ZM750 234.663V150H250V278.253C318.511 228.099 396.951 206.107 476.73 201.279C568.822 195.706 663.893 212.836 750 234.663ZM250 464.753V850H589.832C565.889 735.125 532.419 655.434 481.084 596.633C430.898 539.147 359.444 496.913 250 464.753ZM691.827 850H750V338.024C660.773 314.1 568.358 295.917 482.77 301.096C411.618 305.402 346.426 325.681 291.622 372.856C405.811 408.117 492.193 457.302 556.416 530.867C627.086 611.817 666.138 716.916 691.827 850Z" fill="black"/>
</svg>
